<?xml version="1.0" encoding="UTF-8"?>
<svg width="68px" height="95px" viewBox="0 0 68 95" version="1.1" xmlns="http://www.w3.org/2000/svg" xmlns:xlink="http://www.w3.org/1999/xlink">
    <!-- Generator: Sketch 50.2 (55047) - http://www.bohemiancoding.com/sketch -->
    <title>001-scientist</title>
    <desc>Created with Sketch.</desc>
    <defs></defs>
    <g id="Page-2" stroke="none" stroke-width="1" fill="none" fill-rule="evenodd">
        <g id="Microsoft-Surface-Hub" transform="translate(-331.000000, -103.000000)" fill-rule="nonzero">
            <g id="cm" transform="translate(260.000000, 61.000000)">
                <g id="001-scientist" transform="translate(71.000000, 42.000000)">
                    <path d="M60.7503521,29.0126341 C60.7503521,26.3159128 59.343804,23.9591401 57.2324596,22.6039195 C58.3832717,20.3736746 58.4258944,17.6281716 57.0787136,15.2927409 C55.7315327,12.9573102 53.337052,11.6203828 50.8329702,11.5045259 C50.7172801,8.99683433 49.3822772,6.59737745 47.0502083,5.24825462 C44.7181393,3.89913179 41.9765883,3.94181591 39.7495538,5.09428693 C38.3962841,2.98142338 36.0429038,1.57284768 33.3500644,1.57284768 C30.657225,1.57284768 28.3038448,2.98142338 26.950575,5.09581137 C24.7235405,3.94334034 21.9819895,3.90065623 19.6499206,5.24825462 C17.3178517,6.59585302 15.9828488,8.9953099 15.8671587,11.5030015 C13.3630768,11.6203828 10.9670739,12.9573102 9.6214153,15.2927409 C8.27423449,17.6281716 8.31685716,20.3736746 9.46766924,22.6039195 C7.35632485,23.9591401 5.94977675,26.3159128 5.94977675,29.0126341 C5.94977675,31.7093553 7.35632485,34.066128 9.46766924,35.4213486 C8.31685716,37.6515935 8.27423449,40.3970965 9.6214153,42.7325272 C10.9685961,45.067958 13.3630768,46.4048853 15.8671587,46.5207422 C15.9828488,49.0284338 17.3178517,51.4278907 19.6499206,52.7754891 C21.0884357,53.6078292 22.6837413,53.9096669 24.2166352,53.7496015 L42.4834937,53.7496015 C44.0163875,53.9111913 45.6116932,53.6078292 47.0502083,52.7754891 C49.3822772,51.4263662 50.7172801,49.0284338 50.8329702,46.5207422 C53.337052,46.4048853 55.733055,45.067958 57.0787136,42.7325272 C58.4258944,40.3970965 58.3832717,37.6515935 57.2324596,35.4213486 C59.343804,34.066128 60.7503521,31.7093553 60.7503521,29.0126341 Z" id="Shape" fill="#D3A06C"></path>
                    <rect id="Rectangle-path" fill="#F9E0A6" x="24.4253993" y="49.0728477" width="18.4756225" height="18.5596026"></rect>
                    <path d="M58.67303,60.934793 L42.6326109,56.6225166 C42.6326109,56.6225166 39.5906197,61.223096 33.5066375,61.223096 C27.4226553,61.223096 24.3806641,56.6225166 24.3806641,56.6225166 L8.34024495,60.934793 C4.34611061,62.0097951 1.56573072,65.6565211 1.56573072,69.8261796 L1.56573072,93.4271523 L65.4475443,93.4271523 L65.4475443,69.8261796 C65.4475443,65.6565211 62.6671644,62.0097951 58.67303,60.934793 Z" id="Shape" fill="#ECECEC"></path>
                    <path d="M58.590009,61.0245511 L47.9080199,58.1953642 L46.9719217,62.8413479 L54.1820334,66.4229456 C57.3121118,67.9767045 59.2890034,71.1545696 59.2890034,74.6291169 L59.2890034,93.4271523 L65.4475443,93.4271523 L65.4475443,69.8913758 C65.4475443,65.7332357 62.6330911,62.0965836 58.590009,61.0245511 Z" id="Shape" fill="#B6C1CE"></path>
                    <path d="M33.6632106,61.223096 C27.5046697,61.223096 24.4253993,56.6225166 24.4253993,56.6225166 L33.6632106,93.4271523 L42.9010218,56.6225166 C42.9010218,56.6225166 39.8217514,61.223096 33.6632106,61.223096 Z" id="Shape" fill="#48C397"></path>
                    <path d="M24.4253993,54.171894 C27.1459347,55.7210861 30.2960284,56.6225166 33.6632106,56.6225166 C37.0303928,56.6225166 40.1804864,55.7210861 42.9010218,54.171894 L42.9010218,49.0728477 L24.4253993,49.0728477 L24.4253993,54.171894 Z" id="Shape" fill="#EABD8C"></path>
                    <g id="Group" transform="translate(12.212700, 22.963576)" fill="#F9E0A6">
                        <path d="M6.08398224,0 L6.08398224,15.2566225 C6.08398224,23.6828551 12.8934794,30.513245 21.2939379,30.513245 C29.6943963,30.513245 36.5038935,23.6828551 36.5038935,15.2566225 L36.5038935,0 L6.08398224,0 Z" id="Shape"></path>
                        <path d="M6.08398224,6.10264901 C2.72410305,6.10264901 0,8.8351101 0,12.205298 C0,15.5754859 2.72410305,18.307947 6.08398224,18.307947 L36.5038935,18.307947 C39.8637727,18.307947 42.5878757,15.5754859 42.5878757,12.205298 C42.5878757,8.8351101 39.8637727,6.10264901 36.5038935,6.10264901 L6.08398224,6.10264901 Z" id="Shape"></path>
                    </g>
                    <g id="Group" transform="translate(21.293938, 30.513245)" fill="#39C3FC">
                        <ellipse id="Oval" cx="4.57976237" cy="4.56125828" rx="4.57976237" ry="4.56125828"></ellipse>
                        <ellipse id="Oval" cx="19.8456369" cy="4.56125828" rx="4.57976237" ry="4.56125828"></ellipse>
                    </g>
                    <path d="M49.3270754,18.8741722 L17.6856524,18.8741722 C17.1173622,21.4819232 18.1899528,24.2732524 20.5560511,25.6806848 C22.9221494,27.0881172 25.8062603,26.6503539 27.7152887,24.8381082 C28.4892604,27.3909427 30.7730861,29.2549669 33.5063639,29.2549669 C36.2396417,29.2549669 38.5234674,27.3909427 39.2974391,24.8381082 C41.2064675,26.6503539 44.0905784,27.0881172 46.4566767,25.6806848 C48.822775,24.2732524 49.8968892,21.4834923 49.3270754,18.8741722 Z" id="Shape" fill="#D3A06C"></path>
                    <g id="Group" transform="translate(15.031015, 56.622517)" fill="#B6C1CE">
                        <polygon id="Shape" points="36.6380989 1.53352649 32.0583366 18.4023179 27.4785742 19.9358444 27.4785742 24.5364238 22.8988118 36.8046358 18.3190495 36.8046358 27.4785742 0"></polygon>
                        <polygon id="Shape" points="0 1.53352649 4.57976237 18.4023179 9.15952474 19.9358444 9.15952474 24.5364238 13.7392871 36.8046358 18.3190495 36.8046358 9.15952474 0"></polygon>
                    </g>
                    <path d="M59.0996164,59.523629 L44.1678403,55.5152419 L44.1678403,55.5075806 C45.5004907,55.4003226 46.7935423,55.011129 47.9754128,54.3262097 C50.2965089,52.9778226 51.877413,50.7039516 52.3693514,48.0899194 C54.9691618,47.595 57.2278138,46.0045161 58.5680793,43.6693548 C59.759088,41.5900806 60.074355,39.1721774 59.5154033,36.8952419 C61.3552223,37.1909677 63.0884293,38.0566935 64.4134645,39.3897581 L66.5670275,37.2231452 C65.0287682,35.6755645 63.0762451,34.5983871 60.9790342,34.0758871 C61.91722,32.6171774 62.4441881,30.9087097 62.4441881,29.1129032 C62.4441881,26.416129 61.2775479,23.9032258 59.2732417,22.1671774 C60.1459373,19.6558065 59.9068218,16.8931452 58.5680793,14.5564516 C57.4760675,12.6518548 55.767229,11.2559677 53.765969,10.5327419 C55.0879581,8.73387097 57.1623236,7.66129032 59.3981301,7.66129032 L59.3981301,4.59677419 C56.4297466,4.59677419 53.6517418,5.90532258 51.7525246,8.14548387 C50.984918,6.38491935 49.6827283,4.89096774 47.9754128,3.89959677 C45.6543166,2.55274194 42.9082954,2.3091129 40.4105279,3.19016129 C38.684936,1.17370968 36.1871685,0 33.5066375,0 C30.8261065,0 28.328339,1.17370968 26.6027471,3.19016129 C24.1080257,2.31217742 21.3604814,2.55274194 19.0378622,3.89959677 C16.7167661,5.24798387 15.135862,7.52032258 14.6439236,10.1358871 C12.0441132,10.6292742 9.78546118,12.2197581 8.44519568,14.5564516 C7.4689341,16.2603226 7.0851308,18.1909677 7.28312457,20.0848387 C5.02142654,18.9739516 2.54345839,18.3870968 0,18.3870968 L0,21.4516129 C2.36069491,21.4516129 4.64371535,22.0982258 6.68305115,23.2642742 C5.33821657,24.89 4.56908693,26.938629 4.56908693,29.1129032 C4.56908693,31.8096774 5.73572713,34.3225806 7.74003326,36.058629 C6.86733766,38.57 7.10645321,41.3326613 8.44519568,43.6693548 C9.78546118,46.0029839 12.0441132,47.595 14.6439236,48.0899194 C15.1343389,50.7039516 16.715243,52.9778226 19.0393852,54.3262097 C20.2197327,55.011129 21.5143073,55.3972581 22.8454347,55.5045161 L22.8454347,55.5167742 L7.91365857,59.523629 C3.25471292,60.7724194 0,65.0320968 0,69.8847581 L0,95 L67.013275,95 L67.013275,69.8847581 C67.013275,65.0320968 63.7585621,60.7724194 59.0996164,59.523629 Z M49.6781592,60.1656452 L45.9589224,73.8854839 L41.1217824,75.5081452 L41.1217824,80.9308065 L37.0202654,91.9354839 L35.4561146,91.9354839 L43.7459613,58.5751613 L49.6781592,60.1656452 Z M16.817286,39.5766935 C15.0155427,38.9607258 13.7072608,37.2599194 13.7072608,35.2419355 C13.7072608,33.2469355 14.9850821,31.5614516 16.7533187,30.9270968 L16.7533187,38.3064516 C16.7533187,38.7354839 16.7853024,39.1553226 16.817286,39.5766935 Z M50.2599562,30.9270968 C52.0281929,31.5614516 53.3060142,33.2469355 53.3060142,35.2419355 C53.3060142,37.2599194 51.9977323,38.9607258 50.195989,39.5766935 C50.2279726,39.1553226 50.2599562,38.7354839 50.2599562,38.3064516 L50.2599562,30.9270968 Z M47.2138983,33.7096774 L46.9976282,33.7096774 C46.3168342,31.0726613 43.9530933,29.1129032 41.1217824,29.1129032 C38.2904715,29.1129032 35.9267305,31.0726613 35.2459366,33.7096774 L31.7673384,33.7096774 C31.0865445,31.0726613 28.7228035,29.1129032 25.8914926,29.1129032 C23.0601817,29.1129032 20.6964408,31.0726613 20.0156468,33.7096774 L19.7993767,33.7096774 L19.7993767,26.9508871 C22.0915353,28.2824194 24.8360335,28.2946774 27.1068697,27.0964516 C28.4745498,29.2753226 30.8580901,30.6451613 33.5066375,30.6451613 C36.1551849,30.6451613 38.5387252,29.2753226 39.9064053,27.0964516 C42.1757184,28.2962097 44.9217397,28.2839516 47.2138983,26.9508871 L47.2138983,33.7096774 Z M44.1678403,35.2419355 C44.1678403,36.9320161 42.8016833,38.3064516 41.1217824,38.3064516 C39.4418814,38.3064516 38.0757244,36.9320161 38.0757244,35.2419355 C38.0757244,33.5518548 39.4418814,32.1774194 41.1217824,32.1774194 C42.8016833,32.1774194 44.1678403,33.5518548 44.1678403,35.2419355 Z M28.9375506,35.2419355 C28.9375506,36.9320161 27.5713936,38.3064516 25.8914926,38.3064516 C24.2115917,38.3064516 22.8454347,36.9320161 22.8454347,35.2419355 C22.8454347,33.5518548 24.2115917,32.1774194 25.8914926,32.1774194 C27.5713936,32.1774194 28.9375506,33.5518548 28.9375506,35.2419355 Z M19.7993767,36.7741935 L20.0156468,36.7741935 C20.6964408,39.4112097 23.0601817,41.3709677 25.8914926,41.3709677 C28.7228035,41.3709677 31.0865445,39.4112097 31.7673384,36.7741935 L35.2459366,36.7741935 C35.9267305,39.4112097 38.2904715,41.3709677 41.1217824,41.3709677 C43.9530933,41.3709677 46.3168342,39.4112097 46.9976282,36.7741935 L47.2138983,36.7741935 L47.2138983,38.3064516 C47.2138983,45.9110484 41.0654303,52.0967742 33.5066375,52.0967742 C25.9478447,52.0967742 19.7993767,45.9110484 19.7993767,38.3064516 L19.7993767,36.7741935 Z M33.5066375,55.1612903 C36.2496127,55.1612903 38.8341929,54.4809677 41.1217824,53.301129 L41.1217824,56.1787097 C40.3511297,57.1210484 37.8137634,59.7580645 33.5066375,59.7580645 C29.1903734,59.7580645 26.6667144,57.1317742 25.8914926,56.1787097 L25.8914926,53.301129 C28.1790821,54.4809677 30.7636623,55.1612903 33.5066375,55.1612903 Z M33.5066375,62.8225806 C36.1932606,62.8225806 38.3453006,62.0365323 39.9871258,61.0727419 L33.5066375,87.1533065 L27.0261492,61.0727419 C28.6679744,62.0365323 30.8200144,62.8225806 33.5066375,62.8225806 Z M55.9301931,42.1370968 C54.8930104,43.9451613 53.0242538,45.0820968 50.928566,45.1801613 L49.5426096,45.2460484 L49.4786424,46.6404032 C49.3826916,48.7457258 48.249558,50.6273387 46.4554299,51.6708065 C45.7426523,52.0845161 44.9674306,52.3266129 44.1693634,52.4246774 L44.1693634,51.2969355 C46.7752659,49.1287903 48.7049437,46.1776613 49.6355144,42.8112903 C52.9496254,42.4129032 55.6149261,39.8984677 56.2134765,36.6316935 C56.9886983,38.4198387 56.8988396,40.4470161 55.9301931,42.1370968 Z M7.61514489,29.1129032 C7.61514489,27.0259677 8.66755791,25.0999194 10.4342715,23.9614516 L11.6024347,23.2091129 L10.9658086,21.9679839 C10.0032543,20.0940323 10.0474222,17.8967742 11.0846049,16.0887097 C12.1233107,14.2806452 13.9920672,13.1421774 16.084709,13.0456452 L17.4721884,12.9812903 L17.5361556,11.5854032 C17.6321065,9.48008065 18.763717,7.59846774 20.5608912,6.555 C22.3580654,5.51153226 24.5420889,5.46709677 26.4047534,6.43548387 L27.6384069,7.07596774 L28.3862141,5.90072581 C29.5178246,4.12330645 31.432272,3.06451613 33.5066375,3.06451613 C35.581003,3.06451613 37.4954504,4.12330645 38.6270609,5.90072581 L39.3748681,7.07596774 L40.6085216,6.43548387 C42.4711861,5.46709677 44.6552096,5.51153226 46.4523838,6.555 C48.251081,7.6 49.3811685,9.48008065 49.4771194,11.5854032 L49.5410866,12.9812903 L50.928566,13.0456452 C53.0212078,13.1421774 54.8914874,14.2821774 55.9286701,16.0887097 C56.9658528,17.8967742 57.0100207,20.0940323 56.0474664,21.9679839 L55.4108403,23.2091129 L56.5790035,23.9614516 C58.3457171,25.0999194 59.3981301,27.0259677 59.3981301,29.1129032 C59.3981301,31.1998387 58.3457171,33.1258871 56.5790035,34.2643548 L56.2728747,34.4620161 C55.9301931,31.118629 53.4796395,28.3958065 50.2584332,27.7354032 L50.2584332,23.6090323 C50.9651187,22.1028226 51.19205,20.3698387 50.8067237,18.6414516 L47.8352941,19.3125806 C48.2769725,21.2922581 47.4149381,23.2964516 45.6893463,24.2970161 C43.9637545,25.3006452 41.8101915,25.0478226 40.3267613,23.6749194 L38.5585246,22.0354032 L37.841178,24.3460484 C37.2395815,26.2797581 35.4987594,27.5806452 33.5066375,27.5806452 C31.5145156,27.5806452 29.7736935,26.2797581 29.170574,24.3445161 L28.4532274,22.033871 L26.6849907,23.6733871 C25.2000375,25.0462903 23.0464745,25.2991129 21.3224057,24.2954839 C19.5968139,23.2949194 18.7347794,21.2907258 19.1764579,19.3110484 L16.2050283,18.6399194 C15.819702,20.3667742 16.0466333,22.1012903 16.7533187,23.6075 L16.7533187,27.733871 C13.5321125,28.3942742 11.0815588,31.1170968 10.7388773,34.4604839 L10.4327485,34.2628226 C8.66755791,33.1258871 7.61514489,31.1998387 7.61514489,29.1129032 Z M20.5608912,51.6723387 C18.763717,50.6273387 17.6321065,48.7472581 17.5361556,46.6419355 L17.4721884,45.2475806 L16.0862321,45.1816935 C13.9905442,45.083629 12.1202646,43.9451613 11.0846049,42.138629 C10.1159585,40.4485484 10.0245767,38.421371 10.8013215,36.6332258 C11.4013949,39.9 14.0651726,42.4159677 17.3792837,42.8128226 C18.3098544,46.1791935 20.2395321,49.1303226 22.8454347,51.2984677 L22.8454347,52.4246774 C22.0473675,52.3266129 21.2721457,52.0860484 20.5608912,51.6723387 Z M23.2673137,58.5751613 L31.5571604,91.9354839 L29.9945327,91.9354839 L25.8914926,80.9308065 L25.8914926,75.5081452 L21.0543526,73.8854839 L17.3351158,60.1656452 L23.2673137,58.5751613 Z M3.04605795,69.8847581 C3.04605795,66.4187903 5.37020017,63.3757258 8.69954152,62.4824194 L14.3911008,60.9547581 L18.5428778,76.2727419 L22.8454347,77.7176613 L22.8454347,81.4885484 L26.7398198,91.9354839 L15.2302898,91.9354839 L15.2302898,72.016129 L12.1842318,72.016129 L12.1842318,91.9354839 L3.04605795,91.9354839 L3.04605795,69.8847581 Z M63.967217,91.9354839 L54.8290432,91.9354839 L54.8290432,72.016129 L51.7829852,72.016129 L51.7829852,91.9354839 L40.2734552,91.9354839 L44.1678403,81.4885484 L44.1678403,77.7176613 L48.4688742,76.2758065 L52.6206512,60.9578226 L58.3122105,62.4854839 C61.6430748,63.3757258 63.967217,66.4203226 63.967217,69.8847581 L63.967217,91.9354839 Z" id="Shape" fill="#000000"></path>
                    <rect id="Rectangle-path" fill="#000000" x="30.3751761" y="44.3543046" width="5.94977675" height="3.14569536"></rect>
                </g>
            </g>
        </g>
    </g>
</svg>