<?xml version="1.0" encoding="UTF-8"?>
<svg width="95px" height="95px" viewBox="0 0 95 95" version="1.1" xmlns="http://www.w3.org/2000/svg" xmlns:xlink="http://www.w3.org/1999/xlink">
    <!-- Generator: Sketch 50.2 (55047) - http://www.bohemiancoding.com/sketch -->
    <title>001-server</title>
    <desc>Created with Sketch.</desc>
    <defs></defs>
    <g id="Page-2" stroke="none" stroke-width="1" fill="none" fill-rule="evenodd">
        <g id="Microsoft-Surface-Hub" transform="translate(-1206.000000, -115.000000)" fill-rule="nonzero">
            <g id="db" transform="translate(1148.000000, 61.000000)">
                <g id="001-server" transform="translate(58.000000, 54.000000)">
                    <path d="M82.4581909,48.9002991 L82.4581909,34.5095443 C82.4581909,32.7584457 81.026001,31.3262558 79.2749023,31.3262558 L4.58576207,31.3262558 C2.83538818,31.3262558 1.4024735,32.7584457 1.4024735,34.5095443 L1.4024735,48.9002991 C1.4024735,50.650673 2.83538818,52.0828629 4.58576207,52.0828629 C2.83538818,52.0828629 1.4024735,53.5157776 1.4024735,55.2661515 L1.4024735,69.656906 C1.4024735,71.4080047 2.83538818,72.8401946 4.58576207,72.8401946 C2.83538818,72.8401946 1.4024735,74.2723846 1.4024735,76.0234832 L1.4024735,90.4135132 C1.4024735,92.1646118 2.83538818,93.5968018 4.58576207,93.5968018 L79.2749023,93.5968018 C81.026001,93.5968018 82.4581909,92.1646118 82.4581909,90.4135132 L82.4581909,76.0234832 C82.4581909,74.2723846 81.026001,72.8401946 79.2749023,72.8401946 C81.026001,72.8401946 82.4581909,71.4080047 82.4581909,69.656906 L82.4581909,55.2661515 C82.4581909,53.5157776 81.026001,52.0835876 79.2749023,52.0835876 C81.026001,52.0828629 82.4581909,50.650673 82.4581909,48.9002991 Z" id="Shape" fill="#4172CC"></path>
                    <path d="M82.4589157,34.5095443 L82.4589157,48.9002991 C82.4589157,50.650673 81.0267257,52.0835876 79.2756271,52.0835876 L4.58576207,52.0835876 C2.83538818,52.0835876 1.4024735,50.650673 1.4024735,48.9002991 L1.4024735,34.5095443 C1.4024735,32.7591706 2.83538818,31.3262558 4.58576207,31.3262558 L79.2756271,31.3262558 C81.0267257,31.3262558 82.4589157,32.7591706 82.4589157,34.5095443 Z" id="Shape" fill="#4172CC"></path>
                    <path d="M82.4589157,34.5095443 L82.4589157,44.7762298 L12.1815873,44.7762298 C10.429039,44.7762298 8.99829869,43.3433151 8.99829869,41.5922164 L8.99829869,31.3262558 L79.2756271,31.3262558 C81.0267257,31.3262558 82.4589157,32.7591706 82.4589157,34.5095443 Z" id="Shape" fill="#6990D7"></path>
                    <path d="M17.5472259,41.7458725 C17.5472259,43.6948396 16.3991546,45.3763581 14.7437287,46.1504363 C14.1189575,46.4425277 13.4231567,46.6048812 12.6882171,46.6048812 C10.0043107,46.6048812 7.82703404,44.4297791 7.82703404,41.7458725 C7.82703404,39.061966 10.0043107,36.8868637 12.6882171,36.8868637 C13.4231567,36.8868637 14.1189575,37.0492172 14.7437287,37.3413086 C16.3991546,38.115387 17.5472259,39.7969055 17.5472259,41.7458725 Z" id="Shape" fill="#F29500"></path>
                    <path d="M82.4589157,55.2668762 L82.4589157,69.656906 C82.4589157,71.4072799 81.0267257,72.8401946 79.2756271,72.8401946 L4.58576207,72.8401946 C2.83538818,72.8401946 1.4024735,71.4072799 1.4024735,69.656906 L1.4024735,55.2668762 C1.4024735,53.5157776 2.83538818,52.0835876 4.58576207,52.0835876 L79.2756271,52.0835876 C81.0267257,52.0835876 82.4589157,53.5157776 82.4589157,55.2668762 Z" id="Shape" fill="#4172CC"></path>
                    <path d="M82.4589157,76.0234832 L82.4589157,90.4135132 C82.4589157,92.1646118 81.0267257,93.5975265 79.2756271,93.5975265 L4.58576207,93.5975265 C2.83538818,93.5975265 1.4024735,92.1646118 1.4024735,90.4135132 L1.4024735,76.0234832 C1.4024735,74.2731095 2.83538818,72.8401946 4.58576207,72.8401946 L79.2756271,72.8401946 C81.0267257,72.8401946 82.4589157,74.2731095 82.4589157,76.0234832 Z" id="Shape" fill="#4172CC"></path>
                    <path d="M82.4589157,55.2668762 L82.4589157,65.5328369 L12.1815873,65.5328369 C10.429039,65.5328369 8.99829869,64.0999222 8.99829869,62.3495483 L8.99829869,52.0835876 L79.2756271,52.0835876 C81.0267257,52.0835876 82.4589157,53.5157776 82.4589157,55.2668762 Z" id="Shape" fill="#6990D7"></path>
                    <path d="M82.4589157,76.0234832 L82.4589157,86.2894441 L12.1815873,86.2894441 C10.429039,86.2894441 8.99829869,84.8572541 8.99829869,83.1061555 L8.99829869,72.8401946 L79.2756271,72.8401946 C81.0267257,72.8401946 82.4589157,74.2731095 82.4589157,76.0234832 Z" id="Shape" fill="#6990D7"></path>
                    <path d="M17.5472259,83.2598113 C17.5472259,85.2087784 16.3991546,86.8917465 14.7437287,87.6665496 C14.1189575,87.9579163 13.4231567,88.1209945 12.6882171,88.1209945 C10.0043107,88.1209945 7.82703404,85.9437179 7.82703404,83.2598113 C7.82703404,80.5759049 10.0043107,78.4008025 12.6882171,78.4008025 C13.4231567,78.4008025 14.1189575,78.563156 14.7437287,78.8552475 C16.3991546,79.6293258 17.5472259,81.3108444 17.5472259,83.2598113 Z" id="Shape" fill="#F29500"></path>
                    <path d="M17.5472259,41.7458725 C17.5472259,43.6948396 16.3991546,45.3763581 14.7437287,46.1504363 C13.0883025,45.3763581 11.9402312,43.6948396 11.9402312,41.7458725 C11.9402312,39.7969055 13.0883025,38.115387 14.7437287,37.3413086 C16.3991546,38.115387 17.5472259,39.7969055 17.5472259,41.7458725 Z" id="Shape" fill="#FFB52D"></path>
                    <path d="M17.5472259,83.2598113 C17.5472259,85.2087784 16.3991546,86.8917465 14.7437287,87.6665496 C13.0883025,86.8917465 11.9402312,85.2087784 11.9402312,83.2598113 C11.9402312,81.3108444 13.0883025,79.6293258 14.7437287,78.8552475 C16.3991546,79.6293258 17.5472259,81.3108444 17.5472259,83.2598113 Z" id="Shape" fill="#FFB52D"></path>
                    <path d="M93.0111694,26.4520264 C93.0111694,27.413826 92.736473,28.3132935 92.2631836,29.0707016 C91.4274979,30.4173661 89.9626922,31.315384 88.3058167,31.315384 L40.8551025,31.315384 C39.561348,31.315384 38.3850098,30.7674407 37.5297546,29.886093 C36.6773987,29.0054703 36.1475753,27.7892684 36.1475753,26.4520264 C36.1475753,23.7775422 38.2668685,21.5915681 40.8551025,21.5915681 L41.4704513,21.5915681 C41.6799163,21.5915681 41.8299484,21.3835526 41.7603683,21.1856843 C39.6454239,15.1496125 44.2674255,8.71780396 50.6542969,9.3070602 C50.7869339,9.32010655 50.9137727,9.24690256 50.9666825,9.12368774 C52.9526139,4.5640182 57.3876189,1.38942714 62.5416183,1.38942714 C63.0395508,1.38942714 63.5316849,1.41986852 64.0136719,1.47785191 C68.6820602,2.03521729 72.5778198,5.21270752 74.2897796,9.54986572 C74.3513871,9.70497141 74.5231628,9.78397374 74.6826172,9.72743983 C75.5429459,9.43027501 76.4627075,9.26792149 77.4201583,9.26792149 C82.1726228,9.26792149 86.0256194,13.2477571 86.0256194,18.1589509 C86.0256194,19.2214966 85.8465958,20.2405549 85.5153655,21.1856843 C85.4443359,21.3835526 85.5936433,21.5915681 85.8052825,21.5915681 L88.3058167,21.5915681 C89.6002961,21.5915681 90.7766342,22.1373368 91.6289901,23.0179597 C92.482071,23.8993073 93.0111694,25.1147843 93.0111694,26.4520264 Z" id="Shape" fill="#91AEE2"></path>
                    <path d="M93.0111694,26.4520264 C93.0111694,27.413826 92.736473,28.3132935 92.2631836,29.0707016 L49.5526123,29.0707016 C48.258133,29.0707016 47.0817948,28.5227584 46.2272644,27.6414108 C45.3741837,26.7607879 44.8450851,25.5453109 44.8450851,24.2080688 C44.8450851,21.5335847 46.9636536,19.3468856 49.5526123,19.3468856 L50.1679611,19.3468856 C50.3774261,19.3468856 50.5267334,19.1395951 50.4578781,18.9410018 C50.1266479,17.9965974 49.9454499,16.9768143 49.9454499,15.9149934 C49.9454499,10.7624435 54.1992569,6.58763881 59.3510819,7.06237793 C59.483719,7.0754241 59.6112824,7.00294504 59.6634675,6.87900548 C60.6158447,4.69448085 62.1284867,2.82814035 64.0136719,1.47785191 C68.6820602,2.03521729 72.5778198,5.21270752 74.2897796,9.54986572 C74.3513871,9.70497141 74.5231628,9.78397374 74.6826172,9.72743983 C75.5429459,9.43027501 76.4627075,9.26792149 77.4201583,9.26792149 C82.1726228,9.26792149 86.0256194,13.2477571 86.0256194,18.1589509 C86.0256194,19.2214966 85.8465958,20.2405549 85.5153655,21.1856843 C85.4443359,21.3835526 85.5936433,21.5915681 85.8052825,21.5915681 L88.3058167,21.5915681 C89.6002961,21.5915681 90.7766342,22.1373368 91.6289901,23.0179597 C92.482071,23.8993073 93.0111694,25.1147843 93.0111694,26.4520264 Z" id="Shape" fill="#BACBEC"></path>
                    <path d="M17.5472259,62.5032043 C17.5472259,64.4514465 16.3991546,66.1329651 14.7437287,66.9077682 C14.1189575,67.1991349 13.4231567,67.3622131 12.6882171,67.3622131 C10.0043107,67.3622131 7.82703404,65.1871109 7.82703404,62.5032043 C7.82703404,59.8192977 10.0043107,57.6434708 12.6882171,57.6434708 C13.4231567,57.6434708 14.1189575,57.8065491 14.7437287,58.0979157 C16.3991546,58.8727189 17.5472259,60.5542374 17.5472259,62.5032043 Z" id="Shape" fill="#F29500"></path>
                    <path d="M17.5472259,62.5032043 C17.5472259,64.4514465 16.3991546,66.1329651 14.7437287,66.9077682 C13.0883025,66.1329651 11.9402312,64.4514465 11.9402312,62.5032043 C11.9402312,60.5542374 13.0883025,58.8727189 14.7437287,58.0979157 C16.3991546,58.8727189 17.5472259,60.5542374 17.5472259,62.5032043 Z" id="Shape" fill="#FFB52D"></path>
                    <path d="M12.6874923,35.4836654 C9.23458095,35.4836654 6.42528529,38.2929611 6.42528529,41.7458725 C6.42528529,45.1987838 9.23458095,48.0088044 12.6874923,48.0088044 C16.1411286,48.0088044 18.9504241,45.1987838 18.9504241,41.7458725 C18.9504241,38.2929611 16.1411286,35.4836654 12.6874923,35.4836654 Z M12.6874923,45.2031327 C10.7812882,45.2031327 9.23095703,43.6520768 9.23095703,41.7458725 C9.23095703,39.8396683 10.7812882,38.2893372 12.6874923,38.2893372 C14.5944214,38.2893372 16.1447525,39.8396683 16.1447525,41.7458725 C16.1447525,43.6520768 14.5944214,45.2031327 12.6874923,45.2031327 Z" id="Shape" fill="#000000"></path>
                    <path d="M58.0348587,39.770813 L63.8331986,39.770813 C64.6080017,39.770813 65.2356721,39.1431428 65.2356721,38.3683395 C65.2356721,37.5935364 64.6080017,36.9651413 63.8331986,36.9651413 L58.0348587,36.9651413 C57.2600554,36.9651413 56.6323853,37.5935364 56.6323853,38.3683395 C56.6323853,39.1431428 57.2600554,39.770813 58.0348587,39.770813 Z" id="Shape" fill="#000000"></path>
                    <path d="M74.8268509,36.9651413 L69.4438171,36.9651413 C68.669014,36.9651413 68.0413436,37.5935364 68.0413436,38.3683395 C68.0413436,39.1431428 68.669014,39.770813 69.4438171,39.770813 L74.8268509,39.770813 C75.6023788,39.770813 76.2300492,39.1431428 76.2300492,38.3683395 C76.2300492,37.5935364 75.6023788,36.9651413 74.8268509,36.9651413 Z" id="Shape" fill="#000000"></path>
                    <path d="M31.0087967,38.3683395 C31.0087967,37.5935364 30.3811264,36.9651413 29.6055985,36.9651413 L23.8079834,36.9651413 C23.0331803,36.9651413 22.4055099,37.5935364 22.4055099,38.3683395 C22.4055099,39.1431428 23.0331803,39.770813 23.8079834,39.770813 L29.6055985,39.770813 C30.3811264,39.770813 31.0087967,39.1431428 31.0087967,38.3683395 Z" id="Shape" fill="#000000"></path>
                    <path d="M35.2169418,39.770813 L41.0152816,39.770813 C41.7900847,39.770813 42.4177551,39.1431428 42.4177551,38.3683395 C42.4177551,37.5935364 41.7900847,36.9651413 41.0152816,36.9651413 L35.2169418,36.9651413 C34.4421387,36.9651413 33.8144685,37.5935364 33.8144685,38.3683395 C33.8144685,39.1431428 34.4421387,39.770813 35.2169418,39.770813 Z" id="Shape" fill="#000000"></path>
                    <path d="M46.6259002,39.770813 L52.42424,39.770813 C53.1990433,39.770813 53.8267135,39.1431428 53.8267135,38.3683395 C53.8267135,37.5935364 53.1990433,36.9651413 52.42424,36.9651413 L46.6259002,36.9651413 C45.8510971,36.9651413 45.2234269,37.5935364 45.2234269,38.3683395 C45.2234269,39.1431428 45.8510971,39.770813 46.6259002,39.770813 Z" id="Shape" fill="#000000"></path>
                    <path d="M58.0812455,43.7209319 L52.2836304,43.7209319 C51.5088273,43.7209319 50.8804321,44.349327 50.8804321,45.1234054 C50.8804321,45.8982087 51.5088273,46.5266037 52.2836304,46.5266037 L58.0812455,46.5266037 C58.8567733,46.5266037 59.4844437,45.8982087 59.4844437,45.1234054 C59.4844437,44.349327 58.8567733,43.7209319 58.0812455,43.7209319 Z" id="Shape" fill="#000000"></path>
                    <path d="M46.6722869,43.7209319 L40.874672,43.7209319 C40.0998689,43.7209319 39.4714737,44.349327 39.4714737,45.1234054 C39.4714737,45.8982087 40.0998689,46.5266037 40.874672,46.5266037 L46.6722869,46.5266037 C47.4470902,46.5266037 48.0754851,45.8982087 48.0754851,45.1234054 C48.0754851,44.349327 47.4470902,43.7209319 46.6722869,43.7209319 Z" id="Shape" fill="#000000"></path>
                    <path d="M35.2633285,43.7209319 L29.4657136,43.7209319 C28.6909103,43.7209319 28.0625154,44.349327 28.0625154,45.1234054 C28.0625154,45.8982087 28.6909103,46.5266037 29.4657136,46.5266037 L35.2633285,46.5266037 C36.0381316,46.5266037 36.6665267,45.8982087 36.6665267,45.1234054 C36.6665267,44.349327 36.0381316,43.7209319 35.2633285,43.7209319 Z" id="Shape" fill="#000000"></path>
                    <path d="M69.1691207,43.7209319 L63.6925888,43.7209319 C62.9177856,43.7209319 62.2901154,44.349327 62.2901154,45.1234054 C62.2901154,45.8982087 62.9177856,46.5266037 63.6925888,46.5266037 L69.1691207,46.5266037 C69.9446488,46.5266037 70.572319,45.8982087 70.572319,45.1234054 C70.572319,44.349327 69.9446488,43.7209319 69.1691207,43.7209319 Z" id="Shape" fill="#000000"></path>
                    <path d="M12.6874923,56.2402726 C9.23458095,56.2402726 6.42528529,59.0495682 6.42528529,62.5032043 C6.42528529,65.9561157 9.23458095,68.7654114 12.6874923,68.7654114 C16.1411286,68.7654114 18.9504241,65.9561157 18.9504241,62.5032043 C18.9504241,59.0495682 16.1411286,56.2402726 12.6874923,56.2402726 Z M12.6874923,65.9604646 C10.7812882,65.9604646 9.23095703,64.4094085 9.23095703,62.5032043 C9.23095703,60.5970002 10.7812882,59.0459441 12.6874923,59.0459441 C14.5944214,59.0459441 16.1447525,60.5970002 16.1447525,62.5032043 C16.1447525,64.4094085 14.5944214,65.9604646 12.6874923,65.9604646 Z" id="Shape" fill="#000000"></path>
                    <path d="M74.8268509,57.7224731 L69.4438171,57.7224731 C68.669014,57.7224731 68.0413436,58.3508683 68.0413436,59.1249466 C68.0413436,59.8997498 68.669014,60.5281449 69.4438171,60.5281449 L74.8268509,60.5281449 C75.6023788,60.5281449 76.2300492,59.8997498 76.2300492,59.1249466 C76.2300492,58.3508683 75.6023788,57.7224731 74.8268509,57.7224731 Z" id="Shape" fill="#000000"></path>
                    <path d="M31.0087967,59.1249466 C31.0087967,58.3508683 30.3811264,57.7224731 29.6055985,57.7224731 L23.8079834,57.7224731 C23.0331803,57.7224731 22.4055099,58.3508683 22.4055099,59.1249466 C22.4055099,59.8997498 23.0331803,60.5281449 23.8079834,60.5281449 L29.6055985,60.5281449 C30.3811264,60.5281449 31.0087967,59.8997498 31.0087967,59.1249466 Z" id="Shape" fill="#000000"></path>
                    <path d="M46.6259002,60.5281449 L52.42424,60.5281449 C53.1990433,60.5281449 53.8267135,59.8997498 53.8267135,59.1249466 C53.8267135,58.3508683 53.1990433,57.7224731 52.42424,57.7224731 L46.6259002,57.7224731 C45.8510971,57.7224731 45.2234269,58.3508683 45.2234269,59.1249466 C45.2234269,59.8997498 45.8510971,60.5281449 46.6259002,60.5281449 Z" id="Shape" fill="#000000"></path>
                    <path d="M35.2169418,60.5281449 L41.0152816,60.5281449 C41.7900847,60.5281449 42.4177551,59.8997498 42.4177551,59.1249466 C42.4177551,58.3508683 41.7900847,57.7224731 41.0152816,57.7224731 L35.2169418,57.7224731 C34.4421387,57.7224731 33.8144685,58.3508683 33.8144685,59.1249466 C33.8144685,59.8997498 34.4421387,60.5281449 35.2169418,60.5281449 Z" id="Shape" fill="#000000"></path>
                    <path d="M58.0348587,60.5281449 L63.8331986,60.5281449 C64.6080017,60.5281449 65.2356721,59.8997498 65.2356721,59.1249466 C65.2356721,58.3508683 64.6080017,57.7224731 63.8331986,57.7224731 L58.0348587,57.7224731 C57.2600554,57.7224731 56.6323853,58.3508683 56.6323853,59.1249466 C56.6323853,59.8997498 57.2600554,60.5281449 58.0348587,60.5281449 Z" id="Shape" fill="#000000"></path>
                    <path d="M35.2633285,64.4782638 L29.4657136,64.4782638 C28.6909103,64.4782638 28.0625154,65.1059342 28.0625154,65.8807373 C28.0625154,66.6555404 28.6909103,67.2839355 29.4657136,67.2839355 L35.2633285,67.2839355 C36.0381316,67.2839355 36.6665267,66.6555404 36.6665267,65.8807373 C36.6665267,65.1059342 36.0381316,64.4782638 35.2633285,64.4782638 Z" id="Shape" fill="#000000"></path>
                    <path d="M69.1691207,64.4782638 L63.6925888,64.4782638 C62.9177856,64.4782638 62.2901154,65.1059342 62.2901154,65.8807373 C62.2901154,66.6555404 62.9177856,67.2839355 63.6925888,67.2839355 L69.1691207,67.2839355 C69.9446488,67.2839355 70.572319,66.6555404 70.572319,65.8807373 C70.572319,65.1059342 69.9446488,64.4782638 69.1691207,64.4782638 Z" id="Shape" fill="#000000"></path>
                    <path d="M58.0812455,64.4782638 L52.2836304,64.4782638 C51.5088273,64.4782638 50.8804321,65.1059342 50.8804321,65.8807373 C50.8804321,66.6555404 51.5088273,67.2839355 52.2836304,67.2839355 L58.0812455,67.2839355 C58.8567733,67.2839355 59.4844437,66.6555404 59.4844437,65.8807373 C59.4844437,65.1059342 58.8567733,64.4782638 58.0812455,64.4782638 Z" id="Shape" fill="#000000"></path>
                    <path d="M46.6722869,64.4782638 L40.874672,64.4782638 C40.0998689,64.4782638 39.4714737,65.1059342 39.4714737,65.8807373 C39.4714737,66.6555404 40.0998689,67.2839355 40.874672,67.2839355 L46.6722869,67.2839355 C47.4470902,67.2839355 48.0754851,66.6555404 48.0754851,65.8807373 C48.0754851,65.1059342 47.4470902,64.4782638 46.6722869,64.4782638 Z" id="Shape" fill="#000000"></path>
                    <path d="M12.6874923,76.9976043 C9.23458095,76.9976043 6.42528529,79.8069001 6.42528529,83.2598113 C6.42528529,86.7134476 9.23458095,89.5227433 12.6874923,89.5227433 C16.1411286,89.5227433 18.9504241,86.7134476 18.9504241,83.2598113 C18.9504241,79.8069001 16.1411286,76.9976043 12.6874923,76.9976043 Z M12.6874923,86.7170715 C10.7812882,86.7170715 9.23095703,85.1667404 9.23095703,83.2605362 C9.23095703,81.3543319 10.7812882,79.803276 12.6874923,79.803276 C14.5944214,79.803276 16.1447525,81.3543319 16.1447525,83.2605362 C16.1447525,85.1667404 14.5944214,86.7170715 12.6874923,86.7170715 Z" id="Shape" fill="#000000"></path>
                    <path d="M74.8268509,78.479805 L69.4438171,78.479805 C68.669014,78.479805 68.0413436,79.1074752 68.0413436,79.8822785 C68.0413436,80.6570817 68.669014,81.2847518 69.4438171,81.2847518 L74.8268509,81.2847518 C75.6023788,81.2847518 76.2300492,80.6570817 76.2300492,79.8822785 C76.2300492,79.1074752 75.6023788,78.479805 74.8268509,78.479805 Z" id="Shape" fill="#000000"></path>
                    <path d="M31.0087967,79.8822785 C31.0087967,79.1074752 30.3811264,78.479805 29.6055985,78.479805 L23.8079834,78.479805 C23.0331803,78.479805 22.4055099,79.1074752 22.4055099,79.8822785 C22.4055099,80.6570817 23.0331803,81.2847518 23.8079834,81.2847518 L29.6055985,81.2847518 C30.3811264,81.2847518 31.0087967,80.6570817 31.0087967,79.8822785 Z" id="Shape" fill="#000000"></path>
                    <path d="M46.6259002,81.2847518 L52.42424,81.2847518 C53.1990433,81.2847518 53.8267135,80.6570817 53.8267135,79.8822785 C53.8267135,79.1074752 53.1990433,78.479805 52.42424,78.479805 L46.6259002,78.479805 C45.8510971,78.479805 45.2234269,79.1074752 45.2234269,79.8822785 C45.2234269,80.6570817 45.8510971,81.2847518 46.6259002,81.2847518 Z" id="Shape" fill="#000000"></path>
                    <path d="M58.0348587,81.2847518 L63.8331986,81.2847518 C64.6080017,81.2847518 65.2356721,80.6570817 65.2356721,79.8822785 C65.2356721,79.1074752 64.6080017,78.479805 63.8331986,78.479805 L58.0348587,78.479805 C57.2600554,78.479805 56.6323853,79.1074752 56.6323853,79.8822785 C56.6323853,80.6570817 57.2600554,81.2847518 58.0348587,81.2847518 Z" id="Shape" fill="#000000"></path>
                    <path d="M35.2169418,81.2847518 L41.0152816,81.2847518 C41.7900847,81.2847518 42.4177551,80.6570817 42.4177551,79.8822785 C42.4177551,79.1074752 41.7900847,78.479805 41.0152816,78.479805 L35.2169418,78.479805 C34.4421387,78.479805 33.8144685,79.1074752 33.8144685,79.8822785 C33.8144685,80.6570817 34.4421387,81.2847518 35.2169418,81.2847518 Z" id="Shape" fill="#000000"></path>
                    <path d="M69.1691207,85.234871 L63.6925888,85.234871 C62.9177856,85.234871 62.2901154,85.8632659 62.2901154,86.6380692 C62.2901154,87.4128723 62.9177856,88.0405427 63.6925888,88.0405427 L69.1691207,88.0405427 C69.9446488,88.0405427 70.572319,87.4128723 70.572319,86.6380692 C70.572319,85.8632659 69.9446488,85.234871 69.1691207,85.234871 Z" id="Shape" fill="#000000"></path>
                    <path d="M46.6722869,85.234871 L40.874672,85.234871 C40.0998689,85.234871 39.4714737,85.8632659 39.4714737,86.6380692 C39.4714737,87.4128723 40.0998689,88.0405427 40.874672,88.0405427 L46.6722869,88.0405427 C47.4470902,88.0405427 48.0754851,87.4128723 48.0754851,86.6380692 C48.0754851,85.8632659 47.4470902,85.234871 46.6722869,85.234871 Z" id="Shape" fill="#000000"></path>
                    <path d="M58.0812455,85.234871 L52.2836304,85.234871 C51.5088273,85.234871 50.8804321,85.8632659 50.8804321,86.6380692 C50.8804321,87.4128723 51.5088273,88.0405427 52.2836304,88.0405427 L58.0812455,88.0405427 C58.8567733,88.0405427 59.4844437,87.4128723 59.4844437,86.6380692 C59.4844437,85.8632659 58.8567733,85.234871 58.0812455,85.234871 Z" id="Shape" fill="#000000"></path>
                    <path d="M35.2633285,85.234871 L29.4657136,85.234871 C28.6909103,85.234871 28.0625154,85.8632659 28.0625154,86.6380692 C28.0625154,87.4128723 28.6909103,88.0405427 29.4657136,88.0405427 L35.2633285,88.0405427 C36.0381316,88.0405427 36.6665267,87.4128723 36.6665267,86.6380692 C36.6665267,85.8632659 36.0381316,85.234871 35.2633285,85.234871 Z" id="Shape" fill="#000000"></path>
                    <path d="M88.3050919,20.1883698 L87.2345735,20.1883698 C88.4703446,13.837738 83.7454224,7.86472325 77.4194336,7.86472325 C76.6663742,7.86472325 75.9227372,7.95097342 75.1972199,8.12057495 C70.1171493,-2.53242502 55.3190613,-2.79335031 50.0063323,7.86617274 C43.6325073,7.7632523 38.7561035,13.7833786 40.0505828,20.2420044 C35.5670166,20.8493806 33.2788468,26.0961532 35.7721329,29.9230575 L4.58576207,29.9230575 C2.05696115,29.9230575 5.68434189e-14,31.9807434 5.68434189e-14,34.5095443 L5.68434189e-14,48.9002991 C5.68434189e-14,50.1353455 0.492134141,51.258049 1.28940587,52.0835876 C0.492134141,52.9084016 5.68434189e-14,54.0311051 5.68434189e-14,55.2668762 L5.68434189e-14,69.657631 C5.68434189e-14,70.8926774 0.492134141,72.0153809 1.28940587,72.8401946 C0.492134141,73.6657333 5.68434189e-14,74.7877121 5.68434189e-14,76.0234832 L5.68434189e-14,90.4142379 C5.68434189e-14,92.9430388 2.05696115,95 4.58576207,95 L79.2749023,95 C81.8037033,95 83.8606644,92.9430388 83.8606644,90.4142379 L83.8606644,76.0234832 C83.8606644,74.7877121 83.3685303,73.6657333 82.5712585,72.8401946 C83.3685303,72.0146561 83.8606644,70.8926774 83.8606644,69.656906 L83.8606644,55.2661515 C83.8606644,54.0311051 83.3685303,52.9084016 82.5712585,52.0828629 C83.3685303,51.258049 83.8606644,50.1353455 83.8606644,48.8995743 L83.8606644,34.5088196 C83.8606644,33.8731766 83.7309265,33.2679749 83.4960938,32.7171326 L88.3050919,32.7171326 C91.6739274,32.7171326 94.4143677,29.9071122 94.4143677,26.4527511 C94.4143677,22.9983902 91.6739274,20.1883698 88.3050919,20.1883698 Z M81.0557174,90.4142379 C81.0557174,91.395607 80.2562713,92.1943283 79.2749023,92.1943283 L4.58576207,92.1943283 C3.60439296,92.1943283 2.80567174,91.395607 2.80567174,90.4142379 L2.80567174,76.0234832 C2.80567174,75.0413895 3.60439296,74.2426681 4.58576207,74.2426681 L79.2749023,74.2426681 C80.2569962,74.2426681 81.0557174,75.0413895 81.0557174,76.0234832 L81.0557174,90.4142379 Z M81.0557174,69.656906 C81.0557174,70.6389999 80.2562713,71.4369964 79.2749023,71.4369964 C78.0688477,71.4369964 8.48369594,71.4369964 4.58576207,71.4369964 C3.60439296,71.4369964 2.80567174,70.6389999 2.80567174,69.656906 L2.80567174,55.2661515 C2.80567174,54.2847824 3.60439296,53.4853362 4.58576207,53.4853362 L79.2749023,53.4853362 C80.2562713,53.4853362 81.0557174,54.2847824 81.0557174,55.2661515 L81.0557174,69.656906 Z M81.0557174,48.8995743 C81.0557174,49.8816682 80.2562713,50.6803894 79.2749023,50.6803894 C78.0688477,50.6803894 8.48369594,50.6803894 4.58576207,50.6803894 C3.60439296,50.6803894 2.80567174,49.8816682 2.80567174,48.8995743 L2.80567174,34.5088196 C2.80567174,33.5274505 3.60439296,32.7287292 4.58576207,32.7287292 L79.2749023,32.7287292 C80.2562713,32.7287292 81.0557174,33.5274505 81.0557174,34.5088196 L81.0557174,48.8995743 Z M88.3050919,29.9114608 L40.8551025,29.9114608 C39.0336991,29.9114608 37.5514983,28.3596802 37.5514983,26.4527511 C37.5514983,24.5450973 39.0336991,22.9933167 40.8551025,22.9933167 L41.9132996,22.9933167 C42.9077148,22.9933167 43.5868454,21.9851303 43.2135774,21.0639192 C41.0819625,15.8062744 45.2060318,10.0499724 50.7079314,10.7247543 C51.3327026,10.8008576 51.9321061,10.4522323 52.1741867,9.87022391 C53.9600753,5.57003017 58.0290604,2.79190063 62.5408936,2.79190063 C67.1860885,2.79190063 71.4225007,5.81645961 73.0822754,10.3181458 C73.3526229,11.0516357 74.173088,11.424179 74.9051285,11.1400603 C75.7103728,10.8283997 76.5562057,10.6703948 77.4194336,10.6703948 C82.5705338,10.6703948 86.0517121,16.1520004 84.0607071,21.0631942 C83.687439,21.9844055 84.3665695,22.9933167 85.3609848,22.9933167 L88.3050919,22.9933167 C90.1264954,22.9933167 91.6086959,24.5450973 91.6086959,26.4527511 C91.6086959,28.3596802 90.1264954,29.9114608 88.3050919,29.9114608 Z" id="Shape" fill="#000000"></path>
                    <path d="M61.7740632,20.0637054 L58.634262,23.0636215 L58.634262,12.1127319 C58.634262,11.3379288 58.0065918,10.7095337 57.2317887,10.7095337 C56.4569856,10.7095337 55.8293152,11.3379288 55.8293152,12.1127319 L55.8293152,23.0636215 L52.6895142,20.0637054 C52.1292496,19.5288086 51.2413787,19.5491028 50.7064819,20.1086426 C50.1708602,20.6689071 50.1911544,21.556778 50.7514192,22.0923996 C56.3199996,27.2282792 56.2337493,27.7472306 57.2317887,27.7472306 C58.2305526,27.7472306 58.1312561,27.2391511 63.7121582,22.0923996 C64.2724227,21.556778 64.2927169,20.6689071 63.7578202,20.1086426 C63.2221985,19.548378 62.3343277,19.5288086 61.7740632,20.0637054 Z" id="Shape" fill="#000000"></path>
                    <path d="M70.7310486,11.0980225 C70.1889038,10.5797958 69.3350984,10.5797958 68.7929534,11.0980225 L63.2816316,16.3650895 C62.7213668,16.8999862 62.7010726,17.7878571 63.2366943,18.3481217 C63.7715911,18.9083862 64.659462,18.9279557 65.2197266,18.3930587 L68.3595276,15.3931428 L68.3595276,26.3447571 C68.3595276,27.1188354 68.987198,27.7472306 69.7620011,27.7472306 C70.5368042,27.7472306 71.1644744,27.1188354 71.1644744,26.3447571 L71.1644744,15.3931428 C74.1716385,18.102417 74.3078995,18.7815475 75.2733231,18.7815475 C76.527214,18.7815475 77.1599578,17.2413635 76.2423706,16.3650895 L70.7310486,11.0980225 Z" id="Shape" fill="#000000"></path>
                </g>
            </g>
        </g>
    </g>
</svg>