<?xml version="1.0" encoding="UTF-8"?>
<svg width="95px" height="95px" viewBox="0 0 95 95" version="1.1" xmlns="http://www.w3.org/2000/svg" xmlns:xlink="http://www.w3.org/1999/xlink">
    <!-- Generator: Sketch 50.2 (55047) - http://www.bohemiancoding.com/sketch -->
    <title>006-system</title>
    <desc>Created with Sketch.</desc>
    <defs></defs>
    <g id="Page-2" stroke="none" stroke-width="1" fill="none" fill-rule="evenodd">
        <g id="Microsoft-Surface-Hub" transform="translate(-540.000000, -88.000000)" fill-rule="nonzero">
            <g id="eis" transform="translate(482.000000, 61.000000)">
                <g id="006-system" transform="translate(58.000000, 27.000000)">
                    <path d="M37.8362069,86.8103448 L56.8362069,86.8103448 L60.0028736,83.6501014 L90.0862069,83.6501014 L90.0862069,33.0862069 L4.5862069,33.0862069 L4.5862069,83.6501014 L34.6695402,83.6501014 L37.8362069,86.8103448 Z M9.3362069,53.627789 L9.3362069,37.826572 L85.3362069,37.826572 L85.3362069,47.2140751 L72.6220402,59.9008722 L53.6695402,48.8874239 L34.6695402,66.2687627 L23.5862069,58.3681542 L9.3362069,69.4290061 L9.3362069,53.627789 Z M22.0028736,78.9097363 L9.3362069,78.9097363 L15.6695402,78.9097363 L22.0028736,78.9097363 L28.3362069,78.9097363 L34.6695402,78.9097363 L41.0028736,78.9097363 L47.3362069,78.9097363 L53.6695402,78.9097363 L60.0028736,78.9097363 L66.3362069,78.9097363 L72.6695402,78.9097363 L79.0028736,78.9097363 L85.3362069,78.9097363 L22.0028736,78.9097363 Z" id="Shape" fill="#EBE5DD"></path>
                    <path d="M60.1516052,83.862069 L56.9887039,87.0287356 L38.0112961,87.0287356 L34.8483948,83.862069 L1.63793103,83.862069 L1.63793103,87.0287356 C1.63793103,90.5265169 4.47011147,93.362069 7.96373365,93.362069 L87.0362663,93.362069 C90.5298885,93.362069 93.362069,90.5265169 93.362069,87.0287356 L93.362069,83.862069 L60.1516052,83.862069 Z" id="Shape" fill="#FFDA44"></path>
                    <polygon id="Shape" fill="#2488FF" points="34.8333333 66.5982759 53.8333333 49.1215517 72.7858333 60.1954397 85.5 47.4390198 85.5 38 9.5 38 9.5 53.887931 9.5 69.7758621 23.75 58.6543103"></polygon>
                    <g id="Group" fill="#231F20">
                        <path d="M93.4166667,82.3333333 L91.8333333,82.3333333 L91.8333333,33.25 C91.8333333,32.3756042 91.1243958,31.6666667 90.25,31.6666667 L4.75,31.6666667 C3.87560417,31.6666667 3.16666667,32.3756042 3.16666667,33.25 L3.16666667,82.3333333 L1.58333333,82.3333333 C0.7089375,82.3333333 0,83.0422708 0,83.9166667 L0,87.0833333 C0.00514583333,91.4533333 3.54666667,94.9948542 7.91666667,95 L87.0833333,95 C91.4533333,94.9948542 94.9948542,91.4533333 95,87.0833333 L95,83.9166667 C95,83.0422708 94.2910625,82.3333333 93.4166667,82.3333333 Z M6.33333333,34.8333333 L88.6666667,34.8333333 L88.6666667,82.3333333 L60.1666667,82.3333333 C59.7464896,82.3355104 59.3437292,82.50275 59.0456667,82.7988333 L56.3445,85.5 L38.6555,85.5 L35.9543333,82.7988333 C35.6560729,82.50275 35.2535104,82.3355104 34.8333333,82.3333333 L6.33333333,82.3333333 L6.33333333,34.8333333 Z M91.8333333,87.0833333 C91.8333333,89.7067187 89.7067187,91.8333333 87.0833333,91.8333333 L7.91666667,91.8333333 C5.29328125,91.8333333 3.16666667,89.7067187 3.16666667,87.0833333 L3.16666667,85.5 L34.1778333,85.5 L36.8805833,88.20275 C37.1774583,88.499625 37.5800208,88.6666667 38,88.6666667 L57,88.6666667 C57.4199792,88.6666667 57.8225417,88.499625 58.1194167,88.20275 L60.8221667,85.5 L91.8333333,85.5 L91.8333333,87.0833333 Z" id="Shape"></path>
                        <path d="M34.9568333,68.5345833 L54.0439167,51.0371667 L73.0439167,62.1030833 L87.0833333,48.0605 L87.0833333,36.4166667 L7.91666667,36.4166667 L7.91666667,72.9045833 L23.7895833,60.5545833 L34.9568333,68.5345833 Z M11.0833333,66.42875 L11.0833333,39.5833333 L83.9166667,39.5833333 L83.9166667,46.7495 L72.5309167,58.1384167 L53.62275,47.1295 L34.7098333,64.4654167 L23.7104167,56.6089167 L11.0833333,66.42875 Z" id="Shape"></path>
                        <path d="M22.1666667,30.0833333 C23.0410625,30.0833333 23.75,29.3743958 23.75,28.5 L23.75,25.0910833 L29.2520833,24.17275 C29.8842292,24.0664687 30.3899063,23.5894896 30.533,22.9646667 C30.9585208,21.1022708 31.6933854,19.3241875 32.7069167,17.7048333 C33.0487188,17.1603646 33.0273438,16.4635 32.6530833,15.941 L29.412,11.4110833 L31.9944167,8.82866667 L36.5243333,12.06975 C37.0468333,12.4440104 37.7436979,12.4653854 38.2881667,12.1235833 C39.9057396,11.1106458 41.6814479,10.3757812 43.5416667,9.94966667 C44.1664896,9.80657292 44.6434688,9.30089583 44.74975,8.66875 L45.6744167,3.16666667 L49.3255833,3.16666667 L50.2439167,8.66875 C50.3501979,9.30089583 50.8271771,9.80657292 51.452,9.94966667 C53.3143958,10.3751875 55.0924792,11.1100521 56.7118333,12.1235833 C57.2563021,12.4653854 57.9531667,12.4440104 58.4756667,12.06975 L63.0055833,8.82866667 L65.588,11.4110833 L62.3469167,15.941 C61.9726563,16.4635 61.9512813,17.1603646 62.2930833,17.7048333 C63.3060208,19.3224062 64.0408854,21.0981146 64.467,22.9583333 C64.6100938,23.5831562 65.1157708,24.0601354 65.7479167,24.1664167 L71.25,25.08475 L71.25,28.5 C71.25,29.3743958 71.9589375,30.0833333 72.8333333,30.0833333 C73.7077292,30.0833333 74.4166667,29.3743958 74.4166667,28.5 L74.4166667,23.75 C74.4164688,22.9765417 73.8573542,22.3164896 73.0945833,22.1888333 L67.2916667,21.2166667 C66.8679271,19.7293229 66.2761563,18.2950208 65.5278333,16.9416667 L68.9494167,12.1584167 C69.3996771,11.52825 69.3280313,10.6647396 68.78,10.1175 L64.2991667,5.63508333 C63.7515313,5.08744792 62.8880208,5.01659375 62.25825,5.46725 L57.475,8.89358333 C56.1218438,8.14367708 54.6875417,7.55032292 53.2,7.125 L52.2294167,1.31733333 C52.0995833,0.55575 51.4391354,-0.000989583333 50.6666667,-1.27054942e-21 L44.3333333,-1.27054942e-21 C43.559875,0.000197916667 42.8998229,0.5593125 42.7721667,1.32208333 L41.8,7.125 C40.3126563,7.54873958 38.8783542,8.14051042 37.525,8.88883333 L32.7465,5.472 C32.1167292,5.02134375 31.2532188,5.09219792 30.7055833,5.63983333 L26.2231667,10.12225 C25.6755312,10.6698854 25.6046771,11.5333958 26.0553333,12.1631667 L29.4769167,16.9416667 C28.7270104,18.2948229 28.1336563,19.729125 27.7083333,21.2166667 L21.9006667,22.18725 C21.1390833,22.3170833 20.5823437,22.9775312 20.5833333,23.75 L20.5833333,28.5 C20.5833333,29.3743958 21.2922708,30.0833333 22.1666667,30.0833333 Z" id="Shape"></path>
                        <path d="M57,26.9166667 C57,27.7910625 57.7089375,28.5 58.5833333,28.5 C59.4577292,28.5 60.1666667,27.7910625 60.1666667,26.9166667 C60.1666667,19.9211042 54.4955625,14.25 47.5,14.25 C40.5044375,14.25 34.8333333,19.9211042 34.8333333,26.9166667 C34.8333333,27.7910625 35.5422708,28.5 36.4166667,28.5 C37.2910625,28.5 38,27.7910625 38,26.9166667 C38,21.6698958 42.2532292,17.4166667 47.5,17.4166667 C52.7467708,17.4166667 57,21.6698958 57,26.9166667 Z" id="Shape"></path>
                        <path d="M41.1666667,26.9166667 C41.1666667,27.7910625 41.8756042,28.5 42.75,28.5 C43.6243958,28.5 44.3333333,27.7910625 44.3333333,26.9166667 C44.3333333,25.1676771 45.7510104,23.75 47.5,23.75 C49.2489896,23.75 50.6666667,25.1676771 50.6666667,26.9166667 C50.6666667,27.7910625 51.3756042,28.5 52.25,28.5 C53.1243958,28.5 53.8333333,27.7910625 53.8333333,26.9166667 C53.8333333,23.4188854 50.9977812,20.5833333 47.5,20.5833333 C44.0022187,20.5833333 41.1666667,23.4188854 41.1666667,26.9166667 Z" id="Shape"></path>
                        <polygon id="Shape" points="87.0833333 79.1666667 87.0833333 77.5833333 87.0833333 53.8333333 83.9166667 53.8333333 83.9166667 77.5833333 80.75 77.5833333 80.75 60.1666667 77.5833333 60.1666667 77.5833333 77.5833333 74.4166667 77.5833333 74.4166667 64.9166667 71.25 64.9166667 71.25 77.5833333 68.0833333 77.5833333 68.0833333 61.75 64.9166667 61.75 64.9166667 77.5833333 61.75 77.5833333 61.75 58.5833333 58.5833333 58.5833333 58.5833333 77.5833333 55.4166667 77.5833333 55.4166667 55.4166667 52.25 55.4166667 52.25 77.5833333 49.0833333 77.5833333 49.0833333 61.75 45.9166667 61.75 45.9166667 77.5833333 42.75 77.5833333 42.75 68.0833333 39.5833333 68.0833333 39.5833333 77.5833333 36.4166667 77.5833333 36.4166667 71.25 33.25 71.25 33.25 77.5833333 30.0833333 77.5833333 30.0833333 68.0833333 26.9166667 68.0833333 26.9166667 77.5833333 23.75 77.5833333 23.75 66.5 20.5833333 66.5 20.5833333 77.5833333 17.4166667 77.5833333 17.4166667 71.25 14.25 71.25 14.25 77.5833333 11.0833333 77.5833333 11.0833333 76 7.91666667 76 7.91666667 77.5833333 7.91666667 79.1666667 7.91666667 80.75 87.0833333 80.75"></polygon>
                    </g>
                </g>
            </g>
        </g>
    </g>
</svg>