<?xml version="1.0" encoding="UTF-8"?>
<svg width="104px" height="98px" viewBox="0 0 104 98" version="1.1" xmlns="http://www.w3.org/2000/svg" xmlns:xlink="http://www.w3.org/1999/xlink">
    <!-- Generator: Sketch 50.2 (55047) - http://www.bohemiancoding.com/sketch -->
    <title>002-rgb</title>
    <desc>Created with Sketch.</desc>
    <defs></defs>
    <g id="Page-2" stroke="none" stroke-width="1" fill="none" fill-rule="evenodd">
        <g id="Microsoft-Surface-Hub" transform="translate(-1423.000000, -101.000000)" fill-rule="nonzero" stroke="#000000" stroke-width="3">
            <g id="fed" transform="translate(1370.000000, 61.000000)">
                <g id="002-rgb" transform="translate(55.000000, 42.000000)">
                    <path d="M50.0736377,39.5189003 C55.3100965,35.2642775 62.0193094,32.8096874 69.3830797,32.8096874 C73.3104238,32.8096874 77.0741286,33.6278841 80.6741941,34.9369989 C80.8378334,33.6278841 81.0014728,32.1551301 81.0014728,30.8460154 C81.0014728,13.8275241 67.2557683,0.0818196694 50.237277,0.0818196694 C33.2187858,0.0818196694 19.4730813,13.8275241 19.4730813,30.8460154 C19.4730813,32.3187694 19.6367207,33.6278841 19.80036,34.9369989 C23.2367861,33.6278841 27.0004909,32.8096874 31.0914744,32.8096874 C38.127966,32.8096874 44.8371789,35.4279169 50.0736377,39.5189003 Z" id="Shape" fill="#F4AD31"></path>
                    <path d="M30.7641957,32.8096874 C38.127966,32.8096874 44.6735395,35.4279169 50.0736377,39.5189003 C55.3100965,35.2642775 62.0193094,32.8096874 69.3830797,32.8096874 C73.3104238,32.8096874 77.0741286,33.6278841 80.6741941,34.9369989 C80.8378334,33.6278841 81.0014728,32.1551301 81.0014728,30.8460154 C81.0014728,13.8275241 67.2557683,0.0818196694 50.237277,0.0818196694" id="Shape" fill="#E2821A"></path>
                    <path d="M38.4552446,63.5738832 C38.4552446,62.1011291 38.618884,60.7920144 38.7825233,59.4828997 C28.6368843,55.5555556 21.1094747,46.2281132 19.4730813,34.9369989 C8.18196694,39.5189003 0,50.482736 0,63.5738832 C0,80.5923744 13.7457045,94.3380789 30.7641957,94.3380789 C38.127966,94.3380789 44.6735395,91.7198495 50.0736377,87.628866 C43.0371461,81.9014891 38.4552446,73.2286042 38.4552446,63.5738832 Z" id="Shape" fill="#D32A0F"></path>
                    <path d="M30.7641957,94.3380789 C38.127966,94.3380789 44.6735395,91.7198495 50.0736377,87.628866 C43.0371461,82.0651285 38.4552446,73.3922435 38.4552446,63.5738832 C38.4552446,62.1011291 38.618884,60.7920144 38.7825233,59.4828997" id="Shape" fill="#B71100"></path>
                    <path d="M80.5105547,34.9369989 C79.0378007,46.2281132 71.5103911,55.3919162 61.2011127,59.4828997 C61.3647521,60.7920144 61.5283914,62.2647685 61.5283914,63.5738832 C61.5283914,73.2286042 56.9464899,81.9014891 49.9099984,87.628866 C55.1464572,91.8834888 61.8556701,94.3380789 69.2194404,94.3380789 C86.2379316,94.3380789 99.9836361,80.5923744 99.9836361,63.5738832 C100.147275,50.482736 91.9653085,39.5189003 80.5105547,34.9369989 Z" id="Shape" fill="#0878A0"></path>
                    <path d="M50.0736377,87.628866 C55.3100965,91.8834888 62.0193094,94.3380789 69.3830797,94.3380789 C86.4015709,94.3380789 100.147275,80.5923744 100.147275,63.5738832" id="Shape" fill="#0C6C8E"></path>
                    <path d="M50.0736377,39.5189003 C44.0189822,44.2644412 39.9279987,51.3009327 38.7825233,59.3192604 C42.2189494,60.6283751 45.9826542,61.4465718 50.0736377,61.4465718 C54.0009818,61.4465718 57.7646866,60.6283751 61.3647521,59.3192604 C60.2192767,51.4645721 56.1282932,44.4280805 50.0736377,39.5189003 Z" id="Shape" fill="#3D3736"></path>
                    <path d="M50.0736377,61.6102111 C54.0009818,61.6102111 57.7646866,60.7920144 61.3647521,59.4828997 C60.2192767,51.4645721 56.1282932,44.4280805 50.0736377,39.6825397" id="Shape" fill="#000000"></path>
                    <path d="M61.3647521,59.4828997 C71.5103911,55.5555556 79.0378007,46.2281132 80.6741941,34.9369989 C77.237768,33.6278841 73.4740632,32.8096874 69.3830797,32.8096874 C62.1829488,32.8096874 55.4737359,35.4279169 50.0736377,39.5189003 C56.1282932,44.4280805 60.2192767,51.4645721 61.3647521,59.4828997 Z" id="Shape" fill="#0CAA7D"></path>
                    <path d="M50.0736377,39.5189003 C44.8371789,35.2642775 38.127966,32.8096874 30.7641957,32.8096874 C26.8368516,32.8096874 23.0731468,33.6278841 19.4730813,34.9369989 C20.9458354,46.2281132 28.473245,55.3919162 38.7825233,59.4828997 C39.9279987,51.4645721 44.0189822,44.4280805 50.0736377,39.5189003 Z" id="Shape" fill="#720D20"></path>
                    <path d="M61.6920308,63.5738832 C61.6920308,62.1011291 61.5283914,60.7920144 61.3647521,59.4828997 C57.928326,60.7920144 54.1646212,61.6102111 50.0736377,61.6102111 C46.1462936,61.6102111 42.3825888,60.7920144 38.7825233,59.4828997 C38.618884,60.7920144 38.4552446,62.2647685 38.4552446,63.5738832 C38.4552446,73.2286042 43.0371461,81.9014891 50.0736377,87.628866 C57.1101293,81.9014891 61.6920308,73.2286042 61.6920308,63.5738832 Z" id="Shape" fill="#783089"></path>
                </g>
            </g>
        </g>
    </g>
</svg>