<?xml version="1.0" encoding="UTF-8"?>
<svg width="56px" height="95px" viewBox="0 0 56 95" version="1.1" xmlns="http://www.w3.org/2000/svg" xmlns:xlink="http://www.w3.org/1999/xlink">
    <!-- Generator: Sketch 50.2 (55047) - http://www.bohemiancoding.com/sketch -->
    <title>002-tie</title>
    <desc>Created with Sketch.</desc>
    <defs></defs>
    <g id="Page-2" stroke="none" stroke-width="1" fill="none" fill-rule="evenodd">
        <g id="Microsoft-Surface-Hub" transform="translate(-115.000000, -103.000000)" fill-rule="nonzero">
            <g id="fp1" transform="translate(38.000000, 61.000000)">
                <g id="002-tie" transform="translate(77.000000, 42.000000)">
                    <path d="M30.8775746,1.05555556 L12.3994256,1.05555556 C11.1423159,1.05555556 10.2543048,2.32886343 10.6508601,3.56271991 L14.2556065,14.7777778 L29.0213937,14.7777778 L32.6261401,3.56271991 C33.0226954,2.32886343 32.1346843,1.05555556 30.8775746,1.05555556 Z" id="Shape" fill="#FF5D5D"></path>
                    <polygon id="Shape" fill="#FF8E8E" points="28.0237255 14.7777778 40.1103905 73.3300526 20.5829635 92.8888889 1.05553659 73.3300526 13.1422015 14.7777778"></polygon>
                    <polygon id="Shape" fill="#FF5D5D" points="29.5550245 14.7777778 54.8879027 57.108778 46.9708648 77.0555556 41.1515084 73.6125734"></polygon>
                    <path d="M55.6915339,56.2427832 L31.1470052,14.0390332 C31.1321946,14.0136133 31.1153475,13.9906055 31.0996113,13.9661133 L34.1128318,4.88155273 C34.486985,3.75324219 34.2961132,2.50414063 33.6022357,1.53985352 C32.9083581,0.575566406 31.7855281,0 30.5993826,0 L12.0350117,0 C10.8486811,0 9.72603616,0.575751953 9.03215864,1.53985352 C8.33828112,2.50395508 8.14722413,3.75342773 8.52156254,4.88155273 L11.9863218,15.3270996 L0.0384100248,73.2553906 C-0.0878505054,73.8669531 0.10154029,74.5011523 0.542156216,74.9429395 L20.0079384,94.4563477 C20.3550623,94.8044336 20.82604,95 21.3171972,95 C21.8083543,95 22.2791469,94.8044336 22.6264559,94.4563477 L42.0924232,74.9429395 C42.5330391,74.5013379 42.7224299,73.8671387 42.5961694,73.2553906 L32.3175996,23.4206543 L52.0442338,57.3401074 L44.694649,76.3946582 C44.3258646,77.3504102 44.8001747,78.4247266 45.7539786,78.7943359 C45.973546,78.8793164 46.1990377,78.9197656 46.4210119,78.9197656 C47.1635793,78.9197656 47.8644919,78.4685156 48.1483003,77.7328223 L55.8189053,57.8462793 C56.0218107,57.3200684 55.9749722,56.7300293 55.6915339,56.2427832 Z M15.4075749,17.0703125 L26.5349784,17.0703125 L12.5078407,31.1286426 L15.4075749,17.0703125 Z M11.1519285,37.7034961 C11.2254262,37.6491309 11.2968875,37.5906836 11.3633501,37.5238867 L28.0053026,20.844707 L29.4402665,27.8023438 L8.9606974,48.3279102 L11.1519285,37.7034961 Z M30.5993826,3.7109375 L27.3989929,13.359375 L15.2354014,13.359375 L12.0350117,3.7109375 L30.5993826,3.7109375 Z M4.04875549,72.1430371 L23.2679409,52.8808594 C23.9908842,52.1562988 23.9908842,50.981416 23.2679409,50.2566699 C22.5449975,49.5321094 21.372737,49.5321094 20.6496085,50.2566699 L5.4131838,65.5271777 L7.59812042,54.93375 C7.62533493,54.9094434 7.65310485,54.8864355 7.67920856,54.8602734 L30.3374198,32.1515625 L34.1091291,50.4381348 C34.0426665,50.4887891 33.97787,50.5425977 33.9171465,50.6032715 L17.5328988,67.0241699 C16.8099554,67.7487305 16.8099554,68.9236133 17.5328988,69.6483594 C17.894463,70.0107324 18.3682177,70.1918262 18.8419724,70.1918262 C19.3157271,70.1918262 19.7896669,70.0107324 20.151046,69.6483594 L35.0014689,54.7647168 L36.4364328,61.722168 L14.5106068,83.697041 L3.86639974,73.0267969 L4.04875549,72.1430371 Z M21.3171972,90.5201563 L17.1285689,86.321416 L37.3334009,66.0713867 L38.7679946,73.0267969 L21.3171972,90.5201563 Z" id="Shape" fill="#000000"></path>
                    <path d="M15.3691405,73.4249722 C15.6636352,73.1304722 15.8330489,72.7219722 15.8330489,72.3055556 C15.8330489,71.8891389 15.6636352,71.4806389 15.3691405,71.1861389 C15.0746458,70.8916389 14.6661532,70.7222222 14.249744,70.7222222 C13.8333348,70.7222222 13.4248421,70.8916389 13.1303474,71.1861389 C12.8358527,71.4806389 12.6664391,71.8891389 12.6664391,72.3055556 C12.6664391,72.7219722 12.8358527,73.1304722 13.1303474,73.4249722 C13.4248421,73.7194722 13.8333348,73.8888889 14.249744,73.8888889 C14.6661532,73.8888889 15.0746458,73.7194722 15.3691405,73.4249722 Z" id="Shape" fill="#000000"></path>
                    <path d="M26.9161831,47.5 C27.3325923,47.5 27.7410849,47.3305833 28.0355796,47.0360833 C28.3300743,46.7415833 28.499488,46.3330833 28.499488,45.9166667 C28.499488,45.50025 28.3300743,45.09175 28.0355796,44.79725 C27.7410849,44.5011667 27.3325923,44.3333333 26.9161831,44.3333333 C26.4981906,44.3333333 26.0912812,44.5011667 25.7967865,44.79725 C25.5007085,45.09175 25.3328782,45.50025 25.3328782,45.9166667 C25.3328782,46.3330833 25.5007085,46.7415833 25.7967865,47.0360833 C26.0912812,47.3305833 26.4981906,47.5 26.9161831,47.5 Z" id="Shape" fill="#000000"></path>
                </g>
            </g>
        </g>
    </g>
</svg>