<?xml version="1.0" encoding="UTF-8"?>
<svg width="76px" height="95px" viewBox="0 0 76 95" version="1.1" xmlns="http://www.w3.org/2000/svg" xmlns:xlink="http://www.w3.org/1999/xlink">
    <!-- Generator: Sketch 50.2 (55047) - http://www.bohemiancoding.com/sketch -->
    <title>004-py</title>
    <desc>Created with Sketch.</desc>
    <defs></defs>
    <g id="Page-2" stroke="none" stroke-width="1" fill="none" fill-rule="evenodd">
        <g id="Microsoft-Surface-Hub" transform="translate(-993.000000, -115.000000)" fill-rule="nonzero">
            <g id="prg1" transform="translate(926.000000, 61.000000)">
                <g id="004-py" transform="translate(67.000000, 54.000000)">
                    <polygon id="Shape" fill="#E8E8E8" points="57.9044937 2.23354232 2.47305352 2.23354232 2.47305352 92.5246395 72.8830395 92.5246395 72.8830395 17.2801724"></polygon>
                    <g id="Group" transform="translate(19.566235, 22.037618)">
                        <g>
                            <path d="M17.8906538,0.271003135 C13.3874551,0.271003135 10.4133874,2.14926332 10.4133874,3.94145768 L10.4133874,9.6581348 L17.8906538,9.6581348 L17.8906538,10.5116458 L3.87292869,10.5116458 C2.0882509,10.5116458 0.219378998,13.4989342 0.219378998,18.0228997 C0.219378998,22.5468652 2.08854736,25.5341536 3.87292869,25.5341536 L9.56284912,25.5341536 L9.56284912,21.9616771 C9.56284912,19.5536207 11.5129505,17.5943574 13.9104072,17.5943574 L21.8697145,17.5937618 C23.7981744,17.5937618 25.3673272,16.0174765 25.3673272,14.079953 L25.3673272,7.90405956 L25.3679201,7.90405956 L25.3679201,3.94145768 C25.3676237,2.14926332 22.3938524,0.271003135 17.8906538,0.271003135 Z" id="Shape" fill="#004A94"></path>
                            <ellipse id="Oval" fill="#FFFFFF" cx="13.8383679" cy="5.33340125" rx="1.07614292" ry="1.08103448"></ellipse>
                        </g>
                        <g transform="translate(10.376034, 10.423197)">
                            <path d="M21.5323451,0.0887460815 L15.8409424,0.0887460815 L15.8409424,3.65675549 C15.8409424,6.06481191 13.890841,8.02377743 11.4936808,8.02377743 L3.53407708,8.02467085 C1.6056171,8.02467085 0.0367608051,9.60095611 0.0367608051,11.5384796 L0.0367608051,15.4796395 L0.0373537213,15.4787461 L0.0373537213,21.6811442 C0.0373537213,23.4736364 3.01112498,25.3515987 7.51462007,25.3515987 C12.0181152,25.3515987 14.9918864,23.4733386 14.9918864,21.6811442 L14.9918864,15.9644671 L7.51462007,15.9644671 L7.51462007,15.1109561 L21.5323451,15.1109561 C23.3170229,15.1109561 25.1858948,12.1236677 25.1858948,7.59970219 C25.1858948,3.07573668 23.3167265,0.0887460815 21.5323451,0.0887460815 Z" id="Shape" fill="#FB9200"></path>
                            <ellipse id="Oval" fill="#FFFFFF" cx="11.5669059" cy="20.2894984" rx="1.07614292" ry="1.08103448"></ellipse>
                        </g>
                    </g>
                    <polygon id="Shape" fill="#004A94" points="60.2224996 9.75700627 2.47305352 9.75700627 2.47305352 2.23354232 57.9044937 2.23354232"></polygon>
                    <polygon id="Shape" fill="#D1D3D3" points="57.9044937 17.2801724 72.8830395 17.2801724 57.9044937 2.23354232"></polygon>
                    <path d="M74.4551568,15.7012069 L59.4769075,0.654278997 C59.0597909,0.235266458 58.4944453,0 57.9044937,0 L2.47305352,0 C1.24482759,0 0.249617725,1.00003135 0.249617725,2.23354232 L0.249617725,92.5246395 C0.249617725,93.7584483 1.24482759,94.7581818 2.47305352,94.7581818 L72.8830395,94.7581818 C74.1112654,94.7581818 75.1064753,93.7584483 75.1064753,92.5246395 L75.1064753,17.2801724 C75.1064753,16.687837 74.8722734,16.1199216 74.4551568,15.7012069 Z M60.1279295,7.62561129 L67.5150726,15.0466301 L60.1279295,15.0466301 L60.1279295,7.62561129 Z M4.69648931,4.46708464 L55.6810579,4.46708464 L55.6810579,7.52346395 L4.69648931,7.52346395 L4.69648931,4.46708464 Z M70.6596037,90.2910972 L4.69648931,90.2910972 L4.69648931,11.9905486 L55.6810579,11.9905486 L55.6810579,17.2804702 C55.6810579,18.514279 56.6762677,19.5140125 57.9044937,19.5140125 L70.6593072,19.5140125 L70.6596037,90.2910972 Z M43.7515837,74.8025235 L41.319145,69.5054545 L37.1358246,69.5054545 L41.8154158,78.330627 L41.8154158,83.7941693 L45.6877516,83.7941693 L45.6877516,78.2138871 L50.3673428,69.5057524 L46.2032922,69.5057524 L43.7515837,74.8025235 Z M35.0537993,70.6880408 C34.1519738,69.8997492 32.8027929,69.5051567 31.0065533,69.5051567 L26.08357,69.5051567 L26.08357,83.7935737 L29.9265564,83.7935737 L29.9265564,79.0536991 L31.0068497,79.0536991 C32.7319395,79.0536991 34.0633328,78.618605 35.0007333,77.7487147 C35.9378374,76.8788245 36.4065377,75.6459091 36.4065377,74.0496708 C36.4062412,72.5969749 35.955032,71.4763323 35.0537993,70.6880408 Z M32.0038384,75.4180878 C31.663208,75.744185 31.2042908,75.9067868 30.6267905,75.9067868 L29.9262599,75.9067868 L29.9262599,72.6234796 L30.9188017,72.6234796 C31.9824934,72.6234796 32.5146357,73.105627 32.5146357,74.0696238 C32.5146357,74.6428997 32.3444687,75.0922884 32.0038384,75.4180878 Z" id="Shape" fill="#333E48"></path>
                </g>
            </g>
        </g>
    </g>
</svg>