<?xml version="1.0" encoding="UTF-8"?>
<svg width="99px" height="99px" viewBox="0 0 99 99" version="1.1" xmlns="http://www.w3.org/2000/svg" xmlns:xlink="http://www.w3.org/1999/xlink">
    <!-- Generator: Sketch 50.2 (55047) - http://www.bohemiancoding.com/sketch -->
    <title>008-hashtag</title>
    <desc>Created with Sketch.</desc>
    <defs></defs>
    <g id="Page-2" stroke="none" stroke-width="1" fill="none" fill-rule="evenodd">
        <g id="Microsoft-Surface-Hub" transform="translate(-316.000000, -339.000000)" fill-rule="nonzero">
            <g id="prg2" transform="translate(260.000000, 287.000000)">
                <g id="008-hashtag" transform="translate(58.000000, 54.000000)">
                    <circle id="Oval" stroke="#000000" stroke-width="4" fill="#8C50D7" cx="47.5" cy="47.5" r="47.5"></circle>
                    <path d="M56.6133601,84.1565303 C31.3355078,84.1565303 10.8434697,63.6644922 10.8434697,38.3866399 C10.8434697,28.1254238 14.2206082,18.6533807 19.9232505,11.02 C8.75235784,19.3658535 1.52,32.6931158 1.52,47.7101096 C1.52,72.9879619 22.0120381,93.48 47.2898904,93.48 C62.3068842,93.48 75.6341465,86.2476422 83.98,75.0767495 C76.3466193,80.7795706 66.8745762,84.1565303 56.6133601,84.1565303 Z" id="Shape" fill="#733CB9"></path>
                    <g id="Group" transform="translate(43.974609, 6.865234)" fill="#AA6EFF">
                        <path d="M10.5709766,7.87980469 C10.3511035,7.87980469 10.1260352,7.85828125 9.9009668,7.81541992 C7.81541992,7.41259766 5.67124023,7.20886719 3.52539063,7.20886719 C1.58234375,7.20886719 0.00686523438,5.63338867 0.00686523438,3.6903418 C0.00686523438,1.74729492 1.58234375,0.171816406 3.52539063,0.171816406 C6.11618164,0.171816406 8.7103125,0.418408203 11.2343066,0.90546875 C13.1430273,1.27396484 14.390459,3.11904297 14.0227051,5.02702148 C13.6978125,6.70956055 12.2238281,7.87980469 10.5709766,7.87980469 Z" id="Shape"></path>
                        <path d="M40.09,38.8763379 C38.3684961,38.8763379 36.8635254,37.610166 36.612666,35.8552637 C35.1885938,25.9008594 29.4073242,17.1992676 20.7521191,11.9822461 C19.0873926,10.9788086 18.5513477,8.81663086 19.5547852,7.15283203 C20.5565527,5.48643555 22.7178027,4.95113281 24.3841992,5.95549805 C34.857207,12.2683594 41.853252,22.8033398 43.5779102,34.858877 C43.8545605,36.7822559 42.5178809,38.5648047 40.5937598,38.8403418 C40.4252832,38.8642773 40.2568066,38.8763379 40.09,38.8763379 Z" id="Shape"></path>
                    </g>
                    <g id="Group" transform="translate(22.265625, 31.171875)" fill="#FFFFFF">
                        <path d="M48.1046973,15.0087012 C49.3192871,15.0087012 50.3037988,14.0241895 50.3037988,12.8095996 C50.3037988,11.5950098 49.3192871,10.610498 48.1046973,10.610498 L46.2128613,10.610498 L46.7424121,7.96311523 C46.9812109,6.77246094 46.2080371,5.61353516 45.0173828,5.37566406 C43.814668,5.1359375 42.6687305,5.90911133 42.4299316,7.10069336 L41.7280078,10.6106836 L37.4164551,10.6106836 L37.9460059,7.96330078 C38.1848047,6.77264648 37.4116309,5.6137207 36.2209766,5.37584961 C35.0201172,5.13612305 33.8723242,5.90929688 33.6335254,7.10087891 L32.9316016,10.6108691 L30.5118848,10.6108691 C29.2972949,10.6108691 28.3127832,11.5953809 28.3127832,12.8099707 C28.3127832,14.0245605 29.2972949,15.0090723 30.5118848,15.0090723 L32.0519238,15.0090723 L31.5242285,17.6479199 L28.7527148,17.6479199 C27.538125,17.6479199 26.5536133,18.6324316 26.5536133,19.8470215 C26.5536133,21.0616113 27.538125,22.046123 28.7527148,22.046123 L30.6445508,22.046123 L30.115,24.6935059 C29.8762012,25.8841602 30.649375,27.0430859 31.8400293,27.280957 C31.9860547,27.3102734 32.1302246,27.3247461 32.2730957,27.3247461 C33.3004687,27.3247461 34.217998,26.6014844 34.4274805,25.5561133 L35.1294043,22.046123 L39.440957,22.046123 L38.9114062,24.6935059 C38.6726074,25.8841602 39.4457812,27.0430859 40.6364355,27.280957 C40.7824609,27.3102734 40.9266309,27.3247461 41.069502,27.3247461 C42.096875,27.3247461 43.0144043,26.6014844 43.2238867,25.5561133 L43.9258105,22.046123 L46.3455273,22.046123 C47.5601172,22.046123 48.5446289,21.0616113 48.5446289,19.8470215 C48.5446289,18.6324316 47.5601172,17.6479199 46.3455273,17.6479199 L44.8054883,17.6479199 L45.3331836,15.0090723 L48.1046973,15.0090723 L48.1046973,15.0087012 Z M40.3206348,17.6475488 L36.009082,17.6475488 L36.5367773,15.0087012 L40.8483301,15.0087012 L40.3206348,17.6475488 Z" id="Shape"></path>
                        <path d="M14.6787988,4.453125 C16.7524707,4.453125 18.750625,5.08268555 20.4563574,6.27333984 C21.4562695,6.97081055 22.8254199,6.72533203 23.5197363,5.72857422 C24.2136816,4.73311523 23.969873,3.36192383 22.9749707,2.66705078 C20.5251953,0.957792969 17.6577539,0.054921875 14.6787988,0.054921875 C6.67616211,0.054921875 0.164951172,6.56613281 0.164951172,14.5687695 L0.164951172,18.0872949 C0.164951172,26.0899316 6.67616211,32.6011426 14.6787988,32.6011426 C17.6579395,32.6011426 20.5251953,31.698457 22.9751562,29.9888281 C23.969873,29.2939551 24.2138672,27.9227637 23.5199219,26.9273047 C22.8241211,25.9325879 21.4564551,25.6859961 20.456543,26.3825391 C18.7504395,27.5733789 16.7524707,28.2029395 14.6786133,28.2029395 C9.10014648,28.2029395 4.5627832,23.6646484 4.5627832,18.0871094 L4.5627832,14.568584 C4.5631543,8.99141602 9.10051758,4.453125 14.6787988,4.453125 Z" id="Shape"></path>
                    </g>
                </g>
            </g>
        </g>
    </g>
</svg>