<?xml version="1.0" encoding="UTF-8"?>
<svg width="1236px" height="1626px" viewBox="0 0 1236 1626" version="1.1" xmlns="http://www.w3.org/2000/svg" xmlns:xlink="http://www.w3.org/1999/xlink">
    <!-- Generator: Sketch 50.2 (55047) - http://www.bohemiancoding.com/sketch -->
    <title>Group 5</title>
    <desc>Created with Sketch.</desc>
    <defs></defs>
    <g id="Page-2" stroke="none" stroke-width="1" fill="none" fill-rule="evenodd">
        <g id="MODULES---Year-1" transform="translate(-487.000000, -267.000000)">
            <g id="Group-5" transform="translate(487.000000, 267.000000)">
                <rect id="Rectangle-6" fill="#ED6A5A" x="0" y="0" width="1236" height="1626" rx="63"></rect>
                <g id="Group-2" transform="translate(157.000000, 347.000000)">
                    <text id="A-broad-introduction" font-family="Manrope-Regular, Manrope" font-size="50" font-weight="normal" fill="#FFFFFF">
                        <tspan x="0" y="572">A broad introduction to the field </tspan>
                        <tspan x="0" y="641">of IT by exploring the roles, </tspan>
                        <tspan x="0" y="710">professional practice, ethical</tspan>
                        <tspan x="0" y="779">expectations and career </tspan>
                        <tspan x="0" y="848">development paths of IT </tspan>
                        <tspan x="0" y="917">professionals.</tspan>
                    </text>
                    <text id="FUNDAMENTALS-OF-IT-P" font-family="Manrope-Bold, Manrope" font-size="80" font-weight="bold" fill="#FFFFFF">
                        <tspan x="0" y="354">FUNDAMENTALS OF</tspan>
                        <tspan x="0" y="464">IT PROFESSIONALS I</tspan>
                    </text>
                    <g id="002-tie" fill-rule="nonzero">
                        <path d="M79.950083,4.28259967 L31.3975084,4.28259967 C28.0943684,4.28259967 25.7610598,7.54119407 26.8030353,10.6988262 L36.2747481,39.3999169 L75.0728433,39.3999169 L84.544556,10.6988262 C85.5865316,7.54119407 83.2532229,4.28259967 79.950083,4.28259967 Z" id="Shape" fill="#FF5D5D"></path>
                        <polygon id="Shape" fill="#FF8E8E" points="74.6645344 40.2564369 106.208472 193.706239 55.2455357 244.964701 4.28259967 193.706239 35.8265371 40.2564369"></polygon>
                        <polygon id="Shape" fill="#FF5D5D" points="77.086794 39.3999169 142.182309 150.015547 121.838641 202.138704 106.885188 193.141808"></polygon>
                        <path d="M146.658061,147.561704 L82.0225099,36.8335908 C81.9835076,36.7668977 81.9391425,36.7065331 81.8977026,36.6422741 L89.8327162,12.8075141 C90.8180113,9.84721562 90.3153694,6.57000307 88.4881126,4.0400456 C86.6608559,1.51008814 83.7039957,0 80.5804007,0 L31.6929946,0 C28.5689121,0 25.6125394,1.51057495 23.7852826,4.0400456 C21.9580259,6.56951625 21.4548965,9.84770243 22.4406791,12.8075141 L31.5647746,40.2130337 L0.101148943,192.19693 C-0.231345482,193.80146 0.267396155,195.46538 1.42771394,196.624478 L52.6888962,247.820944 C53.6030121,248.734202 54.8432846,249.247301 56.1366976,249.247301 C57.4301107,249.247301 58.6698956,248.734202 59.5844991,247.820944 L110.846169,196.624478 C112.006487,195.465867 112.505228,193.801947 112.172734,192.19693 L85.1051525,61.4477354 L137.053262,150.440705 L117.698869,200.433288 C116.727712,202.940852 117.97676,205.759488 120.488507,206.729216 C121.066716,206.952176 121.660526,207.058301 122.245072,207.058301 C124.200549,207.058301 126.046332,205.874376 126.793713,203.94417 L146.993481,151.768726 C147.527812,150.38813 147.404467,148.84007 146.658061,147.561704 Z M40.5743009,44.7866243 L69.8772004,44.7866243 L32.9381423,81.6708435 L40.5743009,44.7866243 Z M29.3674837,98.9209961 C29.5610325,98.7783604 29.7492185,98.6250149 29.9242413,98.4497629 L73.7491516,54.6893364 L77.5279848,72.9437803 L23.5970966,126.795802 L29.3674837,98.9209961 Z M80.5804007,9.73622268 L72.1524958,35.0504017 L40.1208995,35.0504017 L31.6929946,9.73622268 L80.5804007,9.73622268 Z M10.6619909,189.278497 L61.2737852,138.741173 C63.177584,136.840176 63.177584,133.757688 61.2737852,131.856203 C59.3699865,129.955206 56.2829562,129.955206 54.3786699,131.856203 L14.2550758,171.92076 L20.008887,144.127252 C20.0805537,144.063479 20.1536829,144.003115 20.2224245,143.934474 L79.8905479,84.3546333 L89.8229656,132.332305 C89.6479429,132.465204 89.4773079,132.606379 89.3173986,132.765567 L46.1711279,175.848352 C44.2673292,177.749349 44.2673292,180.831837 46.1711279,182.733322 C47.123271,183.684064 48.3708564,184.159192 49.6184418,184.159192 C50.8660272,184.159192 52.1141001,183.684064 53.0657557,182.733322 L92.1728529,143.683767 L95.9516862,161.937724 L38.2122255,219.592227 L10.1817754,191.597179 L10.6619909,189.278497 Z M56.1366976,237.493733 L45.1063657,226.477683 L98.3137617,173.348577 L102.09162,191.597179 L56.1366976,237.493733 Z" id="Shape" fill="#000000"></path>
                        <path d="M40.5891949,194.762783 C41.4654148,193.886563 41.9694767,192.671161 41.9694767,191.432205 C41.9694767,190.193249 41.4654148,188.977847 40.5891949,188.101627 C39.712975,187.225407 38.4975732,186.721346 37.2586171,186.721346 C36.019661,186.721346 34.8042592,187.225407 33.9280393,188.101627 C33.0518195,188.977847 32.5477575,190.193249 32.5477575,191.432205 C32.5477575,192.671161 33.0518195,193.886563 33.9280393,194.762783 C34.8042592,195.639003 36.019661,196.143065 37.2586171,196.143065 C38.4975732,196.143065 39.712975,195.639003 40.5891949,194.762783 Z" id="Shape" fill="#000000"></path>
                        <path d="M69.8063746,125.90843 C71.0453307,125.90843 72.2607325,125.404368 73.1369523,124.528148 C74.0131722,123.651928 74.5172342,122.436527 74.5172342,121.197571 C74.5172342,119.958615 74.0131722,118.743213 73.1369523,117.866993 C72.2607325,116.986062 71.0453307,116.486711 69.8063746,116.486711 C68.5627076,116.486711 67.3520167,116.986062 66.4757968,117.866993 C65.5948661,118.743213 65.095515,119.958615 65.095515,121.197571 C65.095515,122.436527 65.5948661,123.651928 66.4757968,124.528148 C67.3520167,125.404368 68.5627076,125.90843 69.8063746,125.90843 Z" id="Shape" fill="#000000"></path>
                    </g>
                </g>
            </g>
        </g>
    </g>
</svg>