<?xml version="1.0" encoding="UTF-8"?>
<svg width="79px" height="95px" viewBox="0 0 79 95" version="1.1" xmlns="http://www.w3.org/2000/svg" xmlns:xlink="http://www.w3.org/1999/xlink">
    <!-- Generator: Sketch 50.2 (55047) - http://www.bohemiancoding.com/sketch -->
    <title>003-protection</title>
    <desc>Created with Sketch.</desc>
    <defs></defs>
    <g id="Page-2" stroke="none" stroke-width="1" fill="none" fill-rule="evenodd">
        <g id="Microsoft-Surface-Hub" transform="translate(-770.000000, -103.000000)" fill-rule="nonzero">
            <g id="csf" transform="translate(704.000000, 61.000000)">
                <g id="003-protection" transform="translate(66.000000, 42.000000)">
                    <polygon id="Shape" fill="#5EAC24" points="61.8831425 29.4648674 57.2723512 24.8657718 34.2227216 47.8641281 22.6982676 36.3653097 18.0889186 40.9636856 34.2227216 57.0637584"></polygon>
                    <path d="M39.3513317,0 L39.3513317,6.55212402 L72.1437453,6.55212402 L72.1437453,44.9762727 C72.1981611,61.1217498 63.058483,75.8944702 48.5773496,83.0662919 L39.3513317,87.6752473 L39.3513317,95 L51.5107241,88.9269638 C68.1750195,80.6034469 78.7026633,63.5882186 78.7026633,44.9762727 L78.7026633,0 L39.3513317,0 Z" id="Shape" fill="#5EAC24"></path>
                    <path d="M30.1245882,83.0662919 C15.6434548,75.8944702 6.50377671,61.1224747 6.55891806,44.9762727 L6.55891806,6.55212402 L39.3513317,6.55212402 L39.3513317,0 L0,0 L0,44.9762727 C0,63.5882186 10.5269183,80.6034469 27.1919393,88.9269638 L39.3513317,95 L39.3513317,87.6752473 L30.1245882,83.0662919 Z" id="Shape" fill="#4E901E"></path>
                    <path d="M6.34723629,44.7289545 C6.29227263,60.8445841 15.4024998,75.5899948 29.8376935,82.7485582 L39.0339822,87.3489933 L39.0339822,52.1530248 L34.1306449,57.05731 L17.9510781,40.8722287 L22.5723651,36.2486432 L34.1306449,47.8086921 L39.0339822,42.904407 L39.0339822,6.37583893 L6.34698898,6.37583893 L6.34723629,44.7289545 Z" id="Shape" fill="#B6EB92"></path>
                    <path d="M57.5609416,24.686424 L62.184399,29.3100093 L39.3513317,52.1530248 L39.3513317,87.3489933 L48.5476222,82.7485582 C62.9820956,75.5907183 72.0923245,60.8453077 72.038084,44.7289545 L72.0383249,6.37583893 L39.3513317,6.37583893 L39.3513317,42.904407 L57.5609416,24.686424 Z" id="Shape" fill="#C9EEAE"></path>
                </g>
            </g>
        </g>
    </g>
</svg>