<?xml version="1.0" encoding="UTF-8"?>
<svg width="104px" height="95px" viewBox="0 0 104 95" version="1.1" xmlns="http://www.w3.org/2000/svg" xmlns:xlink="http://www.w3.org/1999/xlink">
    <!-- Generator: Sketch 50.2 (55047) - http://www.bohemiancoding.com/sketch -->
    <title>post-it</title>
    <desc>Created with Sketch.</desc>
    <defs></defs>
    <g id="Page-2" stroke="none" stroke-width="1" fill="none" fill-rule="evenodd">
        <g id="Microsoft-Surface-Hub" transform="translate(-747.000000, -668.000000)" fill-rule="nonzero">
            <g id="ooad" transform="translate(694.000000, 626.000000)">
                <g id="post-it" transform="translate(53.000000, 42.000000)">
                    <path d="M80.2010213,86.0247234 L53.7681809,19.1877766 C53.4759043,18.4518298 52.8038298,17.9353936 52.0175532,17.8424149 L11.0529468,13.0214681 C9.89030851,12.8581489 8.81539362,13.6682766 8.65207447,14.8309149 C8.64843617,14.8571915 8.64520213,14.8836702 8.64237234,14.9101489 L0.018393617,83.9031915 C-0.135829787,85.0838191 0.69612766,86.1662128 1.87675532,86.3204362 C1.89393617,86.3226596 1.91131915,86.3246809 1.9285,86.3265 L77.3894255,94.9506809 L77.6352128,94.9506809 C78.7511596,94.9555319 79.6864043,94.1082128 79.7913085,92.9973191 L80.3518085,87.0165638 C80.3805106,86.6786064 80.328766,86.3388298 80.2010213,86.0247234 Z" id="Shape" fill="#FFA000"></path>
                    <path d="M94.8835745,14.9101489 C94.7453191,13.7275 93.6742447,12.8807872 92.4915957,13.0192447 C92.4853298,13.0200532 92.479266,13.0206596 92.473,13.0214681 L73.9312234,15.2034362 L19.1681702,21.6456489 C17.9956277,21.7788511 17.1481064,22.830117 17.2665532,24.0042766 L23.7346383,92.997117 C23.8395426,94.1080106 24.7747872,94.9553298 25.890734,94.9504787 L26.1365213,94.9504787 L101.597447,86.3262979 C102.7805,86.1906702 103.629436,85.121617 103.493809,83.9385638 C103.492798,83.9294681 103.491787,83.9205745 103.490574,83.9114787 L94.8835745,14.9101489 Z" id="Shape" fill="#FFE082"></path>
                    <path d="M62.5431489,30.2698298 C61.3524149,30.2720532 60.3854362,29.3083085 60.3832128,28.1175745 C60.3822021,27.5435319 60.6102021,26.992734 61.0166809,26.587266 L71.7967553,15.8071915 C72.6240638,14.9507766 73.9888298,14.9269255 74.8454468,15.754234 C75.7018617,16.5815426 75.7255106,17.9463085 74.8984043,18.8029255 C74.8810213,18.8209149 74.8634362,18.8385 74.8454468,18.855883 L64.0653723,29.6359574 C63.6621277,30.0404149 63.1145638,30.2684149 62.5431489,30.2698298 Z" id="Shape" fill="#455A64"></path>
                    <circle id="Oval" fill="#F44336" cx="79.7915106" cy="10.8655745" r="10.7800745"></circle>
                    <path d="M77.6354149,94.9506809 L77.3896277,94.9506809 L51.5172872,91.9925426 C50.334234,91.8575213 49.4846915,90.7888723 49.6197128,89.6058191 C49.6197128,89.6050106 49.6199149,89.6044043 49.6199149,89.6035957 C49.7682766,88.4270106 50.8292447,87.5845426 52.0088617,87.7062234 L75.6949894,90.4141277 L76.0485106,86.6238298 C76.1839362,85.4504787 77.2206489,84.5926489 78.3986489,84.6791596 C79.5841277,84.7905319 80.4548936,85.8417979 80.3435213,87.0274787 C80.3435213,87.0280851 80.3433191,87.0286915 80.3433191,87.0292979 L79.7828191,93.0100532 C79.6720532,94.1126596 78.7434787,94.9516915 77.6354149,94.9506809 Z" id="Shape" fill="#000000"></path>
                    <path d="M25.3344787,88.9697234 L25.0844468,88.9697234 L1.92870213,86.3265 C0.744638298,86.2007766 -0.113393617,85.139 0.0123297872,83.9549362 C0.0141489362,83.9375532 0.0161702128,83.9203723 0.018393617,83.9031915 L8.64257447,14.9101489 C8.75940426,13.7442766 9.79935106,12.8939255 10.9652234,13.0107553 C10.9945319,13.0137872 11.0238404,13.0172234 11.0531489,13.0214681 L52.0177553,17.8424149 C53.1923191,18.0378723 53.9862766,19.1483617 53.7908191,20.3229255 C53.6085,21.4194681 52.622117,22.1976596 51.5132447,22.1198404 L12.6742128,17.5707553 L4.5848617,82.2774787 L25.5760213,84.6749149 C26.7667553,84.741617 27.6779468,85.7609468 27.6112447,86.9516809 C27.5445426,88.1424149 26.5252128,89.0536064 25.3344787,88.9869043 L25.3344787,88.9697234 Z" id="Shape" fill="#000000"></path>
                    <path d="M62.5431489,30.2698298 C61.3524149,30.2720532 60.3854362,29.3083085 60.3832128,28.1175745 C60.3822021,27.5435319 60.6102021,26.992734 61.0166809,26.587266 L71.7967553,15.8071915 C72.6240638,14.9507766 73.9888298,14.9269255 74.8454468,15.754234 C75.7018617,16.5815426 75.7255106,17.9463085 74.8984043,18.8029255 C74.8810213,18.8209149 74.8634362,18.8385 74.8454468,18.855883 L64.0653723,29.6359574 C63.6621277,30.0404149 63.1145638,30.2684149 62.5431489,30.2698298 Z" id="Shape" fill="#000000"></path>
                    <path d="M25.890734,94.9506809 C24.7747872,94.9555319 23.8395426,94.1082128 23.7346383,92.9973191 L17.2665532,24.0044787 C17.1481064,22.8303191 17.9956277,21.7790532 19.1681702,21.6458511 L73.9312234,15.2036383 C75.1057872,15.0081809 76.2164787,15.8021383 76.411734,16.9767021 C76.6071915,18.151266 75.813234,19.2619574 74.6386702,19.4572128 C74.5713617,19.4683298 74.5036489,19.4764149 74.435734,19.4810638 L21.7638936,25.6946702 L27.8309574,90.4013936 L98.9410851,82.273234 L90.851734,17.5707553 L87.0355638,18.0018936 C85.861,18.1973511 84.7503085,17.4033936 84.5550532,16.2288298 C84.3595957,15.054266 85.1535532,13.9435745 86.328117,13.7483191 C86.3954255,13.7372021 86.4631383,13.729117 86.5310532,13.7244681 L92.473,13.0216702 C93.6544362,12.8731064 94.7325851,13.7103191 94.8811489,14.8917553 C94.8819574,14.8980213 94.882766,14.9040851 94.8833723,14.9103511 L103.507755,83.9031915 C103.65834,85.0844255 102.822947,86.1639894 101.641713,86.3145745 C101.632617,86.3157872 101.623723,86.3167979 101.614628,86.3178085 L26.1537021,94.9419894 L25.890734,94.9506809 Z" id="Shape" fill="#000000"></path>
                    <path d="M79.7915106,21.6456489 C73.8378404,21.6456489 69.0114362,16.8192447 69.0114362,10.8655745 C69.0114362,4.91190426 73.8378404,0.0855 79.7915106,0.0855 C85.7451809,0.0855 90.5715851,4.91190426 90.5715851,10.8655745 C90.5715851,16.8192447 85.7451809,21.6456489 79.7915106,21.6456489 Z M79.7915106,4.39748936 C76.2193085,4.39748936 73.3234255,7.29337234 73.3234255,10.8655745 C73.3234255,14.4377766 76.2193085,17.3336596 79.7915106,17.3336596 C83.3637128,17.3336596 86.2595957,14.4377766 86.2595957,10.8655745 C86.2595957,7.29337234 83.3637128,4.39748936 79.7915106,4.39748936 Z" id="Shape" fill="#000000"></path>
                </g>
            </g>
        </g>
    </g>
</svg>