<?xml version="1.0" encoding="UTF-8"?>
<svg width="94px" height="94px" viewBox="0 0 94 94" version="1.1" xmlns="http://www.w3.org/2000/svg" xmlns:xlink="http://www.w3.org/1999/xlink">
    <!-- Generator: Sketch 50.2 (55047) - http://www.bohemiancoding.com/sketch -->
    <title>003-development</title>
    <desc>Created with Sketch.</desc>
    <defs></defs>
    <g id="Page-2" stroke="none" stroke-width="1" fill="none" fill-rule="evenodd">
        <g id="Microsoft-Surface-Hub" transform="translate(-1650.000000, -88.000000)" fill-rule="nonzero">
            <g id="osfnf" transform="translate(1592.000000, 61.000000)">
                <g id="003-development" transform="translate(58.000000, 27.000000)">
                    <circle id="Oval" fill="#FBBD5E" cx="71.7612227" cy="22.2544065" r="22.1421524"></circle>
                    <path d="M77.1868337,69.6179713 L77.1868337,25.7737469 C77.1868337,22.5477934 74.547468,19.9082415 71.3213284,19.9082415 L7.38791564,19.9082415 C4.16196215,19.9082415 1.52241027,22.5476073 1.52241027,25.7737469 L1.52241027,69.6179713 L77.1868337,69.6179713 Z" id="Shape" fill="#4FBF9F"></path>
                    <path d="M77.1868337,71.0843477 L1.52259643,71.0843477 C0.642807859,71.0843477 0.0562200908,70.4977599 0.0562200908,69.6179713 L0.0562200908,25.7737469 C0.0562200908,21.6680048 3.28217358,18.4418652 7.38810179,18.4418652 L71.3213284,18.4418652 C75.4270704,18.4418652 78.6532101,21.6678187 78.6532101,25.7737469 L78.6532101,69.6179713 C78.6532101,70.4977599 77.9199288,71.0843477 77.1868337,71.0843477 Z M2.98878661,68.151595 L75.7204574,68.151595 L75.7204574,25.7737469 C75.7204574,23.2808885 73.8141868,21.3746179 71.3213284,21.3746179 L7.38791564,21.3746179 C4.89505724,21.3746179 2.98878661,23.2808885 2.98878661,25.7737469 L2.98878661,68.151595 Z" id="Shape" fill="#183651"></path>
                    <g id="Group" transform="translate(1.489274, 25.689975)" fill="#FFFFFF">
                        <rect id="Rectangle-path" x="5.89864171" y="0.0837716584" width="63.9334127" height="37.9787191"></rect>
                        <path d="M0.0333225041,43.9279961 L0.0333225041,50.3799031 C0.0333225041,53.6058565 2.67268822,56.2454084 5.89882787,56.2454084 L69.8320545,56.2454084 C73.0580079,56.2454084 75.6975598,53.6060427 75.6975598,50.3799031 L75.6975598,43.9279961 L0.0333225041,43.9279961 Z" id="Shape"></path>
                    </g>
                    <g id="Group" transform="translate(0.000000, 68.134282)" fill="#183651">
                        <path d="M71.3213284,15.4141713 L7.38791564,15.4141713 C3.28217358,15.4141713 0.0560339315,12.1882178 0.0560339315,8.0822896 L0.0560339315,1.63038263 C0.0560339315,0.750594059 0.6426217,0.164006291 1.52241027,0.164006291 L77.1866476,0.164006291 C78.0664362,0.164006291 78.6530239,0.750594059 78.6530239,1.63038263 L78.6530239,8.0822896 C78.6532101,12.0415243 75.2805631,15.4141713 71.3213284,15.4141713 Z M2.98897277,2.95006549 L2.98897277,7.93578228 C2.98897277,10.4286407 4.8952434,12.3349113 7.38810179,12.3349113 L71.3213284,12.3349113 C73.8141868,12.3349113 75.7204574,10.4286407 75.7204574,7.93578228 L75.7204574,2.95006549 L2.98897277,2.95006549 Z" id="Shape"></path>
                        <path d="M49.7659499,25.825313 L28.9434803,25.825313 C28.503586,25.825313 28.0636917,25.5321122 27.7703048,25.2387252 C27.477104,24.798831 27.477104,24.3589367 27.6236113,23.9190424 L31.8760468,13.5079007 C32.1692476,12.9213129 32.6091419,12.6281121 33.1957297,12.6281121 L45.513142,12.6281121 C46.0997298,12.6281121 46.6863176,12.9213129 46.8328249,13.5079007 L51.0852604,23.7723489 C51.2319539,24.0655497 51.3784612,24.2122432 51.3784612,24.6521375 C51.2321401,25.2387252 50.6457384,25.825313 49.7659499,25.825313 Z M30.9964444,22.8925603 L47.5662923,22.8925603 L44.4868461,15.4141713 L34.0757044,15.4141713 L30.9964444,22.8925603 Z" id="Shape"></path>
                    </g>
                    <path d="M52.1121148,93.9595952 L26.5973154,93.9595952 C25.7175268,93.9595952 25.130939,93.3730074 25.130939,92.4932189 C25.130939,91.6134303 25.7175268,91.0268425 26.5973154,91.0268425 L52.1119286,91.0268425 C52.9917172,91.0268425 53.578305,91.6134303 53.578305,92.4932189 C53.578305,93.3730074 52.9919034,93.9595952 52.1121148,93.9595952 Z" id="Shape" fill="#183651"></path>
                    <rect id="Rectangle-path" fill="#FFFFFF" x="13.8400088" y="42.6367956" width="10.1179409" height="10.1179409"></rect>
                    <path d="M24.104457,54.3678063 L13.8400088,54.3678063 C12.9602202,54.3678063 12.3736324,53.7812185 12.3736324,52.90143 L12.3736324,42.7834891 C12.3736324,41.9037005 12.9602202,41.3171127 13.8400088,41.3171127 L23.9579497,41.3171127 C24.8377382,41.3171127 25.424326,41.9037005 25.424326,42.7834891 L25.424326,52.90143 C25.5708333,53.6345251 24.8377382,54.3678063 24.104457,54.3678063 Z M15.3063851,51.4350536 L22.4915733,51.4350536 L22.4915733,44.2498654 L15.3063851,44.2498654 L15.3063851,51.4350536 Z" id="Shape" fill="#183651"></path>
                    <rect id="Rectangle-path" fill="#FFFFFF" x="34.2223979" y="42.6367956" width="10.1179409" height="10.1179409"></rect>
                    <path d="M44.4870323,54.3678063 L34.3690914,54.3678063 C33.4893028,54.3678063 32.902715,53.7812185 32.902715,52.90143 L32.902715,42.7834891 C32.902715,41.9037005 33.4893028,41.3171127 34.3690914,41.3171127 L44.4870323,41.3171127 C45.3668209,41.3171127 45.9534086,41.9037005 45.9534086,42.7834891 L45.9534086,52.90143 C45.9534086,53.6345251 45.2201274,54.3678063 44.4870323,54.3678063 Z M35.6887742,51.4350536 L42.8739625,51.4350536 L42.8739625,44.2498654 L35.6887742,44.2498654 L35.6887742,51.4350536 Z" id="Shape" fill="#183651"></path>
                    <rect id="Rectangle-path" fill="#FFFFFF" x="54.604787" y="42.6367956" width="10.1179409" height="10.1179409"></rect>
                    <path d="M64.8694214,54.3678063 L54.7514805,54.3678063 C53.8716919,54.3678063 53.2851042,53.7812185 53.2851042,52.90143 L53.2851042,42.7834891 C53.2851042,41.9037005 53.8716919,41.3171127 54.7514805,41.3171127 L64.8694214,41.3171127 C65.74921,41.3171127 66.3357978,41.9037005 66.3357978,42.7834891 L66.3357978,52.90143 C66.3357978,53.6345251 65.6025165,54.3678063 64.8694214,54.3678063 Z M56.0711634,51.4350536 L63.2563516,51.4350536 L63.2563516,44.2498654 L56.0711634,44.2498654 L56.0711634,51.4350536 Z" id="Shape" fill="#183651"></path>
                    <path d="M24.104457,60.2333117 L13.8400088,60.2333117 C12.9602202,60.2333117 12.3736324,59.6467239 12.3736324,58.7669353 C12.3736324,57.8871468 12.9602202,57.300559 13.8400088,57.300559 L23.9579497,57.300559 C24.8377382,57.300559 25.424326,57.8871468 25.424326,58.7669353 C25.424326,59.6467239 24.8377382,60.2333117 24.104457,60.2333117 Z" id="Shape" fill="#183651"></path>
                    <path d="M44.4870323,60.2333117 L34.3690914,60.2333117 C33.4893028,60.2333117 32.902715,59.6467239 32.902715,58.7669353 C32.902715,57.8871468 33.4893028,57.300559 34.3690914,57.300559 L44.4870323,57.300559 C45.3668209,57.300559 45.9534086,57.8871468 45.9534086,58.7669353 C45.9534086,59.6467239 45.2201274,60.2333117 44.4870323,60.2333117 Z" id="Shape" fill="#183651"></path>
                    <g id="Group" transform="translate(29.227001, 57.150887)" fill="#183651">
                        <path d="M35.6424206,3.08242471 L25.5244797,3.08242471 C24.6446911,3.08242471 24.0581033,2.49583694 24.0581033,1.61604837 C24.0581033,0.736259798 24.6446911,0.14967203 25.5244797,0.14967203 L35.6424206,0.14967203 C36.5222092,0.14967203 37.1087969,0.736259798 37.1087969,1.61604837 C37.1087969,2.49583694 36.3755157,3.08242471 35.6424206,3.08242471 Z" id="Shape"></path>
                        <rect id="Rectangle-path" x="0.00986643977" y="17.1594142" width="2.93275268" height="2.93275268"></rect>
                        <rect id="Rectangle-path" x="8.66124484" y="17.1594142" width="2.93275268" height="2.93275268"></rect>
                        <rect id="Rectangle-path" x="17.3128094" y="17.1594142" width="2.93275268" height="2.93275268"></rect>
                    </g>
                    <path d="M44.4870323,27.0934298 L46.6865037,22.2544065 L43.3138567,20.3481358 C43.6070575,19.028453 43.6070575,17.7087701 43.4605502,16.5355946 L46.9798907,14.7760174 L45.2203135,9.79030064 L41.4077723,10.6700892 C40.6746772,9.64360716 39.7947025,8.6171251 38.7684066,7.88403001 L39.9415821,4.21818224 L35.1021865,2.01871081 L33.1959158,5.24466429 C31.876233,4.95146349 30.5565501,4.95146349 29.3833746,5.09797081 L27.6237974,1.57863036 L22.6380807,3.33820751 L23.5178692,7.15074876 C22.4913872,7.88384385 21.4649051,8.76381858 20.73181,9.79011448 L16.9192688,8.61693894 L14.7197973,13.4563346 L18.0924443,15.5092987 C17.7992435,16.8289815 17.7992435,18.1486644 17.9457508,19.3218399 L14.4264104,21.0814171 L16.1859875,26.0671339 L19.9985288,25.1873453 C20.7316239,26.2138274 21.6115986,27.2403094 22.6378945,27.9734045 L21.464719,31.6392523 L26.3037423,33.8387237 L28.3567064,30.4660767 C29.6763892,30.7592775 30.9960721,30.7592775 32.1692476,30.6127702 L33.9288248,34.1321107 L38.9145416,32.3725335 L38.034753,28.5599923 C39.061235,27.8268972 40.0877171,26.9469224 40.8208122,25.9206265 L44.4870323,27.0934298 Z" id="Shape" fill="#FFFFFF"></path>
                    <path d="M33.9291971,35.5983008 C33.3426093,35.5983008 32.902715,35.3051 32.6095142,34.8652058 L31.2898314,32.22584 C30.5567363,32.22584 29.823455,32.22584 29.0903599,32.0791466 L27.4772901,34.572005 C27.0373958,35.1585927 26.3041146,35.4517935 25.5710195,35.1585927 L20.7319962,32.9591213 C19.9989011,32.6659205 19.7055141,31.9326392 19.9989011,31.1995441 L20.8786897,28.4134849 C20.2921019,27.9735907 19.8522076,27.3870029 19.4123133,26.8004151 L16.4795606,27.5335102 C15.7464656,27.6802037 15.0131843,27.2403094 14.7199835,26.6537216 L12.9604064,21.6680048 C12.6672055,20.9349098 12.9604064,20.2016285 13.6935014,19.9084277 L16.3328672,18.5887448 C16.3328672,17.8556498 16.3328672,17.1223685 16.4795606,16.3892734 L13.9867022,14.6296963 C13.4001145,14.189802 13.1069137,13.4565207 13.4001145,12.7234256 L15.5995859,7.88440233 C15.8927867,7.15130724 16.626068,6.85792028 17.3591631,7.15130724 L20.1452223,8.03109581 C20.5851165,7.44450804 21.1717043,7.00461376 21.7582921,6.56471947 L21.025197,3.63196679 C20.8785035,2.8988717 21.3183978,2.16559045 21.9049856,1.87238965 L26.8907024,0.1128125 C27.6237974,-0.180388304 28.3570787,0.1128125 28.6502795,0.845907591 L30.1166558,3.48527331 C30.8497509,3.48527331 31.5830322,3.48527331 32.3161273,3.63196679 L33.9291971,1.1391084 C34.3690914,0.552520627 35.1023726,0.259319823 35.8354677,0.552520627 L40.674491,2.75199206 C41.4075861,3.04519286 41.7009731,3.77847411 41.4075861,4.5115692 L40.3811041,7.2976284 C40.9676918,7.73752269 41.4075861,8.32411046 41.8474804,8.91069823 L44.7802331,8.17760314 C45.5133282,8.03090965 46.2466094,8.47080394 46.5398102,9.05739171 L48.2993874,14.0431085 C48.5925882,14.7762036 48.2993874,15.5094848 47.5662923,15.8026856 L44.9269266,17.1223685 C44.9269266,17.8554636 44.9269266,18.5887448 44.7802331,19.3218399 L47.2730915,20.9349098 C47.8596792,21.374804 48.1528801,22.1080853 47.8596792,22.8411804 L45.6602078,27.6802037 C45.367007,28.4132988 44.6337258,28.7066857 43.9006307,28.4132988 L41.1145715,27.5335102 C40.6746772,28.120098 40.0880894,28.5599923 39.5015017,28.9998866 L40.2345967,31.9326392 C40.3812902,32.6657343 39.9413959,33.3990156 39.3548082,33.6922164 L34.3690914,35.4517935 C34.2223979,35.5983008 34.0757044,35.5983008 33.9291971,35.5983008 Z M32.0229265,29.1463939 C32.6095142,29.1463939 33.0494085,29.4395947 33.3426093,29.879489 L34.5157849,32.2256539 L37.0086433,31.3458653 L36.4220555,28.8530069 C36.275362,28.2664191 36.568749,27.6798314 37.0086433,27.2399371 C37.8884318,26.6533493 38.7682204,25.7735607 39.5015017,24.8937722 C39.9413959,24.4538779 40.5279837,24.1606771 41.1145715,24.4538779 L43.6074299,25.186973 L44.7806054,22.8408081 L42.581134,21.5211252 C41.9945462,21.2279244 41.8480389,20.6413366 41.8480389,20.0547489 C41.9947324,18.8815733 42.1412397,17.8552774 41.9947324,16.6821019 C41.9947324,16.0955141 42.2879332,15.5089264 42.7278275,15.2157256 L45.0739924,14.04255 L44.1942038,11.5496916 L41.7013454,12.1362794 C41.1147576,12.2829729 40.5281699,11.9895859 40.0882756,11.5496916 C39.5016878,10.6699031 38.6218992,9.79011448 37.7421107,9.05683323 C37.3022164,8.61693894 37.0090156,8.03035118 37.3022164,7.44376341 L38.0353115,4.95090501 L35.6891466,3.77772948 L34.3694637,5.97720091 C34.0762629,6.56378868 33.4896751,6.710296 32.9030874,6.710296 C31.7299118,6.56360252 30.7036159,6.41709519 29.5304404,6.56360252 C28.9438526,6.56360252 28.3572649,6.27040171 28.064064,5.83050743 L26.8908885,3.48434251 L24.2515228,4.36413108 L24.8381106,6.85698948 C24.984804,7.44357725 24.6914171,8.03016502 24.2515228,8.4700593 C23.3717342,9.05664707 22.4919456,9.93643564 21.7586644,10.8162242 C21.3187701,11.2561185 20.7321823,11.5493193 20.1455946,11.2561185 L17.65255,10.5235819 L16.4793745,12.8697468 L18.6788459,14.1894297 C19.2654337,14.4826305 19.411941,15.0692182 19.411941,15.655806 C19.2652475,16.8289815 19.1187402,17.8552774 19.2652475,19.028453 C19.2652475,19.6150407 18.9720467,20.2016285 18.5321524,20.4948293 L16.1859875,21.6680048 L17.0657761,24.1608632 L19.5586345,23.5742755 C20.1452223,23.427582 20.73181,23.720969 21.1717043,24.1608632 C21.7582921,25.0406518 22.6380807,25.9204404 23.5178692,26.6537216 C23.9577635,27.0936159 24.2509643,27.6802037 23.9577635,28.2667915 L23.2246684,30.7596499 L25.5708333,31.9328254 L26.8905162,29.733354 C27.183717,29.1467662 27.7703048,29.0002589 28.3568925,29.0002589 C29.5300681,29.1469524 30.556364,29.2934597 31.7295395,29.1469524 C32.0229265,29.1463939 32.0229265,29.1463939 32.0229265,29.1463939 Z" id="Shape" fill="#183651"></path>
                    <circle id="Oval" fill="#F06151" cx="30.7032436" cy="17.8552774" r="9.23815233"></circle>
                    <circle id="Oval" fill="#FFFFFF" cx="30.7032436" cy="17.8552774" r="3.66584777"></circle>
                    <path d="M30.7032436,22.9876877 C29.9701485,22.9876877 29.2368673,22.8409942 28.5037722,22.5477934 C27.3305966,21.9612057 26.3043007,20.9347236 25.8644065,19.6150407 C25.4245122,18.2953579 25.4245122,16.975675 26.0110999,15.655806 C26.8908885,13.8962289 28.6504657,12.7230533 30.7034298,12.7230533 C31.4365249,12.7230533 32.1698061,12.8697468 32.9029012,13.1629476 C35.3957596,14.3361231 36.568749,17.4153831 35.3957596,19.9082415 C34.5157849,21.8145122 32.6095142,22.9876877 30.7032436,22.9876877 Z M30.7032436,15.655806 C29.823455,15.655806 29.0901738,16.0957003 28.6502795,16.9754889 C28.3570787,17.5620766 28.3570787,18.1486644 28.6502795,18.5885587 C28.9434803,19.028453 29.2368673,19.6150407 29.823455,19.7617342 C30.8499371,20.2016285 32.1696199,19.7617342 32.7562077,18.7352522 C33.196102,17.7087701 32.7562077,16.3890873 31.7297257,15.8024995 C31.2896452,15.8024995 30.9964444,15.655806 30.7032436,15.655806 Z" id="Shape" fill="#183651"></path>
                    <path d="M89.5042461,25.3338526 L89.5042461,19.6150407 L85.2518105,19.1751465 C84.9586097,17.8554636 84.372022,16.5357807 83.6387407,15.3626052 L86.2781064,11.9899582 L82.3188717,8.03072349 L78.9464109,10.6702754 C77.7732354,9.93718028 76.4535525,9.49709983 75.1338696,9.05720555 L74.6939754,4.80477001 L68.9751635,4.80477001 L68.5352692,9.05720555 C67.2155863,9.35040635 65.8959035,9.93699412 64.7227279,10.6702754 L61.350081,8.03090965 L57.3910324,11.9899582 L60.0303981,15.3626052 C59.297303,16.5357807 58.8572226,17.8554636 58.4173283,19.1751465 L54.1648927,19.6150407 L54.1648927,25.3338526 L58.4173283,25.7737469 C58.7105291,27.0934298 59.2971169,28.4131126 60.0303981,29.5862882 L57.3910324,32.9589351 L61.3502671,36.9181699 L64.7229141,34.2788041 C65.8960896,35.0118992 67.2157725,35.4519797 68.5354553,35.891874 L68.9753496,40.1443095 L74.6941615,40.1443095 L75.1340558,35.891874 C76.4537387,35.5986732 77.7734215,35.0120854 78.9465971,34.2788041 L82.319244,36.9181699 L86.2784788,32.9589351 L83.639113,29.5862882 C84.3722081,28.4131126 84.8122886,27.0934298 85.2521829,25.7737469 L89.5042461,25.3338526 Z" id="Shape" fill="#FFFFFF"></path>
                    <path d="M74.6939754,41.6104997 L68.9751635,41.6104997 C68.2420684,41.6104997 67.6554806,41.0239119 67.5087871,40.2908168 L67.0688928,37.0648633 C66.3357978,36.7716625 65.455823,36.4782756 64.7227279,36.0383813 L62.2298695,38.0913454 C61.6432818,38.5312397 60.7634932,38.5312397 60.3235989,37.9446519 L56.3643642,33.9854172 C55.7777764,33.3988294 55.7777764,32.6657343 56.2176707,32.0791466 L58.2706348,29.5862882 C57.8307405,28.8531931 57.5375397,28.1199118 57.2441527,27.2401232 L54.0181993,26.800229 C53.2851042,26.6535355 52.6985164,26.0671339 52.6985164,25.3338526 L52.6985164,19.6150407 C52.6985164,18.8819456 53.2851042,18.2953579 54.0181993,18.1486644 L57.2441527,17.7087701 C57.5373535,16.975675 57.8307405,16.0957003 58.2706348,15.3626052 L56.2176707,12.8697468 C55.7777764,12.283159 55.7777764,11.4033705 56.3643642,10.9634762 L60.3235989,7.00424144 C60.9101867,6.41765367 61.6432818,6.41765367 62.2298695,6.85754796 L64.7227279,8.91051207 C65.455823,8.47061778 66.1891043,8.17741698 67.0688928,7.88403001 L67.5087871,4.65807653 C67.6554806,3.92498144 68.2418822,3.33839367 68.9751635,3.33839367 L74.6939754,3.33839367 C75.4270704,3.33839367 76.0136582,3.92498144 76.1603517,4.65807653 L76.600246,7.88403001 C77.3333411,8.17723082 78.2133158,8.47061778 78.9464109,8.91051207 L81.4392693,6.85754796 C82.0258571,6.41765367 82.9056456,6.41765367 83.3455399,7.00424144 L87.3047746,10.9634762 C87.8913624,11.5500639 87.8913624,12.283159 87.4514681,12.8697468 L85.398504,15.5091125 C85.8383983,16.2422076 86.1315991,16.9754889 86.4249861,17.8552774 L89.6509396,18.2951717 C90.3840347,18.4418652 90.9706224,19.0282668 90.9706224,19.7615481 L90.9706224,25.4803599 C90.9706224,26.213455 90.3840347,26.8000428 89.6509396,26.9467363 L86.4249861,27.2399371 C86.1317853,27.9730322 85.8383983,28.8530069 85.398504,29.586102 L87.4514681,32.0789604 C87.8913624,32.6655482 87.8913624,33.5453367 87.3047746,33.985231 L83.3455399,37.9444658 C82.7589521,38.5310535 82.0258571,38.5310535 81.4392693,38.0911592 L78.7999036,36.0381951 C78.0668085,36.4780894 77.3335272,36.7712902 76.4537387,37.0646772 L76.0138444,40.2906307 C76.0136582,41.0239119 75.4272566,41.6104997 74.6939754,41.6104997 Z M70.2948463,38.677747 L73.3742925,38.677747 L73.6674933,35.7449943 C73.8141868,35.1584066 74.1073876,34.5718188 74.8406688,34.4253115 C76.0138444,34.1321107 77.1868337,33.6922164 78.2133158,32.9589351 C78.7999036,32.6657343 79.3864913,32.6657343 79.8263856,33.1056286 L82.1725505,34.8652058 L84.372022,32.6657343 L82.6124448,30.3195694 C82.1725505,29.8796751 82.1725505,29.1463939 82.4657513,28.7064996 C83.0523391,27.6800175 83.6389269,26.5070282 83.9321277,25.3338526 C84.0788212,24.7472649 84.5187154,24.3073706 85.2518105,24.1606771 L88.1845632,23.8674763 L88.1845632,20.7880301 L85.2518105,20.4948293 C84.6652228,20.3481358 84.078635,20.054935 83.9321277,19.3216538 C83.6389269,18.1484782 83.1990326,16.9754889 82.4657513,15.9490068 C82.1725505,15.362419 82.1725505,14.7758313 82.6124448,14.335937 L84.372022,12.1364656 L82.1725505,9.93699412 L79.8263856,11.6965713 C79.3864913,12.1364656 78.6532101,12.1364656 78.2133158,11.8432647 C77.1868337,11.256677 76.0138444,10.6700892 74.8406688,10.3768884 C74.2540811,10.2301949 73.8141868,9.79030064 73.6674933,9.05720555 L73.3742925,6.12445287 L70.2948463,6.12445287 L70.0016455,9.05720555 C69.854952,9.64379332 69.5617512,10.2303811 68.82847,10.3768884 C67.6552945,10.6700892 66.4823051,11.1099835 65.455823,11.8432647 C64.8692353,12.1364656 64.2826475,12.1364656 63.8427532,11.6965713 L61.4965883,9.93699412 L59.297303,12.1364656 L61.0568802,14.4826305 C61.4967744,14.9225248 61.4967744,15.655806 61.2035736,16.0957003 C60.6169859,17.1221823 60.0303981,18.2951717 59.7371973,19.4683473 C59.5905038,20.054935 59.1506095,20.4948293 58.4175144,20.6415228 L55.4847618,20.9347236 L55.4847618,24.0141698 L58.4175144,24.3073706 C59.0041022,24.3073706 59.59069,24.7472649 59.7371973,25.4805461 C60.0303981,26.6537216 60.4702924,27.826711 61.2035736,28.8531931 C61.4967744,29.4397808 61.4967744,30.0263686 61.0568802,30.4662629 L59.297303,32.8124278 L61.4967744,35.0118992 L63.8429394,33.2523221 C64.2828336,32.8124278 65.0161149,32.8124278 65.4560092,33.1056286 C66.4824912,33.6922164 67.6554806,34.2788041 68.8286561,34.572005 C69.4152439,34.7186984 69.8551382,35.1585927 70.0018317,35.8916878 L70.2948463,38.677747 Z" id="Shape" fill="#183651"></path>
                    <circle id="Oval" fill="#E0E4E8" cx="71.7612227" cy="22.5477934" r="9.82455394"></circle>
                    <circle id="Oval" fill="#FFFFFF" cx="71.7612227" cy="22.5477934" r="3.95923474"></circle>
                    <path d="M71.7612227,27.826711 C68.82847,27.826711 66.3356116,25.4805461 66.3356116,22.4010999 C66.3356116,19.4683473 68.6817765,16.9754889 71.7612227,16.9754889 C74.6939754,16.9754889 77.1868337,19.3216538 77.1868337,22.4010999 C77.1868337,25.4803599 74.8406688,27.826711 71.7612227,27.826711 Z M71.7612227,20.054935 C70.4415398,20.054935 69.2683643,21.2281106 69.2683643,22.5477934 C69.2683643,23.8674763 70.4415398,25.0406518 71.7612227,25.0406518 C73.0809055,25.0406518 74.2540811,23.8674763 74.2540811,22.5477934 C74.2540811,21.0814171 73.227599,20.054935 71.7612227,20.054935 Z" id="Shape" fill="#183651"></path>
                </g>
            </g>
        </g>
    </g>
</svg>