<?xml version="1.0" encoding="UTF-8"?>
<svg width="95px" height="95px" viewBox="0 0 95 95" version="1.1" xmlns="http://www.w3.org/2000/svg" xmlns:xlink="http://www.w3.org/1999/xlink">
    <!-- Generator: Sketch 50.2 (55047) - http://www.bohemiancoding.com/sketch -->
    <title>007-resume</title>
    <desc>Created with Sketch.</desc>
    <defs></defs>
    <g id="Page-2" stroke="none" stroke-width="1" fill="none" fill-rule="evenodd">
        <g id="Microsoft-Surface-Hub" transform="translate(-96.000000, -341.000000)" fill-rule="nonzero">
            <g id="p1" transform="translate(38.000000, 287.000000)">
                <g id="007-resume" transform="translate(58.000000, 54.000000)">
                    <path d="M73.1067676,93.1445312 L5.56770508,93.1445312 C3.5181543,93.1445312 1.85676758,91.4831445 1.85676758,89.4335938 L1.85676758,5.56640625 C1.85676758,3.51685547 3.5181543,1.85546875 5.56770508,1.85546875 L73.1067676,1.85546875 C75.1563184,1.85546875 76.8177051,3.51685547 76.8177051,5.56640625 L76.8177051,89.4335938 C76.8177051,91.4831445 75.1563184,93.1445312 73.1067676,93.1445312 Z" id="Shape" fill="#FFFFFF"></path>
                    <circle id="Oval" fill="#FE6663" cx="39.337793" cy="27.0898438" r="15.2148438"></circle>
                    <path d="M44.1614551,25.1416016 L44.1614551,26.3476562 C44.1614551,29.0119238 42.0015039,31.171875 39.3372363,31.171875 C36.6729688,31.171875 34.5130176,29.0119238 34.5130176,26.3476562 L34.5130176,25.1416016 C34.5130176,22.477334 36.6729688,20.3173828 39.3372363,20.3173828 C42.0015039,20.3173828 44.1614551,22.477334 44.1614551,25.1416016 Z" id="Shape" fill="#FFCDAC"></path>
                    <path d="M39.3372363,31.171875 C34.6280566,31.171875 30.6046582,34.0973926 28.9777832,38.2287793 C31.6941895,40.7562988 35.3340625,42.3046875 39.3372363,42.3046875 C43.3404102,42.3046875 46.9802832,40.7562988 49.6966895,38.2287793 C48.0698145,34.0973926 44.046416,31.171875 39.3372363,31.171875 Z" id="Shape" fill="#A5DDFF"></path>
                    <path d="M81.0049414,29.7969727 L82.0651563,27.9606152 C83.704834,25.1208203 87.3359863,24.1478125 90.1759668,25.7873047 C93.0157617,27.4269824 93.9887695,31.0581348 92.3492773,33.8981152 L68.999873,74.3404687 L58.715752,68.4029687 L68.7876074,50.9578516 L81.0049414,29.7969727 Z" id="Shape" fill="#FFBC53"></path>
                    <path d="M90.1761523,25.7873047 C87.3363574,24.147627 83.7050195,25.1206348 82.0653418,27.9606152 L79.3086719,32.735293 L89.592793,38.672793 L92.3494629,33.8981152 C93.9889551,31.0583203 93.0159473,27.4269824 90.1761523,25.7873047 Z" id="Shape" fill="#FE6663"></path>
                    <polygon id="Shape" fill="#9AD8FF" points="68.999873 74.3404687 57.0721777 83.125 58.715752 68.4029687"></polygon>
                    <path d="M76.8177051,73.9085156 C75.7931152,73.9085156 74.9622363,74.739209 74.9622363,75.7639844 L74.9622363,89.4335938 C74.9622363,90.4566992 74.129873,91.2890625 73.1067676,91.2890625 L5.56770508,91.2890625 C4.54459961,91.2890625 3.71223633,90.4566992 3.71223633,89.4335938 L3.71223633,5.56640625 C3.71223633,4.54330078 4.54459961,3.7109375 5.56770508,3.7109375 L73.1067676,3.7109375 C74.129873,3.7109375 74.9622363,4.54330078 74.9622363,5.56640625 L74.9622363,25.7446289 C74.9622363,26.7694043 75.7931152,27.6000977 76.8177051,27.6000977 C77.8422949,27.6000977 78.6731738,26.7694043 78.6731738,25.7446289 L78.6731738,5.56640625 C78.6731738,2.49708984 76.176084,0 73.1067676,0 L5.56770508,0 C2.49838867,0 0.00129882813,2.49708984 0.00129882813,5.56640625 L0.00129882813,89.4335938 C0.00129882813,92.5029102 2.49838867,95 5.56770508,95 L73.1067676,95 C76.176084,95 78.6731738,92.5029102 78.6731738,89.4335938 L78.6731738,75.7639844 C78.6731738,74.739209 77.8422949,73.9085156 76.8177051,73.9085156 Z" id="Shape" fill="#000000"></path>
                    <path d="M56.4075488,27.0898438 C56.4075488,17.6772363 48.7498437,10.0195313 39.3372363,10.0195313 C29.9246289,10.0195313 22.2669238,17.6772363 22.2669238,27.0898438 C22.2669238,31.9728809 24.3283496,36.382959 27.6258887,39.4971777 C27.6876758,39.5632324 27.7533594,39.6257617 27.825166,39.6827246 C30.8627539,42.4620313 34.9052637,44.1599707 39.3370508,44.1599707 C43.7688379,44.1599707 47.8113477,42.4618457 50.8489355,39.6827246 C50.9207422,39.6257617 50.9864258,39.5630469 51.0482129,39.4971777 C54.346123,36.382959 56.4075488,31.9728809 56.4075488,27.0898438 Z M39.3372363,13.7304688 C46.7036328,13.7304688 52.6966113,19.7234473 52.6966113,27.0898438 C52.6966113,30.0524707 51.7260156,32.7916992 50.0878223,35.009541 C48.7194141,32.9800293 46.8229395,31.401582 44.6210547,30.4270898 C45.4949805,29.297666 46.0169238,27.8828711 46.0169238,26.3476563 L46.0169238,25.1416016 C46.0169238,21.4583105 43.0205273,18.4619141 39.3372363,18.4619141 C35.6539453,18.4619141 32.6575488,21.4583105 32.6575488,25.1416016 L32.6575488,26.3476563 C32.6575488,27.8828711 33.1794922,29.297666 34.053418,30.4270898 C31.8515332,31.401582 29.9550586,32.9800293 28.5866504,35.009541 C26.948457,32.7916992 25.9778613,30.0524707 25.9778613,27.0898438 C25.9778613,19.7234473 31.9708398,13.7304688 39.3372363,13.7304688 Z M36.3684863,26.3476562 L36.3684863,25.1416016 C36.3684863,23.504707 37.7003418,22.1728516 39.3372363,22.1728516 C40.9741309,22.1728516 42.3059863,23.504707 42.3059863,25.1416016 L42.3059863,26.3476562 C42.3059863,27.9845508 40.9741309,29.3164062 39.3372363,29.3164062 C37.7003418,29.3164062 36.3684863,27.9845508 36.3684863,26.3476562 Z M31.2676172,37.7276172 C32.8983887,34.8358691 35.941543,33.0273438 39.3372363,33.0273438 C42.7329297,33.0273438 45.776084,34.8358691 47.4068555,37.7276172 C45.1630371,39.4339062 42.3670313,40.4492188 39.3372363,40.4492188 C36.3074414,40.4492188 33.51125,39.4339062 31.2676172,37.7276172 Z" id="Shape" fill="#000000"></path>
                    <path d="M49.3567676,81.2695312 L39.3372363,81.2695312 C38.3126465,81.2695312 37.4817676,82.1002246 37.4817676,83.125 C37.4817676,84.1497754 38.3126465,84.9804688 39.3372363,84.9804688 L49.3567676,84.9804688 C50.3813574,84.9804688 51.2122363,84.1497754 51.2122363,83.125 C51.2122363,82.1002246 50.3813574,81.2695312 49.3567676,81.2695312 Z" id="Shape" fill="#000000"></path>
                    <path d="M49.3567676,70.8789062 L23.0091113,70.8789062 C21.9845215,70.8789062 21.1536426,71.7095996 21.1536426,72.734375 C21.1536426,73.7591504 21.9845215,74.5898438 23.0091113,74.5898438 L49.3567676,74.5898438 C50.3813574,74.5898438 51.2122363,73.7591504 51.2122363,72.734375 C51.2122363,71.7095996 50.3813574,70.8789062 49.3567676,70.8789062 Z" id="Shape" fill="#000000"></path>
                    <path d="M49.3567676,60.4882812 L23.0091113,60.4882812 C21.9845215,60.4882812 21.1536426,61.3189746 21.1536426,62.34375 C21.1536426,63.3685254 21.9845215,64.1992188 23.0091113,64.1992188 L49.3567676,64.1992188 C50.3813574,64.1992188 51.2122363,63.3685254 51.2122363,62.34375 C51.2122363,61.3189746 50.3813574,60.4882812 49.3567676,60.4882812 Z" id="Shape" fill="#000000"></path>
                    <path d="M16.3960352,50.6413086 C16.0511035,50.2961914 15.5723926,50.0976562 15.0825488,50.0976562 C14.594375,50.0976562 14.1156641,50.2961914 13.7707324,50.6413086 C13.4256152,50.9864258 13.2270801,51.4651367 13.2270801,51.953125 C13.2270801,52.4411133 13.4254297,52.9198242 13.7707324,53.2649414 C14.1177051,53.6100586 14.594375,53.8085938 15.0825488,53.8085938 C15.5723926,53.8085938 16.049248,53.6100586 16.3960352,53.2649414 C16.7411523,52.9198242 16.939873,52.4411133 16.939873,51.953125 C16.939873,51.4651367 16.7413379,50.9864258 16.3960352,50.6413086 Z" id="Shape" fill="#000000"></path>
                    <path d="M16.3960352,61.0319336 C16.049248,60.6868164 15.5723926,60.4882812 15.0825488,60.4882812 C14.594375,60.4882812 14.1177051,60.6868164 13.7707324,61.0319336 C13.4256152,61.3770508 13.2270801,61.8557617 13.2270801,62.34375 C13.2270801,62.8317383 13.4254297,63.3104492 13.7707324,63.6555664 C14.1177051,64.0006836 14.594375,64.1992188 15.0825488,64.1992188 C15.5723926,64.1992188 16.049248,64.0006836 16.3960352,63.6555664 C16.7411523,63.3104492 16.939873,62.8317383 16.939873,62.34375 C16.939873,61.8557617 16.7413379,61.3770508 16.3960352,61.0319336 Z" id="Shape" fill="#000000"></path>
                    <path d="M15.0825488,70.8789062 C14.594375,70.8789062 14.1177051,71.0774414 13.7707324,71.4225586 C13.4256152,71.7676758 13.2270801,72.2463867 13.2270801,72.734375 C13.2270801,73.2223633 13.4254297,73.7010742 13.7707324,74.0461914 C14.1156641,74.3913086 14.594375,74.5898438 15.0825488,74.5898438 C15.5723926,74.5898438 16.0511035,74.3913086 16.3960352,74.0461914 C16.7411523,73.7010742 16.939873,73.2223633 16.939873,72.734375 C16.939873,72.2463867 16.7413379,71.7676758 16.3960352,71.4225586 C16.049248,71.0774414 15.5723926,70.8789062 15.0825488,70.8789062 Z" id="Shape" fill="#000000"></path>
                    <path d="M49.3567676,50.0976562 L23.0091113,50.0976562 C21.9845215,50.0976562 21.1536426,50.9283496 21.1536426,51.953125 C21.1536426,52.9779004 21.9845215,53.8085938 23.0091113,53.8085938 L49.3567676,53.8085938 C50.3813574,53.8085938 51.2122363,52.9779004 51.2122363,51.953125 C51.2122363,50.9283496 50.3813574,50.0976562 49.3567676,50.0976562 Z" id="Shape" fill="#000000"></path>
                    <path d="M91.1038867,24.1804687 C89.3012988,23.1397363 87.2012793,22.8632715 85.1903223,23.4019141 C83.1797363,23.9407422 81.4990527,25.230293 80.4585059,27.0328809 L57.108916,67.4752344 C56.9810742,67.6969629 56.9001758,67.9428125 56.8717871,68.1971973 L55.2282129,82.9192285 C55.1465723,83.6517676 55.5061621,84.3633398 56.1444434,84.7320215 C56.4325977,84.8982715 56.752666,84.9806543 57.0719922,84.9806543 C57.4601563,84.9806543 57.8468359,84.8591211 58.1724707,84.619209 L70.100166,75.8346777 C70.3063086,75.6829004 70.4788672,75.4901172 70.606709,75.2683887 L93.9561133,34.8260352 C96.1047461,31.104707 94.8252148,26.3291016 91.1038867,24.1804687 Z M60.2450293,71.4284961 L65.615127,74.5289844 L59.3866895,79.1160742 L60.2450293,71.4284961 Z M68.3207715,71.8058984 L61.2505078,67.7238672 L79.987959,35.2698633 L87.0582227,39.3518945 L68.3207715,71.8058984 Z M90.7424414,32.9703809 L88.9135059,36.1382227 L81.8432422,32.0561914 L83.6721777,28.8883496 C84.2173145,27.9441016 85.0975488,27.2687109 86.1507129,26.9864941 C87.204248,26.7040918 88.3041699,26.8491895 89.2482324,27.3943262 C90.1924805,27.9394629 90.8678711,28.8196973 91.1500879,29.8728613 C91.4323047,30.9260254 91.2875781,32.0261328 90.7424414,32.9703809 Z" id="Shape" fill="#000000"></path>
                </g>
            </g>
        </g>
    </g>
</svg>