<?xml version="1.0" encoding="UTF-8"?>
<svg width="78px" height="95px" viewBox="0 0 78 95" version="1.1" xmlns="http://www.w3.org/2000/svg" xmlns:xlink="http://www.w3.org/1999/xlink">
    <!-- Generator: Sketch 50.2 (55047) - http://www.bohemiancoding.com/sketch -->
    <title>005-portfolio</title>
    <desc>Created with Sketch.</desc>
    <defs></defs>
    <g id="Page-2" stroke="none" stroke-width="1" fill="none" fill-rule="evenodd">
        <g id="Microsoft-Surface-Hub" transform="translate(-1648.000000, -680.000000)" fill-rule="nonzero">
            <g id="p2" transform="translate(1582.000000, 626.000000)">
                <g id="005-portfolio" transform="translate(66.000000, 54.000000)">
                    <path d="M72.4660643,93.1445313 L5.51772063,93.1445313 C3.4860959,93.1445313 1.83924021,91.4831445 1.83924021,89.4335938 L1.83924021,5.56640625 C1.83924021,3.51685547 3.4860959,1.85546875 5.51772063,1.85546875 L72.4660643,1.85546875 C74.497689,1.85546875 76.1445447,3.51685547 76.1445447,5.56640625 L76.1445447,89.4335938 C76.1445447,91.4831445 74.497689,93.1445313 72.4660643,93.1445313 Z" id="Shape" fill="#FFFFFF"></path>
                    <path d="M76.1445447,18.5237012 L76.1445447,5.56640625 C76.1445447,3.51685547 74.497689,1.85546875 72.4660643,1.85546875 L59.6220981,1.85546875 L76.1445447,18.5237012 Z" id="Shape" fill="#DFF3FF"></path>
                    <g id="Group" transform="translate(10.483669, 2.041016)" fill="#A5DDFF">
                        <path d="M48.9237896,0.0545507813 L48.9237896,13.0118457 C48.9237896,15.0613965 50.5706453,16.7227832 52.60227,16.7227832 L65.4462362,16.7227832 L48.9237896,0.0545507813 Z" id="Shape"></path>
                        <rect id="Rectangle-path" x="0.134264535" y="11.6894531" width="26.9338336" height="31.9140625"></rect>
                    </g>
                    <path d="M28.8552879,26.2548828 L28.8552879,27.4609375 C28.8552879,30.1252051 26.7142284,32.2851563 24.0732633,32.2851563 C21.4322983,32.2851563 19.2912388,30.1252051 19.2912388,27.4609375 L19.2912388,26.2548828 C19.2912388,23.5906152 21.4322983,21.4306641 24.0732633,21.4306641 C26.7142284,21.4306641 28.8552879,23.5906152 28.8552879,26.2548828 Z" id="Shape" fill="#FFCDAC"></path>
                    <path d="M27.911022,32.2851563 L20.2355047,32.2851563 C14.9109043,32.2851563 10.5943915,36.6397559 10.5943915,42.0113379 L10.5943915,45.6445312 L37.5521352,45.6445312 L37.5521352,42.0113379 C37.5521352,36.6397559 33.2356224,32.2851563 27.911022,32.2851563 Z" id="Shape" fill="#FE6663"></path>
                    <path d="M72.4660643,0 L5.51772063,0 C2.47524948,0 0,2.49708984 0,5.56640625 L0,89.4335938 C0,92.5029102 2.47524948,95 5.51772063,95 L72.4660643,95 C75.5085355,95 77.9837849,92.5029102 77.9837849,89.4335938 L77.9837849,5.56640625 C77.9837849,2.49708984 75.5085355,0 72.4660643,0 Z M74.3053045,5.56640625 L74.3053045,14.5006738 L63.6099388,3.7109375 L72.4660643,3.7109375 C73.4802213,3.7109375 74.3053045,4.54330078 74.3053045,5.56640625 Z M61.246699,6.57503906 L71.4896117,16.9083301 L63.0859392,16.9083301 C62.0717822,16.9083301 61.246699,16.0759668 61.246699,15.0528613 L61.246699,6.57503906 Z M72.4660643,91.2890625 L5.51772063,91.2890625 C4.50356358,91.2890625 3.67848042,90.4566992 3.67848042,89.4335938 L3.67848042,5.56640625 C3.67848042,4.54330078 4.50356358,3.7109375 5.51772063,3.7109375 L57.5682186,3.7109375 L57.5682186,15.0528613 C57.5682186,18.1221777 60.0434681,20.6192676 63.0859392,20.6192676 L74.3053045,20.6192676 L74.3053045,89.4335938 C74.3053045,90.4566992 73.4802213,91.2890625 72.4660643,91.2890625 Z" id="Shape" fill="#000000"></path>
                    <path d="M66.8929825,34.8828125 L46.4007199,34.8828125 C45.3849075,34.8828125 44.5614797,35.7135059 44.5614797,36.7382813 C44.5614797,37.7630566 45.3849075,38.59375 46.4007199,38.59375 L66.8929825,38.59375 C67.9087949,38.59375 68.7322227,37.7630566 68.7322227,36.7382813 C68.7322227,35.7135059 67.9087949,34.8828125 66.8929825,34.8828125 Z" id="Shape" fill="#000000"></path>
                    <path d="M46.400352,29.6875 C46.8840722,29.6875 47.3585962,29.4889648 47.7006949,29.1438477 C48.0427935,28.7987305 48.2395922,28.3200195 48.2395922,27.8320313 C48.2395922,27.344043 48.0427935,26.865332 47.7006949,26.5202148 C47.3585962,26.1750977 46.8840722,25.9765625 46.400352,25.9765625 C45.9166319,25.9765625 45.4421079,26.1750977 45.1000092,26.5202148 C44.7579105,26.865332 44.5611118,27.344043 44.5611118,27.8320313 C44.5611118,28.3200195 44.7579105,28.7987305 45.1000092,29.1438477 C45.4421079,29.4889648 45.9166319,29.6875 46.400352,29.6875 Z" id="Shape" fill="#000000"></path>
                    <path d="M53.7437025,29.6875 L66.8929825,29.6875 C67.9087949,29.6875 68.7322227,28.8568066 68.7322227,27.8320313 C68.7322227,26.8072559 67.9087949,25.9765625 66.8929825,25.9765625 L53.7437025,25.9765625 C52.7278901,25.9765625 51.9044623,26.8072559 51.9044623,27.8320313 C51.9044623,28.8568066 52.7278901,29.6875 53.7437025,29.6875 Z" id="Shape" fill="#000000"></path>
                    <path d="M66.8929825,43.7890625 L46.9677576,43.7890625 C45.9519453,43.7890625 45.1285174,44.6197559 45.1285174,45.6445313 C45.1285174,46.6693066 45.9519453,47.5 46.9677576,47.5 L66.8927986,47.5 C67.908611,47.5 68.7320388,46.6693066 68.7320388,45.6445313 C68.7320388,44.6197559 67.9087949,43.7890625 66.8929825,43.7890625 Z" id="Shape" fill="#000000"></path>
                    <path d="M67.3656673,52.6953125 L11.0908024,52.6953125 C10.07499,52.6953125 9.25156218,53.5260059 9.25156218,54.5507813 C9.25156218,55.5755566 10.07499,56.40625 11.0908024,56.40625 L67.3656673,56.40625 C68.3814796,56.40625 69.2049075,55.5755566 69.2049075,54.5507813 C69.2049075,53.5260059 68.3814796,52.6953125 67.3656673,52.6953125 Z" id="Shape" fill="#000000"></path>
                    <path d="M11.0908024,65.3125 L66.8927986,65.3125 C67.908611,65.3125 68.7320388,64.4818066 68.7320388,63.4570313 C68.7320388,62.4322559 67.908611,61.6015625 66.8927986,61.6015625 L11.0908024,61.6015625 C10.07499,61.6015625 9.25156218,62.4322559 9.25156218,63.4570313 C9.25156218,64.4818066 10.07499,65.3125 11.0908024,65.3125 Z" id="Shape" fill="#000000"></path>
                    <path d="M11.0908024,74.21875 L67.3656673,74.21875 C68.3814796,74.21875 69.2049075,73.3880566 69.2049075,72.3632813 C69.2049075,71.3385059 68.3814796,70.5078125 67.3656673,70.5078125 L11.0908024,70.5078125 C10.07499,70.5078125 9.25156218,71.3385059 9.25156218,72.3632813 C9.25156218,73.3880566 10.07499,74.21875 11.0908024,74.21875 Z" id="Shape" fill="#000000"></path>
                    <path d="M67.3658512,79.4140625 C66.882131,79.4140625 66.407607,79.6125977 66.0655084,79.9577148 C65.7234097,80.302832 65.526611,80.781543 65.526611,81.2695313 C65.526611,81.7575195 65.7234097,82.2362305 66.0655084,82.5813477 C66.407607,82.9264648 66.882131,83.125 67.3658512,83.125 C67.8495714,83.125 68.3240953,82.9264648 68.666194,82.5813477 C69.0082927,82.2362305 69.2050914,81.7575195 69.2050914,81.2695313 C69.2050914,80.781543 69.0082927,80.302832 68.666194,79.9577148 C68.3240953,79.6125977 67.8495714,79.4140625 67.3658512,79.4140625 Z" id="Shape" fill="#000000"></path>
                    <path d="M59.9603344,79.4140625 L11.0908024,79.4140625 C10.07499,79.4140625 9.25156218,80.2447559 9.25156218,81.2695313 C9.25156218,82.2943066 10.07499,83.125 11.0908024,83.125 L59.9603344,83.125 C60.9761468,83.125 61.7995746,82.2943066 61.7995746,81.2695313 C61.7995746,80.2447559 60.9761468,79.4140625 59.9603344,79.4140625 Z" id="Shape" fill="#000000"></path>
                    <path d="M10.5943915,47.5 L37.5521352,47.5 C38.5679476,47.5 39.3913754,46.6693066 39.3913754,45.6445313 L39.3913754,13.7304688 C39.3913754,12.7056934 38.5679476,11.875 37.5521352,11.875 L10.6181177,11.875 C9.60230529,11.875 8.77887745,12.7056934 8.77887745,13.7304688 L8.75515125,45.6445313 C8.75515125,46.6693066 9.57857909,47.5 10.5943915,47.5 Z M35.712895,43.7890625 L12.4336317,43.7890625 L12.4573579,41.4268652 C12.7551309,37.3591211 16.1286653,34.140625 20.2355047,34.140625 L27.911022,34.140625 C32.2130048,34.140625 35.712895,37.6713965 35.712895,42.0113379 L35.712895,43.7890625 Z M21.130479,27.4609375 L21.130479,26.2548828 C21.130479,24.6179883 22.4506856,23.2861328 24.0732633,23.2861328 C25.6958411,23.2861328 27.0160477,24.6179883 27.0160477,26.2548828 L27.0160477,27.4609375 C27.0160477,29.097832 25.6958411,30.4296875 24.0732633,30.4296875 C22.4506856,30.4296875 21.130479,29.097832 21.130479,27.4609375 Z M35.712895,15.5859375 L35.712895,33.5255371 C34.1278378,32.0413477 32.1283998,31.0041406 29.9110118,30.6092969 C30.4103655,29.6706152 30.6945281,28.5987109 30.6945281,27.4609375 L30.6945281,26.2548828 C30.6945281,22.5715918 27.7243391,19.5751953 24.0732633,19.5751953 C20.4221876,19.5751953 17.4519986,22.5715918 17.4519986,26.2548828 L17.4519986,27.4609375 C17.4519986,28.5987109 17.7361612,29.6706152 18.2355149,30.6092969 C16.0293463,31.0020996 14.0385527,32.0304004 12.4573579,33.5025293 L12.4573579,15.5859375 L35.712895,15.5859375 Z" id="Shape" fill="#000000"></path>
                </g>
            </g>
        </g>
    </g>
</svg>