<?xml version="1.0" encoding="iso-8859-1"?>
<!-- Generator: Adobe Illustrator 19.0.0, SVG Export Plug-In . SVG Version: 6.00 Build 0)  -->
<svg version="1.1" id="Capa_1" xmlns="http://www.w3.org/2000/svg" xmlns:xlink="http://www.w3.org/1999/xlink" x="0px" y="0px"
	 viewBox="0 0 512 512" style="enable-background:new 0 0 512 512;" xml:space="preserve">
<rect x="308.5" y="460.81" style="fill:#D8D8E4;" width="88" height="41.19"/>
<path style="fill:#4DBAF6;" d="M337.733,392.646v-25.279l108.25-108.25V92.009c0-15.469,12.54-28.009,28.009-28.009l0,0
	C489.46,64,502,76.54,502,92.009v189.724L412.526,458H288.914V346.479l69.26-69.26c10.186-10.186,26.9-9.502,36.22,1.483l0,0
	c8.3,9.783,7.705,24.298-1.367,33.37l-55.295,55.295v25.279"/>
<g>
	<path style="fill:#D8D8E4;" d="M469.323,346.108h-33.621c-13.908,0-26.696,7.627-33.306,19.864L352.691,458h59.835L469.323,346.108
		z"/>
	<rect x="115.5" y="460.81" style="fill:#D8D8E4;" width="88" height="41.19"/>
</g>
<path style="fill:#4DBAF6;" d="M174.267,392.646v-25.279l-108.25-108.25V92.009C66.018,76.54,53.478,64,38.009,64l0,0
	C22.54,64,10,76.54,10,92.009v189.724L99.474,458h123.612V346.479l-69.26-69.26c-10.186-10.186-26.9-9.502-36.22,1.483l0,0
	c-8.3,9.783-7.705,24.298,1.367,33.37l55.295,55.295L174.267,392.646"/>
<path style="fill:#D8D8E4;" d="M42.677,346.108h33.621c13.908,0,26.696,7.627,33.306,19.864L159.309,458H99.474L42.677,346.108z"/>
<path style="fill:#62CD4D;" d="M319,50H193c-9.389,0-17,7.611-17,17v126c0,9.389,7.611,17,17,17h126c9.389,0,17-7.611,17-17V67
	C336,57.611,328.389,50,319,50z"/>
<path d="M438.63,396.569c-2.63,0-5.21,1.061-7.07,2.931c-1.86,1.859-2.93,4.43-2.93,7.069c0,2.631,1.07,5.211,2.93,7.07
	c1.86,1.86,4.44,2.93,7.07,2.93s5.21-1.069,7.08-2.93c1.86-1.859,2.92-4.439,2.92-7.07c0-2.64-1.06-5.21-2.92-7.069
	C443.84,397.63,441.27,396.569,438.63,396.569z"/>
<path d="M473.991,54c-20.958,0-38.009,17.051-38.009,38.009v162.966l-27.855,27.854c-1.357-3.787-3.384-7.385-6.108-10.596
	c-6.244-7.361-15.356-11.809-25.001-12.204c-9.643-0.407-19.09,3.294-25.916,10.118l-69.26,69.261
	c-1.875,1.876-2.929,4.419-2.929,7.071V458c0,5.522,4.477,10,10,10h9.586v34c0,5.522,4.477,10,10,10s10-4.478,10-10v-34h24.19v34
	c0,5.522,4.477,10,10,10s10-4.478,10-10v-34h23.81v34c0,5.522,4.477,10,10,10s10-4.478,10-10v-34h6.026
	c3.766,0,7.212-2.115,8.917-5.474l8.598-16.938c2.5-4.925,0.534-10.943-4.391-13.443c-4.924-2.501-10.943-0.535-13.443,4.391
	L406.387,448h-36.93l41.738-77.275c4.869-9.016,14.26-14.616,24.507-14.616h17.33l-6.107,12.031
	c-2.5,4.925-0.534,10.943,4.391,13.443c4.924,2.498,10.942,0.534,13.443-4.391l46.158-90.933c0.712-1.402,1.083-2.953,1.083-4.526
	V92.009C512,71.051,494.949,54,473.991,54z M492,279.341l-28.816,56.768h-27.483c-17.605,0-33.738,9.622-42.104,25.112L346.726,448
	h-47.812v-97.378l28.283-28.283l5.898,5.899c1.953,1.952,4.512,2.929,7.071,2.929s5.118-0.977,7.071-2.929
	c3.905-3.905,3.906-10.236,0-14.142l-5.899-5.9l23.907-23.907c2.928-2.928,6.82-4.44,10.955-4.277
	c4.137,0.169,7.89,2.001,10.568,5.159c4.895,5.769,4.538,14.479-0.813,19.829l-55.295,55.295c-1.875,1.876-2.929,4.419-2.929,7.071
	v25.279c0,5.522,4.477,10,10,10s10-4.478,10-10V371.51l52.366-52.366l52.955-52.955c1.875-1.876,2.929-4.419,2.929-7.071v-8.784H473
	c5.523,0,10-4.478,10-10s-4.477-10-10-10h-17.018v-62H473c5.523,0,10-4.478,10-10s-4.477-10-10-10h-17.018V92.009
	c0-9.93,8.079-18.009,18.009-18.009S492,82.079,492,92.009V279.341z"/>
<path d="M297.079,171.798c5.523,0,10-4.478,10-10V98.202c0-5.522-4.477-10-10-10s-10,4.478-10,10v63.596
	C287.079,167.32,291.556,171.798,297.079,171.798z"/>
<path d="M224.271,165.344l2.655-7.001h24.229l2.655,7.001c1.516,3.997,5.316,6.457,9.352,6.457c1.178,0,2.377-0.21,3.544-0.653
	c5.164-1.958,7.762-7.731,5.804-12.896l-24.12-63.596c-1.474-3.885-5.195-6.454-9.35-6.454s-7.876,2.569-9.35,6.454l-24.12,63.596
	c-1.958,5.164,0.64,10.938,5.804,12.896C216.539,173.108,222.313,170.509,224.271,165.344z M243.571,138.343h-9.058l4.529-11.941
	L243.571,138.343z"/>
<path d="M286,220v30c0,5.522,4.477,10,10,10s10-4.478,10-10v-30h13c14.888,0,27-12.112,27-27v-13h30c5.523,0,10-4.478,10-10
	s-4.477-10-10-10h-30v-20h30c5.523,0,10-4.478,10-10s-4.477-10-10-10h-30v-20h30c5.523,0,10-4.478,10-10s-4.477-10-10-10h-30V67
	c0-14.888-12.112-27-27-27h-13V10c0-5.522-4.477-10-10-10s-10,4.478-10,10v30h-20V10c0-5.522-4.477-10-10-10
	c-5.523,0-10,4.478-10,10v30h-20V10c0-5.522-4.477-10-10-10s-10,4.478-10,10v30h-13c-14.888,0-27,12.112-27,27v13h-30
	c-5.523,0-10,4.478-10,10s4.477,10,10,10h30v20h-30c-5.523,0-10,4.478-10,10s4.477,10,10,10h30v20h-30c-5.523,0-10,4.478-10,10
	s4.477,10,10,10h30v13c0,14.888,12.112,27,27,27h13v30c0,5.522,4.477,10,10,10s10-4.478,10-10v-30h20v30c0,5.522,4.477,10,10,10
	c5.523,0,10-4.478,10-10v-30H286z M186,193V67c0-3.859,3.14-7,7-7h126c3.86,0,7,3.141,7,7v126c0,3.859-3.14,7-7,7H193
	C189.14,200,186,196.859,186,193z"/>
<path d="M160.897,270.147c-6.826-6.825-16.262-10.515-25.916-10.118c-9.645,0.396-18.757,4.843-25.001,12.203
	c-2.724,3.211-4.752,6.81-6.108,10.597l-27.854-27.854V92.009C76.018,71.051,58.967,54,38.009,54S0,71.051,0,92.009v189.725
	c0,1.573,0.371,3.124,1.083,4.526l46.158,90.933c2.5,4.926,8.521,6.893,13.443,4.391c4.925-2.5,6.891-8.519,4.391-13.443
	l-6.107-12.031h17.33c10.247,0,19.638,5.601,24.507,14.616L142.543,448h-36.93l-5.819-11.464c-2.5-4.925-8.519-6.89-13.443-4.391
	c-4.925,2.5-6.891,8.519-4.391,13.443l8.598,16.938c1.705,3.358,5.151,5.474,8.917,5.474h6.026v34c0,5.522,4.477,10,10,10
	s10-4.478,10-10v-34h23.81v34c0,5.522,4.477,10,10,10s10-4.478,10-10v-34h24.19v34c0,5.522,4.477,10,10,10s10-4.478,10-10v-34h9.586
	c5.523,0,10-4.478,10-10V346.479c0-2.652-1.054-5.195-2.929-7.071L160.897,270.147z M118.403,361.221
	c-8.366-15.49-24.5-25.112-42.104-25.112H48.816L20,279.341V92.009C20,82.079,28.079,74,38.009,74s18.009,8.079,18.009,18.009
	v56.324H40.725c-5.523,0-10,4.478-10,10s4.477,10,10,10h15.293v62H40.725c-5.523,0-10,4.478-10,10s4.477,10,10,10h15.293v8.784
	c0,2.652,1.054,5.195,2.929,7.071l52.955,52.955l52.366,52.366v21.137c0,5.522,4.477,10,10,10s10-4.478,10-10v-25.279
	c0-2.652-1.054-5.195-2.929-7.071l-55.295-55.295c-5.35-5.35-5.707-14.061-0.813-19.83c2.679-3.157,6.432-4.989,10.568-5.158
	c4.132-0.178,8.027,1.35,10.955,4.277l24.769,24.769l-5.036,5.037c-3.905,3.905-3.905,10.237,0,14.143
	c1.953,1.952,4.512,2.929,7.071,2.929s5.119-0.977,7.071-2.929l5.036-5.037l27.42,27.42V448h-47.812L118.403,361.221z"/>
<path d="M80.44,399.5c-1.86-1.87-4.44-2.931-7.07-2.931c-2.64,0-5.21,1.061-7.08,2.931c-1.86,1.859-2.92,4.43-2.92,7.069
	c0,2.631,1.06,5.211,2.92,7.07c1.87,1.86,4.45,2.93,7.08,2.93c2.63,0,5.2-1.069,7.07-2.93c1.86-1.859,2.93-4.439,2.93-7.07
	C83.37,403.93,82.3,401.359,80.44,399.5z"/>
<g>
</g>
<g>
</g>
<g>
</g>
<g>
</g>
<g>
</g>
<g>
</g>
<g>
</g>
<g>
</g>
<g>
</g>
<g>
</g>
<g>
</g>
<g>
</g>
<g>
</g>
<g>
</g>
<g>
</g>
</svg>
