<?xml version="1.0" encoding="iso-8859-1"?>
<!-- Generator: Adobe Illustrator 19.0.0, SVG Export Plug-In . SVG Version: 6.00 Build 0)  -->
<svg xmlns="http://www.w3.org/2000/svg" xmlns:xlink="http://www.w3.org/1999/xlink" version="1.1" id="Layer_1" x="0px" y="0px" viewBox="0 0 512 512" style="enable-background:new 0 0 512 512;" xml:space="preserve" width="512" height="512">
<g id="XMLID_1779_">
	<g id="XMLID_343_">
		<rect id="XMLID_1930_" x="10.675" y="168.917" style="fill:#14C4BB;" width="94.066" height="54.222"/>
		<rect id="XMLID_1928_" x="142.87" y="168.917" style="fill:#F96982;" width="94.066" height="54.222"/>
		<g id="XMLID_349_">
			<g id="XMLID_1945_">
				<rect id="XMLID_1946_" x="62.326" y="7.5" style="fill:#F9B767;" width="148.579" height="85.644"/>
			</g>
		</g>
		<rect id="XMLID_1913_" x="275.064" y="168.917" style="fill:#5089DD;" width="94.066" height="54.222"/>
		<rect id="XMLID_1911_" x="10.675" y="319.585" style="fill:#5089DD;" width="94.066" height="54.222"/>
		<rect id="XMLID_1908_" x="142.87" y="319.585" style="fill:#5089DD;" width="94.066" height="54.222"/>
		<rect id="XMLID_1907_" x="275.064" y="319.585" style="fill:#5089DD;" width="94.066" height="54.222"/>
		<rect id="XMLID_354_" x="407.259" y="168.917" style="fill:#FF433E;" width="94.066" height="54.222"/>
		<rect id="XMLID_348_" x="275.064" y="450.278" style="fill:#4A529E;" width="94.066" height="54.222"/>
		<rect id="XMLID_347_" x="407.259" y="450.278" style="fill:#4A529E;" width="94.066" height="54.222"/>
	</g>
	<path id="XMLID_205_" d="M447.642,215.639c-4.142,0-7.5,3.358-7.5,7.5s3.358,7.5,7.5,7.5h53.683c4.142,0,7.5-3.358,7.5-7.5v-54.222   c0-4.142-3.358-7.5-7.5-7.5h-41.669v-27.732c0-4.142-3.358-7.5-7.5-7.5H144.115v-25.541h66.79c4.142,0,7.5-3.358,7.5-7.5V71.642   c0-4.142-3.358-7.5-7.5-7.5s-7.5,3.358-7.5,7.5v14.001H90.356L203.405,20.48v20.544c0,4.142,3.358,7.5,7.5,7.5s7.5-3.358,7.5-7.5   V7.5c0-4.073-3.422-7.5-7.5-7.5H62.326c-4.142,0-7.5,3.358-7.5,7.5v85.644c0,4.088,3.436,7.5,7.53,7.5h66.759v25.541H55.572   c-4.142,0-7.5,3.358-7.5,7.5v27.732H10.675c-4.142,0-7.5,3.358-7.5,7.5v54.222c0,4.142,3.358,7.5,7.5,7.5h37.397v81.446H10.675   c-4.142,0-7.5,3.358-7.5,7.5v54.221c0,4.142,3.358,7.5,7.5,7.5h94.066c4.142,0,7.5-3.358,7.5-7.5v-54.221   c0-4.142-3.358-7.5-7.5-7.5H63.072v-20.233h117.195v20.232H142.87c-4.142,0-7.5,3.358-7.5,7.5v54.222c0,4.142,3.358,7.5,7.5,7.5   h16.822c4.142,0,7.5-3.358,7.5-7.5s-3.358-7.5-7.5-7.5h-9.322v-39.222h79.066v39.222h-39.127c-4.142,0-7.5,3.358-7.5,7.5   s3.358,7.5,7.5,7.5h46.627c4.142,0,7.5-3.358,7.5-7.5v-54.222c0-4.142-3.358-7.5-7.5-7.5h-41.669v-20.232h117.194v20.233h-37.397   c-4.142,0-7.5,3.358-7.5,7.5v54.221c0,4.142,3.358,7.5,7.5,7.5h37.397v61.472h-37.397c-4.142,0-7.5,3.358-7.5,7.5V504.5   c0,4.142,3.358,7.5,7.5,7.5h94.066c4.142,0,7.5-3.358,7.5-7.5v-54.222c0-4.142-3.358-7.5-7.5-7.5h-41.669v-20.232h117.195v20.232   h-37.397c-4.142,0-7.5,3.358-7.5,7.5V504.5c0,4.142,3.358,7.5,7.5,7.5h94.066c4.142,0,7.5-3.358,7.5-7.5v-54.222   c0-4.142-3.358-7.5-7.5-7.5h-41.669v-27.732c0-4.142-3.358-7.5-7.5-7.5H327.461v-26.24h41.669c4.142,0,7.5-3.358,7.5-7.5v-54.221   c0-4.142-3.358-7.5-7.5-7.5h-41.669v-27.733c0-4.142-3.358-7.5-7.5-7.5H63.072v-46.213h41.669c4.142,0,7.5-3.358,7.5-7.5v-54.222   c0-4.142-3.358-7.5-7.5-7.5H63.072v-20.232h117.195v20.232H142.87c-4.142,0-7.5,3.358-7.5,7.5v54.222c0,4.142,3.358,7.5,7.5,7.5   h94.066c4.142,0,7.5-3.358,7.5-7.5v-54.222c0-4.142-3.358-7.5-7.5-7.5h-41.669v-20.232h117.194v20.232h-37.397   c-4.142,0-7.5,3.358-7.5,7.5v54.222c0,4.142,3.358,7.5,7.5,7.5h94.066c4.142,0,7.5-3.358,7.5-7.5v-54.222   c0-4.142-3.358-7.5-7.5-7.5h-41.669v-20.232h117.195v20.232h-37.397c-4.142,0-7.5,3.358-7.5,7.5v54.222c0,4.142,3.358,7.5,7.5,7.5   h9.766c4.142,0,7.5-3.358,7.5-7.5s-3.358-7.5-7.5-7.5h-2.266v-39.222h79.066v39.222H447.642z M69.826,15h113.049L69.826,80.163V15z    M493.825,497h-79.066v-11.824h79.066V497z M493.825,457.778v12.397h-79.066v-12.397H493.825z M361.63,497h-79.066v-11.824h79.066   V497z M361.63,457.778v12.397h-79.066v-12.397H361.63z M361.63,327.085v39.221h-79.066v-39.221H361.63z M97.241,327.085v39.221   H18.175v-39.221H97.241z M97.241,176.417v39.222H18.175v-39.222H97.241z M229.436,176.417v39.222H150.37v-39.222H229.436z    M361.63,176.417v39.222h-79.066v-39.222H361.63z"/>
</g>















</svg>
