<?xml version="1.0" encoding="iso-8859-1"?>
<!-- Generator: Adobe Illustrator 19.0.0, SVG Export Plug-In . SVG Version: 6.00 Build 0)  -->
<svg version="1.1" id="Capa_1" xmlns="http://www.w3.org/2000/svg" xmlns:xlink="http://www.w3.org/1999/xlink" x="0px" y="0px"
	 viewBox="0 0 512 512" style="enable-background:new 0 0 512 512;" xml:space="preserve">
<rect x="210.504" y="231.991" style="fill:#FF5D5D;" width="68.584" height="115.552"/>
<g>
	<rect x="98.937" y="10.947" style="fill:#FFB954;" width="44.495" height="79.691"/>
	<rect x="217.388" y="10.947" style="fill:#FFB954;" width="45.573" height="79.691"/>
	<rect x="336.675" y="10.947" style="fill:#FFB954;" width="45.822" height="79.691"/>
	<rect x="456.551" y="130.484" style="fill:#FFB954;" width="45.491" height="79.691"/>
	<rect x="302.807" y="130.484" style="fill:#FFB954;" width="79.691" height="79.691"/>
	<rect x="97.602" y="130.484" style="fill:#FFB954;" width="45.822" height="79.691"/>
	<rect x="456.551" y="250.021" style="fill:#FFB954;" width="45.491" height="79.691"/>
	<rect x="458.543" y="369.558" style="fill:#FFB954;" width="43.498" height="79.691"/>
	<rect x="342.652" y="369.558" style="fill:#FFB954;" width="39.846" height="79.691"/>
	<rect x="221.312" y="369.558" style="fill:#FFB954;" width="41.655" height="79.691"/>
</g>
<path style="fill:#6A80FF;" d="M25.438,499.505c8.511,3.196,18.472,1.392,25.319-5.455l98.609-98.609l-19.864-19.864l-98.609,98.609
	C24.047,481.033,22.242,490.994,25.438,499.505z"/>
<path style="fill:#FFFFFF;" d="M173.556,185.535c21.42-21.42,48.15-34.283,75.953-38.61c-41.879-6.518-86.19,6.345-118.455,38.61
	c-53.684,53.685-53.684,140.724,0,194.409c32.265,32.265,76.576,45.128,118.455,38.61c-27.802-4.327-54.534-17.19-75.953-38.61
	C119.872,326.259,119.872,239.22,173.556,185.535z"/>
<path style="fill:#72D8FF;" d="M325.463,185.535c-21.42-21.42-48.15-34.283-75.953-38.61c-27.802,4.327-54.534,17.19-75.953,38.61
	c-53.684,53.685-53.684,140.724,0,194.409c21.42,21.42,48.15,34.283,75.953,38.61c27.802-4.327,54.534-17.19,75.953-38.61
	C379.147,326.259,379.147,239.22,325.463,185.535z M163.456,347.542c-35.789-35.789-35.789-93.815,0-129.606
	c23.34-23.34,56.134-31.447,86.054-24.345c15.959,3.788,31.101,11.895,43.551,24.345c35.789,35.789,35.789,93.815,0,129.606
	c-12.45,12.45-27.592,20.556-43.551,24.345C219.59,378.989,186.796,370.882,163.456,347.542z"/>
<path d="M63.737,100.599h79.691c5.501,0,9.961-4.461,9.961-9.961V10.947c0-5.501-4.461-9.961-9.961-9.961H63.737
	c-5.501,0-9.961,4.461-9.961,9.961v79.691C53.776,96.138,58.235,100.599,63.737,100.599z M73.698,20.908h59.768v59.768H73.698
	C73.698,80.676,73.698,20.908,73.698,20.908z"/>
<path d="M183.274,100.599h79.691c5.501,0,9.961-4.461,9.961-9.961V10.947c0-5.501-4.461-9.961-9.961-9.961h-79.691
	c-5.501,0-9.961,4.461-9.961,9.961v79.691C173.312,96.138,177.772,100.599,183.274,100.599z M193.235,20.908h59.768v59.768h-59.768
	V20.908z"/>
<path d="M382.502,0.985h-79.691c-5.501,0-9.961,4.461-9.961,9.961v79.691c0,5.501,4.461,9.961,9.961,9.961h79.691
	c5.501,0,9.961-4.461,9.961-9.961V10.947C392.463,5.446,388.003,0.985,382.502,0.985z M372.54,80.676h-59.768V20.908h59.768V80.676z
	"/>
<path d="M382.502,120.522h-79.691c-5.501,0-9.961,4.461-9.961,9.961v19.726c-44.121-21.456-96.806-19.624-139.46,5.508v-25.234
	c0-5.501-4.461-9.961-9.961-9.961H63.737c-5.501,0-9.961,4.461-9.961,9.961v79.691c0,5.501,4.461,9.961,9.961,9.961h31.042
	C69.226,274.759,78.966,341.94,124.01,386.986c3.326,3.326,6.778,6.451,10.331,9.392l-90.627,90.627
	c-2.635,2.635-6.136,4.086-9.861,4.086c-3.725,0-7.227-1.451-9.861-4.086c-5.438-5.437-5.437-14.285,0-19.723l40.033-40.033
	c3.89-3.89,3.89-10.198,0-14.088c-3.891-3.889-10.196-3.889-14.088,0L9.904,453.197c-13.205,13.206-13.205,34.693,0,47.897
	c6.397,6.397,14.902,9.921,23.949,9.921s17.552-3.523,23.949-9.921l92.938-92.938c7.249,4.481,14.804,8.275,22.573,11.383v29.709
	c0,5.501,4.461,9.961,9.961,9.961h79.691c5.501,0,9.961-4.461,9.961-9.961v-26.036c6.787-2.146,13.447-4.793,19.923-7.942v33.978
	c0,5.501,4.461,9.961,9.961,9.961h79.691c5.501,0,9.961-4.461,9.961-9.961v-79.691c0-5.501-4.461-9.961-9.961-9.961h-28.447
	c6.825-11.154,12.175-23.182,15.812-35.752c1.529-5.285-1.515-10.809-6.8-12.337c-5.278-1.535-10.809,1.515-12.337,6.8
	c-5.936,20.513-17.109,39.39-32.312,54.593c-49.713,49.715-130.607,49.715-180.321,0c-49.714-49.714-49.714-130.606,0-180.32
	c49.713-49.715,130.607-49.715,180.321,0c16.535,16.535,28.188,37.213,33.699,59.801c1.305,5.344,6.695,8.623,12.038,7.317
	c5.345-1.304,8.621-6.694,7.317-12.038c-2.321-9.511-5.593-18.723-9.723-27.523h20.753c5.501,0,9.961-4.461,9.961-9.961v-79.691
	C392.463,124.983,388.003,120.522,382.502,120.522z M332.507,386.987c2.409-2.41,4.722-4.906,6.952-7.469h33.081v59.768h-59.768
	v-35.734C319.707,398.696,326.318,393.177,332.507,386.987z M253.004,428.024v11.262h-59.768v-13.376
	c11.492,2.791,23.258,4.188,35.023,4.188C236.538,430.098,244.818,429.407,253.004,428.024z M106.087,200.213H73.698v-59.768h59.768
	v29.386c-3.244,2.728-6.404,5.608-9.456,8.66C117.234,185.269,111.266,192.552,106.087,200.213z M372.54,200.213h-22.125
	c-5.244-7.751-11.223-15.036-17.909-21.722c-6.19-6.19-12.799-11.709-19.736-16.566v-21.482h59.768v59.769H372.54z"/>
<path d="M502.039,120.522h-79.691c-5.501,0-9.961,4.461-9.961,9.961v79.691c0,5.501,4.461,9.961,9.961,9.961h79.691
	c5.501,0,9.961-4.461,9.961-9.961v-79.691C512,124.983,507.539,120.522,502.039,120.522z M492.077,200.213h-59.768v-59.768h59.768
	V200.213z"/>
<path d="M502.039,240.059h-79.691c-5.501,0-9.961,4.461-9.961,9.961v79.691c0,5.501,4.461,9.961,9.961,9.961h79.691
	c5.501,0,9.961-4.461,9.961-9.961V250.02C512,244.519,507.539,240.059,502.039,240.059z M492.077,319.75h-59.768v-59.768h59.768
	V319.75z"/>
<path d="M502.039,359.596h-79.691c-5.501,0-9.961,4.461-9.961,9.961v79.691c0,5.501,4.461,9.961,9.961,9.961h79.691
	c5.501,0,9.961-4.461,9.961-9.961v-79.691C512,364.056,507.539,359.596,502.039,359.596z M492.077,439.287h-59.768v-59.768h59.768
	V439.287z"/>
<path d="M92.226,399.043c1.853-1.852,2.92-4.422,2.92-7.042c0-2.621-1.066-5.191-2.92-7.043c-1.852-1.853-4.422-2.919-7.042-2.919
	c-2.621,0-5.191,1.065-7.043,2.919c-1.853,1.852-2.919,4.422-2.919,7.043c0,2.63,1.065,5.19,2.919,7.042
	c1.852,1.853,4.422,2.92,7.043,2.92C87.804,401.961,90.374,400.896,92.226,399.043z"/>
<path d="M355.764,282.739l-0.003,0.838c-0.035,5.501,4.395,9.989,9.898,10.025c0.022,0,0.044,0,0.065,0
	c5.471,0,9.925-4.418,9.96-9.898l0.003-0.966c0-5.501-4.461-9.961-9.961-9.961C360.225,272.777,355.764,277.238,355.764,282.739z"/>
<path d="M156.412,210.893c-19.192,19.192-29.76,44.707-29.76,71.847s10.568,52.655,29.76,71.847s44.707,29.76,71.847,29.76
	s52.655-10.568,71.847-29.76s29.76-44.707,29.76-71.847s-10.568-52.655-29.76-71.847
	C260.49,171.276,196.028,171.276,156.412,210.893z M173.495,241.95h95.629v95.629h-95.629L173.495,241.95L173.495,241.95z
	 M284.869,223.889c-1.632-1.167-3.624-1.862-5.784-1.862H173.613c15.484-13.955,35.065-20.935,54.645-20.935
	C248.682,201.094,269.094,208.706,284.869,223.889z M153.572,249.613v66.253c-4.571-10.297-6.997-21.522-6.997-33.127
	C146.575,271.135,149.001,259.91,153.572,249.613z M195.307,357.503h65.903c-10.249,4.521-21.413,6.919-32.951,6.919
	S205.556,362.024,195.307,357.503z M289.047,337.293V231.989c0-2.156-0.692-4.146-1.856-5.777
	c14.672,15.281,22.751,35.278,22.751,56.526C309.942,303.082,302.551,322.283,289.047,337.293z"/>
<g>
</g>
<g>
</g>
<g>
</g>
<g>
</g>
<g>
</g>
<g>
</g>
<g>
</g>
<g>
</g>
<g>
</g>
<g>
</g>
<g>
</g>
<g>
</g>
<g>
</g>
<g>
</g>
<g>
</g>
</svg>
