<svg height="512pt" viewBox="0 -27 512 512" width="512pt" xmlns="http://www.w3.org/2000/svg"><path d="m128.8125 360c-8.734375 0-15.8125-8.953125-15.8125-20v-256c0-11.046875 7.078125-20 15.8125-20h357.375c8.734375 0 15.8125 8.953125 15.8125 20v256c0 11.046875-7.078125 20-15.8125 20zm0 0" fill="#c9f3ff"/><path d="m337.296875 441.039062-50.796875-33.039062v-46h-23.972656v46l-50.796875 33.039062c-3.160157 2.054688-1.707031 6.960938 2.0625 6.960938h121.441406c3.769531 0 5.222656-4.90625 2.0625-6.960938zm0 0" fill="#5a54e0"/><path d="m92 10v32.425781c0 22.644531-18.355469 41-41 41s-41-18.355469-41-41v-32.425781zm0 0" fill="#fff"/><path d="m126 42.425781v-32.425781h-34v32.425781c0 22.644531 18.355469 41 41 41 6.066406 0 11.820312-1.328125 17-3.691406-14.15625-6.460937-24-20.730469-24-37.308594zm0 0" fill="#fff"/><path d="m174 42.425781v-32.425781h-48v32.425781c0 16.578125 9.84375 30.847657 24 37.308594 14.15625-6.460937 24-20.730469 24-37.308594zm0 0" fill="#ef3c3c"/><path d="m256 10v32.425781c0 22.644531-18.355469 41-41 41s-41-18.355469-41-41v-32.425781zm0 0" fill="#fff"/><path d="m287.332031 42.425781v-32.425781h-31.332031v32.425781c0 22.644531 18.355469 41 41 41 5.550781 0 10.839844-1.109375 15.667969-3.105469-14.871094-6.15625-25.335938-20.800781-25.335938-37.894531zm0 0" fill="#fff"/><path d="m338 42.425781v-32.425781h-50.667969v32.425781c0 17.09375 10.464844 31.738281 25.332031 37.894531 14.871094-6.15625 25.335938-20.800781 25.335938-37.894531zm0 0" fill="#ef3c3c"/><path d="m420 10v32.425781c0 22.644531-18.355469 41-41 41s-41-18.355469-41-41v-32.425781zm0 0" fill="#fff"/><path d="m455 42.425781v-32.425781h-35v32.425781c0 22.644531 18.355469 41 41 41 6.261719 0 12.191406-1.40625 17.5-3.917969-13.890625-6.566406-23.5-20.699218-23.5-37.082031zm0 0" fill="#fff"/><path d="m502 42.425781v-32.425781h-47v32.425781c0 16.382813 9.609375 30.515625 23.5 37.082031 13.890625-6.566406 23.5-20.699218 23.5-37.082031zm0 0" fill="#ef3c3c"/><path d="m96.011719 169.988281-10.4375-31.988281 35.210937 128.128906h59l-26.421875-96.140625zm0 0" fill="#fff"/><path d="m155.011719 169.988281h-1.648438l26.421875 96.140625h52.546875l23.539063-96.140625zm0 0" fill="#2e9de3"/><path d="m361.667969 276c0-11.046875 8.953125-20 20-20h-49.667969c-11.046875 0-20 8.953125-20 20s8.953125 20 20 20h49.667969c-11.046875 0-20-8.953125-20-20zm0 0" fill="#fff"/><path d="m448 276c0-11.046875-8.953125-20-20-20h-46.332031c-11.046875 0-20 8.953125-20 20s8.953125 20 20 20h46.332031c11.046875 0 20-8.953125 20-20zm0 0" fill="#ef3c3c"/><path d="m348.332031 350h-318.332031c-5.515625 0-10-4.484375-10-10v-226c0-5.523438-4.476562-10-10-10s-10 4.476562-10 10v226c0 16.542969 13.457031 30 30 30h185.5v32.574219l-46.25 30.082031c-5.160156 3.355469-7.449219 9.574219-5.699219 15.476562 1.75 5.902344 7.0625 9.867188 13.214844 9.867188h158.46875c6.15625 0 11.464844-3.964844 13.21875-9.867188 1.75-5.898437-.542969-12.121093-5.703125-15.476562l-46.25-30.082031v-32.574219h51.835938c5.519531 0 10-4.476562 10-10s-4.480469-10-10.003907-10zm-67.285156 66.382812 33.238281 21.617188h-116.570312l33.238281-21.617188c2.835937-1.84375 4.546875-5 4.546875-8.382812v-38h41v38c0 3.382812 1.710938 6.539062 4.546875 8.382812zm0 0"/><path d="m390 350c-2.628906 0-5.210938 1.070312-7.070312 2.929688-1.859376 1.859374-2.929688 4.441406-2.929688 7.070312s1.070312 5.210938 2.929688 7.070312c1.859374 1.859376 4.441406 2.929688 7.070312 2.929688s5.210938-1.070312 7.070312-2.929688c1.859376-1.859374 2.929688-4.441406 2.929688-7.070312s-1.070312-5.210938-2.929688-7.070312c-1.859374-1.859376-4.441406-2.929688-7.070312-2.929688zm0 0"/><path d="m502 104c-5.523438 0-10 4.476562-10 10v226c0 5.515625-4.484375 10-10 10h-54.332031c-5.523438 0-10 4.476562-10 10s4.476562 10 10 10h54.332031c16.542969 0 30-13.457031 30-30v-226c0-5.523438-4.476562-10-10-10zm0 0"/><path d="m502 0h-492c-5.523438 0-10 4.476562-10 10v32.429688c0 28.121093 22.878906 51 51 51 16.785156 0 31.699219-8.15625 41-20.710938 9.300781 12.554688 24.214844 20.710938 41 20.710938s31.699219-8.15625 41-20.710938c9.300781 12.554688 24.214844 20.710938 41 20.710938s31.699219-8.15625 41-20.710938c9.300781 12.554688 24.214844 20.710938 41 20.710938s31.699219-8.15625 41-20.710938c9.300781 12.554688 24.214844 20.710938 41 20.710938s31.699219-8.15625 41-20.710938c9.300781 12.554688 24.214844 20.710938 41 20.710938 28.121094 0 51-22.878907 51-51v-32.429688c0-5.523438-4.476562-10-10-10zm-451 73.429688c-17.09375 0-31-13.90625-31-31v-22.429688h62v22.429688c0 17.089843-13.90625 31-31 31zm82 0c-17.09375 0-31-13.90625-31-31v-22.429688h62v22.429688c0 17.089843-13.90625 31-31 31zm82 0c-17.09375 0-31-13.90625-31-31v-22.429688h62v22.429688c0 17.089843-13.90625 31-31 31zm82 0c-17.09375 0-31-13.90625-31-31v-22.429688h62v22.429688c0 17.089843-13.90625 31-31 31zm82 0c-17.09375 0-31-13.90625-31-31v-22.429688h62v22.429688c0 17.089843-13.90625 31-31 31zm113-31c0 17.09375-13.90625 31-31 31s-31-13.90625-31-31v-22.429688h62zm0 0"/><path d="m242.046875 268.503906 23.539063-96.140625c.730468-2.980469.050781-6.132812-1.847657-8.550781-1.894531-2.414062-4.792969-3.824219-7.867187-3.824219h-153.886719l-6.769531-24.640625c-1.191406-4.339844-5.140625-7.347656-9.644532-7.347656h-21.238281c-5.519531 0-10 4.476562-10 10 0 5.519531 4.480469 10 10 10h13.617188l33.195312 120.777344c1.191407 4.339844 5.140625 7.347656 9.640625 7.347656h111.546875c4.605469.003906 8.617188-3.144531 9.714844-7.621094zm-113.636719-12.375-20.925781-76.140625h135.644531l-18.644531 76.140625zm0 0"/><path d="m120.929688 289.261719c-1.859376 1.859375-2.929688 4.4375-2.929688 7.066406 0 2.640625 1.070312 5.210937 2.929688 7.070313 1.859374 1.871093 4.441406 2.929687 7.070312 2.929687s5.210938-1.058594 7.070312-2.929687c1.859376-1.859376 2.929688-4.429688 2.929688-7.070313 0-2.628906-1.070312-5.207031-2.929688-7.066406-1.859374-1.863281-4.441406-2.933594-7.070312-2.933594s-5.210938 1.070313-7.070312 2.933594zm0 0"/><path d="m207.929688 289.261719c-1.859376 1.859375-2.929688 4.4375-2.929688 7.066406 0 2.632813 1.070312 5.210937 2.929688 7.070313 1.859374 1.871093 4.441406 2.929687 7.070312 2.929687s5.210938-1.058594 7.070312-2.929687c1.859376-1.859376 2.929688-4.4375 2.929688-7.070313 0-2.628906-1.070312-5.199219-2.929688-7.066406-1.859374-1.863281-4.441406-2.933594-7.070312-2.933594s-5.210938 1.070313-7.070312 2.933594zm0 0"/><path d="m332 306h96c16.542969 0 30-13.457031 30-30s-13.457031-30-30-30h-96c-16.542969 0-30 13.457031-30 30s13.457031 30 30 30zm0-40h96c5.515625 0 10 4.484375 10 10s-4.484375 10-10 10h-96c-5.515625 0-10-4.484375-10-10s4.484375-10 10-10zm0 0"/><path d="m312 226h136c5.523438 0 10-4.476562 10-10s-4.476562-10-10-10h-136c-5.523438 0-10 4.476562-10 10s4.476562 10 10 10zm0 0"/><path d="m448 186.019531c5.523438 0 10-4.476562 10-10 0-5.519531-4.476562-10-10-10h-92.332031c-5.523438 0-10 4.480469-10 10 0 5.523438 4.476562 10 10 10zm0 0"/><path d="m312 186.019531c2.628906 0 5.210938-1.070312 7.070312-2.929687 1.859376-1.859375 2.929688-4.441406 2.929688-7.070313 0-2.628906-1.070312-5.210937-2.929688-7.070312-1.859374-1.859375-4.441406-2.929688-7.070312-2.929688s-5.210938 1.070313-7.070312 2.929688c-1.859376 1.859375-2.929688 4.441406-2.929688 7.070312 0 2.628907 1.070312 5.210938 2.929688 7.070313 1.859374 1.859375 4.441406 2.929687 7.070312 2.929687zm0 0"/></svg>