<svg height="512pt" viewBox="0 0 512.001 512" width="512pt" xmlns="http://www.w3.org/2000/svg"><path d="m10 50c0-22.089844 17.910156-40 40-40h166c22.089844 0 40 17.910156 40 40s-17.910156 40-40 40h-166c-22.089844 0-40-17.90625-40-40zm0 0" fill="#c9f3ff"/><path d="m10 130c0-22.089844 17.910156-40 40-40h166c22.089844 0 40 17.910156 40 40s-17.910156 40-40 40h-166c-22.089844 0-40-17.90625-40-40zm0 0" fill="#72d8ff"/><path d="m10 210c0-22.089844 17.910156-40 40-40h166c22.089844 0 40 17.910156 40 40s-17.910156 40-40 40h-166c-22.089844 0-40-17.90625-40-40zm0 0" fill="#c9f3ff"/><path d="m378.09375 411.90625 83.089844 83.09375c9.339844 9.335938 24.476562 9.335938 33.8125 0 9.339844-9.339844 9.339844-24.476562 0-33.8125l-83.089844-83.09375zm0 0" fill="#ff5d5d"/><path d="m430.003906 310c0 66.273438-53.726562 120-120 120-66.273437 0-120-53.726562-120-120s53.726563-120 120-120c66.273438 0 120 53.726562 120 120zm0 0" fill="#fff"/><path d="m388.003906 310c0 43.078125-34.921875 78-78 78s-78-34.921875-78-78 34.921875-78 78-78 78 34.921875 78 78zm0 0" fill="#72d8ff"/><path d="m133.828125 288.078125c11.042969 0 20 8.953125 20 20s-8.957031 20-20 20c-11.046875 0-20-8.953125-20-20s8.953125-20 20-20zm0 0" fill="#ffb954"/><path d="m133.828125 38.574219h-77.5c-5.523437 0-10 4.476562-10 10 0 5.519531 4.476563 10 10 10h77.5c5.523437 0 10-4.480469 10-10 0-5.523438-4.476563-10-10-10zm0 0"/><path d="m220.589844 48.570312c0-2.628906-1.070313-5.210937-2.929688-7.070312s-4.441406-2.929688-7.070312-2.929688-5.210938 1.070313-7.070313 2.929688-2.929687 4.441406-2.929687 7.070312c0 2.632813 1.070312 5.210938 2.929687 7.070313s4.441407 2.929687 7.070313 2.929687 5.210937-1.070312 7.070312-2.929687 2.929688-4.441406 2.929688-7.070313zm0 0"/><path d="m173.660156 38.570312c-2.628906 0-5.210937 1.070313-7.082031 2.929688-1.859375 1.859375-2.917969 4.441406-2.917969 7.070312 0 2.632813 1.058594 5.210938 2.917969 7.070313 1.871094 1.859375 4.441406 2.929687 7.082031 2.929687 2.628906 0 5.210938-1.070312 7.070313-2.929687s2.929687-4.4375 2.929687-7.070313c0-2.628906-1.070312-5.210937-2.929687-7.070312s-4.441407-2.929688-7.070313-2.929688zm0 0"/><path d="m133.828125 118.574219h-77.5c-5.523437 0-10 4.476562-10 10 0 5.519531 4.476563 10 10 10h77.5c5.523437 0 10-4.480469 10-10 0-5.523438-4.476563-10-10-10zm0 0"/><path d="m220.589844 128.570312c0-2.628906-1.070313-5.210937-2.929688-7.070312s-4.441406-2.929688-7.070312-2.929688-5.210938 1.070313-7.070313 2.929688-2.929687 4.441406-2.929687 7.070312c0 2.632813 1.070312 5.210938 2.929687 7.070313s4.441407 2.929687 7.070313 2.929687 5.210937-1.070312 7.070312-2.929687 2.929688-4.441406 2.929688-7.070313zm0 0"/><path d="m173.660156 118.570312c-2.628906 0-5.210937 1.070313-7.082031 2.929688-1.859375 1.859375-2.917969 4.441406-2.917969 7.070312 0 2.632813 1.058594 5.210938 2.917969 7.070313 1.871094 1.859375 4.453125 2.929687 7.082031 2.929687s5.210938-1.070312 7.070313-2.929687 2.929687-4.4375 2.929687-7.070313c0-2.628906-1.070312-5.210937-2.929687-7.070312s-4.441407-2.929688-7.070313-2.929688zm0 0"/><path d="m133.828125 198.574219h-77.5c-5.523437 0-10 4.476562-10 10 0 5.519531 4.476563 10 10 10h77.5c5.523437 0 10-4.480469 10-10 0-5.523438-4.476563-10-10-10zm0 0"/><path d="m210.589844 218.570312c2.628906 0 5.210937-1.070312 7.070312-2.929687s2.929688-4.4375 2.929688-7.070313c0-2.628906-1.070313-5.210937-2.929688-7.070312s-4.441406-2.929688-7.070312-2.929688-5.210938 1.070313-7.070313 2.929688-2.929687 4.441406-2.929687 7.070312c0 2.632813 1.070312 5.210938 2.929687 7.070313s4.441407 2.929687 7.070313 2.929687zm0 0"/><path d="m180.730469 201.5c-1.859375-1.859375-4.441407-2.929688-7.070313-2.929688-2.640625 0-5.21875 1.070313-7.082031 2.929688-1.859375 1.859375-2.917969 4.441406-2.917969 7.070312 0 2.628907 1.058594 5.210938 2.917969 7.070313 1.871094 1.859375 4.441406 2.929687 7.082031 2.929687 2.628906 0 5.210938-1.070312 7.070313-2.929687s2.929687-4.441406 2.929687-7.070313c0-2.628906-1.070312-5.210937-2.929687-7.070312zm0 0"/><path d="m310.003906 222c-48.523437 0-88 39.476562-88 88s39.476563 88 88 88c48.523438 0 88-39.476562 88-88s-39.476562-88-88-88zm0 156c-37.496094 0-68-30.503906-68-68s30.503906-68 68-68 68 30.503906 68 68-30.503906 68-68 68zm0 0"/><path d="m502.066406 454.113281-79.363281-79.363281c11-19.078125 17.300781-41.191406 17.300781-64.75 0-71.683594-58.316406-130-130-130-17.113281 0-33.464844 3.332031-48.445312 9.371094-3.511719-7.789063-8.910156-14.414063-15.5625-19.394532 12.140625-9.132812 20.003906-23.652343 20.003906-39.976562 0-16.339844-7.878906-30.871094-20.035156-40 12.15625-9.128906 20.035156-23.660156 20.035156-40 0-27.570312-22.429688-50-50-50h-166c-27.570312 0-50 22.429688-50 50 0 16.339844 7.878906 30.871094 20.035156 40-12.15625 9.128906-20.035156 23.664062-20.035156 40 0 16.339844 7.878906 30.871094 20.035156 40-12.15625 9.128906-20.035156 23.664062-20.035156 40 0 27.570312 22.429688 50 50 50h73.828125v19.796875c-8.511719 3.019531-15.261719 9.769531-18.28125 18.28125h-95.546875c-5.523438 0-10 4.476563-10 10 0 5.519531 4.476562 10 10 10h95.546875c4.128906 11.636719 15.242187 20 28.28125 20 13.035156 0 24.152344-8.363281 28.277344-20h18.15625c4.1875 67.933594 60.773437 121.921875 129.742187 121.921875 23.558594 0 45.667969-6.296875 64.742188-17.296875l79.367187 79.367187c6.613281 6.609376 15.292969 9.914063 23.980469 9.914063 8.679688 0 17.363281-3.304687 23.976562-9.914063 6.402344-6.40625 9.929688-14.921874 9.929688-23.980468 0-9.054688-3.527344-17.570313-9.933594-23.976563zm-482.066406-404.113281c0-16.542969 13.457031-30 30-30h166c16.542969 0 30 13.457031 30 30s-13.457031 30-30 30h-166c-16.542969 0-30-13.457031-30-30zm0 80c0-16.542969 13.457031-30 30-30h166c16.542969 0 30 13.457031 30 30s-13.457031 30-30 30h-166c-16.542969 0-30-13.457031-30-30zm0 80c0-16.542969 13.457031-30 30-30h166c12.214844 0 22.984375 7.324219 27.613281 18.273438-17.398437 10.378906-32.1875 24.699218-43.109375 41.726562h-150.503906c-16.542969 0-30-13.457031-30-30zm170.011719 50c-4.980469 11.90625-8.234375 24.699219-9.453125 38.078125h-18.453125c-3.015625-8.511719-9.769531-15.261719-18.277344-18.28125v-19.796875zm-56.183594 58.078125c-5.515625 0-10-4.488281-10-10 0-5.515625 4.484375-10 10-10 5.511719 0 10 4.484375 10 10 0 5.511719-4.488281 10-10 10zm66.175781-8.078125c0-60.652344 49.347656-110 110-110s110 49.347656 110 110c0 60.65625-49.347656 110-110 110s-110-49.34375-110-110zm287.921875 177.925781c-5.421875 5.425781-14.246093 5.425781-19.667969 0l-76.738281-76.738281c7.234375-5.839844 13.828125-12.433594 19.667969-19.667969l76.738281 76.738281c2.628907 2.625 4.074219 6.117188 4.074219 9.832032s-1.445312 7.210937-4.074219 9.835937zm0 0"/><path d="m310.003906 265.003906c-5.523437 0-10 4.480469-10 10 0 5.523438 4.476563 10 10 10 13.78125 0 24.996094 11.214844 24.996094 24.996094 0 5.523438 4.476562 10 10 10s10-4.476562 10-10c0-24.808594-20.183594-44.996094-44.996094-44.996094zm0 0"/></svg>