<svg viewBox="0 0 512 511" xmlns="http://www.w3.org/2000/svg"><path d="m437.574219 374 .136719-.09375v-37.90625h-44.152344v38l-.105469.035156c11.113281 14.550782 33.027344 14.539063 44.121094-.035156zm0 0" fill="#e5bd76"/><path d="m118.441406 374v-38h-44.152344v38h.003907c11.101562 14.585938 33.046875 14.585938 44.148437 0zm0 0" fill="#e5bd76"/><path d="m166.78125 389.730469-48.339844-15.730469c-11.101562 14.585938-33.046875 14.585938-44.148437 0h-.003907l-46.359374 15.601562c-12.210938 4.097657-20.429688 15.546876-20.429688 28.429688v93.96875h180v-93.738281c0-12.992188-8.359375-24.511719-20.71875-28.53125zm0 0" fill="#ffcb5a"/><path d="m484.5 8v160h-90v50l-60-50h-90v-160zm0 0" fill="#40a2e7"/><path d="m354.5 27v157.671875l-20-16.671875h-90v-141zm0 0" fill="#168de2"/><path d="m94.5 47h240v160h-90l-60 50v-50h-90zm0 0" fill="#48c8ef"/><path d="m374.5 290v23c0 22.089844 17.910156 40 40 40s40-17.910156 40-40l-23-23zm0 0" fill="#ecce93"/><path d="m414.5 250c-22.089844 0-40 17.910156-40 40h57l23 23v-23c0-22.089844-17.910156-40-40-40zm0 0" fill="#57565c"/><path d="m57.5 313c0 22.089844 17.910156 40 40 40s40-17.910156 40-40v-23h-57zm0 0" fill="#ecce93"/><path d="m97.5 250c-22.089844 0-40 17.910156-40 40v23l23-23h57c0-22.089844-17.910156-40-40-40zm0 0" fill="#57565c"/><path d="m484.070312 389.601562-46.359374-15.601562v-.09375l-.136719.09375c-11.09375 14.574219-33.011719 14.585938-44.121094.035156l-48.234375 15.695313c-12.359375 4.019531-20.71875 15.539062-20.71875 28.53125v93.738281h180v-93.96875c0-12.882812-8.21875-24.332031-20.429688-28.429688zm0 0" fill="#a477bd"/><path d="m177 273.011719 70.214844-58.511719h94.785156v-30.488281l60 50v-58.511719h90v-175h-255v39h-150v175h90zm75-257.511719h225v145h-90v41.488281l-45-37.5v-124.988281h-90zm-150 184v-145h225v145h-85.214844l-49.785156 41.488281v-41.488281zm0 0"/><path d="m486.457031 382.488281-41.25-13.878906v-19.410156c10.261719-8.722657 16.792969-21.710938 16.792969-36.199219v-23c0-26.191406-21.308594-47.5-47.5-47.5s-47.5 21.308594-47.5 47.5v23c0 15.53125 7.496094 29.347656 19.058594 38.019531v17.535157l-43.164063 14.042968c-15.488281 5.042969-25.894531 19.371094-25.894531 35.660156v93.742188h15v-93.742188c0-9.773437 6.242188-18.371093 15.539062-21.394531l43.609376-14.191406c6.507812 6.253906 15.125 9.765625 24.351562 9.765625 9.242188 0 17.867188-3.519531 24.378906-9.792969l41.796875 14.058594c9.164063 3.085937 15.324219 11.65625 15.324219 21.328125v93.96875h15v-93.96875c0-16.121094-10.265625-30.402344-25.542969-35.542969zm-71.957031-124.988281c17.921875 0 32.5 14.578125 32.5 32.5v4.894531l-12.394531-12.394531h-51.722657c3.394532-14.316406 16.277344-25 31.617188-25zm15.707031 113.605469c-3.808593 4.046875-9.058593 6.335937-14.707031 6.335937-5.519531 0-10.65625-2.183594-14.441406-6.058594v-12.832031c4.265625 1.261719 8.773437 1.949219 13.441406 1.949219 5.503906 0 10.785156-.949219 15.707031-2.679688zm-15.707031-25.605469c-17.921875 0-32.5-14.578125-32.5-32.5v-15.5h46.394531l18.464844 18.464844c-1.503906 16.535156-15.4375 29.535156-32.359375 29.535156zm0 0"/><path d="m169.105469 382.597656-43.164063-14.042968v-17.535157c11.5625-8.671875 19.058594-22.488281 19.058594-38.019531v-23c0-26.191406-21.308594-47.5-47.5-47.5s-47.5 21.308594-47.5 47.5v23c0 14.488281 6.53125 27.476562 16.792969 36.195312v19.414063l-41.25 13.878906c-15.277344 5.140625-25.542969 19.421875-25.542969 35.542969v93.96875h15v-93.96875c0-9.671875 6.160156-18.242188 15.324219-21.324219l41.699219-14.03125c6.507812 6.253907 15.121093 9.765625 24.34375 9.765625 9.246093 0 17.871093-3.527344 24.386718-9.800781l43.707032 14.222656c9.292968 3.023438 15.539062 11.621094 15.539062 21.394531v93.742188h15v-93.742188c0-16.289062-10.40625-30.617187-25.894531-35.660156zm-104.105469-92.597656c0-17.921875 14.578125-32.5 32.5-32.5 15.339844 0 28.222656 10.683594 31.617188 25h-51.722657l-12.394531 12.394531zm45.941406 81.25c-3.796875 3.960938-8.992187 6.1875-14.574218 6.1875-5.582032 0-10.777344-2.226562-14.574219-6.1875v-13.429688c4.917969 1.726563 10.203125 2.679688 15.707031 2.679688 4.667969 0 9.179688-.6875 13.441406-1.949219zm-13.441406-25.75c-16.921875 0-30.855469-13-32.359375-29.535156l18.464844-18.464844h46.394531v15.5c0 17.921875-14.578125 32.5-32.5 32.5zm0 0"/><path d="m34 442h15v70h-15zm0 0"/><path d="m145 442h15v70h-15zm0 0"/><path d="m352 442h15v70h-15zm0 0"/><path d="m463 442h15v70h-15zm0 0"/><g fill="#fff"><path d="m267 134.5h-15v-15h15zm-30 0h-15v-15h15zm-30 0h-15v-15h15zm-30 0h-15v-15h15zm0 0"/><path d="m442.5 56.5h-15v-15h15zm-30 0h-15v-15h15zm-30 0h-15v-15h15zm0 0"/><path d="m442.5 88.5h-15v-15h15zm-30 0h-15v-15h15zm-30 0h-15v-15h15zm0 0"/><path d="m442.5 119.5h-15v-15h15zm-30 0h-15v-15h15zm-30 0h-15v-15h15zm0 0"/><path d="m132 107h-15v-37.5h37.5v15h-22.5zm0 0"/><path d="m154.5 184.5h-37.5v-37.5h15v22.5h22.5zm0 0"/><path d="m312 107h-15v-22.5h-22.5v-15h37.5zm0 0"/><path d="m312 184.5h-37.5v-15h22.5v-22.5h15zm0 0"/></g></svg>