<?xml version="1.0" encoding="iso-8859-1"?>
<!-- Generator: Adobe Illustrator 19.0.0, SVG Export Plug-In . SVG Version: 6.00 Build 0)  -->
<svg version="1.1" id="Capa_1" xmlns="http://www.w3.org/2000/svg" xmlns:xlink="http://www.w3.org/1999/xlink" x="0px" y="0px"
	 viewBox="0 0 480.002 480.002" style="enable-background:new 0 0 480.002 480.002;" xml:space="preserve">
<path style="fill:#4BA678;" d="M16.001,336.002h64v136h-64V336.002z"/>
<path style="fill:#F73445;" d="M368.001,472.002h-64v-200h64V472.002z"/>
<path style="fill:#F59536;" d="M272.001,472.002h-64v-160h64V472.002z"/>
<path style="fill:#FED966;" d="M176.001,472.002h-64v-256h64V472.002z"/>
<path style="fill:#92B1F9;" d="M400.001,376.002h64v96h-64V376.002z"/>
<path style="fill:#F73445;" d="M440.001,160.002v48l32-27.432L440.001,160.002z"/>
<path d="M16.001,328.002c-4.417-0.001-7.999,3.579-8,7.996c0,0.001,0,0.003,0,0.004v136c-0.001,4.417,3.579,7.999,7.996,8
	c0.001,0,0.003,0,0.004,0h64c4.417,0.001,7.999-3.579,8-7.996c0-0.001,0-0.003,0-0.004v-136c0.001-4.417-3.579-7.999-7.996-8
	c-0.001,0-0.003,0-0.004,0H16.001z M72.001,464.002h-48v-120h48V464.002z"/>
<path d="M376.001,472.002v-200c0.001-4.417-3.579-7.999-7.996-8c-0.001,0-0.003,0-0.004,0h-64c-4.417-0.001-7.999,3.579-8,7.996
	c0,0.001,0,0.003,0,0.004v200c-0.001,4.417,3.579,7.999,7.996,8c0.001,0,0.003,0,0.004,0h64c4.417,0.001,7.999-3.579,8-7.996
	C376.001,472.005,376.001,472.004,376.001,472.002z M360.001,464.002h-48v-184h48V464.002z"/>
<path d="M208.001,304.002c-4.417-0.001-7.999,3.579-8,7.996c0,0.001,0,0.003,0,0.004v160c-0.001,4.417,3.579,7.999,7.996,8
	c0.001,0,0.003,0,0.004,0h64c4.417,0.001,7.999-3.579,8-7.996c0-0.001,0-0.003,0-0.004v-160c0.001-4.417-3.579-7.999-7.996-8
	c-0.001,0-0.003,0-0.004,0H208.001z M264.001,464.002h-48v-144h48V464.002z"/>
<path d="M112.001,208.002c-4.417-0.001-7.999,3.579-8,7.996c0,0.001,0,0.003,0,0.004v256c-0.001,4.417,3.579,7.999,7.996,8
	c0.001,0,0.003,0,0.004,0h64c4.417,0.001,7.999-3.579,8-7.996c0-0.001,0-0.003,0-0.004v-256c0.001-4.417-3.579-7.999-7.996-8
	c-0.001,0-0.003,0-0.004,0H112.001z M168.001,464.002h-48v-240h48V464.002z"/>
<path d="M472.001,472.002v-96c0.001-4.417-3.579-7.999-7.996-8c-0.001,0-0.003,0-0.004,0h-64c-4.417-0.001-7.999,3.579-8,7.996
	c0,0.001,0,0.003,0,0.004v96c-0.001,4.417,3.579,7.999,7.996,8c0.001,0,0.003,0,0.004,0h64c4.417,0.001,7.999-3.579,8-7.996
	C472.001,472.005,472.001,472.004,472.001,472.002z M456.001,464.002h-48v-80h48V464.002z"/>
<path d="M47.443,274.932l96.871-245.891l88.336,206.109c1.735,4.061,6.433,5.946,10.494,4.211c1.431-0.611,2.652-1.627,3.514-2.922
	l89.344-134.016l57.344,86.016c1.483,2.226,3.981,3.563,6.656,3.562h32v16c-0.001,4.417,3.578,7.999,7.995,8
	c1.912,0.001,3.761-0.684,5.212-1.93l32-27.43c3.352-2.873,3.741-7.919,0.868-11.272c-0.506-0.591-1.096-1.105-1.751-1.525
	l-32-20.57c-3.713-2.39-8.661-1.318-11.052,2.395c-0.832,1.292-1.273,2.795-1.273,4.332v16h-27.719l-61.625-92.438
	c-2.741-3.676-7.943-4.434-11.619-1.693c-0.643,0.48-1.214,1.05-1.693,1.693l-87.808,131.711L151.353,4.854
	c-1.251-3.003-4.217-4.93-7.469-4.852c-3.245,0.045-6.139,2.049-7.324,5.07L34.556,264.002H0.001v16h40
	C43.289,280.003,46.241,277.991,47.443,274.932L47.443,274.932z M448.001,174.658l10.637,6.836l-10.637,9.117V174.658z"/>
<g>
</g>
<g>
</g>
<g>
</g>
<g>
</g>
<g>
</g>
<g>
</g>
<g>
</g>
<g>
</g>
<g>
</g>
<g>
</g>
<g>
</g>
<g>
</g>
<g>
</g>
<g>
</g>
<g>
</g>
</svg>
