<svg height="512pt" viewBox="0 -22 512.00124 512" width="512pt" xmlns="http://www.w3.org/2000/svg"><path d="m421.6875 103.710938c-15.015625-3.640626-28.082031-13.035157-35.554688-26.558594-15.257812-27.597656-51.417968-69.652344-130.132812-69.652344-78.710938 0-114.875 42.054688-130.128906 69.652344-7.476563 13.523437-20.539063 22.917968-35.558594 26.558594-47.777344 11.582031-83.191406 54.800781-82.808594 106.230468.441406 59.796875 50.011719 107.628906 109.8125 107.628906h277.367188c59.800781 0 109.371094-47.832031 109.8125-107.628906.382812-51.429687-35.03125-94.648437-82.808594-106.230468zm0 0" fill="#ccf8ff"/><path d="m167.84375 178.339844c68.347656-43.003906 92.621094-126.070313 100.941406-170.457032-4.132812-.25-8.390625-.382812-12.785156-.382812-78.710938 0-114.875 42.054688-130.128906 69.652344-7.476563 13.523437-20.539063 22.917968-35.558594 26.558594-47.777344 11.582031-83.191406 54.800781-82.808594 106.230468.425782 57.375 46.078125 103.726563 102.601563 107.390625-5.261719-41.953125-.472657-102.371093 57.738281-138.992187zm0 0" fill="#abebf4"/><path d="m336.359375 354.394531c-10.570313-10.71875-27.828125-10.832031-38.542969-.261719l-14.558594 14.363282v-101.289063c0-15.054687-12.203124-27.257812-27.257812-27.257812s-27.257812 12.203125-27.257812 27.257812v101.292969l-14.558594-14.367188c-10.714844-10.570312-27.972656-10.453124-38.542969.261719-10.574219 10.714844-10.460937 27.972657.257813 38.546875l60.957031 60.144532c5.308593 5.234374 12.222656 7.855468 19.144531 7.855468 6.917969 0 13.835938-2.621094 19.144531-7.855468l60.957031-60.144532c10.714844-10.574218 10.832032-27.832031.257813-38.546875zm0 0" fill="#c8efb9"/><path d="m283.257812 368.496094v-100.722656c0-14.851563-11.644531-27.40625-26.492187-27.8125-15.402344-.421876-28.023437 11.9375-28.023437 27.246093v101.292969l17.5625 15.992188c5.496093 5.003906 13.898437 5.003906 19.390624 0zm0 0" fill="#b2e59c"/><path d="m329.15625 137.378906v12.453125c0 4.140625 3.359375 7.5 7.5 7.5 4.144531 0 7.5-3.359375 7.5-7.5v-12.453125c0-4.140625-3.355469-7.5-7.5-7.5-4.140625 0-7.5 3.359375-7.5 7.5zm0 0"/><path d="m167.84375 137.378906v12.453125c0 4.140625 3.355469 7.5 7.5 7.5s7.5-3.359375 7.5-7.5v-12.453125c0-4.140625-3.355469-7.5-7.5-7.5s-7.5 3.359375-7.5 7.5zm0 0"/><path d="m274.320312 143.90625c-10.785156 8.367188-25.851562 8.367188-36.640624 0-3.273438-2.539062-7.984376-1.945312-10.523438 1.332031-2.539062 3.269531-1.941406 7.980469 1.328125 10.519531 8.101563 6.285157 17.808594 9.425782 27.515625 9.425782s19.414062-3.140625 27.515625-9.425782c3.273437-2.535156 3.867187-7.25 1.328125-10.519531-2.539062-3.277343-7.25-3.871093-10.523438-1.332031zm0 0"/><path d="m202.953125 317.570312c0-4.140624-3.355469-7.5-7.5-7.5h-78.136719c-56.007812 0-101.902344-44.945312-102.3125-100.1875-.171875-23.253906 7.339844-45.160156 21.726563-63.347656 13.960937-17.648437 33.617187-30.265625 55.351562-35.535156 17.351563-4.207031 32.0625-15.222656 40.351563-30.21875 6.601562-11.941406 18.707031-29.023438 38.886718-42.578125 22.917969-15.394531 51.410157-23.203125 84.679688-23.203125s61.761719 7.804688 84.679688 23.203125c3.4375 2.308594 8.097656 1.394531 10.40625-2.042969 2.3125-3.4375 1.394531-8.097656-2.042969-10.410156-25.433594-17.085938-56.738281-25.75-93.042969-25.75-83.574219 0-121.515625 46.066406-136.695312 73.523438-6.261719 11.332031-17.472657 19.679687-30.757813 22.898437-24.972656 6.054687-47.550781 20.546875-63.582031 40.808594-16.289063 20.597656-25.15625 46.4375-24.96093775 72.765625.46874975 63.453125 53.09765575 115.074218 117.31249975 115.074218h78.136719c4.144531 0 7.5-3.359374 7.5-7.5zm0 0"/><path d="m487.03125 137.230469c-16.027344-20.261719-38.605469-34.753907-63.578125-40.808594-13.285156-3.21875-24.496094-11.566406-30.761719-22.898437-5.726562-10.363282-12.726562-19.9375-20.800781-28.453126-2.847656-3.007812-7.59375-3.132812-10.601563-.285156-3.007812 2.851563-3.132812 7.597656-.285156 10.601563 7.203125 7.597656 13.445313 16.140625 18.5625 25.394531 8.289063 14.996094 22.996094 26.011719 40.355469 30.21875 21.730469 5.265625 41.386719 17.886719 55.347656 35.535156 14.386719 18.1875 21.898438 40.089844 21.726563 63.347656-.40625 55.242188-46.304688 100.1875-102.3125 100.1875h-103.925782v-42.863281c0-19.164062-15.59375-34.757812-34.757812-34.757812s-34.757812 15.59375-34.757812 34.757812v83.355469s-25.789063-25.492188-50.941407-1.4375c-13.851562 13.246094-13.3125 35.691406.328125 49.152344l60.960938 60.144531c6.546875 6.460937 15.214844 10.015625 24.410156 10.015625s17.867188-3.554688 24.410156-10.015625l24.816406-24.484375c2.949219-2.90625 2.980469-7.65625.070313-10.605469s-7.65625-2.980469-10.605469-.070312l-24.816406 24.484375c-3.722656 3.671875-8.648438 5.691406-13.875 5.691406-5.230469 0-10.15625-2.019531-13.878906-5.691406l-60.957032-60.144532c-7.753906-7.652343-7.839843-20.1875-.1875-27.941406 7.652344-7.753906 20.1875-7.839844 27.941407-.191406l32.335937 30.566406c4.203125 3.828125 9.472656 5.742188 14.746094 5.742188 5.269531 0 10.542969-1.914063 14.746094-5.742188l32.335937-30.5625c3.757813-3.707031 18.171875-10.824218 27.9375.1875 9.769531 11.011719 3.570313 24.234375-.183593 27.9375l-13.382813 13.203125c-2.945313 2.910157-2.980469 7.65625-.070313 10.605469 2.910157 2.949219 7.660157 2.980469 10.605469.074219l13.382813-13.203125c18.21875-18.882813 7.261718-42.980469.328125-49.152344-27.007813-24.054688-50.941407 1.433594-50.941407 1.433594v-25.488282h103.925782c64.21875 0 116.84375-51.625 117.316406-115.078124.191406-26.324219-8.675781-52.164063-24.96875-72.761719zm-226.386719 241.714843c-2.644531 2.414063-6.640625 2.414063-9.289062 0l-15.113281-13.761718v-97.976563c0-10.894531 8.863281-19.757812 19.757812-19.757812s19.757812 8.863281 19.757812 19.757812v97.976563zm0 0"/></svg>