<?xml version="1.0" encoding="UTF-8"?>
<svg width="394px" height="301px" viewBox="0 0 394 301" version="1.1" xmlns="http://www.w3.org/2000/svg" xmlns:xlink="http://www.w3.org/1999/xlink">
    <!-- Generator: Sketch 50.2 (55047) - http://www.bohemiancoding.com/sketch -->
    <title>002-upload</title>
    <desc>Created with Sketch.</desc>
    <defs></defs>
    <g id="Page-2" stroke="none" stroke-width="1" fill="none" fill-rule="evenodd">
        <g id="MODULES---Year-3" transform="translate(-1754.000000, -797.000000)" fill-rule="nonzero">
            <g id="cc" transform="translate(1635.000000, 691.000000)">
                <g id="002-upload" transform="translate(124.000000, 111.000000)">
                    <path d="M331.737958,154.198429 C342.418586,129.695812 344.931675,99.5387435 324.826963,80.0623037 C305.350524,60.5858639 277.078272,56.1879581 253.203927,65.6120419 C252.575654,29.8005236 223.675131,0.9 187.23534,0.9 C151.423822,0.271727749 121.895026,29.8005236 121.895026,66.2403141 C115.612304,63.7272251 111.214398,62.4706806 104.931675,62.4706806 C83.5704188,62.4706806 73.5180628,83.8319372 73.5180628,105.821466 C73.5180628,111.475916 66.6070681,112.104188 69.1201571,117.130366 C67.8636126,117.130366 66.6070681,116.502094 64.7222513,116.502094 C50.9002618,116.502094 47.7589005,131.580628 47.7589005,145.402618 C47.7589005,149.800524 40.8479058,149.800524 42.7327225,153.570157 C17.6018325,162.994241 0.0102094241,188.753403 0.0102094241,217.025654 C0.0102094241,253.465445 17.6018325,284.250785 54.041623,290.533508 L329.224869,290.533508 C365.66466,284.250785 383.256283,253.465445 383.256283,217.025654 C382.62801,188.125131 357.49712,162.994241 331.737958,154.198429 Z" id="Shape" stroke="#000000" stroke-width="10" fill="#007AF4"></path>
                    <path d="M326.246999,157.202845 C336.01846,132.722206 331.994917,103.219898 314.176371,83.7609283 C296.357825,64.3019589 270.492194,59.9079981 248.650105,69.3236284 C248.075313,33.5442332 221.63489,4.66963351 188.296965,4.66963351 C155.533832,4.66963351 128.518616,34.1719419 128.518616,70.5790458 C122.770698,68.0682111 118.747156,66.8127937 112.999238,66.8127937 C93.4563161,66.8127937 77.3621454,84.388637 77.3621454,105.730732 C77.3621454,111.380111 78.511729,116.40178 80.2361044,120.795741 C79.0865208,120.795741 77.9369372,120.168032 76.2125618,120.168032 C63.5671419,120.168032 53.2208894,131.466789 53.2208894,145.27638 C53.2208894,149.670341 54.370473,153.436593 56.0948484,157.202845 C33.103176,166.618475 17.0090053,189.843697 17.0090053,218.090588 C16.4342135,255.1254 43.4494286,284 76.7873536,284 L306.704078,284 C340.042003,284 367.057218,255.1254 367.057218,218.718296 C367.057218,189.843697 349.813463,165.990767 326.246999,157.202845 Z" id="Shape" fill="#00A6F9"></path>
                    <circle id="Oval" fill="#00B3F9" cx="278.963089" cy="19.7481675" r="15.078534"></circle>
                    <path d="M306.607068,40.4811518 C310.376702,40.4811518 313.518063,37.3397906 313.518063,33.5701571 C313.518063,29.8005236 310.376702,26.6591623 306.607068,26.6591623 C302.837435,26.6591623 299.696073,29.8005236 299.696073,33.5701571 C299.696073,37.3397906 302.837435,40.4811518 306.607068,40.4811518 Z" id="Shape" fill="#007AF4"></path>
                    <g id="Group" transform="translate(76.000000, 5.000000)" fill="#0093F7">
                        <path d="M229.5,22 C231.25,22 233,20.25 233,18.5 C233,16.75 231.25,15 229.5,15 C227.75,15 226,16.75 226,18.5 C226.583333,20.25 227.75,22 229.5,22 Z" id="Shape"></path>
                        <path d="M293,213.941704 C293,185.165919 275.559524,161.394619 251.724206,152.011211 C261.607143,127.61435 257.537698,98.838565 239.515873,78.8206278 C221.494048,59.4282511 195.333333,55.0493274 173.242063,64.4327354 C172.660714,28.7757848 145.918651,0 112.200397,0 C79.0634921,0.625560538 51.7400794,30.0269058 51.7400794,66.309417 C45.9265873,63.8071749 41.8571429,62.5560538 36.0436508,62.5560538 C16.2777778,62.5560538 0,80.0717489 0,101.340807 C0,106.345291 0.581349206,110.098655 2.32539683,114.477578 L155.801587,279 L231.958333,279 C265.676587,279 293,250.224215 293,213.941704 Z" id="Shape"></path>
                    </g>
                    <g id="Group" transform="translate(128.010471, 115.083770)" fill="#007AF4">
                        <path d="M62.9945026,0.161780105 L120.79555,57.9628272 C127.706545,64.873822 127.706545,76.1827225 120.79555,83.0937173 C113.884555,90.004712 102.575654,90.004712 95.6646597,83.0937173 L62.9945026,51.0518325 L30.9526178,83.0937173 C24.041623,90.004712 12.7327225,90.004712 5.82172775,83.0937173 C-1.08926702,76.1827225 -1.08926702,64.873822 5.82172775,57.9628272 L62.9945026,0.161780105 Z" id="Shape"></path>
                        <path d="M62.9945026,25.2926702 C73.0468586,25.2926702 81.8426702,33.4602094 81.8426702,43.5125654 L81.8426702,125.187958 C81.8426702,135.240314 73.0468586,143.407853 62.9945026,143.407853 C52.9421466,143.407853 44.1463351,135.240314 44.1463351,125.187958 L44.1463351,43.5125654 C44.1463351,33.4602094 52.9421466,25.2926702 62.9945026,25.2926702 Z" id="Shape"></path>
                    </g>
                    <g id="Group" transform="translate(128.010471, 101.732984)" fill="#FFFFFF">
                        <path d="M62.9945026,0.318848168 L120.79555,58.1198953 C127.706545,65.0308901 127.706545,76.3397906 120.79555,83.2507853 C113.884555,90.1617801 102.575654,90.1617801 95.6646597,83.2507853 L62.9945026,51.2089005 L30.9526178,83.2507853 C24.041623,90.1617801 12.7327225,90.1617801 5.82172775,83.2507853 C-1.08926702,76.3397906 -1.08926702,65.0308901 5.82172775,58.1198953 L62.9945026,0.318848168 Z" id="Shape"></path>
                        <path d="M62.9945026,26.0780105 C73.0468586,26.0780105 81.8426702,34.2455497 81.8426702,44.2979058 L81.8426702,125.973298 C81.8426702,136.025654 73.0468586,144.193194 62.9945026,144.193194 C52.9421466,144.193194 44.1463351,136.025654 44.1463351,125.973298 L44.1463351,44.2979058 C44.1463351,33.6172775 52.9421466,26.0780105 62.9945026,26.0780105 Z" id="Shape"></path>
                    </g>
                </g>
            </g>
        </g>
    </g>
</svg>