<?xml version="1.0" encoding="iso-8859-1"?>
<!-- Generator: Adobe Illustrator 19.0.0, SVG Export Plug-In . SVG Version: 6.00 Build 0)  -->
<svg xmlns="http://www.w3.org/2000/svg" xmlns:xlink="http://www.w3.org/1999/xlink" version="1.1" id="Capa_1" x="0px" y="0px" viewBox="0 0 512 512" style="enable-background:new 0 0 512 512;" xml:space="preserve" width="512" height="512">
<g>
	<g>
		<path style="fill:#5C9CEE;" d="M7.5,80.952v271.225c0,11.282,9.146,20.427,20.427,20.427h366.39    c11.282,0,20.427-9.146,20.427-20.427V80.952c0-11.282-9.146-20.427-20.427-20.427H27.927C16.646,60.524,7.5,69.67,7.5,80.952z"/>
		<path style="fill:#3580D3;" d="M394.317,60.524h-32.5c11.282,0,20.427,9.146,20.427,20.427v271.225    c0,11.282-9.146,20.427-20.427,20.427h32.5c11.282,0,20.427-9.146,20.427-20.427V80.952    C414.745,69.67,405.599,60.524,394.317,60.524z"/>
		<path style="fill:#EBEEF2;" d="M7.5,325.632v26.545c0,11.282,9.146,20.427,20.428,20.427h366.39    c11.282,0,20.427-9.146,20.427-20.427v-26.545H7.5z"/>
		<path style="fill:#D1D6DE;" d="M414.745,325.632h-32.5v26.545c0,11.281-9.144,20.426-20.425,20.427h32.497    c7.756,0,14.503-4.323,17.962-10.69c1.572-2.895,2.465-6.211,2.465-9.737V325.632z"/>
		<path style="fill:#EBEEF2;" d="M304.331,451.476H117.914V439.89c0-8.327,6.751-15.078,15.078-15.078h156.262    c8.327,0,15.078,6.751,15.078,15.078V451.476z"/>
		<path style="fill:#D1D6DE;" d="M289.253,424.812H263.92c8.327,0,15.078,6.75,15.078,15.078v11.586h25.333V439.89    C304.331,431.563,297.58,424.812,289.253,424.812z"/>
		<polygon style="fill:#D1D6DE;" points="258.638,424.812 245.636,372.604 176.609,372.604 163.607,424.812   "/>
		<polygon style="fill:#A2ADBC;" points="250.715,393 245.636,372.604 176.609,372.604 171.529,393   "/>
		<g>
			<g>
				<rect x="65.729" y="112.947" style="fill:#9FD479;" width="218.755" height="22.829"/>
			</g>
			<g>
				<rect x="65.729" y="185.461" style="fill:#ED5575;" width="134.706" height="22.829"/>
			</g>
			<g>
				<rect x="65.729" y="257.976" style="fill:#F2DF33;" width="182.038" height="22.829"/>
			</g>
		</g>
		<g>
			<circle style="fill:#48CFB7;" cx="401.184" cy="236.299" r="103.316"/>
			<path style="fill:#35B5A0;" d="M446.726,143.544c23.252,18.945,38.107,47.803,38.107,80.134     c0,57.06-46.256,103.316-103.316,103.316c-16.347,0-31.803-3.802-45.543-10.561c17.785,14.49,40.481,23.182,65.21,23.182     c57.06,0,103.316-46.256,103.316-103.316C504.5,195.585,480.947,160.378,446.726,143.544z"/>
			<path style="fill:#EBEEF2;" d="M401.184,188.176c-33.514,0-62.419,19.688-75.813,48.122     c13.394,28.434,42.299,48.122,75.813,48.122c33.514,0,62.419-19.688,75.813-48.122     C463.602,207.864,434.698,188.176,401.184,188.176z"/>
			<path style="fill:#2E344C;" d="M401.184,196.981c-6.994,0-13.557,1.834-19.247,5.036c5.133,3.186,8.563,8.856,8.563,15.342     c0,9.976-8.087,18.063-18.063,18.063c-3.854,0-7.419-1.217-10.351-3.273c-0.143,1.364-0.219,2.748-0.219,4.149     c0,21.714,17.603,39.317,39.318,39.317c21.714,0,39.317-17.603,39.317-39.317S422.898,196.981,401.184,196.981z"/>
		</g>
	</g>
	<g>
		<path d="M7.5,128.276c4.142,0,7.5-3.357,7.5-7.5V80.951c0-7.128,5.799-12.927,12.927-12.927h366.39    c7.128,0,12.928,5.799,12.928,12.927v23.824c0,4.143,3.357,7.5,7.5,7.5s7.5-3.357,7.5-7.5V80.951    c0-15.398-12.528-27.927-27.928-27.927H27.927C12.528,53.024,0,65.553,0,80.951v39.825C0,124.919,3.358,128.276,7.5,128.276z"/>
		<path d="M402.355,362.302c-2.304,1.833-5.083,2.802-8.038,2.802H245.636h-69.027H27.928c-5.346,0-9.945-3.262-11.91-7.9    c-0.655-1.546-1.018-3.245-1.018-5.027v-19.045h291.137c4.143,0,7.5-3.357,7.5-7.5s-3.357-7.5-7.5-7.5H15V150.775    c0-4.143-3.358-7.5-7.5-7.5s-7.5,3.357-7.5,7.5v174.856v26.545c0,4.812,1.223,9.344,3.376,13.3    c4.735,8.705,13.965,14.626,24.552,14.626h0h139.084l-9.266,37.209h-24.754c-12.449,0-22.578,10.128-22.578,22.577v11.586    c0,4.143,3.358,7.5,7.5,7.5h123.088c4.142,0,7.5-3.357,7.5-7.5s-3.358-7.5-7.5-7.5H125.414v-4.086    c0-4.178,3.399-7.577,7.578-7.577h30.615h95.031h30.615c4.179,0,7.578,3.399,7.578,7.577v4.086H271c-4.143,0-7.5,3.357-7.5,7.5    s3.357,7.5,7.5,7.5h33.331c4.143,0,7.5-3.357,7.5-7.5V439.89c0-12.449-10.129-22.577-22.578-22.577h-24.754l-9.266-37.209h139.084    c6.292,0,12.464-2.154,17.378-6.065c3.241-2.579,3.777-7.298,1.198-10.538C410.315,360.258,405.596,359.722,402.355,362.302z     M249.041,417.313h-75.837l9.267-37.209h57.305L249.041,417.313z"/>
		<path d="M291.984,135.776v-22.829c0-4.143-3.357-7.5-7.5-7.5H73.229v-3.554c0-4.143-3.358-7.5-7.5-7.5s-7.5,3.357-7.5,7.5v11.054    v22.829v11.053c0,4.143,3.358,7.5,7.5,7.5s7.5-3.357,7.5-7.5v-3.553h211.255C288.627,143.276,291.984,139.919,291.984,135.776z     M276.984,128.276H73.229v-7.829h203.755V128.276z"/>
		<path d="M65.729,166.908c-4.142,0-7.5,3.357-7.5,7.5v11.054v22.828v11.054c0,4.143,3.358,7.5,7.5,7.5s7.5-3.357,7.5-7.5v-3.554    h127.206c4.142,0,7.5-3.357,7.5-7.5v-22.828c0-4.143-3.358-7.5-7.5-7.5H73.229v-3.554    C73.229,170.266,69.872,166.908,65.729,166.908z M192.936,192.962v7.828H73.229v-7.828H192.936z"/>
		<path d="M58.229,257.976v22.829v11.054c0,4.143,3.358,7.5,7.5,7.5s7.5-3.357,7.5-7.5v-3.554h174.539c4.142,0,7.5-3.357,7.5-7.5    v-22.829c0-4.143-3.358-7.5-7.5-7.5H73.229v-3.553c0-4.143-3.358-7.5-7.5-7.5s-7.5,3.357-7.5,7.5V257.976z M240.268,265.476v7.829    H73.229v-7.829H240.268z"/>
		<path d="M401.184,125.482c-61.104,0-110.816,49.712-110.816,110.816s49.712,110.816,110.816,110.816S512,297.403,512,236.299    S462.288,125.482,401.184,125.482z M401.184,332.115c-52.833,0-95.816-42.983-95.816-95.816s42.983-95.816,95.816-95.816    S497,183.466,497,236.299S454.017,332.115,401.184,332.115z"/>
		<path d="M483.782,233.103c-15.003-31.848-47.425-52.426-82.599-52.426s-67.596,20.578-82.599,52.426    c-0.953,2.024-0.953,4.368,0,6.393c15.003,31.848,47.425,52.426,82.599,52.426s67.596-20.578,82.599-52.426    C484.735,237.471,484.735,235.127,483.782,233.103z M401.184,268.116c-15.313,0-28.134-10.874-31.147-25.305    c0.794,0.074,1.595,0.111,2.4,0.111c14.096,0,25.563-11.468,25.563-25.563c0-4.375-1.096-8.562-3.111-12.248    c2.065-0.417,4.175-0.63,6.295-0.63c17.544,0,31.817,14.273,31.817,31.817S418.728,268.116,401.184,268.116z M333.754,236.299    c8.85-16.693,23.571-29.313,40.85-35.783c-0.09,0.438-0.155,0.884-0.165,1.341c-0.058,2.651,1.29,5.136,3.544,6.534    c3.142,1.949,5.018,5.303,5.018,8.969c0,5.825-4.738,10.563-10.563,10.563c-2.169,0-4.259-0.662-6.044-1.914    c-2.176-1.525-4.995-1.786-7.414-0.686c-2.418,1.101-4.073,3.399-4.352,6.041c-0.173,1.646-0.261,3.306-0.261,4.935    c0,12.824,5.186,24.457,13.567,32.921C353.559,262.225,341.441,250.798,333.754,236.299z M434.434,269.219    c8.381-8.464,13.567-20.097,13.567-32.921s-5.186-24.457-13.567-32.921c14.374,6.995,26.492,18.421,34.179,32.921    C460.926,250.798,448.808,262.225,434.434,269.219z"/>
	</g>
</g>















</svg>
