<?xml version="1.0" encoding="UTF-8"?>
<svg width="300px" height="300px" viewBox="0 0 300 300" version="1.1" xmlns="http://www.w3.org/2000/svg" xmlns:xlink="http://www.w3.org/1999/xlink">
    <!-- Generator: Sketch 50.2 (55047) - http://www.bohemiancoding.com/sketch -->
    <title>003-enterprise</title>
    <desc>Created with Sketch.</desc>
    <defs></defs>
    <g id="Page-2" stroke="none" stroke-width="1" fill="none" fill-rule="evenodd">
        <g id="MODULES---Year-3" transform="translate(-2528.000000, -793.000000)" fill-rule="nonzero">
            <g id="es" transform="translate(2356.000000, 691.000000)">
                <g id="003-enterprise" transform="translate(172.000000, 102.000000)">
                    <g id="Group" transform="translate(5.000000, 80.000000)" fill="#DFDEED">
                        <path d="M210,0 L210,123.8925 C216.134375,129.325625 216.703125,138.7025 211.27,144.836875 C210.8725,145.285625 210.44875,145.71 210,146.106875 L210,152.11 C219.105625,156.079375 224.995,165.06625 225,174.999375 L225,179.999375 L227.110625,179.999375 C232.61375,167.358125 247.3225,161.57125 259.964375,167.074375 C265.751875,169.59375 270.37,174.211875 272.889375,179.999375 L290,179.999375 L290,0 L210,0 Z" id="Shape"></path>
                        <path d="M75,135 C75.00875,130.754375 76.8275,126.714375 80,123.8925 L80,0 L0,0 L0,180 L17.110625,180 C22.61375,167.35875 37.3225,161.571875 49.964375,167.075 C55.751875,169.594375 60.37,174.2125 62.889375,180 L65,180 L65,175 C65.005,165.066875 70.894375,156.08 80,152.110625 L80,146.1075 C76.8275,143.285625 75.00875,139.245625 75,135 Z" id="Shape"></path>
                    </g>
                    <path d="M85,5 L85,203.8925 C88.56375,200.633125 93.48875,199.308125 98.206875,200.340625 C106.301875,202.108125 111.430625,210.103125 109.663125,218.198125 C108.1575,225.090625 102.054375,230.003125 95,230 C108.806875,230 120,241.193125 120,255 C120,238.43125 133.43125,225 150,225 C166.56875,225 180,238.43125 180,255 C180,241.193125 191.193125,230 205,230 C196.714375,230.003125 189.995,223.289375 189.991875,215.00375 C189.98875,207.949375 194.90125,201.84625 201.793125,200.34125 C206.51125,199.30875 211.43625,200.633125 215,203.893125 L215,5 L85,5 Z" id="Shape" fill="#92B1F9"></path>
                    <circle id="Oval" fill="#F73445" cx="150" cy="205" r="20"></circle>
                    <g id="Group" transform="translate(30.000000, 215.000000)" fill="#FED966">
                        <circle id="Oval" cx="15" cy="15" r="15"></circle>
                        <circle id="Oval" cx="225" cy="15" r="15"></circle>
                    </g>
                    <path d="M150,225 C166.56875,225 180,238.43125 180,255 L180,295 L120,295 L120,255 C120,238.43125 133.43125,225 150,225 Z" id="Shape" fill="#F73445"></path>
                    <g id="Group" transform="translate(20.000000, 25.000000)" fill="#FED966">
                        <path d="M25,220 C38.806875,220 50,231.193125 50,245 L50,270 L0,270 L0,245 C0,231.193125 11.193125,220 25,220 Z" id="Shape"></path>
                        <path d="M75,205 C88.806875,205 100,216.193125 100,230 L100,270 L50,270 L50,230 C50,216.193125 61.193125,205 75,205 Z" id="Shape"></path>
                        <circle id="Oval" cx="75" cy="190" r="15"></circle>
                        <path d="M235,220 C248.806875,220 260,231.193125 260,245 L260,270 L210,270 L210,245 C210,231.193125 221.193125,220 235,220 Z" id="Shape"></path>
                        <path d="M185,205 C198.806875,205 210,216.193125 210,230 L210,270 L160,270 L160,230 C160,216.193125 171.193125,205 185,205 Z" id="Shape"></path>
                        <circle id="Oval" cx="185" cy="190" r="15"></circle>
                        <polygon id="Shape" points="100 0 160 0 160 40 100 40"></polygon>
                    </g>
                    <polygon id="Shape" fill="#000000" points="105 100 115 100 115 110 105 110"></polygon>
                    <polygon id="Shape" fill="#000000" points="105 120 115 120 115 130 105 130"></polygon>
                    <polygon id="Shape" fill="#000000" points="105 140 115 140 115 150 105 150"></polygon>
                    <polygon id="Shape" fill="#000000" points="105 160 115 160 115 170 105 170"></polygon>
                    <polygon id="Shape" fill="#000000" points="125 100 135 100 135 110 125 110"></polygon>
                    <polygon id="Shape" fill="#000000" points="125 120 135 120 135 130 125 130"></polygon>
                    <polygon id="Shape" fill="#000000" points="125 140 135 140 135 150 125 150"></polygon>
                    <polygon id="Shape" fill="#000000" points="125 160 135 160 135 170 125 170"></polygon>
                    <polygon id="Shape" fill="#000000" points="145 100 155 100 155 110 145 110"></polygon>
                    <polygon id="Shape" fill="#000000" points="145 120 155 120 155 130 145 130"></polygon>
                    <polygon id="Shape" fill="#000000" points="145 140 155 140 155 150 145 150"></polygon>
                    <polygon id="Shape" fill="#000000" points="145 160 155 160 155 170 145 170"></polygon>
                    <polygon id="Shape" fill="#000000" points="165 100 175 100 175 110 165 110"></polygon>
                    <polygon id="Shape" fill="#000000" points="125 80 135 80 135 90 125 90"></polygon>
                    <polygon id="Shape" fill="#000000" points="145 80 155 80 155 90 145 90"></polygon>
                    <polygon id="Shape" fill="#000000" points="165 80 175 80 175 90 165 90"></polygon>
                    <polygon id="Shape" fill="#000000" points="165 120 175 120 175 130 165 130"></polygon>
                    <polygon id="Shape" fill="#000000" points="165 140 175 140 175 150 165 150"></polygon>
                    <polygon id="Shape" fill="#000000" points="165 160 175 160 175 170 165 170"></polygon>
                    <polygon id="Shape" fill="#000000" points="185 100 195 100 195 110 185 110"></polygon>
                    <polygon id="Shape" fill="#000000" points="185 120 195 120 195 130 185 130"></polygon>
                    <polygon id="Shape" fill="#000000" points="185 140 195 140 195 150 185 150"></polygon>
                    <polygon id="Shape" fill="#000000" points="185 160 195 160 195 170 185 170"></polygon>
                    <path d="M295,75 L220,75 L220,5 C220.001875,2.24 217.765625,0.001875 215.005625,-8.50143464e-15 C215.00375,-8.50143464e-15 215.001875,-8.50143464e-15 215,-8.50143464e-15 L85,-8.50143464e-15 C82.24,-0.001875 80.001875,2.234375 80,4.994375 C80,4.99625 80,4.998125 80,5 L80,75 L5,75 C2.24,74.998125 0.001875,77.234375 -8.50143464e-15,79.994375 C-8.50143464e-15,79.99625 -8.50143464e-15,79.998125 -8.50143464e-15,80 L-8.50143464e-15,260 C-0.001875,262.76 2.234375,264.998125 4.994375,265 C4.99625,265 4.998125,265 5,265 L15.451875,265 C15.161875,266.65125 15.010625,268.32375 15,270 L15,295 C14.998125,297.76 17.234375,299.998125 19.994375,300 C19.99625,300 19.998125,300 20,300 L280,300 C282.76,300.001875 284.998125,297.765625 285,295.005625 C285,295.00375 285,295.001875 285,295 L285,270 C284.989375,268.32375 284.83875,266.65125 284.548125,265 L295,265 C297.76,265.001875 299.998125,262.765625 300,260.005625 C300,260.00375 300,260.001875 300,260 L300,80 C300.001875,77.24 297.765625,75.001875 295.005625,75 C295.00375,75 295.001875,75 295,75 Z M215,215 C215,220.523125 210.523125,225 205,225 C199.476875,225 195,220.523125 195,215 C195,209.476875 199.476875,205 205,205 C210.52,205.006875 214.993125,209.48 215,215 Z M95,205 C100.523125,205 105,209.476875 105,215 C105,220.523125 100.523125,225 95,225 C89.476875,225 85,220.523125 85,215 C85.006875,209.48 89.48,205.006875 95,205 Z M65,290 L25,290 L25,270 C25,258.954375 33.954375,250 45,250 C56.045625,250 65,258.954375 65,270 L65,290 Z M35,230 C35,224.476875 39.476875,220 45,220 C50.523125,220 55,224.476875 55,230 C55,235.523125 50.523125,240 45,240 C39.48,239.993125 35.006875,235.52 35,230 Z M65.7575,248.390625 C63.871875,246.571875 61.7575,245.006875 59.4675,243.735 C67.09375,235.745 66.799375,223.085 58.809375,215.458125 C50.819375,207.831875 38.159375,208.12625 30.5325,216.11625 C23.155625,223.844375 23.155625,236.00625 30.5325,243.734375 C25.76,246.383125 21.795,250.27625 19.05875,254.999375 L10,254.999375 L10,85 L80,85 L80,201.91 C73.13375,209.614375 73.365625,221.309375 80.5325,228.735 C73.0325,232.883125 67.658125,240.033125 65.7575,248.390625 Z M115,290 L75,290 L75,255 C75,243.954375 83.954375,235 95,235 C106.045625,235 115,243.954375 115,255 L115,290 Z M175,290 L125,290 L125,255 C125,241.193125 136.193125,230 150,230 C163.806875,230 175,241.193125 175,255 L175,290 Z M135,205 C135,196.715625 141.715625,190 150,190 C158.284375,190 165,196.715625 165,205 C165,213.284375 158.284375,220 150,220 C141.719375,219.99125 135.00875,213.280625 135,205 Z M180.45125,237.809375 C177.103125,231.906875 172.121875,227.0975 166.105625,223.959375 C176.66625,215.064375 178.01625,199.2925 169.121875,188.731875 C160.226875,178.17125 144.455,176.82125 133.894375,185.715625 C123.33375,194.61 121.98375,210.3825 130.878125,220.943125 C131.795625,222.0325 132.804375,223.04125 133.894375,223.959375 C127.878125,227.0975 122.89625,231.906875 119.54875,237.809375 C116.92,234.059375 113.4725,230.95625 109.4675,228.735 C117.133125,220.893125 116.990625,208.32125 109.148125,200.655625 C104.09875,195.72 96.808125,193.836875 90,195.71 L90,10 L210,10 L210,195.71 C208.370625,195.260625 206.69,195.021875 205,195 C193.98375,194.970625 185.029375,203.8775 185,214.894375 C184.98625,220.049375 186.969375,225.01 190.5325,228.735 C186.5275,230.95625 183.08,234.059375 180.45125,237.809375 Z M225,270 L225,290 L185,290 L185,255 C185,243.954375 193.954375,235 205,235 C216.045625,235 225,243.954375 225,255 L225,270 Z M275,290 L235,290 L235,270 C235,258.954375 243.954375,250 255,250 C266.045625,250 275,258.954375 275,270 L275,290 Z M245,230 C245,224.476875 249.476875,220 255,220 C260.523125,220 265,224.476875 265,230 C265,235.523125 260.523125,240 255,240 C249.48,239.993125 245.006875,235.52 245,230 Z M290.000625,255 L280.94125,255 C278.205625,250.276875 274.24,246.38375 269.4675,243.735 C277.09375,235.745 276.799375,223.085 268.809375,215.458125 C260.819375,207.831875 248.159375,208.12625 240.5325,216.11625 C233.155625,223.844375 233.155625,236.00625 240.5325,243.734375 C238.2425,245.00625 236.1275,246.57125 234.2425,248.39 C232.3425,240.0325 226.9675,232.8825 219.4675,228.734375 C226.634375,221.30875 226.866875,209.61375 220.000625,201.909375 L220.000625,85 L290.000625,85 L290.000625,255 Z" id="Shape" fill="#000000"></path>
                    <polygon id="Shape" fill="#000000" points="235 115 245 115 245 195 235 195"></polygon>
                    <polygon id="Shape" fill="#000000" points="265 115 275 115 275 195 265 195"></polygon>
                    <polygon id="Shape" fill="#000000" points="25 115 35 115 35 195 25 195"></polygon>
                    <polygon id="Shape" fill="#000000" points="55 115 65 115 65 195 55 195"></polygon>
                    <path d="M120,70 L180,70 C182.76,70.001875 184.998125,67.765625 185,65.005625 C185,65.00375 185,65.001875 185,65 L185,25 C185.001875,22.24 182.765625,20.001875 180.005625,20 C180.00375,20 180.001875,20 180,20 L120,20 C117.24,19.998125 115.001875,22.234375 115,24.994375 C115,24.99625 115,24.998125 115,25 L115,65 C114.998125,67.76 117.234375,69.998125 119.994375,70 C119.99625,70 119.998125,70 120,70 Z M125,30 L175,30 L175,60 L125,60 L125,30 Z" id="Shape" fill="#000000"></path>
                </g>
            </g>
        </g>
    </g>
</svg>