<?xml version="1.0" encoding="iso-8859-1"?>
<!-- Generator: Adobe Illustrator 19.0.0, SVG Export Plug-In . SVG Version: 6.00 Build 0)  -->
<svg version="1.1" id="Capa_1" xmlns="http://www.w3.org/2000/svg" xmlns:xlink="http://www.w3.org/1999/xlink" x="0px" y="0px"
	 viewBox="0 0 480 480" style="enable-background:new 0 0 480 480;" xml:space="preserve">
<circle style="fill:#65CECC;" cx="240" cy="240" r="200"/>
<path style="fill:#DE2F55;" d="M8,336l40,48l144-128l40,40L432,96l40,40V16H352l40,40L232,216l-40-40L8,336z"/>
<g>
	<path style="fill:#00BA54;" d="M232,92c0-6.627,5.373-12,12-12h32c6.627,0,12-5.373,12-12V45.924
		C199.869,23.959,108.023,64.268,64.523,144H132c6.627,0,12-5.373,12-12v-24c0-6.627,5.373-12,12-12h8c6.627,0,12,5.373,12,12
		c0,6.627,5.373,12,12,12h32c6.627,0,12-5.373,12-12V92z"/>
	<path style="fill:#00BA54;" d="M108,176H50.523c-6.103,18.076-9.579,36.936-10.321,56H76c6.627,0,12-5.373,12-12s5.373-12,12-12h8
		c6.627,0,12-5.373,12-12v-8C120,181.373,114.627,176,108,176z"/>
	<path style="fill:#00BA54;" d="M184,384h32c8.837,0,16-7.163,16-16v-16c0-8.837-7.163-16-16-16s-16-7.163-16-16s-7.163-16-16-16
		h-46l-59.953,53.292c17.854,24.588,41.049,44.81,67.841,59.145L152,416C152,398.327,166.327,384,184,384z"/>
	<path style="fill:#00BA54;" d="M284,336c-6.627,0-12,5.373-12,12s5.373,12,12,12h20c8.837,0,16,7.163,16,16s-7.163,16-16,16h-24
		c-26.412,0.002-47.858,21.345-47.988,47.756c2.657,0.105,5.305,0.244,7.988,0.244c73.107,0.021,140.396-39.859,175.476-104H284z"/>
	<path style="fill:#00BA54;" d="M384,220c0,11.046-8.954,20-20,20h-28c-8.837,0-16,7.163-16,16s7.163,16,16,16h101.42
		c5.214-32.167,2.499-65.12-7.91-96l0-0.001c-0.917-2.712-2.008-5.34-3.038-7.999H360l-32,32h36C375.046,200,384,208.954,384,220z"
		/>
</g>
<path d="M472,8H352c-4.418,0-7.999,3.581-7.999,7.999c0,2.122,0.843,4.157,2.343,5.657L380.688,56l-17.021,17.02
	C327.984,46.298,284.58,31.901,240,32C125.293,31.831,32.169,124.683,32,239.39c-0.029,19.632,2.726,39.168,8.182,58.026
	L2.75,329.965c-3.281,2.857-3.68,7.811-0.898,11.156l40,48c1.389,1.665,3.393,2.695,5.555,2.855C47.602,391.992,47.805,392,48,392
	c1.958,0,3.849-0.719,5.312-2.02l23.643-21.016c70.879,90.279,201.524,106.006,291.803,35.127
	c85.228-66.914,104.743-188.081,44.833-278.37L432,107.312l34.344,34.344c3.124,3.124,8.189,3.124,11.313,0.001
	c1.501-1.5,2.343-3.535,2.343-5.657V16c0.001-4.417-3.579-7.999-7.996-8C472.003,8,472.001,8,472,8L472,8z M240,48
	c13.447,0.041,26.853,1.484,40,4.307V68c-0.003,2.208-1.792,3.997-4,4h-32c-11.041,0.012-19.988,8.959-20,20v16
	c-0.003,2.208-1.792,3.997-4,4h-32c-2.208-0.003-3.997-1.792-4-4c-0.012-11.041-8.959-19.988-20-20h-8
	c-11.041,0.012-19.988,8.959-20,20v24c-0.003,2.208-1.792,3.997-4,4H78.734C114.052,81.178,174.787,48.037,240,48z M56.353,184H108
	c2.208,0.003,3.997,1.792,4,4v8c-0.003,2.208-1.792,3.997-4,4h-8c-11.041,0.012-19.988,8.959-20,20c-0.003,2.208-1.792,3.997-4,4
	H48.718C49.829,210.432,52.388,197.023,56.353,184z M48,240h28c11.041-0.012,19.988-8.959,20-20c0.003-2.208,1.792-3.997,4-4h8
	c11.041-0.012,19.988-8.959,20-20v-8c-0.012-11.041-8.959-19.988-20-20H62.06c2.219-5.465,4.68-10.798,7.381-16H132
	c11.041-0.012,19.988-8.959,20-20v-24c0.003-2.208,1.792-3.997,4-4h8c2.208,0.003,3.997,1.792,4,4c0.012,11.041,8.959,19.988,20,20
	h32c11.041-0.012,19.988-8.959,20-20V92c0.003-2.208,1.792-3.997,4-4h32c11.041-0.012,19.988-8.959,20-20V56.422
	c20.169,6.16,39.171,15.636,56.227,28.039L232,204.688l-34.344-34.344c-2.97-2.976-7.737-3.141-10.906-0.379L53.576,285.769
	C49.888,270.791,48.016,255.425,48,240L48,240z M88.94,358.312L141.044,312H184c4.416,0.004,7.996,3.584,8,8
	c0.062,13.229,10.771,23.938,24,24c2.157-0.004,4.221,0.882,5.703,2.449c1.487,1.462,2.315,3.466,2.297,5.551v16
	c-0.004,4.416-3.584,7.996-8,8h-32c-18.496,0.047-34.548,12.769-38.818,30.765C123.467,394.418,104.365,377.961,88.94,358.312z
	 M331.312,208H364c6.627,0,12,5.373,12,12s-5.373,12-12,12h-28c-13.228,0.066-23.934,10.772-24,24c0.014,13.249,10.751,23.986,24,24
	h91.779c-3.563,16.7-9.355,32.844-17.221,48H284c-11.046,0-20,8.954-20,20s8.954,20,20,20h20c4.418,0,8,3.582,8,8s-3.582,8-8,8h-24
	c-27.541,0.05-50.964,20.105-55.255,47.31c-22.349-1.809-44.209-7.521-64.586-16.878C160.962,401.845,171.387,392.036,184,392h32
	c13.249-0.014,23.986-10.751,24-24v-16c-0.062-13.229-10.771-23.938-24-24c-2.157,0.004-4.221-0.882-5.703-2.449
	c-1.487-1.462-2.315-3.466-2.297-5.551c-0.014-13.249-10.751-23.986-24-24h-24.956l32.636-29.008l34.664,34.664
	c3.122,3.124,8.186,3.125,11.309,0.003c0.001-0.001,0.002-0.002,0.003-0.003L331.312,208z M240.811,431.979
	c3.834-18.6,20.198-31.954,39.189-31.98h24c13.255,0,24-10.745,24-24s-10.745-24-24-24h-20c-2.209,0-4-1.791-4-4s1.791-4,4-4
	h117.266C366.1,398.573,305.732,431.673,240.811,431.979z M430.446,264H336c-4.416-0.004-7.996-3.584-8-8
	c-0.005-2.154,0.88-4.215,2.445-5.695c1.461-1.491,3.467-2.324,5.555-2.305h28c15.464,0,28-12.536,28-28s-12.536-28-28-28l0,0
	h-16.688l16-16h57.645c0.305,0.861,0.679,1.696,0.972,2.562C431.228,206.024,434.14,235.244,430.446,264z M414.409,160h-35.096
	l22.73-22.73C406.671,144.56,410.802,152.154,414.409,160L414.409,160z M464,116.687l-26.344-26.344
	c-3.122-3.124-8.186-3.125-11.309-0.003c-0.001,0.001-0.002,0.002-0.003,0.003L232,284.687l-34.344-34.344
	c-2.994-2.995-7.803-3.137-10.969-0.324L48.859,372.535l-29.695-35.637l172.453-149.965l34.727,34.722
	c3.122,3.124,8.186,3.125,11.309,0.003c0.001-0.001,0.002-0.002,0.003-0.003l160-160c3.124-3.122,3.125-8.186,0.003-11.309
	c-0.001-0.001-0.002-0.002-0.003-0.003L371.313,24H464L464,116.687z"/>
<path d="M424,440h16v16h-16V440z"/>
<path d="M464,464h16v16h-16V464z"/>
<path d="M448,400h16v16h-16V400z"/>
<path d="M384,464h16v16h-16V464z"/>
<path d="M464,352h16v16h-16V352z"/>
<path d="M0,0h16v16H0V0z"/>
<path d="M40,16h16v16H40V16z"/>
<path d="M8,48h16v16H8V48z"/>
<path d="M88,0h16v16H88V0z"/>
<path d="M40,64h16v16H40V64z"/>
<path d="M0,96h16v16H0V96z"/>
<g>
</g>
<g>
</g>
<g>
</g>
<g>
</g>
<g>
</g>
<g>
</g>
<g>
</g>
<g>
</g>
<g>
</g>
<g>
</g>
<g>
</g>
<g>
</g>
<g>
</g>
<g>
</g>
<g>
</g>
</svg>
