<?xml version="1.0" encoding="iso-8859-1"?>
<!-- Generator: Adobe Illustrator 19.0.0, SVG Export Plug-In . SVG Version: 6.00 Build 0)  -->
<svg version="1.1" id="Capa_1" xmlns="http://www.w3.org/2000/svg" xmlns:xlink="http://www.w3.org/1999/xlink" x="0px" y="0px"
	 viewBox="0 0 512 512" style="enable-background:new 0 0 512 512;" xml:space="preserve">
<path style="fill:#4DBAF6;" d="M198.861,385.392l-46.602-46.602c-11.716-11.716-30.711-11.716-42.426,0l0,0
	c-11.716,11.716-11.716,30.711,0,42.426l87.85,87.85l32.931,32.931L198.861,385.392z"/>
<polyline style="fill:#C9F3FF;" points="190.731,330.003 10,330.003 10,10.003 502,10.003 502,330.003 423.009,330.003 "/>
<circle style="fill:#FFFFFF;" cx="227.61" cy="162" r="112"/>
<circle style="fill:#FFC66C;" cx="227.61" cy="163.25" r="69.25"/>
<path style="fill:#72D8FF;" d="M395.195,308.003c-15.361,0-27.814,13.907-27.814,13.907c0-15.361-12.453-27.814-27.814-27.814
	s-27.813,18.158-27.813,18.158c0-15.361-12.453-27.814-27.814-27.814l0,0c-15.361,0-27.813,12.453-27.813,27.814v30.249
	l-2.552,4.469l2.464-5.469v-163c0-15.464-12.536-28-28-28s-28,12.536-28,28v295.773l30.574,27.721l171.04-0.012l21.355-51.982
	V335.817C423.009,320.456,410.556,308.003,395.195,308.003z"/>
<g>
	<rect x="402" y="64" style="fill:#FF5D5D;" width="56" height="56"/>
	<rect x="418" y="236" style="fill:#FF5D5D;" width="40" height="40"/>
	<rect x="379.36" y="162" style="fill:#FF5D5D;" width="40" height="40"/>
	<rect x="10" y="120" style="fill:#FF5D5D;" width="40" height="40"/>
	<rect x="44" y="44" style="fill:#FF5D5D;" width="40" height="40"/>
	<rect x="53.931" y="220.09" style="fill:#FF5D5D;" width="56" height="56"/>
</g>
<circle style="fill:#FFFFFF;" cx="311.75" cy="440.49" r="61.49"/>
<circle style="fill:#4DBAF6;" cx="311.75" cy="440.49" r="25.297"/>
<path d="M423.009,424.003c-5.522,0-10,4.477-10,10v14.026l-20.605,50.156c-2.099,5.109,0.342,10.951,5.45,13.05
	c1.243,0.511,2.53,0.752,3.796,0.752c3.935,0,7.666-2.337,9.254-6.202l21.355-51.982c0.495-1.206,0.75-2.497,0.75-3.8v-16
	C433.009,428.48,428.531,424.003,423.009,424.003z"/>
<path d="M423.01,385.003c-2.63,0-5.21,1.07-7.07,2.93c-1.859,1.86-2.93,4.44-2.93,7.07s1.07,5.21,2.93,7.07
	c1.86,1.86,4.44,2.93,7.07,2.93s5.21-1.07,7.07-2.93c1.859-1.86,2.93-4.44,2.93-7.07s-1.07-5.21-2.93-7.07
	C428.22,386.073,425.64,385.003,423.01,385.003z"/>
<path d="M300.712,189.249c10.618-28.534,3.572-60.878-17.949-82.401c-30.413-30.413-79.898-30.412-110.31,0
	c-22.366,22.367-29.02,55.711-16.949,84.949c1.592,3.857,5.318,6.187,9.247,6.187c1.271,0,2.564-0.244,3.812-0.759
	c5.105-2.107,7.535-7.954,5.428-13.059c-8.977-21.744-4.028-46.542,12.605-63.175c22.614-22.614,59.41-22.615,82.024,0
	c16.006,16.006,21.244,40.062,13.348,61.284c-1.926,5.176,0.709,10.934,5.885,12.859
	C293.026,197.059,298.786,194.426,300.712,189.249z"/>
<path d="M299.949,233.911l-0.217,0.217c-3.905,3.905-3.905,10.237,0,14.143c1.953,1.953,4.512,2.929,7.071,2.929
	s5.118-0.976,7.071-2.929l0.217-0.217c3.905-3.905,3.905-10.237,0-14.143C310.186,230.005,303.855,230.005,299.949,233.911z"/>
<path d="M502,0.003H10c-5.522,0-10,4.477-10,10v320c0,5.523,4.478,10,10,10h86.397c-3.485,6.015-5.351,12.862-5.351,20
	c0,10.685,4.161,20.729,11.716,28.285l120.78,120.78c1.953,1.953,4.512,2.929,7.071,2.929s5.118-0.977,7.071-2.929
	c3.905-3.905,3.905-10.237,0-14.142l-27.752-27.752c0.063-0.453,0.107-0.912,0.107-1.383V352.503h11c5.522,0,10-4.477,10-10
	s-4.478-10-10-10h-11V294.44h11c5.522,0,10-4.477,10-10s-4.478-10-10-10h-11v-49.938h11c5.522,0,10-4.477,10-10s-4.478-10-10-10h-11
	v-26c0-9.925,8.075-18,18-18s18,8.075,18,18v163c0,0.472,0.044,0.934,0.107,1.389c0.206,5.341,4.589,9.611,9.98,9.611
	c5.522,0,10-4.477,10-10v-30.249c0-9.822,7.991-17.813,17.813-17.813s17.813,7.991,17.813,17.813v30.249c0,5.523,4.478,10,10,10
	s10-4.477,10-10V321.91c0-9.822,7.991-17.813,17.814-17.813c9.822,0,17.813,7.991,17.813,17.813v20.593c0,5.523,4.478,10,10,10
	s10-4.477,10-10v-6.687c0-9.822,7.991-17.813,17.813-17.813s17.813,7.991,17.813,17.813v24.187c0,5.523,4.478,10,10,10
	s10-4.477,10-10v-20H502c5.522,0,10-4.477,10-10v-320C512,4.48,507.522,0.003,502,0.003z M20,130.003h20v20H20V130.003z
	 M190.039,362.427l-22.424-22.424h22.424V362.427z M162.762,420.003l6.953-6.952c3.905-3.905,3.905-10.237,0-14.142
	s-10.235-3.905-14.143,0l-6.953,6.952l-31.715-31.715c-3.777-3.777-5.858-8.8-5.858-14.142s2.081-10.365,5.858-14.142
	c7.798-7.798,20.485-7.798,28.283,0l44.852,44.851v56.568L162.762,420.003z M492,320.003h-62.469c-5.999-12.973-19.129-22-34.335-22
	c-8.129,0-15.662,2.587-21.834,6.97c-6.224-12.367-19.03-20.876-33.793-20.876c-8.881,0-17.051,3.085-23.511,8.23
	c-6.68-10.727-18.576-17.886-32.117-17.886c-6.473,0-12.569,1.637-17.901,4.515V178.503c0-20.953-17.047-38-38-38s-38,17.047-38,38
	v141.5H20v-150h30c5.522,0,10-4.477,10-10v-40c0-5.523-4.478-10-10-10H20v-90h472V320.003z"/>
<path d="M402,130.003h56c5.522,0,10-4.477,10-10v-56c0-5.523-4.478-10-10-10h-56c-5.522,0-10,4.477-10,10v56
	C392,125.526,396.478,130.003,402,130.003z M412,74.003h36v36h-36V74.003z"/>
<path d="M458,226.003h-40c-5.522,0-10,4.477-10,10v40c0,5.523,4.478,10,10,10h40c5.522,0,10-4.477,10-10v-40
	C468,230.48,463.522,226.003,458,226.003z M448,266.003h-20v-20h20V266.003z"/>
<path d="M379.364,212.003h40c5.522,0,10-4.477,10-10v-40c0-5.523-4.478-10-10-10h-40c-5.522,0-10,4.477-10,10v40
	C369.364,207.526,373.842,212.003,379.364,212.003z M389.364,172.003h20v20h-20V172.003z"/>
<path d="M44,94.003h40c5.522,0,10-4.477,10-10v-40c0-5.523-4.478-10-10-10H44c-5.522,0-10,4.477-10,10v40
	C34,89.526,38.478,94.003,44,94.003z M54,54.003h20v20H54V54.003z"/>
<path d="M109.931,210.086h-56c-5.522,0-10,4.477-10,10v56c0,5.523,4.478,10,10,10h56c5.522,0,10-4.477,10-10v-56
	c0-0.225-0.019-0.446-0.034-0.668c5.608,10.488,12.797,20.204,21.444,28.851c1.953,1.953,4.512,2.929,7.071,2.929
	s5.118-0.977,7.071-2.929c3.905-3.905,3.905-10.237,0-14.142c-19.266-19.265-29.876-44.879-29.876-72.125
	s10.61-52.859,29.876-72.125c19.265-19.266,44.879-29.875,72.125-29.875c27.245,0,52.859,10.61,72.124,29.875
	c31.28,31.28,38.877,78.787,18.901,118.215c-2.495,4.926-0.525,10.944,4.401,13.439c4.927,2.495,10.943,0.526,13.44-4.401
	c23.893-47.163,14.811-103.985-22.601-141.396c-23.043-23.043-53.68-35.733-86.267-35.733c-32.588,0-63.225,12.69-86.268,35.733
	s-35.733,53.68-35.733,86.267c0,17.742,3.77,34.903,10.917,50.578C114.763,211.033,112.46,210.086,109.931,210.086z M99.931,266.086
	h-36v-36h36V266.086z"/>
<path d="M311.754,369.003c-39.42,0-71.49,32.071-71.49,71.491s32.07,71.491,71.49,71.491s71.491-32.071,71.491-71.491
	S351.174,369.003,311.754,369.003z M311.754,491.985c-28.392,0-51.49-23.099-51.49-51.491s23.099-51.491,51.49-51.491
	c28.393,0,51.491,23.099,51.491,51.491S340.146,491.985,311.754,491.985z"/>
<path d="M335.667,430.494c-5.522,0-10,4.477-10,10c0,7.672-6.241,13.914-13.913,13.914s-13.913-6.242-13.913-13.914
	s6.241-13.913,13.913-13.913c5.522,0,10-4.477,10-10s-4.478-10-10-10c-18.7,0-33.913,15.213-33.913,33.913
	c0,18.7,15.213,33.914,33.913,33.914s33.913-15.213,33.913-33.914C345.667,434.971,341.189,430.494,335.667,430.494z"/>
<g>
</g>
<g>
</g>
<g>
</g>
<g>
</g>
<g>
</g>
<g>
</g>
<g>
</g>
<g>
</g>
<g>
</g>
<g>
</g>
<g>
</g>
<g>
</g>
<g>
</g>
<g>
</g>
<g>
</g>
</svg>
