<?xml version="1.0" encoding="iso-8859-1"?>
<!-- Generator: Adobe Illustrator 19.0.0, SVG Export Plug-In . SVG Version: 6.00 Build 0)  -->
<svg version="1.1" id="Capa_1" xmlns="http://www.w3.org/2000/svg" xmlns:xlink="http://www.w3.org/1999/xlink" x="0px" y="0px"
	 viewBox="0 0 512 512" style="enable-background:new 0 0 512 512;" xml:space="preserve">
<rect x="7.5" y="7.508" style="fill:#89B5FD;" width="497" height="496.98"/>
<polygon style="fill:#2487FF;" points="376.337,57.332 376.337,355.337 376.331,355.337 376.331,454.675 475.668,454.675 
	475.668,355.337 475.675,355.337 475.675,57.332 "/>
<g>
	<rect x="57.33" y="57.33" style="fill:#FFEA98;" width="99.34" height="99.34"/>
	<rect x="355.33" y="355.34" style="fill:#FFEA98;" width="99.34" height="99.34"/>
</g>
<rect x="57.33" y="156.67" style="fill:#FF6499;" width="99.34" height="99.34"/>
<rect x="57.33" y="256" style="fill:#FFEA98;" width="99.34" height="99.34"/>
<g>
	<rect x="57.33" y="355.33" style="fill:#FF6499;" width="99.34" height="99.34"/>
	<rect x="156.66" y="57.33" style="fill:#FF6499;" width="99.34" height="99.34"/>
</g>
<rect x="156.66" y="156.67" style="fill:#FFEA98;" width="99.34" height="99.34"/>
<rect x="156.66" y="256" style="fill:#FF6499;" width="99.34" height="99.34"/>
<g>
	<rect x="156.66" y="355.33" style="fill:#FFEA98;" width="99.34" height="99.34"/>
	<rect x="256" y="57.33" style="fill:#FFEA98;" width="99.34" height="99.34"/>
</g>
<rect x="256" y="156.67" style="fill:#FF6499;" width="99.34" height="99.34"/>
<rect x="256" y="256" style="fill:#FFEA98;" width="99.34" height="99.34"/>
<g>
	<rect x="256" y="355.33" style="fill:#FF6499;" width="99.34" height="99.34"/>
	<rect x="355.34" y="57.33" style="fill:#FF6499;" width="99.34" height="99.34"/>
</g>
<rect x="355.34" y="156.67" style="fill:#FFEA98;" width="99.34" height="99.34"/>
<rect x="355.34" y="256" style="fill:#FF6499;" width="99.34" height="99.34"/>
<g>
	<circle style="fill:#FF0C38;" cx="226.33" cy="107" r="27.783"/>
	<circle style="fill:#FF0C38;" cx="325.67" cy="206.34" r="27.783"/>
</g>
<g>
	<circle style="fill:#FFD944;" cx="126.99" cy="305.67" r="27.783"/>
	<circle style="fill:#FFD944;" cx="226.33" cy="206.34" r="27.783"/>
</g>
<g>
	<circle style="fill:#FFEA98;" cx="206.33" cy="107" r="27.783"/>
	<circle style="fill:#FFEA98;" cx="305.67" cy="206.34" r="27.783"/>
</g>
<g>
	<circle style="fill:#FF6499;" cx="106.99" cy="305.67" r="27.783"/>
	<circle style="fill:#FF6499;" cx="206.33" cy="206.34" r="27.783"/>
</g>
<rect x="7.5" y="7.508" style="fill:#2487FF;" width="30" height="496.98"/>
<g>
	<rect x="57.33" y="57.33" style="fill:#FFD944;" width="20" height="99.34"/>
	<rect x="355.33" y="355.34" style="fill:#FFD944;" width="20" height="99.34"/>
</g>
<rect x="57.33" y="156.67" style="fill:#FF0C38;" width="20" height="99.34"/>
<rect x="57.33" y="256" style="fill:#FFD944;" width="20" height="99.34"/>
<g>
	<rect x="57.33" y="355.33" style="fill:#FF0C38;" width="20" height="99.34"/>
	<rect x="156.66" y="57.33" style="fill:#FF0C38;" width="20" height="99.34"/>
</g>
<rect x="156.66" y="156.67" style="fill:#FFD944;" width="20" height="99.34"/>
<rect x="156.66" y="256" style="fill:#FF0C38;" width="20" height="99.34"/>
<g>
	<rect x="156.66" y="355.33" style="fill:#FFD944;" width="20" height="99.34"/>
	<rect x="256" y="57.33" style="fill:#FFD944;" width="20" height="99.34"/>
</g>
<rect x="256" y="156.67" style="fill:#FF0C38;" width="20" height="99.34"/>
<rect x="256" y="256" style="fill:#FFD944;" width="20" height="99.34"/>
<g>
	<rect x="256" y="355.33" style="fill:#FF0C38;" width="20" height="99.34"/>
	<rect x="355.34" y="57.33" style="fill:#FF0C38;" width="20" height="99.34"/>
</g>
<rect x="355.34" y="156.67" style="fill:#FFD944;" width="20" height="99.34"/>
<rect x="355.34" y="256" style="fill:#FF0C38;" width="20" height="99.34"/>
<g>
	<path style="fill:#FFD944;" d="M198.549,107.001c0-11.818,7.382-21.905,17.783-25.921c-3.104-1.198-6.474-1.862-10-1.862
		c-15.344,0-27.783,12.439-27.783,27.783s12.439,27.783,27.783,27.783c3.527,0,6.896-0.664,10-1.862
		C205.93,128.906,198.549,118.818,198.549,107.001z"/>
	<path style="fill:#FFD944;" d="M297.884,206.336c0-11.818,7.382-21.905,17.783-25.921c-3.104-1.198-6.474-1.862-10-1.862
		c-15.344,0-27.783,12.439-27.783,27.783s12.439,27.783,27.783,27.783c3.526,0,6.896-0.664,10-1.862
		C305.266,228.241,297.884,218.154,297.884,206.336z"/>
</g>
<g>
	<path style="fill:#FF0C38;" d="M99.211,305.669c0-11.818,7.382-21.905,17.783-25.921c-3.104-1.198-6.474-1.862-10-1.862
		c-15.344,0-27.783,12.439-27.783,27.783s12.439,27.783,27.783,27.783c3.527,0,6.896-0.664,10-1.862
		C106.593,327.574,99.211,317.486,99.211,305.669z"/>
	<path style="fill:#FF0C38;" d="M198.549,206.336c0-11.818,7.382-21.905,17.783-25.921c-3.104-1.198-6.474-1.862-10-1.862
		c-15.344,0-27.783,12.439-27.783,27.783s12.439,27.783,27.783,27.783c3.527,0,6.896-0.664,10-1.862
		C205.93,228.241,198.549,218.154,198.549,206.336z"/>
</g>
<path style="fill:#1D1D1F;" d="M49.825,111.006v351.162H96v-15H64.825v-84.33h84.337v84.33H111v15h236.831v0.007h114.337v-45.511
	h-15v30.511h-84.331v-84.337h84.331v38.826h15v-38.826h0.007V49.832H49.825v46.174h15V64.832h84.337v84.337H64.825v-38.163
	L49.825,111.006L49.825,111.006z M164.163,164.169H248.5V248.5h-84.337V164.169z M347.837,248.5H263.5v-84.331h84.337V248.5z
	 M347.837,347.831H263.5v-84.324h84.337V347.831z M248.5,263.507v84.324h-84.337v-84.324H248.5z M64.825,263.507h84.337v84.324
	H79.314v0.007H64.825V263.507z M248.5,447.168h-84.337v-84.33H248.5V447.168z M263.5,447.168v-84.33h84.331v84.33L263.5,447.168
	L263.5,447.168z M447.175,347.838h-84.337v-84.331h84.337V347.838z M447.175,248.5h-84.337v-84.331h84.337V248.5z M362.837,64.832
	h84.337v84.337h-84.337V64.832z M263.5,64.832h84.337v84.337H263.5V64.832z M164.163,64.832H248.5v84.337h-84.337V64.832z
	 M149.163,164.169V248.5H64.825v-84.331H149.163z"/>
<g>
	<rect x="373.68" y="68.17" style="fill:#FFFFFF;" width="15" height="15"/>
	<polygon style="fill:#FFFFFF;" points="423.681,83.175 428.832,83.175 428.832,138.326 443.832,138.326 443.832,68.175 
		423.681,68.175 	"/>
	<rect x="398.68" y="68.17" style="fill:#FFFFFF;" width="15" height="15"/>
</g>
<g>
	<polygon style="fill:#1D1D1F;" points="497,496.991 143.518,496.991 143.518,511.991 512,511.991 512,315.474 497,315.474 	"/>
	<polygon style="fill:#1D1D1F;" points="0,0.009 0,60.509 15,60.509 15,15.009 497,15.009 497,300.474 512,300.474 512,0.009 	"/>
	<polygon style="fill:#1D1D1F;" points="15,75.509 0,75.509 0,511.991 128.518,511.991 128.518,496.991 15,496.991 	"/>
	<path style="fill:#1D1D1F;" d="M206.332,71.718c-19.455,0-35.283,15.828-35.283,35.283s15.828,35.282,35.283,35.282
		s35.283-15.827,35.283-35.282S225.787,71.718,206.332,71.718z M206.332,127.283c-11.184,0-20.283-9.099-20.283-20.282
		c0-11.185,9.099-20.283,20.283-20.283s20.283,9.099,20.283,20.283C226.614,118.185,217.516,127.283,206.332,127.283z"/>
	<path style="fill:#1D1D1F;" d="M305.667,241.619c19.455,0,35.283-15.828,35.283-35.283s-15.828-35.282-35.283-35.282
		s-35.283,15.827-35.283,35.282S286.212,241.619,305.667,241.619z M305.667,186.054c11.184,0,20.283,9.099,20.283,20.282
		c0,11.185-9.099,20.283-20.283,20.283s-20.283-9.099-20.283-20.283S294.483,186.054,305.667,186.054z"/>
	<path style="fill:#1D1D1F;" d="M106.994,340.951c19.455,0,35.283-15.827,35.283-35.282s-15.828-35.283-35.283-35.283
		s-35.283,15.828-35.283,35.283S87.539,340.951,106.994,340.951z M106.994,285.386c11.184,0,20.283,9.099,20.283,20.283
		s-9.099,20.282-20.283,20.282s-20.283-9.099-20.283-20.282C86.711,294.484,95.81,285.386,106.994,285.386z"/>
	<path style="fill:#1D1D1F;" d="M206.332,171.054c-19.455,0-35.283,15.827-35.283,35.282s15.828,35.283,35.283,35.283
		s35.283-15.828,35.283-35.283S225.787,171.054,206.332,171.054z M206.332,226.619c-11.184,0-20.283-9.099-20.283-20.283
		s9.099-20.282,20.283-20.282s20.283,9.099,20.283,20.282C226.614,217.521,217.516,226.619,206.332,226.619z"/>
</g>
<g>
	<rect x="473.5" y="208.66" style="fill:#FFFFFF;" width="15" height="15"/>
	<rect x="473.5" y="233.66" style="fill:#FFFFFF;" width="15" height="15"/>
	<rect x="473.5" y="27.993" style="fill:#FFFFFF;" width="15" height="170.67"/>
</g>
<g>
	<rect x="82.33" y="472.18" style="fill:#1D1D1F;" width="15" height="15"/>
	<rect x="57.33" y="472.18" style="fill:#1D1D1F;" width="15" height="15"/>
	<rect x="32.33" y="472.18" style="fill:#1D1D1F;" width="15" height="15"/>
	<rect x="96" y="171.05" style="fill:#1D1D1F;" width="15" height="15"/>
	<rect x="121" y="171.05" style="fill:#1D1D1F;" width="15" height="15"/>
	<rect x="71" y="171.05" style="fill:#1D1D1F;" width="15" height="15"/>
	<rect x="419.5" y="272.34" style="fill:#1D1D1F;" width="15" height="15"/>
	<rect x="419.5" y="322.34" style="fill:#1D1D1F;" width="15" height="15"/>
	<rect x="419.5" y="297.34" style="fill:#1D1D1F;" width="15" height="15"/>
	<rect x="24.833" y="57.33" style="fill:#1D1D1F;" width="15" height="87.47"/>
	<rect x="362" y="472.18" style="fill:#1D1D1F;" width="88" height="15"/>
</g>
<g>
	<rect x="270.5" y="424.84" style="fill:#FFFFFF;" width="15" height="15"/>
	<rect x="295.5" y="424.84" style="fill:#FFFFFF;" width="15" height="15"/>
	<rect x="320.5" y="424.84" style="fill:#FFFFFF;" width="20.333" height="15"/>
</g>
<g>
	<rect x="273" y="325.95" style="fill:#1D1D1F;" width="28" height="15"/>
	<rect x="170.5" y="368.84" style="fill:#1D1D1F;" width="15" height="50.5"/>
</g>
<g>
</g>
<g>
</g>
<g>
</g>
<g>
</g>
<g>
</g>
<g>
</g>
<g>
</g>
<g>
</g>
<g>
</g>
<g>
</g>
<g>
</g>
<g>
</g>
<g>
</g>
<g>
</g>
<g>
</g>
</svg>
