<?xml version="1.0" encoding="iso-8859-1"?>
<!-- Generator: Adobe Illustrator 19.0.0, SVG Export Plug-In . SVG Version: 6.00 Build 0)  -->
<svg version="1.1" id="Capa_1" xmlns="http://www.w3.org/2000/svg" xmlns:xlink="http://www.w3.org/1999/xlink" x="0px" y="0px"
	 viewBox="0 0 512 512" style="enable-background:new 0 0 512 512;" xml:space="preserve">
<g>
	<g transform="translate(1 1)">
		<path style="fill:#607D8B;" d="M451.267,50.2v256.512L434.2,476.867H24.6c-9.414-0.028-17.039-7.653-17.067-17.067V50.2H451.267z"
			/>
		<path style="fill:#CFD8DC;" d="M425.667,50.2v426.667H24.6c-9.414-0.028-17.039-7.653-17.067-17.067V50.2H425.667z"/>
		<path style="fill:#009688;" d="M491.544,395.629l6.827,72.107c1.474,16.477-9.906,31.342-26.197,34.219
			c-15.875,2.86-31.427-6.427-36.437-21.76l-18.859-61.696H291.011l-18.859,61.696c-5.024,15.537-20.886,24.851-36.902,21.67
			s-27.114-17.851-25.818-34.128l6.741-70.144c-13.512-16.794-16.19-39.851-6.887-59.295c9.303-19.444,28.937-31.826,50.493-31.841
			c15.923-0.049,31.095,6.76,41.643,18.688h103.424c10.547-11.928,25.72-18.737,41.643-18.688
			c21.118-0.007,40.442,11.875,49.966,30.724C505.977,356.028,504.079,378.633,491.544,395.629z"/>
		<g>
			<path style="fill:#4482C3;" d="M297.496,418.499h36.949c0.049,6.633-3.461,12.784-9.197,16.115
				c-5.736,3.331-12.818,3.331-18.555,0C300.957,431.282,297.447,425.132,297.496,418.499z"/>
			<path style="fill:#4482C3;" d="M409.112,418.499c0.049,6.633-3.461,12.784-9.197,16.115c-5.736,3.331-12.818,3.331-18.555,0
				c-5.736-3.331-9.247-9.481-9.197-16.115H409.112z"/>
		</g>
		<path style="fill:#4CAF50;" d="M315.758,362.435c0,30.916-25.063,55.979-55.979,55.979S203.8,393.351,203.8,362.435
			s25.063-55.979,55.979-55.979C290.651,306.563,315.651,331.563,315.758,362.435z"/>
		<path style="fill:#283593;" d="M451.267,24.6v51.2H7.534V24.6C7.561,15.186,15.186,7.561,24.6,7.533h409.6
			C443.614,7.561,451.239,15.186,451.267,24.6z"/>
		<path style="fill:#3F51B5;" d="M425.667,24.6v51.2H7.534V24.6C7.561,15.186,15.186,7.561,24.6,7.533h384
			C418.014,7.561,425.639,15.186,425.667,24.6z"/>
		<g>
			<path style="fill:#4CAF50;" d="M411.22,419.98c-0.143,12.453-10.334,22.443-22.787,22.338
				c-12.453-0.105-22.475-10.265-22.408-22.719c0.067-12.454,10.197-22.506,22.651-22.477c3.764,0.017,7.462,0.987,10.75,2.818
				C406.731,403.956,411.256,411.644,411.22,419.98z"/>
			<path style="fill:#4CAF50;" d="M339.771,419.98c-0.143,12.453-10.334,22.443-22.787,22.338
				c-12.453-0.105-22.475-10.265-22.408-22.719c0.067-12.454,10.197-22.506,22.651-22.477c3.764,0.017,7.462,0.987,10.75,2.818
				C335.283,403.956,339.808,411.644,339.771,419.98z"/>
		</g>
		<path style="fill:#00695C;" d="M491.544,395.629l6.827,72.107c1.474,16.477-9.906,31.342-26.197,34.219
			c-1.887,0.34-3.8,0.511-5.717,0.512c-4.43-0.003-8.813-0.903-12.885-2.645c12.69-5.389,20.449-18.355,19.2-32.085l-6.827-72.107
			c11.175-15.154,13.981-34.91,7.468-52.576c-6.513-17.666-21.472-30.873-39.809-35.146c4.227-0.965,8.549-1.451,12.885-1.451
			c21.118-0.007,40.442,11.875,49.966,30.724C505.977,356.028,504.079,378.633,491.544,395.629z"/>
		<path style="fill:#2E7D32;" d="M502.467,362.435c0,30.916-25.063,55.979-55.979,55.979c-30.916,0-55.979-25.063-55.979-55.979
			c0.107-30.872,25.107-55.872,55.979-55.979C477.397,306.474,502.449,331.526,502.467,362.435z"/>
		<path style="fill:#4CAF50;" d="M477.891,362.435c0,30.976-19.351,56.064-43.179,56.064c-13.751-0.542-26.258-8.117-33.108-20.053
			c-6.744-10.788-10.24-23.289-10.07-36.011c-0.188-13.265,3.669-26.272,11.058-37.291c6.904-11.213,18.961-18.228,32.121-18.688
			C458.539,306.456,477.891,331.544,477.891,362.435z"/>
	</g>
	<g>
		<path d="M450.729,336.896c-3.198-1.268-6.843-0.533-9.3,1.875c-1.619,1.596-2.513,3.786-2.475,6.059
			c-0.017,1.111,0.186,2.214,0.596,3.246c0.475,1.005,1.11,1.927,1.879,2.729c0.773,0.844,1.74,1.488,2.817,1.875
			c2.065,0.911,4.418,0.911,6.483,0c1.04-0.411,1.973-1.052,2.729-1.875c1.637-1.573,2.563-3.746,2.563-6.017
			c0-2.271-0.925-4.443-2.563-6.017C452.679,337.976,451.752,337.339,450.729,336.896z"/>
		<path d="M422.742,357.458c-1.57,1.594-2.458,3.737-2.475,5.975c0.016,2.263,0.902,4.432,2.475,6.059
			c1.605,1.606,3.789,2.498,6.059,2.475c2.267,0.006,4.444-0.883,6.059-2.475c1.571-1.628,2.457-3.797,2.475-6.059
			c-0.018-2.237-0.906-4.38-2.475-5.975C431.453,354.26,426.148,354.26,422.742,357.458z"/>
		<path d="M460.117,357.458c-1.603,1.572-2.497,3.73-2.475,5.975c-0.016,1.138,0.186,2.268,0.596,3.329
			c0.415,1.038,1.057,1.971,1.879,2.729c3.331,3.3,8.698,3.3,12.029,0c0.797-0.779,1.435-1.706,1.879-2.729
			c0.438-1.056,0.67-2.186,0.683-3.329c-0.009-2.257-0.934-4.413-2.562-5.975C468.774,354.261,463.489,354.26,460.117,357.458z"/>
		<path d="M450.729,374.271c-2.624-1.124-5.638-0.847-8.013,0.737c-2.375,1.583-3.79,4.259-3.762,7.113
			c-0.017,1.109,0.186,2.211,0.596,3.242c0.452,1.044,1.089,1.998,1.879,2.817c0.801,0.791,1.761,1.401,2.817,1.792
			c2.065,0.911,4.418,0.911,6.483,0c1.018-0.413,1.946-1.022,2.729-1.792c1.638-1.59,2.562-3.776,2.562-6.058
			s-0.924-4.468-2.562-6.058C452.675,375.292,451.748,374.684,450.729,374.271z"/>
		<path d="M242.134,372h10.133v10.133c0,4.713,3.82,8.533,8.533,8.533s8.533-3.82,8.533-8.533V372h10.133
			c4.713,0,8.533-3.821,8.533-8.533s-3.821-8.533-8.533-8.533h-10.133V344.8c0-4.713-3.82-8.533-8.533-8.533
			s-8.533,3.82-8.533,8.533v10.133h-10.133c-4.713,0-8.533,3.82-8.533,8.533S237.421,372,242.134,372z"/>
		<path d="M460.8,300.335V25.6C460.785,11.468,449.332,0.015,435.2,0H25.6C11.468,0.015,0.016,11.468,0,25.6v435.2
			c0.015,14.132,11.468,25.585,25.6,25.6h178.888c5.15,12.951,16.574,22.363,30.271,24.942c2.412,0.444,4.86,0.665,7.313,0.658
			c16.783,0.041,31.852-10.272,37.89-25.931c0.534,0.167,1.083,0.278,1.64,0.331h148.077c6.124,15.487,21.106,25.644,37.76,25.6
			c2.436,0.007,4.867-0.21,7.263-0.65c20.573-3.752,34.936-22.51,33.192-43.35l-6.372-69.393
			c11.632-17.815,13.718-40.225,5.573-59.881C498.948,319.07,481.624,304.703,460.8,300.335z M25.6,17.067h409.6
			c4.71,0.006,8.527,3.823,8.533,8.533v42.667H17.067V25.6C17.073,20.89,20.89,17.073,25.6,17.067z M25.6,469.333
			c-4.71-0.006-8.527-3.823-8.533-8.533V85.333h426.667v213.789c-15.654,0.882-30.447,7.453-41.595,18.478h-96.009
			c-23.681-23.477-61.356-25.022-86.88-3.563c-25.524,21.459-30.472,58.841-11.41,86.201l-6.221,67.737
			c-0.043,0.459,0.031,0.902,0.004,1.358H25.6z M213.334,363.467c-0.026-19.752,12.198-37.451,30.681-44.419
			c18.483-6.968,39.349-1.745,52.369,13.108l0.015,0.016c13.931,15.844,15.723,38.985,4.399,56.786
			c-11.324,17.801-33.044,25.984-53.299,20.081C227.243,403.135,213.321,384.564,213.334,363.467z M316.992,409.333
			c4.116-0.079,7.871,2.34,9.501,6.121c1.63,3.781,0.811,8.171-2.072,11.11c-2.883,2.939-7.258,3.842-11.069,2.284
			s-6.301-5.265-6.301-9.382C307.004,413.926,311.451,409.393,316.992,409.333z M295.75,436.064
			c6.022,7.971,15.991,11.912,25.835,10.214s17.917-8.751,20.921-18.278h23.639c3.072,9.692,11.373,16.805,21.422,18.354
			c10.049,1.549,20.107-2.732,25.956-11.049l10.585,34.028H285.4L295.75,436.064z M401.6,419.467
			c-0.104,5.466-4.602,9.822-10.068,9.753c-5.467-0.07-9.852-4.539-9.817-10.006c0.035-5.467,4.477-9.88,9.944-9.88
			C397.2,409.393,401.647,413.926,401.6,419.467L401.6,419.467z M389.888,392.447c-10.94,0.753-20.331,8.064-23.743,18.486h-23.639
			c-3.45-10.554-13.022-17.909-24.108-18.523c9.223-18.137,9.249-39.584,0.069-57.743h71.334
			C380.614,352.839,380.646,374.303,389.888,392.447z M264.654,478.566c-3.481,11.437-15.081,18.359-26.8,15.991
			c-11.896-2.135-20.225-12.954-19.246-25l4.913-53.509c16.802,12.033,38.386,15.199,57.936,8.499L264.654,478.566z
			 M471.604,494.566c-11.659,2.206-23.132-4.635-26.733-15.942l-16.66-53.562c19.702,6.174,41.171,2.497,57.695-9.882l4.994,54.404
			C491.866,481.639,483.512,492.454,471.604,494.566z M447.467,410.933c-18.648,0.03-35.58-10.88-43.261-27.873
			c-7.68-16.993-4.681-36.911,7.663-50.889l0.015-0.016c8.979-10.26,21.949-16.149,35.583-16.156c1.614,0,3.209,0.084,4.781,0.242
			l0.019,0.004l0.011-0.002c25.149,2.563,43.877,24.385,42.594,49.631C493.589,391.121,472.746,410.933,447.467,410.933z"/>
		<path d="M42.667,51.2c2.27,0.022,4.453-0.87,6.058-2.475c1.605-1.605,2.497-3.788,2.475-6.058
			c-0.033-2.259-0.917-4.422-2.475-6.059c-3.422-3.159-8.696-3.159-12.117,0c-3.3,3.365-3.3,8.752,0,12.117
			C38.245,50.283,40.408,51.167,42.667,51.2z"/>
		<path d="M76.8,51.2c2.27,0.022,4.453-0.87,6.058-2.475c1.605-1.605,2.497-3.788,2.475-6.058c-0.015-0.573-0.072-1.144-0.171-1.708
			c-0.095-0.535-0.268-1.053-0.513-1.537c-0.188-0.543-0.448-1.058-0.771-1.533c-0.338-0.429-0.679-0.854-1.021-1.279
			c-3.422-3.159-8.696-3.159-12.117,0c-0.341,0.425-0.683,0.85-1.025,1.279c-0.323,0.475-0.582,0.991-0.771,1.533
			c-0.245,0.484-0.417,1.003-0.508,1.538c-0.1,0.564-0.157,1.135-0.171,1.708c-0.022,2.27,0.87,4.453,2.475,6.058
			C72.347,50.33,74.53,51.222,76.8,51.2z"/>
		<path d="M107.688,50.517c2.067,0.911,4.421,0.911,6.487,0c1.033-0.434,1.986-1.04,2.817-1.791c3.3-3.365,3.3-8.752,0-12.117
			c-0.83-0.754-1.782-1.362-2.817-1.796c-2.079-0.85-4.409-0.85-6.487,0c-1.033,0.434-1.984,1.041-2.813,1.795
			c-3.3,3.365-3.3,8.752,0,12.117C105.705,49.477,106.656,50.082,107.688,50.517z"/>
		<path d="M51.2,128h85.333c4.713,0,8.533-3.821,8.533-8.533c0-4.713-3.821-8.533-8.533-8.533H51.2
			c-4.713,0-8.533,3.821-8.533,8.533C42.667,124.179,46.487,128,51.2,128z"/>
		<path d="M136.534,145.067H76.8c-4.713,0-8.533,3.82-8.533,8.533s3.82,8.533,8.533,8.533h59.733c4.713,0,8.533-3.821,8.533-8.533
			S141.246,145.067,136.534,145.067z"/>
		<path d="M51.2,196.267h349.867c4.713,0,8.533-3.821,8.533-8.533c0-4.713-3.821-8.533-8.533-8.533H51.2
			c-4.713,0-8.533,3.821-8.533,8.533C42.667,192.446,46.487,196.267,51.2,196.267z"/>
		<path d="M51.2,230.4h281.6c4.713,0,8.533-3.821,8.533-8.533c0-4.713-3.82-8.533-8.533-8.533H51.2
			c-4.713,0-8.533,3.821-8.533,8.533C42.667,226.579,46.487,230.4,51.2,230.4z"/>
		<path d="M51.2,264.533h34.133c4.713,0,8.533-3.821,8.533-8.533c0-4.713-3.821-8.533-8.533-8.533H51.2
			c-4.713,0-8.533,3.821-8.533,8.533C42.667,260.713,46.487,264.533,51.2,264.533z"/>
		<path d="M187.734,281.6H68.267c-4.713,0-8.533,3.821-8.533,8.533c0,4.713,3.821,8.533,8.533,8.533h119.467
			c4.713,0,8.533-3.821,8.533-8.533C196.267,285.421,192.446,281.6,187.734,281.6z"/>
		<path d="M59.734,358.4c0,4.713,3.821,8.533,8.533,8.533h102.4c4.713,0,8.533-3.82,8.533-8.533s-3.821-8.533-8.533-8.533h-102.4
			C63.554,349.867,59.734,353.687,59.734,358.4z"/>
		<path d="M179.2,384H85.334c-4.713,0-8.533,3.82-8.533,8.533s3.82,8.533,8.533,8.533H179.2c4.713,0,8.533-3.82,8.533-8.533
			S183.913,384,179.2,384z"/>
		<path d="M51.2,332.8H128c4.713,0,8.533-3.82,8.533-8.533s-3.82-8.533-8.533-8.533H51.2c-4.713,0-8.533,3.821-8.533,8.533
			S46.487,332.8,51.2,332.8z"/>
		<path d="M179.2,426.667h-128c-4.713,0-8.533,3.82-8.533,8.533s3.821,8.533,8.533,8.533h128c4.713,0,8.533-3.821,8.533-8.533
			S183.913,426.667,179.2,426.667z"/>
		<path d="M179.2,315.733h-17.067c-4.713,0-8.533,3.821-8.533,8.533s3.82,8.533,8.533,8.533H179.2c4.713,0,8.533-3.82,8.533-8.533
			S183.913,315.733,179.2,315.733z"/>
		<path d="M119.467,247.467c-4.713,0-8.533,3.821-8.533,8.533c0,4.713,3.821,8.533,8.533,8.533H153.6
			c4.713,0,8.533-3.821,8.533-8.533c0-4.713-3.821-8.533-8.533-8.533H119.467z"/>
	</g>
</g>
<g>
</g>
<g>
</g>
<g>
</g>
<g>
</g>
<g>
</g>
<g>
</g>
<g>
</g>
<g>
</g>
<g>
</g>
<g>
</g>
<g>
</g>
<g>
</g>
<g>
</g>
<g>
</g>
<g>
</g>
</svg>
