<?xml version="1.0" encoding="UTF-8"?>
<svg width="300px" height="300px" viewBox="0 0 300 300" version="1.1" xmlns="http://www.w3.org/2000/svg" xmlns:xlink="http://www.w3.org/1999/xlink">
    <!-- Generator: Sketch 50.2 (55047) - http://www.bohemiancoding.com/sketch -->
    <title>005-salesman</title>
    <desc>Created with Sketch.</desc>
    <defs></defs>
    <g id="Page-2" stroke="none" stroke-width="1" fill="none" fill-rule="evenodd">
        <g id="MODULES---Year-3" transform="translate(-1099.000000, -1495.000000)" fill-rule="nonzero">
            <g id="ism" transform="translate(926.000000, 1391.000000)">
                <g id="005-salesman" transform="translate(173.000000, 104.000000)">
                    <path d="M259.493567,119.767251 L259.493567,144.718713 L254.503509,144.718713 C251.489474,144.703509 248.509942,145.402339 245.820468,146.764912 L239.532749,119.767836 L259.493567,119.767836 L259.493567,119.767251 Z" id="Shape" fill="#C4304C"></path>
                    <polygon id="Shape" fill="#FF4848" points="169.669006 199.611111 154.698246 214.581871 144.717544 214.581871 129.746784 199.611111 149.708187 179.650292"></polygon>
                    <path d="M19.9614035,119.767251 L4.99064327,119.767251 L4.99064327,69.8649123 L49.902924,69.8649123 L49.902924,99.8064327 L29.9421053,99.8064327 C27.1877193,99.8064327 24.9520468,102.042105 24.9520468,104.796491 C24.9467836,105.879532 25.2964912,106.927485 25.9502924,107.790643 L28.9444444,111.783041 C30.5964912,113.988889 30.1520468,117.117544 27.9461988,118.769591 C27.0877193,119.423392 26.0350877,119.772515 24.9520468,119.767836 L19.9614035,119.767836 L19.9614035,119.767251 Z" id="Shape" fill="#109344"></path>
                    <polygon id="Shape" fill="#FF4848" points="154.698246 214.581871 169.669006 294.425731 129.746784 294.425731 144.717544 214.581871"></polygon>
                    <path d="M49.902924,144.718129 L49.7532164,145.316959 C48.171345,144.917544 46.5444444,144.712865 44.9128655,144.718129 L19.9614035,144.718129 L19.9614035,154.69883 L4.99064327,154.69883 L4.99064327,119.767251 L24.951462,119.767251 C26.0345029,119.772515 27.0824561,119.422807 27.945614,118.769006 C30.151462,117.116959 30.5953216,113.988304 28.9438596,111.782456 L25.9497076,107.790058 C25.2959064,106.931579 24.9467836,105.878947 24.951462,104.795906 C24.951462,102.04152 27.1871345,99.805848 29.9415205,99.805848 L49.9023392,99.805848 L49.9023392,144.718129 L49.902924,144.718129 Z" id="Shape" fill="#109344"></path>
                    <path d="M245.820468,146.764327 C248.509942,145.401754 251.489474,144.703509 254.503509,144.718129 L279.454971,144.717904 L279.454971,159.688889 C279.454971,167.957895 272.753216,174.659649 264.484211,174.659649 L234.542685,174.659649 L234.54269,164.678947 C234.537427,157.034503 238.923977,150.062573 245.820468,146.764327 Z" id="Shape" fill="#FFCBA8"></path>
                    <polygon id="Shape" fill="#FFE168" points="294.425146 84.8350877 294.425146 129.747368 259.493567 119.767251 259.493567 94.8157895"></polygon>
                    <path d="M234.542105,204.501754 L234.542105,174.660234 L264.483626,174.660234 L264.483626,294.426316 L234.542105,294.426316 L234.542105,209.591813 C234.542105,207.895322 234.442105,206.148538 234.292398,204.501754 L234.542105,204.501754 Z" id="Shape" fill="#005795"></path>
                    <rect id="Rectangle-path" fill="#FF4848" x="239.532749" y="94.8157895" width="19.9608187" height="24.951462"></rect>
                    <path d="M214.581287,294.425731 L169.669006,294.425731 L169.669006,159.688888 L184.639766,159.688889 C210.234503,159.683626 231.683041,179.040936 234.292982,204.50117 C234.44269,206.147953 234.54269,207.894737 234.54269,209.591228 L234.54269,294.425731 L214.581287,294.425731 Z" id="Shape" fill="#005795"></path>
                    <g id="Group" transform="translate(104.678363, 5.263158)" fill="#FFCBA8">
                        <path d="M99.9222222,69.5918129 C105.426316,69.6070175 109.887719,74.0678363 109.902924,79.5725146 C109.863158,85.0666667 105.416959,89.5128655 99.9222222,89.5532164 L89.9415205,89.5532164 L89.9415205,69.5923977 L99.9222222,69.5923977 L99.9222222,69.5918129 Z" id="Shape"></path>
                        <path d="M25.0684211,136.560819 C9.9877193,130.447953 0.122222222,115.806433 0.116959064,99.5333333 L0.116959064,54.6210526 L5.10701754,54.6210526 C35.2730994,54.6362573 59.7953216,30.2935673 60,0.12748538 L60,29.6695906 C60,46.2070175 73.4040936,59.6111111 89.9415205,59.6111111 L89.9415205,99.5333333 C89.9362573,115.806433 80.0707602,130.447953 64.9900585,136.560819 C60.2292398,138.467251 55.1491228,139.450292 50.0192982,139.454971 L40.0385965,139.454971 C34.9093567,139.450292 29.8292398,138.467251 25.0684211,136.560819 Z M69.9807018,72.0865497 C69.9807018,67.954386 66.6274854,64.6011696 62.4953216,64.6011696 C58.3631579,64.6011696 55.0099415,67.954386 55.0099415,72.0865497 C55.0099415,76.2187135 58.3631579,79.5719298 62.4953216,79.5719298 C66.6274854,79.5719298 69.9807018,76.2233918 69.9807018,72.0865497 Z M35.0491228,72.0865497 C35.0491228,67.954386 31.6959064,64.6011696 27.5637427,64.6011696 C23.4315789,64.6011696 20.0783626,67.954386 20.0783626,72.0865497 C20.0783626,76.2187135 23.4315789,79.5719298 27.5637427,79.5719298 C31.6959064,79.5719298 35.0491228,76.2233918 35.0491228,72.0865497 Z" id="Shape"></path>
                    </g>
                    <path d="M194.620468,39.922807 L194.620505,64.874269 C178.083041,64.874269 164.678947,51.4701754 164.678947,34.9327485 L164.678947,5.39064327 C181.875439,7.82573099 194.645614,22.5567251 194.620468,39.922807 Z" id="Shape" fill="#603C2F"></path>
                    <g id="Group" transform="translate(149.707602, 159.649123)" fill="#F5F5F5">
                        <polygon id="Shape" points="19.9614035 39.9619883 19.9614035 134.776608 4.99064327 54.9327485"></polygon>
                        <polygon id="Shape" points="19.9614035 0.0397660819 19.9614035 39.9619883 0.000584795322 20.0011696"></polygon>
                    </g>
                    <path d="M129.746784,159.688889 L129.746784,141.823977 C134.507602,143.730409 139.587719,144.71345 144.717544,144.718129 L154.698246,144.718129 C159.82807,144.712865 164.908187,143.729825 169.669006,141.823977 L169.669006,159.688889 L149.708187,179.649708 L129.747368,161.584795 L129.747368,159.688889 L129.746784,159.688889 Z" id="Shape" fill="#FFCBA8"></path>
                    <g id="Group" transform="translate(104.678363, 4.678363)" fill="#603C2F">
                        <circle id="Oval" cx="62.4953216" cy="72.671345" r="7.48538012"></circle>
                        <path d="M55.0099415,0.312865497 C56.6818713,0.292982456 58.3532164,0.42748538 60,0.712280702 C59.7953216,30.8783626 35.2730994,55.225731 5.10701754,55.205848 L0.116959064,55.2058601 L0.116959064,35.2444444 C0.116959064,15.9520468 15.7561404,0.312865497 35.048538,0.312865497 L55.0099415,0.312865497 Z" id="Shape"></path>
                    </g>
                    <g id="Group" transform="translate(129.239766, 161.403509)" fill="#F5F5F5">
                        <polygon id="Shape" points="20.4684211 18.2467836 0.507017544 38.2076023 0.507017544 0.181871345"></polygon>
                        <polygon id="Shape" points="15.4777778 53.1783626 0.507017544 133.022222 0.507017544 38.2076023"></polygon>
                    </g>
                    <circle id="Oval" fill="#603C2F" cx="132.242105" cy="77.3497076" r="7.48538012"></circle>
                    <path d="M84.8345029,294.425731 L64.8736842,294.426316 L64.8736842,209.591813 C64.8736842,207.895322 64.9736842,206.148538 65.1233918,204.501754 C67.7333333,179.04152 89.1812865,159.684211 114.776608,159.689474 L129.747368,159.689473 L129.747368,294.426316 L84.8345029,294.426316 L84.8345029,294.425731 Z" id="Shape" fill="#005795"></path>
                    <path d="M104.795906,74.8549708 L104.795906,94.8157895 L94.8152047,94.8157895 C89.3210526,94.7760234 84.8748538,90.3298246 84.8345029,84.8350877 C84.8497076,79.3309942 89.3105263,74.8695906 94.8152047,74.854386 L104.795906,74.854386 L104.795906,74.8549708 Z" id="Shape" fill="#FFCBA8"></path>
                    <path d="M64.8736842,204.501754 L65.1233918,204.501754 C64.9736842,206.148538 64.8736842,207.895322 64.8736842,209.591813 L64.8736842,294.426316 L34.9321637,294.426316 L34.9321637,174.660234 L64.8736842,174.660234 L64.8736842,204.501754 Z" id="Shape" fill="#005795"></path>
                    <path d="M64.8736842,164.679532 L64.8736842,174.660234 L34.9321637,174.660234 C26.6631579,174.660234 19.9614035,167.95848 19.9614035,159.689474 L19.9614035,144.718614 L44.9128655,144.718713 C46.5444444,144.71345 48.171345,144.918129 49.7532164,145.317544 C58.6409357,147.538012 64.8736842,155.522222 64.8736842,164.679532 Z" id="Shape" fill="#FFCBA8"></path>
                    <path d="M159.688304,109.78655 L144.717544,109.78655 C141.963158,109.78655 139.727485,107.550877 139.727485,104.796491 L139.727485,79.8450292 L149.708187,79.8450292 L149.708187,99.805848 L159.688889,99.805848 L159.688889,109.78655 L159.688304,109.78655 Z" id="Shape" fill="#EBB691"></path>
                    <g id="Group" transform="translate(79.532164, 204.093567)" fill="#004475">
                        <rect id="Rectangle-path" x="0.312280702" y="0.507602339" width="9.98070175" height="89.8245614"></rect>
                        <rect id="Rectangle-path" x="130.059064" y="0.507602339" width="9.98070175" height="89.8245614"></rect>
                    </g>
                    <rect id="Rectangle-path" fill="#FFE168" x="224.561988" y="99.805848" width="14.9707602" height="9.98070175"></rect>
                    <path d="M24.951462,124.75731 L19.9614035,124.75731 L19.9614035,114.776608 L24.951462,114.776608 L21.9573099,110.784211 C18.648538,106.373099 19.5421053,100.119883 23.9532164,96.8116959 C25.680117,95.5192982 27.7807018,94.8157895 29.9415205,94.8157895 L34.9315789,94.8157895 L34.9315789,104.796491 L29.9415205,104.796491 L32.9356725,108.788889 C36.2444444,113.2 35.3508772,119.453216 30.9397661,122.761404 C29.2134503,124.05848 27.1122807,124.75731 24.951462,124.75731 Z" id="Shape" fill="#0B6B32"></path>
                    <path d="M149.708187,130.77076 L149.663158,130.77076 C142.726901,130.785965 136.074854,128.016374 131.199415,123.085965 L138.275439,116.049708 C141.284795,119.093567 145.38655,120.800585 149.663158,120.790643 C153.969591,120.805848 158.101754,119.094152 161.140936,116.039766 L168.197076,123.095906 C163.306433,128.015789 156.649708,130.780702 149.708187,130.77076 Z" id="Shape" fill="#EBB691"></path>
                    <circle id="Oval" fill="#000000" cx="167.173684" cy="77.3497076" r="7.48538012"></circle>
                    <circle id="Oval" fill="#000000" cx="132.242105" cy="77.3497076" r="7.48538012"></circle>
                    <path d="M139.727485,79.8450292 L139.727485,104.796491 C139.727485,107.550877 141.963158,109.78655 144.717544,109.78655 L159.688304,109.78655 L159.688304,99.805848 L149.707602,99.805848 L149.707602,79.8450292 L139.727485,79.8450292 Z" id="Shape" fill="#000000"></path>
                    <path d="M293.053216,80.0397661 L258.795322,89.825731 L239.532749,89.825731 C236.778363,89.825731 234.54269,92.0614035 234.54269,94.8157895 L234.54269,99.805848 L224.561988,99.805848 L224.561988,109.78655 L234.54269,109.78655 L234.54269,119.767251 C234.572515,120.146784 234.647368,120.515789 234.767251,120.874854 L234.672515,120.874854 L240.126901,144.353801 C233.51462,149.01462 229.577778,156.590058 229.552632,164.678947 L229.552632,177.997661 C219.287719,163.361404 202.520468,154.65848 184.640351,154.698246 L174.659649,154.698246 L174.659649,144.907602 C189.945029,137.387135 199.621053,121.827485 199.611111,104.795906 L199.611111,99.805848 L204.60117,99.805848 C212.850292,99.7660819 219.532164,93.0842105 219.57193,84.8350877 C219.57193,76.5660819 212.870175,69.8643275 204.60117,69.8643275 L199.611111,69.8643275 L199.611111,39.922807 C199.566082,20.1865497 185.119298,3.43918129 165.602339,0.5 C163.650877,0.150877193 161.670175,-0.0140350877 159.688889,0.00116959064 L139.72807,0.00116959064 C117.691228,0.0263157895 99.8309942,17.8859649 99.805848,39.9233918 L99.805848,69.8649123 L94.8157895,69.8649123 C86.5467836,69.8649123 79.8450292,76.5666667 79.8450292,84.8356725 C79.8847953,93.0847953 86.5666667,99.7666667 94.8157895,99.8064327 L99.805848,99.8064327 L99.805848,104.796491 C99.8005848,121.82807 109.477193,137.383041 124.75731,144.902924 L124.75731,154.69883 L114.776608,154.69883 C96.8964912,154.663743 80.1245614,163.366667 69.8643275,178.01345 L69.8643275,164.679532 C69.8842105,154.749123 64.0005848,145.756725 54.8935673,141.804094 L54.8935673,69.8643275 C54.8935673,67.1099415 52.6578947,64.874269 49.9035088,64.874269 L4.99122807,64.874269 C2.23684211,64.874269 0.00116959064,67.1099415 0.00116959064,69.8643275 L0.00116959064,154.69883 C0.00116959064,157.453216 2.23684211,159.688889 4.99122807,159.688889 L14.9719298,159.688889 C15.0017544,168.766082 21.1549708,176.680702 29.9426901,178.951462 L29.9426901,294.425731 C29.9426901,297.180117 32.1783626,299.415789 34.9327485,299.415789 L264.484211,299.415789 C267.238596,299.415789 269.474269,297.180117 269.474269,294.425731 L269.474269,178.951462 C278.261988,176.680702 284.409942,168.771345 284.445029,159.69883 L284.445029,144.72807 C284.445029,141.973684 282.209357,139.738012 279.454971,139.738012 L264.484211,139.738012 L264.484211,126.384211 L293.053216,134.538012 C295.702924,135.296491 298.467836,133.764327 299.221053,131.11462 C299.350877,130.67076 299.415789,130.211111 299.415789,129.747368 L299.415789,84.8350877 C299.415789,82.0807018 297.180117,79.8450292 294.425731,79.8450292 C293.961404,79.8497076 293.497076,79.9146199 293.053216,80.0397661 Z M244.522807,99.805848 L254.503509,99.805848 L254.503509,114.776608 L244.522807,114.776608 L244.522807,99.805848 Z M134.737427,211.65731 L139.328655,216.248538 L134.737427,240.730994 L134.737427,211.65731 Z M136.803509,199.611111 L149.708187,186.706433 L162.612865,199.611111 L151.170175,211.053801 C150.242105,211.981871 149.718129,213.234503 149.708187,214.546784 C149.698246,213.234503 149.174269,211.981871 148.246199,211.053801 L136.803509,199.611111 Z M156.764327,179.650292 L164.678947,171.735673 L164.678947,187.564912 L156.764327,179.650292 Z M134.737427,187.564327 L134.737427,172.82807 L142.472515,179.81462 L134.737427,187.564327 Z M149.623392,215.509942 C149.678363,215.210526 149.708187,214.911111 149.708187,214.606433 C149.708187,214.905848 149.738012,215.205263 149.792982,215.499415 L163.680702,289.435088 L135.78538,289.435088 L149.623392,215.509942 Z M160.102924,216.25848 L164.694152,211.667251 L164.694152,240.730409 L160.102924,216.25848 Z M204.600585,79.8450292 C207.354971,79.8450292 209.590643,82.0807018 209.590643,84.8350877 C209.595906,86.177193 209.04152,87.4649123 208.063743,88.3883041 C207.155556,89.3216374 205.902924,89.8403509 204.600585,89.825731 L199.610526,89.825731 L199.610526,79.8450292 L204.600585,79.8450292 Z M189.629825,39.922807 L189.629825,59.3847953 C178.022222,56.9994152 169.683626,46.7842105 169.669006,34.9327485 L169.669006,11.7777778 C181.585965,16.019883 189.570175,27.2725146 189.629825,39.922807 Z M109.785965,39.922807 C109.80117,23.3953216 123.2,9.99649123 139.727485,9.98128655 L159.433918,9.98128655 C156.894152,35.4912281 135.421053,54.9134503 109.785965,54.8935825 L109.785965,39.922807 Z M94.8152047,89.825731 C93.4730994,89.8309942 92.1853801,89.2766082 91.2619883,88.2988304 C90.3339181,87.3906433 89.8099415,86.1380117 89.8245614,84.8356725 C89.8245614,82.0812865 92.0602339,79.845614 94.8146199,79.845614 L99.8046784,79.845614 L99.8046784,89.8263158 L94.8152047,89.8263158 L94.8152047,89.825731 Z M109.785965,104.796491 L109.785965,64.874269 C125.680117,64.9192982 140.930409,58.6064327 152.138012,47.3432749 C155.017544,44.4491228 157.597076,41.2748538 159.838012,37.8619883 C161.215205,54.0403509 173.561404,67.1350877 189.629825,69.4654971 L189.629825,104.796491 C189.659649,119.038596 181.021637,131.868421 167.807602,137.192982 C163.640936,138.864912 159.189474,139.722807 154.698246,139.72807 L144.717544,139.72807 C140.231579,139.722807 135.790058,138.869591 131.623392,137.202924 C118.404094,131.883626 109.75614,119.048538 109.785965,104.796491 Z M134.737427,148.540936 C138.011111,149.299415 141.359649,149.693567 144.718129,149.708772 L154.69883,149.708772 C158.05731,149.693567 161.405848,149.299415 164.679532,148.540936 L164.679532,157.623392 L149.539181,172.763743 L134.738012,159.374854 L134.738012,148.540936 L134.737427,148.540936 Z M19.9614035,139.72807 C17.2070175,139.72807 14.971345,141.963743 14.971345,144.718129 L14.971345,149.708187 L9.98128655,149.708187 L9.98128655,74.854386 L44.9128655,74.854386 L44.9128655,139.727485 L19.9614035,139.727485 L19.9614035,139.72807 Z M24.951462,159.688889 L24.951462,149.708187 L44.9122807,149.708187 C46.1397661,149.708187 47.3625731,149.857895 48.5549708,150.162573 C55.2269006,151.809357 59.9076023,157.807602 59.8830409,164.678947 L59.8831371,169.669006 L34.9321637,169.669006 C29.422807,169.669591 24.951462,165.203509 24.951462,159.688889 Z M39.9222222,179.650292 L59.8830409,179.650292 L59.8830409,204.601754 L60.122807,204.601754 C59.9883041,206.233333 59.8830409,207.930409 59.8830409,209.591813 L59.8830409,289.435673 L39.9222222,289.435673 L39.9222222,179.650292 Z M69.8637427,209.591813 C69.8637427,208.045029 69.9584795,206.453216 70.0883041,205.005848 C72.3690058,182.060819 91.7157895,164.6 114.776023,164.679532 L124.756725,164.679262 L124.756725,289.435673 L89.8251462,289.435673 L89.8251462,204.60117 L79.8444444,204.60117 L79.8444444,289.435673 L69.8637427,289.435673 L69.8637427,209.591813 Z M229.552047,289.435673 L219.571345,289.435673 L219.571345,204.60117 L209.590643,204.60117 L209.590643,289.435673 L174.659064,289.435673 L174.659064,164.679224 L184.639766,164.679532 C207.684795,164.594737 227.022222,182.020468 229.322222,204.950877 C229.456725,206.447953 229.552047,208.045029 229.552047,209.591813 L229.552047,289.435673 Z M259.493567,289.435673 L239.532749,289.435673 L239.532749,209.591813 C239.532749,207.915205 239.422807,206.193567 239.283041,204.507018 L239.532749,204.507018 L239.532749,179.650292 L259.493567,179.650292 L259.493567,289.435673 Z M274.464327,159.688889 C274.464327,165.202924 269.998246,169.669591 264.483626,169.669591 L239.532164,169.669591 L239.532164,164.679532 C239.552047,159.584211 242.167251,154.853801 246.468421,152.12924 L251.883041,150.891813 L251.683626,150.028655 C252.611696,149.82924 253.554971,149.723977 254.502924,149.709357 L274.463743,149.709357 L274.463743,159.688889 L274.464327,159.688889 Z M249.418129,140.27193 L245.815205,124.75731 L254.503509,124.75731 L254.503509,139.72807 C252.796491,139.732749 251.090058,139.917544 249.418129,140.27193 Z M289.435088,123.130409 L264.483626,116.004094 L264.483626,98.5783626 L289.435088,91.4520468 L289.435088,123.130409 Z" id="Shape" fill="#000000"></path>
                    <path d="M19.9614035,104.796491 C19.9561404,106.95731 20.6602339,109.057895 21.9573099,110.784795 L24.951462,114.777193 L19.9614035,114.777193 L19.9613742,124.757895 L24.951462,124.757895 C30.4654971,124.757895 34.9321637,120.291813 34.9321637,114.777193 C34.9321637,112.616374 34.2333333,110.515789 32.9362573,108.788889 L29.9421053,104.796491 L34.9321637,104.796491 L34.9321637,94.8157895 L29.9421053,94.8157895 C24.4327485,94.8157895 19.9614035,99.2871345 19.9614035,104.796491 Z" id="Shape" fill="#000000"></path>
                    <path d="M149.708187,130.77076 C156.654386,130.785965 163.321637,128.021053 168.222222,123.095906 L161.166082,116.039766 C158.126901,119.093567 153.995322,120.805263 149.688304,120.790643 C145.411696,120.800585 141.309942,119.094152 138.300585,116.049708 L131.224561,123.085965 C136.1,128.016374 142.752047,130.785965 149.688304,130.77076 L149.708187,130.77076 Z" id="Shape" fill="#000000"></path>
                </g>
            </g>
        </g>
    </g>
</svg>