<?xml version="1.0" encoding="UTF-8"?>
<svg width="58px" height="69px" viewBox="0 0 58 69" version="1.1" xmlns="http://www.w3.org/2000/svg" xmlns:xlink="http://www.w3.org/1999/xlink">
    <!-- Generator: Sketch 50.2 (55047) - http://www.bohemiancoding.com/sketch -->
    <title>apple</title>
    <desc>Created with Sketch.</desc>
    <defs></defs>
    <g id="Page-2" stroke="none" stroke-width="1" fill="none" fill-rule="evenodd">
        <g id="Microsoft-Surface-Hub" transform="translate(-1441.000000, -419.000000)" fill="#F5F5F5" fill-rule="nonzero" stroke="#000000" stroke-width="2">
            <g id="apple" transform="translate(1442.000000, 420.000000)">
                <g id="Group" transform="translate(0.740234, 0.730469)">
                    <path d="M52.5186719,24.5203906 C41.6790234,13.0402344 32.4825781,21.2369531 27.9693359,21.2369531 C23.4598047,21.2369531 9.97277344,11.3614062 1.7753125,29.034375 C-3.71761719,40.8722656 6.47039062,57.4438281 8.54109375,60.20625 C16.6057031,70.9523828 22.8549219,63.4896875 28.4888672,63.4896875 C35.9515625,63.4896875 42.6282813,74.8867188 54.3815625,49.6278516 C47.6603125,45.6074219 45.2333594,41.5016406 45.2333594,36.3330469 C45.2326172,31.1666797 48.5294141,27.3132422 52.5186719,24.5203906 Z" id="Shape"></path>
                    <path d="M40.3460547,0 C34.6200781,0.50171875 26.8412109,5.88628906 27.2033984,14.713125 C33.84375,15.4953906 41.7332031,7.38328125 40.3460547,0 Z" id="Shape"></path>
                </g>
            </g>
        </g>
    </g>
</svg>