<svg height="1028.001pt" viewBox="0 0 1028.001 1028.001" width="1028.001pt" xmlns="http://www.w3.org/2000/svg"><path d="m205.601562 119.933594h616.796876c18.925781 0 34.269531 15.339844 34.269531 34.265625v719.601562c0 18.925781-15.34375 34.265625-34.269531 34.265625h-616.796876c-18.925781 0-34.269531-15.339844-34.269531-34.265625v-719.601562c0-18.925781 15.34375-34.265625 34.269531-34.265625zm0 0" fill="#e6e7e8"/><path d="m171.332031 942.332031c0 37.851563 30.683594 68.535157 68.535157 68.535157h548.265624c37.851563 0 68.53125-30.683594 68.53125-68.535157v-34.265625h-685.332031zm376.933594 17.136719" fill="#414042"/><path d="m787.617188 531.132812h.515624v-17.132812c0 5.824219-.171874 11.480469-.515624 17.132812zm0 0" fill="#414042"/><path d="m788.132812 17.132812h-548.265624c-37.851563 0-68.53125 30.683594-68.53125 68.53125v34.269532h685.332031v-34.265625c0-37.851563-30.683594-68.535157-68.535157-68.535157zm0 0" fill="#414042"/><path d="m873.800781 633.933594c0 18.925781-15.34375 34.265625-34.269531 34.265625-18.921875 0-34.265625-15.339844-34.265625-34.265625 0-18.925782 15.34375-34.269532 34.265625-34.269532 18.925781 0 34.269531 15.34375 34.269531 34.269532zm0 0" fill="#ffeb99"/><path d="m873.800781 771-34.269531-102.800781-34.265625 102.800781zm0 0" fill="#ffeb99"/><path d="m788.132812 514c0 151.398438-122.734374 274.132812-274.132812 274.132812s-274.132812-122.734374-274.132812-274.132812 122.734374-274.132812 274.132812-274.132812 274.132812 122.734374 274.132812 274.132812zm0 0" fill="#006c70"/><g fill="#33dfe5"><path d="m584.882812 398.574219c23.953126-8.738281 46.050782-21.890625 65.15625-38.773438-37.507812-33.242187-85.921874-51.535156-136.039062-51.402343 29.484375 0 55.476562 35.757812 70.882812 90.175781zm0 0"/><path d="m514 308.398438c-50.117188-.132813-98.53125 18.160156-136.039062 51.402343 19.089843 16.878907 41.171874 30.027344 65.105468 38.773438 15.457032-54.417969 41.449219-90.175781 70.933594-90.175781zm0 0"/><path d="m443.117188 398.574219c-23.953126-8.738281-46.050782-21.890625-65.15625-38.773438-44.269532 39.011719-69.613282 95.191407-69.5625 154.199219h119.933593c-.324219-38.96875 4.648438-77.800781 14.785157-115.425781zm0 0"/><path d="m428.332031 514h-119.933593c-.050782 59.007812 25.292968 115.1875 69.5625 154.199219 19.089843-16.878907 41.171874-30.027344 65.105468-38.773438-10.121094-37.628906-15.078125-76.460937-14.734375-115.425781zm0 0"/><path d="m443.117188 629.425781c-23.953126 8.738281-46.050782 21.890625-65.15625 38.773438 37.507812 33.242187 85.921874 51.535156 136.039062 51.402343-29.484375 0-55.476562-35.757812-70.882812-90.175781zm0 0"/><path d="m514 719.601562c50.117188.132813 98.53125-18.160156 136.039062-51.402343-19.089843-16.878907-41.171874-30.027344-65.105468-38.773438-15.457032 54.417969-41.449219 90.175781-70.933594 90.175781zm0 0"/><path d="m702.46875 531.132812h16.445312c.515626-5.652343.6875-11.308593.6875-17.132812h-119.933593c.324219 38.96875-4.648438 77.800781-14.785157 115.425781 23.953126 8.738281 46.050782 21.890625 65.15625 38.773438 6.390626-5.707031 12.453126-11.769531 18.160157-18.160157v-84.640624c0-18.921876 15.34375-34.265626 34.269531-34.265626zm0 0"/><path d="m443.117188 398.574219c45.753906 16.835937 96.007812 16.835937 141.761718 0-15.402344-54.417969-41.394531-90.175781-70.878906-90.175781s-55.476562 35.757812-70.882812 90.175781zm0 0"/><path d="m443.117188 629.425781c45.753906-16.835937 96.007812-16.835937 141.761718 0 10.140625-37.625 15.113282-76.457031 14.789063-115.425781h-171.335938c-.324219 38.96875 4.648438 77.800781 14.785157 115.425781zm0 0"/><path d="m584.882812 629.425781c-45.753906-16.835937-96.007812-16.835937-141.761718 0 15.402344 54.417969 41.394531 90.175781 70.878906 90.175781s55.476562-35.757812 70.882812-90.175781zm0 0"/><path d="m514 411.199219c-24.1875 0-48.183594-4.273438-70.882812-12.625-10.136719 37.625-15.109376 76.457031-14.785157 115.425781h171.332031c.328126-38.96875-4.644531-77.800781-14.785156-115.425781-22.695312 8.351562-46.691406 12.625-70.878906 12.625zm0 0"/><path d="m599.667969 514h119.933593c.050782-59.007812-25.292968-115.1875-69.5625-154.199219-19.089843 16.878907-41.171874 30.027344-65.105468 38.773438 10.121094 37.628906 15.078125 76.460937 14.734375 115.425781zm0 0"/></g><path d="m976.601562 531.132812h-274.132812c-18.925781 0-34.269531 15.34375-34.269531 34.265626v274.132812h342.667969v-274.132812c0-18.921876-15.34375-34.265626-34.265626-34.265626zm-102.800781 239.867188h-68.535156l34.269531-102.800781c-18.925781 0-34.269531-15.339844-34.269531-34.265625 0-18.925782 15.34375-34.269532 34.269531-34.269532 18.925782 0 34.265625 15.34375 34.265625 34.269532 0 18.925781-15.34375 34.265625-34.269531 34.265625zm0 0" fill="#ff9811"/><path d="m788.132812 514v-119.933594c0-9.460937 7.671876-17.132812 17.132813-17.132812h68.535156c9.460938 0 17.132813 7.671875 17.132813 17.132812v137.066406h51.398437v-137.066406c0-37.847656-30.683593-68.53125-68.53125-68.53125h-68.535156c-37.847656 0-68.53125 30.683594-68.53125 68.53125v137.066406h50.886719c.339844-5.652343.511718-11.308593.511718-17.132812zm0 0" fill="#ffeb99"/><path d="m771 171.332031h34.265625v34.269531h-34.265625zm0 0"/><path d="m702.46875 171.332031h34.265625v34.269531h-34.265625zm0 0"/><path d="m633.933594 171.332031h34.265625v34.269531h-34.265625zm0 0"/><path d="m222.734375 171.332031h34.265625v34.269531h-34.265625zm0 0"/><path d="m548.265625 942.332031h-68.53125c-9.460937 0-17.132813 7.671875-17.132813 17.132813 0 9.464844 7.671876 17.132812 17.132813 17.132812h68.53125c9.464844 0 17.132813-7.667968 17.132813-17.132812 0-9.460938-7.667969-17.132813-17.132813-17.132813zm0 0"/><path d="m976.601562 514h-17.132812v-119.933594c-.058594-47.289062-38.378906-85.609375-85.667969-85.667968v-222.730469c-.058593-47.289063-38.378906-85.6093752-85.667969-85.667969h-548.265624c-47.289063.0585938-85.609376 38.378906-85.667969 85.667969v291.265625h34.269531v-239.867188h651.066406v171.332032h-34.269531c-23.3125.007812-45.605469 9.570312-61.679687 26.457031-98.953126-126.828125-281.984376-149.421875-408.808594-50.464844-126.824219 98.953125-149.417969 281.984375-50.464844 408.808594 87.09375 111.625 241.839844 144.453125 366.753906 77.800781v68.53125c0 9.464844 7.671875 17.132812 17.132813 17.132812h171.332031v34.269532h-651.0625v-239.867188h-34.269531v291.269532c.058593 47.285156 38.378906 85.609374 85.667969 85.664062h548.265624c47.289063-.054688 85.609376-38.378906 85.667969-85.664062v-85.667969h137.066407c9.464843 0 17.132812-7.671875 17.132812-17.132813v-274.136718c0-28.386719-23.011719-51.398438-51.398438-51.398438zm-788.132812-411.199219v-17.132812c0-28.386719 23.011719-51.402344 51.398438-51.402344h548.265624c28.386719 0 51.402344 23.015625 51.402344 51.402344v17.132812zm599.664062 890.933594h-548.265624c-28.386719 0-51.398438-23.015625-51.398438-51.402344v-17.132812h651.066406v17.132812c-.003906 28.390625-23.015625 51.402344-51.402344 51.402344zm17.132813-651.066406h68.535156c28.386719 0 51.398438 23.011719 51.398438 51.398437v119.933594h-17.132813v-119.933594c0-18.925781-15.339844-34.265625-34.265625-34.265625h-68.535156c-18.921875 0-34.265625 15.339844-34.265625 34.265625v119.933594h-17.132812v-119.933594c0-28.386718 23.011718-51.398437 51.398437-51.398437zm68.535156 171.332031h-68.535156v-119.933594h68.535156zm-257.378906-17.132812c-.769531-29.707032-4.488281-59.265626-11.101563-88.238282 15.484376-6.941406 30.117188-15.644531 43.605469-25.9375 30.089844 30.914063 48.660157 71.214844 52.613281 114.175782zm-170.597656 0c.828125-25.703126 4.011719-51.277344 9.511719-76.398438 38.40625 10.484375 78.921874 10.484375 117.328124 0 5.5 25.121094 8.683594 50.695312 9.507813 76.398438zm136.351562 34.265624c-.828125 25.703126-4.011719 51.277344-9.511719 76.398438-38.40625-10.484375-78.921874-10.484375-117.328124 0-5.5-25.121094-8.683594-50.695312-9.507813-76.398438zm13.394531-155.585937c-4.703124-13.546875-10.75-26.589844-18.058593-38.929687 15.898437 5.667968 30.953125 13.46875 44.753906 23.183593-8.441406 5.988281-17.371094 11.253907-26.695313 15.746094zm-32.261718 11.992187c-32.285156 8.773438-66.332032 8.773438-98.617188 0 13.328125-38.480468 31.882813-62.007812 49.308594-62.007812s35.980469 23.527344 49.3125 61.957031zm-130.878906-11.992187c-9.324219-4.492187-18.253907-9.757813-26.695313-15.746094 13.796875-9.71875 28.855469-17.519531 44.75-23.183593-7.304687 12.339843-13.351563 25.382812-18.054687 38.929687zm-53.355469 7.144531c13.492187 10.292969 28.121093 18.996094 43.605469 25.9375-6.613282 28.972656-10.332032 58.53125-11.101563 88.238282h-85.117187c3.953124-42.960938 22.523437-83.261719 52.613281-114.175782zm32.503906 148.441406c.769531 29.707032 4.488281 59.265626 11.101563 88.238282-15.484376 6.941406-30.117188 15.644531-43.605469 25.9375-30.089844-30.914063-48.660157-71.214844-52.613281-114.175782zm20.851563 121.320313c4.703124 13.546875 10.75 26.589844 18.058593 38.929687-15.898437-5.667968-30.953125-13.46875-44.753906-23.183593 8.441406-5.988281 17.371094-11.253907 26.695313-15.746094zm32.261718-11.992187c32.285156-8.773438 66.332032-8.773438 98.617188 0-13.328125 38.480468-31.882813 62.007812-49.308594 62.007812s-35.980469-23.527344-49.3125-61.957031zm130.878906 11.992187c9.324219 4.492187 18.253907 9.757813 26.695313 15.746094-13.796875 9.71875-28.855469 17.519531-44.75 23.183593 7.304687-12.339843 13.351563-25.382812 18.054687-38.929687zm55.496094-87.054687v77.597656c-.71875.753906-1.492187 1.472656-2.226562 2.226562-13.472656-10.25-28.074219-18.921875-43.519532-25.851562 6.613282-28.972656 10.332032-58.53125 11.101563-88.238282h47.972656c-8.542969 9.371094-13.292969 21.585938-13.328125 34.265626zm-137.066406 205.601562c-141.9375.027344-257.023438-115.015625-257.050781-256.949219-.023438-141.941406 115.015625-257.023437 256.953125-257.050781 83.894531-.015625 162.515625 40.917969 210.613281 109.652344-3.144531 8.804687-4.804687 18.066406-4.914063 27.414062v34.96875c-46.941406-113.703125-177.171874-167.824218-290.875-120.882812-113.703124 46.941406-167.824218 177.167968-120.882812 290.871094 46.941406 113.707031 177.167969 167.828124 290.871094 120.886718 18.761718-7.746094 36.375-18.019531 52.351562-30.53125v41.976563c-41.023437 25.90625-88.546875 39.652343-137.066406 39.644531zm479.734375 51.398438h-308.402344v-257c0-9.460938 7.671875-17.132813 17.132813-17.132813h274.136718c9.460938 0 17.132813 7.671875 17.132813 17.132813zm0 0"/><path d="m890.933594 633.933594c.09375-28.386719-22.84375-51.476563-51.230469-51.570313s-51.476563 22.84375-51.570313 51.230469c-.066406 19.90625 11.371094 38.058594 29.351563 46.597656l-28.460937 85.410156c-2.980469 8.984376 1.882812 18.679688 10.867187 21.660157 1.734375.574219 3.546875.871093 5.375.871093h68.535156c9.460938-.007812 17.128907-7.683593 17.121094-17.144531-.003906-1.835937-.300781-3.660156-.878906-5.402343l-28.457031-85.390626c17.867187-8.488281 29.28125-26.476562 29.347656-46.261718zm-51.402344-17.132813c9.464844 0 17.132812 7.671875 17.132812 17.132813 0 9.460937-7.667968 17.132812-17.132812 17.132812-9.460938 0-17.132812-7.671875-17.132812-17.132812 0-9.460938 7.671874-17.132813 17.132812-17.132813zm-10.484375 137.066407 10.488281-31.492188 10.484375 31.492188zm0 0"/><path d="m0 428.332031h34.265625v34.269531h-34.265625zm0 0"/><path d="m51.398438 428.332031h154.203124v34.269531h-154.203124zm0 0"/><path d="m0 496.867188h34.265625v34.265624h-34.265625zm0 0"/><path d="m51.398438 496.867188h154.203124v34.265624h-154.203124zm0 0"/><path d="m0 565.398438h34.265625v34.269531h-34.265625zm0 0"/><path d="m51.398438 565.398438h154.203124v34.269531h-154.203124zm0 0"/></svg>