<?xml version="1.0" encoding="iso-8859-1"?>
<!-- Generator: Adobe Illustrator 19.0.0, SVG Export Plug-In . SVG Version: 6.00 Build 0)  -->
<svg version="1.1" id="Capa_1" xmlns="http://www.w3.org/2000/svg" xmlns:xlink="http://www.w3.org/1999/xlink" x="0px" y="0px"
	 viewBox="0 0 495.829 495.829" style="enable-background:new 0 0 495.829 495.829;" xml:space="preserve">
<circle style="fill:#F16051;" cx="195.491" cy="211.454" r="195.491"/>
<path style="fill:#FFFFFF;" d="M162.133,472.884h326.594V140.86L162.133,472.884z M423.564,406.945H318.836L424.339,299.89v107.055
	H423.564z"/>
<path style="fill:#193651;" d="M489.503,479.866h-327.37c-3.103,0-5.43-1.552-6.982-4.655c-0.776-2.327-0.776-5.43,1.552-7.758
	L483.297,135.43c2.327-2.327,5.43-2.327,7.758-1.552c2.327,0.776,4.655,3.879,4.655,6.982v332.024
	C496.485,476.763,493.382,479.866,489.503,479.866z M179.2,465.127h302.545v-307.2L179.2,465.127z M423.564,414.702H318.836
	c-3.103,0-5.43-1.552-6.982-4.655c-0.776-2.327-0.776-5.43,1.552-7.758l105.503-107.055c2.327-2.327,5.43-2.327,7.758-1.552
	c2.327,0.776,4.655,3.879,4.655,6.982V407.72C431.321,410.823,428.218,414.702,423.564,414.702z M335.903,399.963h81.455v-82.23
	L335.903,399.963z"/>
<path style="fill:#E1E6E9;" d="M231.176,444.181L460.8,210.678v233.503H231.176z"/>
<path style="fill:#FFFFFF;" d="M423.564,406.945H318.836L424.339,299.89v107.055H423.564z"/>
<path style="fill:#193651;" d="M423.564,414.702H318.836c-3.103,0-5.43-1.552-6.982-4.655c-0.776-2.327-0.776-5.43,1.552-7.758
	l105.503-107.055c2.327-2.327,5.43-2.327,7.758-1.552c2.327,0.776,4.655,3.879,4.655,6.982V407.72
	C431.321,410.823,428.218,414.702,423.564,414.702z M335.903,399.963h81.455v-82.23L335.903,399.963z"/>
<path style="fill:#FFFFFF;" d="M244.364,74.145h-128c-13.188,0-24.048,10.861-24.048,24.048V340.23
	c0,13.188,10.861,24.048,24.048,24.048H301.77c13.188,0,24.048-10.861,24.048-24.048v-184.63L244.364,74.145z"/>
<path style="fill:#193651;" d="M301.77,371.26H116.364c-17.067,0-31.03-13.964-31.03-31.03V98.193
	c0-17.067,13.964-31.03,31.03-31.03h128c1.552,0,3.879,0.776,5.43,2.327l81.455,81.455c1.552,1.552,2.327,3.103,2.327,5.43v184.63
	C332.8,357.296,318.836,371.26,301.77,371.26z M116.364,81.127c-9.309,0-16.291,7.758-16.291,16.291v242.036
	c0,9.309,7.758,16.291,16.291,16.291H301.77c9.309,0,16.291-7.758,16.291-16.291V158.702l-77.576-77.576H116.364z"/>
<path style="fill:#4FBF9F;" d="M243.588,81.902v54.303c0,12.412,10.085,22.497,22.497,22.497h53.527L243.588,81.902z"/>
<g>
	<path style="fill:#193651;" d="M166.788,272.739c-1.552,0-3.879-0.776-5.43-2.327l-27.927-27.927
		c-3.103-3.103-3.103-6.982,0-10.085c3.103-3.103,6.982-3.103,10.085,0l20.945,20.945l24.824-45.77
		c1.552-2.327,3.879-3.879,6.206-3.879h84.558c3.879,0,6.982,3.103,6.982,6.982c0,3.879-3.103,6.982-6.982,6.982h-79.903
		l-27.152,50.424c-0.776,2.327-3.103,3.103-5.43,3.879C166.788,272.739,166.788,272.739,166.788,272.739z"/>
	<path style="fill:#193651;" d="M240.485,271.187l-28.703-28.703c-3.103-3.103-3.103-6.982,0-10.085s6.982-3.103,10.085,0
		l28.703,28.703c3.103,3.103,3.103,6.982,0,10.085C247.467,274.29,242.812,274.29,240.485,271.187z"/>
	<path style="fill:#193651;" d="M211.782,271.187c-3.103-3.103-3.103-6.982,0-10.085l28.703-28.703
		c3.103-3.103,6.982-3.103,10.085,0c3.103,3.103,3.103,6.982,0,10.085l-28.703,28.703
		C218.764,274.29,214.885,274.29,211.782,271.187z"/>
	<path style="fill:#193651;" d="M209.455,132.327h-90.764c-3.879,0-6.982-3.103-6.982-6.982s3.103-6.982,6.982-6.982h90.764
		c3.879,0,6.982,3.103,6.982,6.982S213.333,132.327,209.455,132.327z"/>
	<path style="fill:#193651;" d="M175.321,168.011h-55.855c-3.879,0-6.982-3.103-6.982-6.982c0-3.879,3.103-6.982,6.982-6.982h55.855
		c3.879,0,6.982,3.103,6.982,6.982C182.303,164.908,179.2,168.011,175.321,168.011z"/>
</g>
<g>
	<rect x="162.909" y="313.078" style="fill:#193651;" width="14.739" height="14.739"/>
	<rect x="201.697" y="313.078" style="fill:#193651;" width="14.739" height="14.739"/>
	<rect x="241.261" y="313.078" style="fill:#193651;" width="14.739" height="14.739"/>
</g>
<g>
</g>
<g>
</g>
<g>
</g>
<g>
</g>
<g>
</g>
<g>
</g>
<g>
</g>
<g>
</g>
<g>
</g>
<g>
</g>
<g>
</g>
<g>
</g>
<g>
</g>
<g>
</g>
<g>
</g>
</svg>
