<?xml version="1.0" encoding="iso-8859-1"?>
<!-- Generator: Adobe Illustrator 19.0.0, SVG Export Plug-In . SVG Version: 6.00 Build 0)  -->
<svg version="1.1" id="Layer_1" xmlns="http://www.w3.org/2000/svg" xmlns:xlink="http://www.w3.org/1999/xlink" x="0px" y="0px"
	 viewBox="0 0 511.999 511.999" style="enable-background:new 0 0 511.999 511.999;" xml:space="preserve">
<polygon style="fill:#213847;" points="374.174,327.186 350.127,351.233 335.11,366.24 296.962,327.186 335.563,288.152 
	350.403,303.159 "/>
<path style="fill:#324A5E;" d="M374.174,327.186l-24.047,24.047l-5.213-5.337c-10.143-10.385-10.09-26.982,0.116-37.304l5.372-5.433
	L374.174,327.186z"/>
<polygon style="fill:#D1AB0D;" points="501.793,433.94 463.448,472.285 441.391,494.352 322.023,373.576 381.727,313.213 
	410.018,341.662 "/>
<path style="fill:#F8CE19;" d="M501.793,433.94l-38.345,38.345l-53.451-54.071c-20.965-21.221-20.955-55.351,0.02-76.552
	l17.932,18.03L501.793,433.94z"/>
<path style="fill:#F9D84E;" d="M489.147,420.254l-0.193,0.193c-9.409,9.409-24.66,9.419-34.082,0.023l-26.811-26.739
	c-9.405-9.379-9.454-24.598-0.111-34.039l0,0L489.147,420.254z"/>
<path style="fill:#D1AB0D;" d="M370.392,187.504c0,95.291-77.251,172.543-172.543,172.543c-36.031,0-69.492-11.049-97.172-29.945
	c-45.504-31.068-75.37-83.347-75.37-142.597c0-95.291,77.251-172.543,172.543-172.543c51.914,0,98.462,22.924,130.091,59.201
	C354.381,104.482,370.392,144.117,370.392,187.504z"/>
<path style="fill:#F8CE19;" d="M370.392,187.504c0,95.291-77.251,172.543-172.543,172.543c-36.031,0-69.492-11.049-97.172-29.945
	c-26.44-30.32-42.451-69.964-42.451-113.341c0-95.291,77.251-172.543,172.543-172.543c36.041,0,69.501,11.049,97.172,29.945
	C354.381,104.482,370.392,144.117,370.392,187.504z"/>
<circle style="fill:#F9D84E;" cx="212.276" cy="195.653" r="129.038"/>
<path style="fill:#AEB9CC;" d="M318.734,187.504c0,66.764-54.12,120.884-120.884,120.884c-42.648,0-80.136-22.087-101.653-55.44
	c-12.171-18.867-19.232-41.329-19.232-65.444c0-66.764,54.12-120.884,120.884-120.884c29.364,0,56.287,10.468,77.232,27.887
	C301.757,116.683,318.734,150.104,318.734,187.504z"/>
<path style="fill:#C8D0E2;" d="M294.333,159.981c0,66.764-54.12,120.884-120.884,120.884c-29.374,0-56.306-10.477-77.251-27.917
	c-12.171-18.867-19.232-41.329-19.232-65.444c0-66.764,54.12-120.884,120.884-120.884c29.364,0,56.287,10.468,77.232,27.887
	C287.262,113.374,294.333,135.855,294.333,159.981z"/>
<path style="fill:#C62E1E;" d="M279.332,229.151c0,11.344-9.197,20.551-20.551,20.551c-8.606,0-15.972-5.288-19.025-12.792
	c-0.985-2.393-1.526-5.012-1.526-7.76c0-11.354,9.197-20.561,20.551-20.561c1.605,0,3.171,0.187,4.668,0.542
	C272.548,211.239,279.332,219.402,279.332,229.151z"/>
<path style="fill:#EF4C35;" d="M264.975,216.901c0,11.354-9.207,20.551-20.561,20.551c-1.605,0-3.161-0.187-4.658-0.542
	c-0.985-2.393-1.526-5.012-1.526-7.76c0-11.354,9.197-20.561,20.551-20.561c1.605,0,3.171,0.187,4.668,0.542
	C264.434,211.524,264.975,214.153,264.975,216.901z"/>
<path style="fill:#579E2E;" d="M422.137,88.665c0,11.344-9.197,20.551-20.551,20.551c-8.606,0-15.972-5.288-19.025-12.792
	c-0.985-2.393-1.526-5.012-1.526-7.76c0-11.354,9.197-20.561,20.551-20.561c1.605,0,3.171,0.187,4.668,0.542
	C415.353,70.753,422.137,78.916,422.137,88.665z"/>
<path style="fill:#75BF4D;" d="M407.78,76.415c0,11.354-9.207,20.551-20.561,20.551c-1.605,0-3.161-0.187-4.658-0.542
	c-0.985-2.393-1.526-5.012-1.526-7.76c0-11.354,9.197-20.561,20.551-20.561c1.605,0,3.171,0.187,4.668,0.542
	C407.239,71.038,407.78,73.667,407.78,76.415z"/>
<path style="fill:#C62E1E;" d="M45.858,324.698c0,11.344-9.197,20.551-20.551,20.551c-8.606,0-15.972-5.288-19.025-12.792
	c-0.985-2.393-1.526-5.012-1.526-7.76c0-11.354,9.197-20.561,20.551-20.561c1.605,0,3.171,0.187,4.668,0.542
	C39.074,306.786,45.858,314.949,45.858,324.698z"/>
<path style="fill:#EF4C35;" d="M31.501,312.448c0,11.354-9.207,20.551-20.561,20.551c-1.605,0-3.161-0.187-4.658-0.542
	c-0.985-2.393-1.526-5.012-1.526-7.76c0-11.354,9.197-20.561,20.551-20.561c1.605,0,3.171,0.187,4.668,0.542
	C30.96,307.071,31.501,309.701,31.501,312.448z"/>
<path style="fill:#579E2E;" d="M173.516,196.302c0,11.344-9.197,20.551-20.551,20.551c-8.606,0-15.972-5.288-19.025-12.792
	c-0.985-2.393-1.526-5.012-1.526-7.76c0-11.354,9.197-20.561,20.551-20.561c1.605,0,3.171,0.187,4.668,0.542
	C166.732,178.39,173.516,186.554,173.516,196.302z"/>
<path style="fill:#75BF4D;" d="M159.159,184.052c0,11.354-9.207,20.551-20.561,20.551c-1.605,0-3.161-0.187-4.658-0.542
	c-0.985-2.393-1.526-5.012-1.526-7.76c0-11.354,9.197-20.561,20.551-20.561c1.605,0,3.171,0.187,4.668,0.542
	C158.618,178.676,159.159,181.305,159.159,184.052z"/>
<path d="M289.527,95.794c-24.497-24.496-57.065-37.988-91.709-37.988s-67.213,13.491-91.71,37.988
	c-50.567,50.568-50.567,132.849,0,183.418c24.497,24.496,57.066,37.988,91.71,37.988s67.212-13.491,91.709-37.988
	c24.496-24.496,37.987-57.066,37.987-91.709C327.514,152.86,314.023,120.291,289.527,95.794z M197.818,302.429
	c-30.698,0-59.558-11.955-81.264-33.661c-4.311-4.311-8.204-8.885-11.686-13.667l33.565-34.793c3.654,1.924,7.81,3.018,12.218,3.018
	c9.113,0,17.157-4.657,21.882-11.714l59.173,18.567c-0.003,0.171-0.013,0.342-0.013,0.514c0,14.513,11.807,26.321,26.321,26.321
	c14.513,0,26.321-11.808,26.321-26.321c0-4.472-1.125-8.685-3.1-12.377l31.508-30.811c-0.001,30.697-11.955,59.556-33.662,81.262
	C257.375,290.474,228.515,302.429,197.818,302.429z M279.081,106.239c17.132,17.131,28.183,38.721,32.082,62.151l-40.259,39.369
	c-3.813-2.152-8.209-3.385-12.89-3.385c-9.113,0-17.157,4.657-21.882,11.714l-59.173-18.567c0.003-0.171,0.013-0.342,0.013-0.514
	c0-14.513-11.807-26.321-26.321-26.321c-14.513,0-26.321,11.808-26.321,26.321c0,4.744,1.268,9.196,3.474,13.045l-31.047,32.183
	c-23.559-43.556-16.967-99.231,19.796-135.994c21.706-21.706,50.567-33.661,81.264-33.661S257.375,84.533,279.081,106.239z
	 M269.564,230.694c0,6.368-5.182,11.55-11.55,11.55c-6.368,0-11.55-5.182-11.55-11.55s5.182-11.55,11.55-11.55
	C264.382,219.144,269.564,224.325,269.564,230.694z M162.201,197.005c0,6.368-5.182,11.55-11.55,11.55
	c-6.369,0-11.551-5.182-11.551-11.55c0-6.368,5.182-11.55,11.551-11.55C157.019,185.456,162.201,190.637,162.201,197.005z"/>
<path d="M225.913,107.29l4.859-13.949c-33.777-11.766-71.466-4.555-98.358,18.818l9.69,11.148
	C165.007,103.399,197.12,97.261,225.913,107.29z"/>
<path d="M262.829,111.821c-4.097-3.524-8.505-6.731-13.1-9.529l-7.684,12.615c3.909,2.381,7.661,5.111,11.151,8.113L262.829,111.821
	z"/>
<path d="M166.091,266.357l-5.493,13.711c11.903,4.769,24.478,7.179,37.146,7.179c6.935,0,13.897-0.723,20.79-2.176l-3.047-14.454
	C198.868,274.12,181.789,272.646,166.091,266.357z"/>
<path d="M382.834,306.165l-10.724,10.724l-26.606-28.439c31.49-46.031,39.071-103.617,22.735-155.212l21.109-20.643
	c3.713,2.006,7.96,3.146,12.468,3.146c14.513,0,26.321-11.808,26.321-26.321c0-4.298-1.042-8.355-2.877-11.943l45.316-44.313v22.904
	h14.771V8.227h-47.84v14.771h22.338l-44.718,43.728c-3.908-2.301-8.456-3.628-13.31-3.628c-14.513,0-26.321,11.808-26.321,26.321
	c0,4.644,1.214,9.008,3.334,12.8l-16.178,15.82c-8.709-20.74-21.482-40.164-38.344-57.026c-69.748-69.747-183.232-69.745-252.979,0
	C9.198,123.144,2.415,219.981,50.974,289.691l-12.436,12.891c-3.654-1.924-7.81-3.018-12.218-3.018
	C11.807,299.563,0,311.371,0,325.884c0,14.513,11.807,26.321,26.321,26.321s26.321-11.808,26.321-26.321
	c0-4.745-1.268-9.196-3.475-13.045l10.865-11.263c3.54,4.27,7.298,8.417,11.296,12.416c34.874,34.873,80.682,52.309,126.49,52.309
	c35.164,0,70.324-10.288,100.542-30.838l26.669,28.507l-11.09,11.09l129.164,128.713l68.897-68.895L382.834,306.165z M390.266,89.42
	c0-6.368,5.182-11.55,11.55-11.55c6.368,0,11.55,5.182,11.55,11.55c0,6.368-5.182,11.55-11.55,11.55
	C395.448,100.97,390.266,95.788,390.266,89.42z M37.87,325.884c0,6.368-5.182,11.55-11.55,11.55s-11.55-5.182-11.55-11.55
	s5.182-11.55,11.55-11.55S37.87,319.515,37.87,325.884z M81.773,303.548c-63.987-63.987-63.987-168.101,0-232.09
	c31.993-31.994,74.018-47.989,116.044-47.989s84.052,15.997,116.045,47.989c63.987,63.987,63.987,168.102,0,232.09
	C249.877,367.534,145.758,367.534,81.773,303.548z M310.298,326.602c4.835-3.915,9.514-8.115,14.01-12.61
	c4.344-4.344,8.416-8.858,12.218-13.519l25.135,26.865l-26.181,26.181L310.298,326.602z M443.086,482.902L334.848,375.041
	l48.006-48.006l108.238,107.86L443.086,482.902z"/>
<polygon points="361.709,369.613 372.155,380.058 382.845,369.367 423.611,410.133 434.055,399.689 382.845,348.478 "/>
<rect x="439.59" y="415.283" transform="matrix(-0.7071 0.7071 -0.7071 -0.7071 1062.1573 406.086)" width="14.771" height="15.481"/>
<rect x="80.028" y="373.868" width="14.771" height="16.093"/>
<rect x="80.028" y="464.068" width="14.771" height="16.093"/>
<rect x="201.68" y="404.906" width="14.771" height="16.092"/>
<rect x="413.366" y="272.058" width="14.771" height="16.093"/>
<rect x="430.125" y="143.887" width="14.771" height="16.093"/>
<rect x="479.076" y="211.754" width="14.771" height="16.093"/>
<g>
</g>
<g>
</g>
<g>
</g>
<g>
</g>
<g>
</g>
<g>
</g>
<g>
</g>
<g>
</g>
<g>
</g>
<g>
</g>
<g>
</g>
<g>
</g>
<g>
</g>
<g>
</g>
<g>
</g>
</svg>
