<?xml version="1.0"?>
<svg xmlns="http://www.w3.org/2000/svg" viewBox="0 0 64 64" width="512" height="512"><path d="m7 61h50a4 4 0 0 0 4-4h-58a4 4 0 0 0 4 4z" fill="#d9d9d9"/><g fill="#f7ba41"><circle cx="8" cy="8" r="2"/><circle cx="59" cy="11" r="2"/><circle cx="50" cy="5" r="2"/><circle cx="33" cy="11" r="2"/></g><path d="m8 23h48v34h-48z" fill="#d9d9d9"/><path d="m12 27h40v26h-40z" fill="#41bdf7"/><path d="m40 32h-11v-4a1 1 0 0 1 1-1h9a4 4 0 0 0 -4-4h-6a4 4 0 0 0 -4 4v5h-1a3 3 0 0 0 -3 3v10a3 3 0 0 0 3 3h16a3 3 0 0 0 3-3v-10a3 3 0 0 0 -3-3z" fill="#f7ba41"/><path d="m24 27v4a4 4 0 0 0 -4 4v10a4 4 0 0 0 4 4h16a4 4 0 0 0 4-4v-10a4 4 0 0 0 -4-4h-1v2h1a2 2 0 0 1 2 2v10a2 2 0 0 1 -2 2h-16a2 2 0 0 1 -2-2v-10a2 2 0 0 1 2-2h12v-2h-6v-3h4v-2h-4a2 2 0 0 0 -2 2v3h-2v-4a3 3 0 0 1 3-3h6a3 3 0 0 1 3 3h2a5.006 5.006 0 0 0 -5-5h-6a5.006 5.006 0 0 0 -5 5z"/><path d="m35 38v-2a1 1 0 0 0 -1-1h-1v-1h-2v1h-1a1 1 0 0 0 -1 1v4a1 1 0 0 0 1 1h3v2h-2v-1h-2v2a1 1 0 0 0 1 1h4a1 1 0 0 0 1-1v-4a1 1 0 0 0 -1-1h-3v-2h2v1z"/><path d="m42 28h9v24h-38v-24h9v-2h-10a1 1 0 0 0 -1 1v26a1 1 0 0 0 1 1h40a1 1 0 0 0 1-1v-26a1 1 0 0 0 -1-1h-10z"/><path d="m61 56h-58a1 1 0 0 0 -1 1 5.006 5.006 0 0 0 5 5h50a5.006 5.006 0 0 0 5-5 1 1 0 0 0 -1-1zm-4 4h-50a3.006 3.006 0 0 1 -2.829-2h55.658a3.006 3.006 0 0 1 -2.829 2z"/><path d="m7 23v31h2v-30h13v-2h-14a1 1 0 0 0 -1 1z"/><path d="m42 24h13v30h2v-31a1 1 0 0 0 -1-1h-14z"/><path d="m11 8a3 3 0 1 0 -4 2.816v4.184a1 1 0 0 0 1 1h5v4h2v-5a1 1 0 0 0 -1-1h-5v-3.184a3 3 0 0 0 2-2.816zm-3-1a1 1 0 1 1 -1 1 1 1 0 0 1 1-1z"/><path d="m59 8a2.99 2.99 0 0 0 -1.8 5.385l-1.614 1.615h-7.586a1 1 0 0 0 -1 1v4h2v-3h7a1 1 0 0 0 .707-.293l2.754-2.754a2.994 2.994 0 0 0 -.461-5.953zm0 4a1 1 0 1 1 1-1 1 1 0 0 1 -1 1z"/><path d="m42.5 13.132a1 1 0 0 0 -.5.868v6h2v-5.42l6.5-3.712a1 1 0 0 0 .5-.868v-2.184a3 3 0 1 0 -2 0v1.6zm7.5-9.132a1 1 0 1 1 -1 1 1 1 0 0 1 1-1z"/><path d="m15 2v7a1 1 0 0 0 .375.781l4.625 3.699v6.52h2v-7a1 1 0 0 0 -.375-.781l-4.625-3.699v-6.52z"/><path d="m20 4v3a1 1 0 0 0 .375.781l4.625 3.699v5.52h2v-6a1 1 0 0 0 -.375-.781l-4.625-3.699v-2.52z"/><path d="m39.165 5.986a1 1 0 0 0 .835-.986v-3h-2v2.153l-5.165.861a1 1 0 0 0 -.835.986v2.184a2.982 2.982 0 0 0 0 5.632v2.184a1 1 0 0 0 .757.97l3.243.811v2.219h2v-3a1 1 0 0 0 -.757-.97l-3.243-.811v-1.4a2.982 2.982 0 0 0 0-5.632v-1.34zm-6.165 6.014a1 1 0 1 1 1-1 1 1 0 0 1 -1 1z"/></svg>
