<svg height="512pt" viewBox="0 0 512 512" width="512pt" xmlns="http://www.w3.org/2000/svg"><path d="m460.800781 358.398438s-8.535156 51.203124-51.199219 51.203124c-4.335937.050782-8.648437-.554687-12.800781-1.792968-31.660156-8.789063-38.402343-49.410156-38.402343-49.410156-25.597657-17.066407 0-34.132813 0-34.132813-.039063-13.585937 5.371093-26.617187 15.019531-36.179687 6.410156-6.519532 14.503906-11.128907 23.382812-13.3125 4.171875-1.132813 8.476563-1.707032 12.800781-1.707032 28.257813.042969 51.15625 22.941406 51.199219 51.199219 0 0 25.597657 17.066406 0 34.132813zm0 0" fill="#c7b292"/><path d="m503.464844 486.398438h-187.730469c0-25.597657 17.066406-51.199219 42.664063-51.199219 13.144531 0 19.542968-18.089844 22.613281-35.582031h57.175781c3.070312 17.492187 9.472656 35.582031 22.613281 35.582031 25.597657 0 42.664063 25.601562 42.664063 51.199219zm0 0" fill="#c7b292"/><path d="m435.199219 358.398438s-6.742188 40.621093-38.398438 49.410156c-31.660156-8.789063-38.402343-49.410156-38.402343-49.410156-25.597657-17.066407 0-34.132813 0-34.132813-.039063-13.585937 5.371093-26.617187 15.019531-36.179687 6.410156-6.519532 14.503906-11.128907 23.382812-13.3125 8.875 2.183593 16.96875 6.792968 23.378907 13.3125 9.652343 9.5625 15.0625 22.59375 15.019531 36.179687 0 0 25.601562 17.066406 0 34.132813zm0 0" fill="#ffe1bb"/><path d="m477.867188 486.398438h-162.132813c0-25.597657 17.066406-51.199219 42.664063-51.199219 13.144531 0 19.542968-18.089844 22.613281-35.582031h31.574219c3.074218 17.492187 9.472656 35.582031 22.613281 35.582031 25.601562 0 42.667969 25.601562 42.667969 51.199219zm0 0" fill="#ffe1bb"/><path d="m439.585938 406.757812c-17.207032 15.019532-42.867188 15.019532-60.074219 0 .511719-2.398437 1.023437-4.863281 1.449219-7.261718 16.730468 13.324218 40.445312 13.324218 57.175781 0 .425781 2.425781.9375 4.863281 1.449219 7.261718zm0 0" fill="#cbb292"/><path d="m76.800781 8.535156h358.398438c9.425781 0 17.066406 7.640625 17.066406 17.066406v153.597657c0 9.425781-7.640625 17.066406-17.066406 17.066406h-358.398438c-9.425781 0-17.066406-7.640625-17.066406-17.066406v-153.597657c0-9.425781 7.640625-17.066406 17.066406-17.066406zm0 0" fill="#388c41"/><path d="m76.800781 8.535156h332.800781c9.425782 0 17.066407 7.640625 17.066407 17.066406v153.597657c0 9.425781-7.640625 17.066406-17.066407 17.066406h-332.800781c-9.425781 0-17.066406-7.640625-17.066406-17.066406v-153.597657c0-9.425781 7.640625-17.066406 17.066406-17.066406zm0 0" fill="#5ab563"/><path d="m93.867188 42.667969h324.265624v119.464843h-324.265624zm0 0" fill="#96c65c"/><path d="m341.332031 102.398438c0 47.128906-38.203125 85.335937-85.332031 85.335937s-85.332031-38.207031-85.332031-85.335937c0-47.125 38.203125-85.332032 85.332031-85.332032s85.332031 38.207032 85.332031 85.332032zm0 0" fill="#96c65c"/><path d="m102.398438 409.601562c42.667968 0 51.203124-51.203124 51.203124-51.203124 25.597657-17.066407 0-34.132813 0-34.132813 0-28.277344-22.925781-51.199219-51.203124-51.199219-28.277344 0-51.199219 22.921875-51.199219 51.199219 0 0-25.597657 17.066406 0 34.132813 0 0 8.535156 51.203124 51.199219 51.203124zm0 0" fill="#ffe1bb"/><path d="m130.988281 399.617188c3.070313 17.492187 9.46875 35.582031 22.613281 35.582031 25.597657 0 42.664063 25.601562 42.664063 51.199219h-187.730469c0-25.597657 17.066406-51.199219 42.664063-51.199219 13.140625 0 19.542969-18.089844 22.613281-35.582031" fill="#ffe1bb"/><path d="m196.265625 486.398438h-187.730469c0-25.597657 17.066406-51.199219 42.664063-51.199219.484375.015625.972656-.011719 1.453125-.085938 13.613281 10.195313 30.273437 15.488281 47.273437 15.019531 17.542969.53125 34.707031-5.148437 48.46875-16.042968 1.628907.757812 3.410157 1.136718 5.207031 1.109375 25.597657 0 42.664063 25.601562 42.664063 51.199219zm0 0" fill="#00c3d8"/><path d="m132.386719 406.757812c-8.222657 7.429688-18.960938 11.453126-30.039063 11.265626-11.078125.1875-21.8125-3.835938-30.035156-11.265626.511719-2.398437 1.023438-4.863281 1.449219-7.261718 8.039062 6.621094 18.171875 10.164062 28.585937 9.992187 10.414063.171875 20.546875-3.371093 28.585938-9.992187.429687 2.425781.941406 4.863281 1.453125 7.261718zm0 0" fill="#cbb292"/><path d="m503.464844 486.398438h-25.597656c.691406-20.066407-10.191407-38.746094-27.988282-48.042969 2.007813-1.273438 3.917969-2.699219 5.714844-4.265625 1.628906.757812 3.410156 1.136718 5.207031 1.109375 25.597657 0 42.664063 25.601562 42.664063 51.199219zm0 0" fill="#00909c"/><path d="m477.867188 486.398438h-162.132813c-.503906-18.925782 9.039063-36.710938 25.085937-46.761719h.085938c5.367188-2.921875 11.382812-4.445313 17.492188-4.4375.488281.015625.972656-.011719 1.453124-.085938 9.984376 7.707031 21.867188 12.574219 34.386719 14.082031 4.269531.621094 8.574219.933594 12.886719.9375 15.089844.292969 29.941406-3.796874 42.753906-11.777343 17.796875 9.296875 28.679688 27.976562 27.988282 48.042969zm0 0" fill="#00c3d8"/><path d="m256 443.734375c42.667969 0 51.199219-51.199219 51.199219-51.199219 25.601562-17.070312 0-34.136718 0-34.136718 0-28.277344-22.921875-51.199219-51.199219-51.199219s-51.199219 22.921875-51.199219 51.199219c0 0-25.601562 17.066406 0 34.136718 0 0 8.53125 51.199219 51.199219 51.199219zm0 0" fill="#ffe1bb"/><path d="m284.585938 433.75c3.074218 17.492188 9.472656 35.582031 22.613281 35.582031 11.515625-.695312 22.777343 3.578125 30.933593 11.734375s12.429688 19.417969 11.734376 30.933594h-187.734376c-.695312-11.515625 3.578126-22.777344 11.734376-30.933594s19.417968-12.429687 30.933593-11.734375c13.140625 0 19.539063-18.089843 22.613281-35.582031" fill="#ffe1bb"/><path d="m349.867188 512h-187.734376c-.695312-11.515625 3.578126-22.777344 11.734376-30.933594s19.417968-12.429687 30.933593-11.734375c.484375.019531.96875-.011719 1.449219-.085937 13.613281 10.195312 30.273438 15.488281 47.273438 15.019531 17.542968.53125 34.710937-5.148437 48.472656-16.042969 1.628906.761719 3.40625 1.140625 5.203125 1.109375 11.515625-.695312 22.777343 3.578125 30.933593 11.734375s12.429688 19.417969 11.734376 30.933594zm0 0" fill="#00c3d8"/><path d="m285.984375 440.890625c-17.207031 15.019531-42.863281 15.019531-60.074219 0 .511719-2.398437 1.023438-4.863281 1.453125-7.261719 16.726563 13.324219 40.445313 13.324219 57.171875 0 .425782 2.425782.9375 4.863282 1.449219 7.261719zm0 0" fill="#cbb292"/><path d="m256 110.933594c3.441406.011718 6.539062 2.089844 7.855469 5.269531 1.316406 3.179687.59375 6.839844-1.832031 9.28125-3.359376 3.242187-8.6875 3.242187-12.046876 0-3.351562-3.234375-8.675781-3.183594-11.964843.109375-3.289063 3.296875-3.332031 8.617188-.09375 11.964844 2.695312 2.679687 5.960937 4.71875 9.546875 5.972656v10.070312c0 4.710938 3.824218 8.53125 8.535156 8.53125s8.535156-3.820312 8.535156-8.53125v-10.097656c11.714844-4.164062 18.730469-16.15625 16.625-28.410156-2.105468-12.253906-12.726562-21.214844-25.160156-21.226562-3.421875-.027344-6.5-2.097657-7.8125-5.261719-1.3125-3.160157-.609375-6.800781 1.789062-9.246094 3.359376-3.242187 8.6875-3.242187 12.046876 0 2.164062 2.15625 5.316406 2.988281 8.261718 2.191406 2.949219-.796875 5.246094-3.105469 6.03125-6.058593.78125-2.949219-.070312-6.09375-2.234375-8.25-2.691406-2.644532-5.960937-4.632813-9.546875-5.800782v-10.242187c0-4.710938-3.824218-8.53125-8.535156-8.53125s-8.535156 3.820312-8.535156 8.53125v10.242187c-3.585938 1.167969-6.859375 3.152344-9.554688 5.792969-7.320312 7.320313-9.507812 18.328125-5.550781 27.890625 3.960937 9.5625 13.289063 15.800781 23.640625 15.808594zm0 0"/><path d="m460.800781 426.667969c-5.171875 0-10.121093-9.140625-13.304687-24.058594 10.507812-10.882813 17.785156-24.472656 21.027344-39.25 7.273437-4.75 11.8125-12.714844 12.183593-21.394531-.566406-8.621094-4.753906-16.601563-11.527343-21.964844-1.988282-28.007812-23.25-50.828125-51.046876-54.792969v-34.808593c0-4.710938-3.820312-8.53125-8.53125-8.53125h-145.066406v-17.066407h170.664063c14.140625 0 25.601562-11.460937 25.601562-25.601562v-153.597657c0-14.140624-11.460937-25.601562-25.601562-25.601562h-358.398438c-14.140625 0-25.601562 11.460938-25.601562 25.601562v153.597657c0 14.140625 11.460937 25.601562 25.601562 25.601562h170.664063v17.066407h-145.066406c-4.710938 0-8.53125 3.820312-8.53125 8.53125v34.808593c-27.804688 3.949219-49.074219 26.78125-51.046876 54.792969-6.769531 5.363281-10.957031 13.339844-11.527343 21.957031.382812 8.6875 4.9375 16.65625 12.226562 21.402344 3.246094 14.777344 10.523438 28.363281 21.027344 39.25-3.21875 14.917969-8.175781 24.058594-13.347656 24.058594-31.625 0-51.199219 31-51.199219 59.730469 0 4.714843 3.820312 8.535156 8.535156 8.535156h145.738282c-.4375 2.824218-.664063 5.675781-.671876 8.53125 0 4.714844 3.820313 8.535156 8.53125 8.535156h187.734376c4.710937 0 8.53125-3.820312 8.53125-8.535156-.007813-2.855469-.234376-5.707032-.671876-8.53125h145.738282c4.714844 0 8.535156-3.820313 8.535156-8.535156 0-28.730469-19.574219-59.730469-51.199219-59.730469zm-8.535156-102.402344c.015625 2.832031 1.417969 5.476563 3.753906 7.074219 2.503907 1.707031 7.683594 6.546875 7.621094 10.652344 0 3.71875-4.753906 7.429687-7.578125 9.308593-1.945312 1.308594-3.277344 3.359375-3.675781 5.675781-.308594 1.800782-7.960938 44.089844-42.785157 44.089844-34.824218 0-42.480468-42.289062-42.789062-44.074218-.386719-2.324219-1.71875-4.382813-3.675781-5.691407-2.824219-1.878906-7.5625-5.589843-7.578125-9.308593 0-4.105469 5.121094-8.945313 7.578125-10.625 2.371093-1.582032 3.796875-4.246094 3.796875-7.101563 0-23.5625 19.101562-42.664063 42.667968-42.664063 23.5625 0 42.664063 19.101563 42.664063 42.664063zm-51.199219-59.058594c-27.804687 3.949219-49.074218 26.78125-51.046875 54.792969-6.769531 5.363281-10.957031 13.339844-11.527343 21.957031.382812 8.6875 4.9375 16.65625 12.226562 21.402344 3.246094 14.777344 10.523438 28.363281 21.027344 39.25-3.21875 14.917969-8.175782 24.058594-13.347656 24.058594-21 .699219-39.367188 14.355469-46.078126 34.269531-1.640624-.078125-3.300781-.136719-5.121093-.136719-5.171875 0-10.128907-9.148437-13.3125-24.089843 10.363281-10.957032 17.609375-24.480469 20.992187-39.175782 7.304688-4.75 11.867188-12.734375 12.246094-21.4375-.570312-8.617187-4.753906-16.589844-11.519531-21.957031-2.027344-28-23.28125-50.8125-51.070313-54.808594v-60.398437h136.53125zm-168.269531 161.921875c-10.128906-9.652344-16.976563-22.238281-19.574219-35.988281-.390625-2.328125-1.726562-4.390625-3.6875-5.707031-2.824218-1.878906-7.558594-5.589844-7.578125-9.308594 0-4.105469 5.121094-8.945312 7.578125-10.625 2.375-1.582031 3.796875-4.246094 3.796875-7.101562 0-23.5625 19.105469-42.664063 42.667969-42.664063s42.667969 19.101563 42.667969 42.664063c.011719 2.835937 1.417969 5.480468 3.761719 7.074218 2.492187 1.707032 7.636718 6.546875 7.613281 10.652344 0 3.71875-4.753907 7.429688-7.578125 9.308594-1.960938 1.308594-3.289063 3.367187-3.679688 5.691406-2.609375 13.765625-9.472656 26.367188-19.625 36.027344-13.589844 10.746094-32.78125 10.746094-46.371094 0zm23.203125-410.0625c47.128906 0 85.332031 38.207032 85.332031 85.332032 0 47.128906-38.203125 85.335937-85.332031 85.335937s-85.332031-38.207031-85.332031-85.335937c.050781-47.105469 38.226562-85.28125 85.332031-85.332032zm179.199219 0c4.714843 0 8.535156 3.820313 8.535156 8.535156v153.597657c0 4.714843-3.820313 8.535156-8.535156 8.535156h-122.71875c7.28125-4.867187 13.910156-10.644531 19.730469-17.1875.203124 0 .382812.121094.589843.121094h85.332031c4.714844 0 8.535157-3.820313 8.535157-8.535157v-44.800781c0-4.710937-3.820313-8.53125-8.535157-8.53125-4.710937 0-8.53125 3.820313-8.53125 8.53125v36.269531h-65.058593c18.46875-31.636718 18.46875-70.765624 0-102.402343h65.058593v21.335937c0 4.710938 3.820313 8.53125 8.53125 8.53125 4.714844 0 8.535157-3.820312 8.535157-8.53125v-29.867187c0-4.714844-3.820313-8.535157-8.535157-8.535157h-85.332031c-.207031 0-.386719.101563-.589843.121094-5.820313-6.546875-12.449219-12.320312-19.730469-17.1875zm-366.933594 162.132813v-153.597657c0-4.714843 3.820313-8.535156 8.535156-8.535156h122.71875c-7.28125 4.867188-13.910156 10.640625-19.730469 17.1875-.203124-.019531-.382812-.121094-.589843-.121094h-85.332031c-4.714844 0-8.535157 3.820313-8.535157 8.535157v59.730469c0 4.714843 3.820313 8.535156 8.535157 8.535156 4.710937 0 8.53125-3.820313 8.53125-8.535156v-51.199219h65.058593c-27.257812 46.804687-13.183593 106.753906 32.0625 136.535156h-122.71875c-4.714843 0-8.535156-3.820313-8.535156-8.535156zm179.199219 59.734375v60.398437c-27.777344 4.003907-49.023438 26.808594-51.054688 54.800781-6.765625 5.367188-10.949218 13.339844-11.519531 21.957032.375 8.703125 4.929687 16.691406 12.230469 21.445312 3.375 14.695313 10.617187 28.222656 20.972656 39.183594-3.164062 14.933594-8.121094 24.082031-13.292969 24.082031-1.808593 0-3.472656.058594-5.121093.136719-6.710938-19.914062-25.078126-33.570312-46.078126-34.269531-5.171874 0-10.128906-9.140625-13.304687-24.058594 10.503906-10.886719 17.78125-24.472656 21.027344-39.25 7.269531-4.753906 11.804687-12.71875 12.183593-21.394531-.570312-8.621094-4.757812-16.597656-11.527343-21.964844-1.972657-28.011719-23.242188-50.84375-51.046875-54.792969v-26.273437zm-187.851563 118.058594c-.386719-2.324219-1.71875-4.382813-3.675781-5.691407-2.824219-1.878906-7.5625-5.589843-7.578125-9.308593 0-4.105469 5.117187-8.945313 7.578125-10.625 2.371094-1.582032 3.796875-4.246094 3.796875-7.101563 0-23.5625 19.101563-42.664063 42.664063-42.664063 23.566406 0 42.667968 19.101563 42.667968 42.664063.015625 2.835937 1.421875 5.480469 3.761719 7.074219 2.492187 1.707031 7.640625 6.546875 7.613281 10.652344 0 3.71875-4.753906 7.429687-7.578125 9.308593-1.949219 1.308594-3.277343 3.359375-3.675781 5.675781-.308594 1.800782-7.964844 44.089844-42.789062 44.089844-34.824219 0-42.476563-42.289062-42.785157-44.074218zm-8.414062 86.742187c13.203125 0 22.65625-10.378906 28.28125-30.644531 14.539062 6.722656 31.300781 6.722656 45.839843 0 5.625 20.265625 15.078126 30.644531 28.28125 30.644531 12.582032.554687 23.722657 8.300781 28.621094 19.90625-8.523437 2.160156-16.042968 7.183594-21.300781 14.226563h-143.121094c3.019531-17.679688 15.230469-34.132813 33.398438-34.132813zm120.390625 51.199219c.394531-1.648438.992187-3.242188 1.773437-4.746094 2.074219-4.179688 6.570313-9.964844 21.570313-11.792969 3.277344-.375 6.570312-.550781 9.867187-.527343 13.21875 0 22.679688-10.394532 28.296875-30.71875 14.507813 6.8125 31.296875 6.8125 45.804688 0 5.617187 20.324218 15.078125 30.71875 28.296875 30.71875 3.304687-.023438 6.609375.15625 9.890625.535156 14.976562 1.820312 19.472656 7.605468 21.648437 11.949218.75 1.441407 1.324219 2.96875 1.707031 4.546876zm179.453125-17.066406c-5.253907-7.035157-12.757813-12.054688-21.265625-14.226563 4.898437-11.605469 16.039062-19.351563 28.621094-19.90625 13.203124 0 22.65625-10.378906 28.28125-30.644531 14.539062 6.722656 31.300781 6.722656 45.839843 0 5.625 20.265625 15.078125 30.644531 28.28125 30.644531 18.175781 0 30.378907 16.453125 33.398438 34.132813zm0 0"/><path d="m134.398438 153.601562h-32v-6.402343c0-4.710938-3.820313-8.53125-8.53125-8.53125-4.714844 0-8.535157 3.820312-8.535157 8.53125v14.933593c0 4.714844 3.820313 8.535157 8.535157 8.535157h40.53125c4.714843 0 8.535156-3.820313 8.535156-8.535157 0-4.710937-3.820313-8.53125-8.535156-8.53125zm0 0"/></svg>