<?xml version="1.0" encoding="iso-8859-1"?>
<!-- Generator: Adobe Illustrator 19.0.0, SVG Export Plug-In . SVG Version: 6.00 Build 0)  -->
<svg version="1.1" id="Capa_1" xmlns="http://www.w3.org/2000/svg" xmlns:xlink="http://www.w3.org/1999/xlink" x="0px" y="0px"
	 viewBox="0 0 480.119 480.119" style="enable-background:new 0 0 480.119 480.119;" xml:space="preserve">
<path style="fill:#E6E6E6;" d="M423.239,224.119c26.51,0,48-21.49,48-48s-21.49-48-48-48l0,0
	c-10.09,0.001-19.935,3.113-28.192,8.912c2.47-8.758,3.738-17.812,3.768-26.912C397.811,52.716,350.462,6.997,293.06,8.002
	c-45.742,0.801-85.584,31.412-98.141,75.405c-11.148-9.827-25.491-15.262-40.352-15.288c-33.427-0.288-60.761,26.573-61.056,60
	c0.027,7.603,1.53,15.129,4.424,22.16c-9.056-13.856-24.503-22.194-41.056-22.16c-26.51,0-48,21.49-48,48s21.49,48,48,48"/>
<path style="fill:#3B6882;" d="M104.039,312.119h272c8.837,0,16,7.163,16,16v32c0,8.837-7.163,16-16,16h-272
	c-8.837,0-16-7.163-16-16v-32C88.039,319.282,95.203,312.119,104.039,312.119z"/>
<g>
	<path style="fill:#06AAE9;" d="M104.039,408.119h272c8.837,0,16,7.163,16,16v32c0,8.837-7.163,16-16,16h-272
		c-8.837,0-16-7.163-16-16v-32C88.039,415.282,95.203,408.119,104.039,408.119z"/>
	<path style="fill:#06AAE9;" d="M104.039,216.119h272c8.837,0,16,7.163,16,16v32c0,8.837-7.163,16-16,16h-272
		c-8.837,0-16-7.163-16-16v-32C88.039,223.282,95.203,216.119,104.039,216.119z"/>
</g>
<path d="M423.239,120.119c-5.838-0.005-11.642,0.888-17.208,2.648c0.528-4.195,0.795-8.42,0.8-12.648
	C405.792,48.272,354.813-1.023,292.966,0.016c-45.131,0.758-85.397,28.534-102.134,70.455C158.463,50.4,115.954,60.37,95.883,92.738
	c-6.534,10.537-10.106,22.641-10.34,35.037c-8.714-5.031-18.602-7.673-28.664-7.656c-30.928,0-56,25.072-56,56s25.072,56,56,56
	c4.418,0,8-3.582,8-8s-3.582-8-8-8c-22.088-0.359-39.704-18.556-39.345-40.645c0.359-22.088,18.556-39.704,40.645-39.345
	c13.446,0.218,25.882,7.179,33.1,18.525c2.42,3.697,7.378,4.732,11.075,2.313c3.195-2.091,4.467-6.148,3.037-9.689
	c-2.519-6.076-3.834-12.583-3.872-19.16c0.321-28.992,24.048-52.253,53.04-52c12.918,0.051,25.38,4.78,35.08,13.312
	c3.33,2.904,8.384,2.558,11.287-0.772c0.787-0.902,1.361-1.97,1.681-3.124c14.638-50.936,67.796-80.361,118.731-65.723
	c40.442,11.622,68.595,48.236,69.437,90.307c-0.034,8.386-1.205,16.729-3.48,24.8c-1.183,4.257,1.308,8.667,5.565,9.85
	c2.303,0.64,4.772,0.217,6.731-1.154c6.92-4.88,15.181-7.498,23.648-7.496c22.091,0,40,17.909,40,40s-17.909,40-40,40
	c-4.418,0-8,3.582-8,8s3.582,8,8,8c30.928,0,56-25.072,56-56S454.167,120.119,423.239,120.119L423.239,120.119z"/>
<path d="M80.039,360.119c0,13.255,10.745,24,24,24h272c13.255,0,24-10.745,24-24v-32c0-13.255-10.745-24-24-24h-272
	c-13.255,0-24,10.745-24,24V360.119z M96.039,328.119c0-4.418,3.582-8,8-8h272c4.418,0,8,3.582,8,8v32c0,4.418-3.582,8-8,8h-272
	c-4.418,0-8-3.582-8-8V328.119z"/>
<path d="M354.039,359.623c8.562-0.053,15.461-7.037,15.408-15.6c-0.053-8.562-7.037-15.461-15.6-15.408
	c-8.525,0.053-15.408,6.978-15.408,15.503C338.479,352.702,345.456,359.636,354.039,359.623z M354.039,343.623v1
	c-0.24,0-0.4-0.264-0.4-0.504L354.039,343.623z"/>
<path d="M118.439,352.119h152c4.418,0,8-3.582,8-8s-3.582-8-8-8h-152c-4.418,0-8,3.582-8,8S114.021,352.119,118.439,352.119z"/>
<path d="M298.559,352.119h21.28c4.418,0,8-3.582,8-8s-3.582-8-8-8h-21.28c-4.418,0-8,3.582-8,8S294.141,352.119,298.559,352.119z"/>
<path d="M80.039,456.119c0,13.255,10.745,24,24,24h272c13.255,0,24-10.745,24-24v-32c0-13.255-10.745-24-24-24h-272
	c-13.255,0-24,10.745-24,24V456.119z M96.039,424.119c0-4.418,3.582-8,8-8h272c4.418,0,8,3.582,8,8v32c0,4.418-3.582,8-8,8h-272
	c-4.418,0-8-3.582-8-8V424.119z"/>
<path d="M354.039,455.623c8.562-0.053,15.461-7.037,15.408-15.6c-0.053-8.562-7.037-15.461-15.6-15.408
	c-8.525,0.053-15.408,6.978-15.408,15.503C338.479,448.702,345.456,455.636,354.039,455.623z M354.039,439.623v1
	c-0.24,0-0.4-0.264-0.4-0.504L354.039,439.623z"/>
<path d="M118.439,448.119h152c4.418,0,8-3.582,8-8s-3.582-8-8-8h-152c-4.418,0-8,3.582-8,8S114.021,448.119,118.439,448.119z"/>
<path d="M298.559,448.119h21.28c4.418,0,8-3.582,8-8s-3.582-8-8-8h-21.28c-4.418,0-8,3.582-8,8S294.141,448.119,298.559,448.119z"/>
<path d="M80.039,232.119v32c0,13.255,10.745,24,24,24h272c13.255,0,24-10.745,24-24v-32c0-13.255-10.745-24-24-24h-272
	C90.785,208.119,80.039,218.864,80.039,232.119z M384.039,232.119v32c0,4.418-3.582,8-8,8h-272c-4.418,0-8-3.582-8-8v-32
	c0-4.418,3.582-8,8-8h272C380.458,224.119,384.039,227.7,384.039,232.119z"/>
<path d="M351.599,264.119c0.874-0.001,1.746-0.073,2.608-0.216c4.108-0.678,7.769-2.986,10.152-6.4
	c2.383-3.351,3.311-7.522,2.576-11.568c-1.542-8.499-9.681-14.139-18.18-12.597c-4.027,0.73-7.606,3.01-9.972,6.349
	c-2.374,3.352-3.303,7.517-2.576,11.56C337.553,258.693,344.032,264.112,351.599,264.119L351.599,264.119z M351.551,248.119l0.04,1
	c-0.36,0-0.384-0.2-0.4-0.368L351.551,248.119z"/>
<path d="M116.839,256.119h152c4.418,0,8-3.582,8-8s-3.582-8-8-8h-152c-4.418,0-8,3.582-8,8S112.421,256.119,116.839,256.119
	L116.839,256.119z"/>
<path d="M293.447,256.119h21.28c4.418,0,8-3.582,8-8s-3.582-8-8-8h-21.28c-4.418,0-8,3.582-8,8S289.029,256.119,293.447,256.119z"/>
<path d="M176.039,192.119c4.418,0,8-3.582,8-8v-52.688l10.344,10.344c3.178,3.069,8.243,2.981,11.312-0.197
	c2.994-3.1,2.994-8.015,0-11.115l-24-24c-3.124-3.123-8.188-3.123-11.312,0l-24,24c-3.069,3.178-2.981,8.243,0.197,11.312
	c3.1,2.994,8.015,2.994,11.115,0l10.344-10.344v52.688C168.039,188.537,171.621,192.119,176.039,192.119L176.039,192.119z"/>
<path d="M304.039,104.119c-4.418,0-8,3.582-8,8v52.688l-10.344-10.344c-3.178-3.07-8.242-2.982-11.312,0.196
	c-2.994,3.1-2.994,8.015,0,11.116l24,24c3.124,3.123,8.188,3.123,11.312,0l24-24c3.069-3.178,2.982-8.243-0.196-11.312
	c-3.1-2.994-8.015-2.994-11.116,0l-10.344,10.344v-52.688C312.039,107.7,308.458,104.119,304.039,104.119z"/>
<g>
</g>
<g>
</g>
<g>
</g>
<g>
</g>
<g>
</g>
<g>
</g>
<g>
</g>
<g>
</g>
<g>
</g>
<g>
</g>
<g>
</g>
<g>
</g>
<g>
</g>
<g>
</g>
<g>
</g>
</svg>
