<?xml version="1.0" encoding="UTF-8"?>
<svg width="95px" height="95px" viewBox="0 0 95 95" version="1.1" xmlns="http://www.w3.org/2000/svg" xmlns:xlink="http://www.w3.org/1999/xlink">
    <!-- Generator: Sketch 50.2 (55047) - http://www.bohemiancoding.com/sketch -->
    <title>help</title>
    <desc>Created with Sketch.</desc>
    <defs></defs>
    <g id="Page-2" stroke="none" stroke-width="1" fill="none" fill-rule="evenodd">
        <g id="Microsoft-Surface-Hub" transform="translate(-530.000000, -668.000000)" fill-rule="nonzero">
            <g id="fp2" transform="translate(472.000000, 626.000000)">
                <g id="help" transform="translate(58.000000, 42.000000)">
                    <g id="Group" transform="translate(1.851852, 30.740741)" fill="#FFCDAC">
                        <path d="M17.7611111,41.2744444 L11.7161111,34.8411111 C9.77537037,32.7755556 8.695,30.047963 8.695,27.2137037 L8.695,4.43314815 C8.695,2.395 7.27907407,0.630555556 5.28944444,0.188888889 C2.57462963,-0.413518519 0,1.65222222 0,4.43314815 L0,33.1464815 C0,36.502963 1.0437037,39.7764815 2.98685185,42.5135185 L6.28925926,47.1655556 L14.19,58.295 L16.9777778,62.2222222 L38.0405556,62.2222222 L35.0064815,47.7612963 C33.6385185,41.2416667 29.7798148,35.5135185 24.2516667,31.7964815 L17.7737037,27.4407407 C15.8435185,26.142963 13.2509259,26.4738889 11.7087037,28.2148148 C9.99351852,30.1509259 10.0388889,33.0751852 11.8140741,34.9564815 C15.3612963,38.7153704 20.6390741,44.3353704 20.6390741,44.3353704" id="Shape"></path>
                        <path d="M73.35,41.2744444 L79.395,34.8411111 C81.3357407,32.7755556 82.4161111,30.047963 82.4161111,27.2137037 L82.4161111,4.43314815 C82.4161111,2.395 83.832037,0.630555556 85.8216667,0.188888889 C88.5364815,-0.413518519 91.1111111,1.65222222 91.1111111,4.43314815 L91.1111111,33.1464815 C91.1111111,36.502963 90.0674074,39.7764815 88.1242593,42.5135185 L84.8218519,47.1655556 L76.9211111,58.295 L74.1333333,62.2222222 L53.0705556,62.2222222 L56.1046296,47.7612963 C57.4725926,41.2416667 61.3312963,35.5135185 66.8594444,31.7964815 L73.3374074,27.4407407 C75.2675926,26.142963 77.8601852,26.4738889 79.4024074,28.2148148 C81.1175926,30.1509259 81.0722222,33.0751852 79.297037,34.9564815 C75.7498148,38.7153704 70.472037,44.3353704 70.472037,44.3353704" id="Shape"></path>
                    </g>
                    <g id="Group" transform="translate(19.074074, 33.148148)" fill="#7D9BFF">
                        <path d="M32.8031481,6.05203704 C33.6872222,5.13407407 34.8307407,4.45611111 36.1390741,4.14259259 L40.8675926,3.00944444 L40.8696296,3.01259259 L40.8675926,3.00944444 L40.8675926,0.122592593 L46.642037,0.122592593 L46.642037,3.0187037 L51.3583333,4.14537037 C54.4422222,4.88203704 56.617963,7.6387037 56.617963,10.8094444 L56.617963,14.267963 L46.1637037,14.267963 L32.8031481,6.05203704 Z" id="Shape"></path>
                        <path d="M23.887037,6.04259259 C23.002963,5.12462963 21.8594444,4.44666667 20.5511111,4.13314815 L15.8225926,3 L15.8205556,3.00314815 L15.8225926,3 L15.8225926,0.113148148 L10.0481481,0.113148148 L10.0481481,3.00925926 L5.33185185,4.13592593 C2.24796296,4.87259259 0.0722222222,7.62925926 0.0722222222,10.8 L0.0722222222,14.2585185 L10.5264815,14.2585185 L23.887037,6.04259259 Z" id="Shape"></path>
                    </g>
                    <path d="M43.3912963,39.087037 L36.805,40.6653704 C32.5125926,41.6940741 29.4857407,45.532037 29.4857407,49.9459259 L29.4857407,56.605 L65.3290741,56.605 L65.3290741,49.9514815 C65.3290741,45.535 62.2987037,41.6955556 58.0031481,40.6694444 L51.4340741,39.1001852" id="Shape" fill="#78D2FA"></path>
                    <polyline id="Shape" fill="#FFB487" points="51.4338889 35.0661111 51.4338889 39.0998148 47.4146296 48.2407407 43.3912963 39.087037 43.3912963 35.0661111"></polyline>
                    <path d="M56.3955556,21.2131481 L56.3955556,26.7825926 C56.3955556,31.7337037 52.3818519,35.7474074 47.4307407,35.7474074 C42.4796296,35.7474074 38.4659259,31.7337037 38.4659259,26.7825926 L38.4659259,21.2131481" id="Shape" fill="#FFCDAC"></path>
                    <path d="M47.4307407,11.8518519 C42.4796296,11.8518519 38.4659259,15.8655556 38.4659259,20.8166667 L38.4659259,22.9748148 L42.8490741,22.9748148 C45.7627778,22.9748148 48.527037,21.6848148 50.3983333,19.4514815 L56.3955556,22.9748148 L56.3955556,20.8166667 C56.3955556,15.8655556 52.382037,11.8518519 47.4307407,11.8518519 Z" id="Shape" fill="#BEBEBE"></path>
                    <path d="M38.4494444,24.5803704 L38.4494444,23.0309259 C38.4494444,19.4762963 35.5677778,16.5946296 32.0131481,16.5946296 C28.4585185,16.5946296 25.5768519,19.4762963 25.5768519,23.0309259 L25.5768519,24.5803704 L30.0135185,24.5803704 C32.7918519,24.5803704 35.5181481,23.8261111 37.9012963,22.397963" id="Shape" fill="#F5B955"></path>
                    <path d="M38.4494444,23.3155556 L38.4494444,27.3140741 C38.4494444,30.8687037 35.5677778,33.7503704 32.0131481,33.7503704 C28.4585185,33.7503704 25.5768519,30.8687037 25.5768519,27.3140741 L25.5768519,23.3155556" id="Shape" fill="#FFCDAC"></path>
                    <path d="M56.3888889,24.5898148 L56.3888889,23.0403704 C56.3888889,19.4857407 59.2705556,16.6040741 62.8251852,16.6040741 C66.3798148,16.6040741 69.2614815,19.4857407 69.2614815,23.0403704 L69.2614815,24.5898148 L64.8248148,24.5898148 C62.0464815,24.5898148 59.3201852,23.8355556 56.937037,22.4074074" id="Shape" fill="#F5B955"></path>
                    <path d="M56.3888889,23.325 L56.3888889,27.3235185 C56.3888889,30.8781481 59.2705556,33.7598148 62.8251852,33.7598148 C66.3798148,33.7598148 69.2614815,30.8781481 69.2614815,27.3235185 L69.2614815,23.325" id="Shape" fill="#FFCDAC"></path>
                    <path d="M17.5516667,87.9637037 C16.9598148,87.1296296 15.8037037,86.9335185 14.9696296,87.5255556 C14.1357407,88.1175926 13.9394444,89.2735185 14.5316667,90.1075926 L17.3196296,94.0348148 C17.6807407,94.5435185 18.2514815,94.8148148 18.8312963,94.8148148 C19.202037,94.8148148 19.5762963,94.7037037 19.9016667,94.4727778 C20.7355556,93.8807407 20.9318519,92.7248148 20.3396296,91.8907407 L17.5516667,87.9637037 Z" id="Shape" fill="#000000"></path>
                    <path d="M38.6707407,78.1218519 C37.1953704,71.09 33.0990741,65.0096296 27.1368519,61.0005556 L20.6588889,56.6446296 C18.0612963,54.8983333 14.5698148,55.2738889 12.3987037,57.4877778 L12.3987037,35.1737037 C12.3987037,32.2448148 10.4018519,29.7562963 7.54259259,29.1216667 C5.69722222,28.7116667 3.79388889,29.1557407 2.31962963,30.3385185 C0.845555556,31.5212963 0.000185185185,33.2837037 0.000185185185,35.1737037 L0.000185185185,63.887037 C0.000185185185,67.6487037 1.1512963,71.2585185 3.32888889,74.3261111 L6.6312963,78.9781481 C6.99240741,79.4868519 7.56314815,79.7581481 8.14296296,79.7581481 C8.5137037,79.7581481 8.88796296,79.647037 9.21333333,79.4161111 C10.0472222,78.8240741 10.2435185,77.6681481 9.6512963,76.8340741 L6.34888889,72.182037 C4.61851852,69.7444444 3.70388889,66.8761111 3.70388889,63.8868519 L3.70388889,35.1737037 C3.70388889,34.412963 4.04425926,33.7035185 4.63759259,33.2272222 C5.23074074,32.7511111 5.99685185,32.5724074 6.74018519,32.7374074 C7.89111111,32.9927778 8.695,33.9946296 8.695,35.1737037 L8.695,57.9544444 C8.695,61.1792593 9.87981481,64.2516667 12.0322222,66.642037 C12.1244444,66.7525926 12.2192593,66.862037 12.3194444,66.9681481 C13.5492593,68.2712963 14.9951852,69.8068519 16.357037,71.2542593 L18.2635185,73.2833333 C18.2696296,73.2898148 18.2762963,73.2953704 18.2825926,73.3016667 C19.9135185,75.0362963 21.1162963,76.3172222 21.1414815,76.3438889 C21.8412963,77.0892593 23.0135185,77.1262963 23.7590741,76.4261111 C24.5046296,75.7259259 24.5414815,74.5540741 23.8411111,73.8085185 C23.8074074,73.7725926 21.6396296,71.4642593 19.1640741,68.832963 L14.917963,64.3138889 C14.9072222,64.3024074 14.8974074,64.2903704 14.8866667,64.2788889 C13.8911111,63.0881481 13.9035185,61.3616667 14.947037,60.1835185 C15.8701852,59.1416667 17.4375926,58.9416667 18.5925926,59.7181481 L25.0701852,64.0740741 C30.2272222,67.5416667 33.77,72.8005556 35.0459259,78.8824074 L38.0801852,93.3433333 C38.2633333,94.2161111 39.0331481,94.8151852 39.8907407,94.8151852 C40.0166667,94.8151852 40.1446296,94.8022222 40.2727778,94.7753704 C41.2737037,94.5653704 41.9148148,93.5835185 41.7048148,92.5825926 L38.6707407,78.1218519 Z" id="Shape" fill="#000000"></path>
                    <path d="M13.7083333,82.5496296 C13.1138889,81.717037 11.9575926,81.5237037 11.1251852,82.1177778 C10.2927778,82.7118519 10.0994444,83.8683333 10.6933333,84.7007407 L10.7051852,84.7174074 C11.0666667,85.2238889 11.6361111,85.4938889 12.2142593,85.4938889 C12.5864815,85.4938889 12.9622222,85.382037 13.2883333,85.1492593 C14.1207407,84.5551852 14.3140741,83.3987037 13.7201852,82.5662963 L13.7083333,82.5496296 Z" id="Shape" fill="#000000"></path>
                    <path d="M92.4953704,30.3387037 C91.0212963,29.1559259 89.117037,28.7125926 87.2725926,29.1218519 C84.4133333,29.7562963 82.4162963,32.245 82.4162963,35.1738889 L82.4162963,57.487963 C80.2453704,55.2740741 76.7535185,54.8985185 74.1561111,56.6448148 L67.6781481,61.0005556 C61.7157407,65.0094444 57.6196296,71.09 56.1442593,78.1218519 L53.1101852,92.5827778 C52.9001852,93.5837037 53.5412963,94.5653704 54.5422222,94.7753704 C54.6703704,94.8022222 54.7985185,94.8151852 54.9242593,94.8151852 C55.782037,94.8151852 56.5516667,94.2159259 56.7348148,93.3431481 L59.7688889,78.8822222 C61.045,72.8005556 64.5875926,67.5414815 69.7446296,64.0740741 L76.2225926,59.7183333 C77.3772222,58.9416667 78.9446296,59.1416667 79.8681481,60.1835185 C80.9103704,61.3601852 80.9242593,63.0838889 79.9324074,64.2746296 C79.9205556,64.2875926 79.9092593,64.3009259 79.8974074,64.3138889 C79.8974074,64.3138889 71.0075926,73.772963 70.9740741,73.8085185 C70.2738889,74.5540741 70.3107407,75.7259259 71.0561111,76.4261111 C71.8016667,77.1262963 72.9735185,77.0894444 73.6737037,76.3438889 C73.6988889,76.3172222 81.2659259,68.2714815 82.4957407,66.9683333 C82.5959259,66.8622222 82.6907407,66.7527778 82.782963,66.6422222 C84.9351852,64.2518519 86.1201852,61.1794444 86.1201852,57.9546296 L86.1201852,35.1737037 C86.1201852,33.9946296 86.9240741,32.9927778 88.0751852,32.7374074 C88.8183333,32.5725926 89.5842593,32.7512963 90.1777778,33.2272222 C90.7711111,33.7033333 91.1114815,34.4127778 91.1114815,35.1737037 L91.1114815,63.887037 C91.1114815,66.8762963 90.1968519,69.7446296 88.4664815,72.1822222 L74.4755556,91.8909259 C73.8835185,92.7248148 74.0796296,93.8809259 74.9135185,94.472963 C75.2390741,94.7038889 75.6131481,94.815 75.9838889,94.815 C76.5635185,94.815 77.1344444,94.5435185 77.4955556,94.035 L91.4864815,74.3262963 C93.6640741,71.2587037 94.8151852,67.6488889 94.8151852,63.8872222 L94.8151852,35.1737037 C94.8146296,33.2837037 93.9694444,31.5214815 92.4953704,30.3387037 Z" id="Shape" fill="#000000"></path>
                    <path d="M65.3290741,58.4568519 C66.3516667,58.4568519 67.1809259,57.6277778 67.1809259,56.605 L67.1809259,49.9514815 C67.1809259,49.722037 67.1716667,49.4946296 67.1583333,49.2681481 L75.692037,49.2681481 C76.7146296,49.2681481 77.5438889,48.4390741 77.5438889,47.4162963 L77.5438889,43.9577778 C77.5438889,39.9133333 74.7964815,36.4322222 70.8625926,35.4925926 L67.567963,34.7055556 L67.567963,34.1148148 C69.7092593,32.6148148 71.1133333,30.1309259 71.1133333,27.3238889 L71.1133333,23.0407407 C71.1133333,18.4705556 67.3953704,14.7525926 62.8251852,14.7525926 C60.7742593,14.7525926 58.8964815,15.502963 57.4477778,16.7414815 C55.8348148,12.7914815 51.9535185,10 47.4307407,10 C42.9022222,10 39.017037,12.7987037 37.4077778,16.7562963 C35.9568519,15.5088889 34.0722222,14.7522222 32.012963,14.7522222 C27.4427778,14.7522222 23.7248148,18.4701852 23.7248148,23.0403704 L23.7248148,23.325 L23.7248148,27.3235185 C23.7248148,30.1305556 25.1288889,32.6144444 27.2701852,34.1144444 L27.2701852,34.7051852 L23.9755556,35.4922222 C20.0418519,36.432037 17.2944444,39.912963 17.2944444,43.9574074 L17.2944444,47.4159259 C17.2944444,48.4387037 18.1237037,49.2677778 19.1462963,49.2677778 L27.6559259,49.2677778 C27.6427778,49.4924074 27.6337037,49.7181481 27.6337037,49.9457407 L27.6337037,56.6046296 C27.6337037,57.6274074 28.462963,58.4564815 29.4855556,58.4564815 L40.617037,58.4564815 C41.6396296,58.4564815 42.4688889,57.6274074 42.4688889,56.6046296 C42.4688889,55.5818519 41.6396296,54.7527778 40.617037,54.7527778 L38.7037037,54.7527778 L38.7037037,50.9259259 C38.7037037,49.9031481 37.8744444,49.0740741 36.8518519,49.0740741 C35.8292593,49.0740741 35,49.9031481 35,50.9259259 L35,54.7531481 L31.3375926,54.7531481 L31.3375926,49.9461111 C31.3375926,46.3744444 33.7635185,43.2987037 37.2364815,42.4664815 L42.3183333,41.2487037 L45.7192593,48.9861111 C46.0148148,49.6585185 46.68,50.0927778 47.4142593,50.0927778 L47.4144444,50.0927778 C48.1488889,50.0927778 48.8140741,49.6587037 49.1096296,48.9862963 L52.507037,41.2603704 L57.5727778,42.4705556 C61.0490741,43.3011111 63.477037,46.3772222 63.477037,49.9514815 L63.477037,54.7531481 L59.8146296,54.7531481 L59.8146296,50.9259259 C59.8146296,49.9031481 58.9853704,49.0740741 57.9627778,49.0740741 C56.9401852,49.0740741 56.1109259,49.9031481 56.1109259,50.9259259 L56.1109259,54.7531481 L54.0122222,54.7531481 C52.9896296,54.7531481 52.1603704,55.5822222 52.1603704,56.605 C52.1603704,57.6277778 52.9896296,58.4568519 54.0122222,58.4568519 L65.3290741,58.4568519 Z M41.5392593,35.9898148 C41.0635185,35.78 40.5675926,35.6122222 40.0564815,35.4898148 L36.7483333,34.697037 L36.7483333,34.12 C37.3453704,33.7027778 37.8851852,33.2096296 38.3533333,32.6537037 C39.1803704,33.9277778 40.267037,35.0172222 41.5392593,35.847037 L41.5392593,35.9898148 Z M27.4287037,27.3235185 L27.4287037,26.4414815 L30.0133333,26.4414815 C32.2805556,26.4414815 34.5175926,25.992037 36.5975926,25.1301852 L36.5975926,27.3233333 C36.5975926,29.8511111 34.5411111,31.9077778 32.0131481,31.9077778 C29.4851852,31.9077778 27.4287037,29.8514815 27.4287037,27.3235185 Z M40.317963,26.7824074 L40.317963,24.8264815 L42.8492593,24.8264815 C45.7859259,24.8264815 48.5781481,23.7344444 50.7181481,21.7866667 L54.537037,24.0303704 L54.537037,27.0533333 C54.3938889,30.8501852 51.2622222,33.8953704 47.4309259,33.8953704 C43.5087037,33.8955556 40.317963,30.7046296 40.317963,26.7824074 Z M53.2857407,35.9957407 L53.2857407,35.8703704 C54.5683333,35.0411111 55.6646296,33.9488889 56.4981481,32.6692593 C56.9631481,33.2188889 57.4983333,33.7066667 58.0896296,34.12 L58.0896296,34.697037 L54.7812963,35.4898148 C54.2657407,35.6135185 53.7653704,35.7833333 53.2857407,35.9957407 Z M58.2407407,27.3235185 L58.2407407,27.0531481 C58.242963,26.962963 58.2475926,26.8731481 58.2475926,26.7824074 L58.2475926,25.1331481 C60.3255556,25.9931481 62.5601852,26.4416667 64.825,26.4416667 L67.4096296,26.4416667 L67.4096296,27.3237037 C67.4096296,29.8514815 65.3531481,31.9081481 62.8251852,31.9081481 C60.2972222,31.9081481 58.2407407,29.8514815 58.2407407,27.3235185 Z M62.825,18.4559259 C65.2512963,18.4559259 67.2431481,20.3505556 67.3994444,22.737963 L64.8248148,22.737963 C62.6603704,22.737963 60.5303704,22.2168519 58.6157407,21.2246296 C59.3201852,19.5972222 60.942037,18.4559259 62.825,18.4559259 Z M40.317963,20.8166667 C40.317963,16.8946296 43.5087037,13.7037037 47.4309259,13.7037037 C50.9685185,13.7037037 53.9109259,16.2996296 54.4542593,19.6862963 L51.3366667,17.8546296 C50.5568519,17.3964815 49.5601852,17.5685185 48.9792593,18.262037 C47.4557407,20.0801852 45.2214815,21.122963 42.8492593,21.122963 L40.317963,21.122963 L40.317963,20.8166667 Z M32.0131481,18.4559259 C33.8962963,18.4559259 35.517963,19.5974074 36.2224074,21.2244444 C34.3075926,22.2166667 32.1777778,22.7377778 30.0133333,22.7377778 L27.4387037,22.7377778 C27.595,20.3505556 29.587037,18.4559259 32.0131481,18.4559259 Z M36.3735185,38.8646296 C32.7301852,39.7375926 29.8668519,42.2777778 28.5040741,45.5642593 L20.9981481,45.5642593 L20.9981481,43.9575926 C20.9981481,41.6342593 22.5762963,39.6344444 24.8361111,39.0946296 L29.5524074,37.967963 C30.3859259,37.7688889 30.9740741,37.0238889 30.9740741,36.1668519 L30.9740741,35.5442593 C31.3148148,35.587037 31.6611111,35.6116667 32.0131481,35.6116667 C32.3625926,35.6116667 32.7064815,35.5874074 33.0446296,35.5451852 L33.0446296,36.0735185 C33.0433333,36.1011111 33.0427778,36.1287037 33.0425926,36.1562963 C33.0422222,36.7638889 33.3409259,37.3590741 33.8894444,37.7138889 C34.0961111,37.8477778 34.3194444,37.9348148 34.5474074,37.9783333 L37.3098148,38.6401852 L36.3735185,38.8646296 Z M47.4148148,43.6394444 L45.2427778,38.6981481 L45.2427778,37.3766667 C45.9496296,37.5224074 46.6812963,37.5992593 47.4305556,37.5992593 C48.167037,37.5992593 48.8862963,37.5246296 49.5818519,37.3837037 L49.5818519,38.7107407 L47.4148148,43.6394444 Z M58.4333333,38.8681481 L57.5035185,38.6461111 L60.2807407,37.9805556 C60.5118519,37.9375926 60.7388889,37.8494444 60.9483333,37.7138889 C61.4959259,37.3596296 61.7937037,36.7644444 61.7937037,36.1568519 C61.7937037,36.1424074 61.7935185,36.1277778 61.7931481,36.1133333 L61.7931481,35.5451852 C62.1314815,35.5874074 62.4751852,35.6116667 62.8246296,35.6116667 C63.1766667,35.6116667 63.522963,35.587037 63.8637037,35.5442593 L63.8637037,36.1668519 C63.8637037,37.0238889 64.4518519,37.7688889 65.2853704,37.967963 L70.0016667,39.0946296 C72.2614815,39.6346296 73.8398148,41.6342593 73.8398148,43.9575926 L73.8398148,45.5642593 L66.3083333,45.5642593 C64.9442593,42.2777778 62.0790741,39.7390741 58.4333333,38.8681481 Z" id="Shape" fill="#000000"></path>
                    <path d="M47.4074074,54.7537037 C46.9183333,54.7537037 46.4425926,54.95 46.0981481,55.2944444 C45.7518519,55.6407407 45.5555556,56.1166667 45.5555556,56.6055556 C45.5555556,57.0925926 45.7518519,57.5685185 46.0981481,57.9148148 C46.4425926,58.2592593 46.9185185,58.4574074 47.4074074,58.4574074 C47.8944444,58.4574074 48.3703704,58.2592593 48.7164815,57.9148148 C49.0609259,57.5685185 49.2592593,57.0925926 49.2592593,56.6055556 C49.2592593,56.1166667 49.0611111,55.6407407 48.7164815,55.2944444 C48.3701852,54.95 47.8944444,54.7537037 47.4074074,54.7537037 Z" id="Shape" fill="#000000"></path>
                    <path d="M47.4062963,6.47462963 C48.4288889,6.47462963 49.2581481,5.64555556 49.2581481,4.62277778 L49.2581481,1.85185185 C49.2581481,0.829074074 48.4288889,0 47.4062963,0 C46.3837037,0 45.5544444,0.829074074 45.5544444,1.85185185 L45.5544444,4.62277778 C45.5544444,5.64555556 46.3837037,6.47462963 47.4062963,6.47462963 Z" id="Shape" fill="#000000"></path>
                    <path d="M37.9672222,8.66055556 C38.3287037,9.02185185 38.8024074,9.20240741 39.2759259,9.20240741 C39.7501852,9.20240741 40.2242593,9.0212963 40.5859259,8.65944444 C41.3087037,7.93592593 41.3081481,6.76333333 40.5846296,6.04055556 L38.642037,4.09981481 C37.9185185,3.37685185 36.7461111,3.37740741 36.0231481,4.10092593 C35.3001852,4.82444444 35.3009259,5.99703704 36.0244444,6.71981481 L37.9672222,8.66055556 Z" id="Shape" fill="#000000"></path>
                    <path d="M55.5085185,9.2387037 C55.9827778,9.2387037 56.457037,9.05759259 56.8185185,8.69555556 L58.7461111,6.76611111 C59.4688889,6.04259259 59.4683333,4.87 58.7448148,4.14722222 C58.0212963,3.42444444 56.8485185,3.42481481 56.1259259,4.14851852 L54.1983333,6.07796296 C53.4755556,6.80148148 53.4761111,7.97407407 54.1996296,8.69685185 C54.5611111,9.05814815 55.0348148,9.2387037 55.5085185,9.2387037 Z" id="Shape" fill="#000000"></path>
                </g>
            </g>
        </g>
    </g>
</svg>