<?xml version="1.0" encoding="UTF-8"?>
<svg width="69px" height="95px" viewBox="0 0 69 95" version="1.1" xmlns="http://www.w3.org/2000/svg" xmlns:xlink="http://www.w3.org/1999/xlink">
    <!-- Generator: Sketch 50.2 (55047) - http://www.bohemiancoding.com/sketch -->
    <title>007-resume</title>
    <desc>Created with Sketch.</desc>
    <defs></defs>
    <g id="Page-2" stroke="none" stroke-width="1" fill="none" fill-rule="evenodd">
        <g id="Microsoft-Surface-Hub" transform="translate(-1209.000000, -668.000000)" fill-rule="nonzero">
            <g id="fp3" transform="translate(1138.000000, 626.000000)">
                <g id="007-resume" transform="translate(71.000000, 42.000000)">
                    <rect id="Rectangle-path" fill="#EFE7E4" x="6.00240741" y="1.39222222" width="56.5288889" height="70.5748148"></rect>
                    <rect id="Rectangle-path" fill="#D8D1D0" x="58.8188889" y="1.39222222" width="3.71240741" height="70.5748148"></rect>
                    <rect id="Rectangle-path" fill="#EFE7E4" x="3.35185185" y="88.4240741" width="19.8261111" height="4.9987037"></rect>
                    <path d="M5.99740741,71.9677778 L25.5305556,71.9677778 L25.5305556,76.802037 C25.5305556,78.7490741 24.8622222,80.6372222 23.637037,82.1503704 L21.8172222,84.3983333 L21.8172222,88.4240741 L13.2657407,88.4240741 L5.02111111,88.4240741 L5.02111111,84.3983333 L3.39407407,82.8959259 C2.1387037,81.7364815 1.42462963,80.1055556 1.42462963,78.3966667 L1.42462963,63.377963 C3.95,63.377963 5.99722222,65.4251852 5.99722222,67.9505556 L5.99722222,73.0346296 C5.99722222,73.0346296 15.9685185,74.1161111 15.9685185,81.0772222" id="Shape" fill="#FFC89F"></path>
                    <rect id="Rectangle-path" fill="#EFE7E4" x="45.3390741" y="88.4240741" width="19.8261111" height="4.9987037"></rect>
                    <g id="Group" transform="translate(19.444444, 88.333333)" fill="#D8D1D0">
                        <rect id="Rectangle-path" x="0.022962963" y="0.0907407407" width="3.71240741" height="4.9987037"></rect>
                        <rect id="Rectangle-path" x="42.0083333" y="0.0907407407" width="3.71240741" height="4.9987037"></rect>
                    </g>
                    <rect id="Rectangle-path" fill="#546F7A" x="18.9977778" y="9.34407407" width="30.9503704" height="33.8144444"></rect>
                    <path d="M34.4042593,28.6153704 C37.3744444,28.6153704 39.8042593,26.1853704 39.8042593,23.2153704 L39.8042593,18.5685185 C39.8042593,15.5983333 37.3742593,13.1685185 34.4042593,13.1685185 C31.4340741,13.1685185 29.0042593,15.5985185 29.0042593,18.5685185 L29.0042593,23.2153704 C29.0040741,26.1855556 31.4342593,28.6153704 34.4042593,28.6153704 Z" id="Shape" fill="#FFC89F"></path>
                    <path d="M34.4042593,13.1685185 C33.752963,13.1685185 33.1275926,13.2853704 32.5481481,13.4992593 C34.6109259,14.2603704 36.092037,16.2498148 36.092037,18.5685185 L36.092037,23.2153704 C36.092037,25.5338889 34.6109259,27.5235185 32.5481481,28.2846296 C33.1275926,28.4985185 33.752963,28.6153704 34.4042593,28.6153704 C37.3742593,28.6153704 39.8042593,26.1853704 39.8042593,23.2153704 L39.8042593,18.5685185 C39.8042593,15.5987037 37.3742593,13.1685185 34.4042593,13.1685185 Z" id="Shape" fill="#F7B081"></path>
                    <path d="M67.0942593,63.3777778 C64.5687037,63.3777778 62.5214815,65.425 62.5214815,67.9503704 L62.5214815,71.9675926 L46.5794444,71.9675926 L42.9883333,71.9675926 L42.9883333,76.8018519 C42.9883333,78.7488889 43.6566667,80.637037 44.8818519,82.1503704 L46.7018519,84.3983333 L46.7018519,88.4240741 L55.2531481,88.4240741 L63.4977778,88.4240741 L63.4977778,84.3983333 L65.1248148,82.8959259 C66.3801852,81.7364815 67.0942593,80.1055556 67.0942593,78.3966667 L67.0942593,63.3777778 Z" id="Shape" fill="#FFC89F"></path>
                    <g id="Group" transform="translate(5.925926, 71.851852)" fill="#F7B081">
                        <path d="M19.5974074,3.82166667 L3.78907407,3.82166667 C1.7387037,3.82166667 0.0766666667,2.15962963 0.0766666667,0.109259259 L19.5974074,0.109259259 L19.5974074,3.82166667 Z" id="Shape"></path>
                        <path d="M52.8853704,3.82166667 L37.0575926,3.82166667 L37.0575926,0.109259259 L56.5977778,0.109259259 C56.5977778,2.15925926 54.9357407,3.82166667 52.8853704,3.82166667 Z" id="Shape"></path>
                    </g>
                    <path d="M34.4042593,43.1594444 L23.1048148,43.1594444 L23.1048148,39.5316667 C23.1048148,33.5687037 28.442037,28.687963 34.4042593,28.6062963 C40.3666667,28.6877778 45.7037037,33.5688889 45.7037037,39.5316667 L45.7037037,43.1594444 L34.4042593,43.1594444 Z" id="Shape" fill="#68B9D8"></path>
                    <path d="M34.4042593,28.6061111 C33.7764815,28.6146296 33.1564815,28.6794444 32.5481481,28.79 C37.717963,29.7303704 41.9914815,34.1962963 41.9914815,39.5312963 L41.9914815,43.1590741 L45.7037037,43.1590741 L45.7037037,39.5314815 C45.7037037,33.5688889 40.3664815,28.6877778 34.4042593,28.6061111 Z" id="Shape" fill="#3695B2"></path>
                    <path d="M35.7012963,33.1038889 L34.4042593,33.1038889 L33.1072222,33.1038889 L31.6566667,28.9862963 C32.5448148,28.7505556 33.4668519,28.6188889 34.4042593,28.6061111 C35.3416667,28.6188889 36.2637037,28.7505556 37.1518519,28.9862963 L35.7012963,33.1038889 Z" id="Shape" fill="#D3333C"></path>
                    <polygon id="Shape" fill="#F2464F" points="34.4042593 40.8968519 31.6031481 38.3333333 33.1072222 33.1038889 34.4042593 33.1038889 35.7012963 33.1038889 37.2051852 38.3333333"></polygon>
                    <path d="M66.0692593,83.9185185 C67.6051852,82.5 68.4862963,80.4875926 68.4862963,78.3964815 L68.4862963,63.3777778 C68.4862963,62.6087037 67.8631481,61.9855556 67.0940741,61.9855556 C65.9296296,61.9855556 64.8427778,62.3222222 63.9237037,62.9016667 L63.9237037,51.752963 C63.9237037,50.9838889 63.3005556,50.3607407 62.5314815,50.3607407 C61.7624074,50.3607407 61.1392593,50.9838889 61.1392593,51.752963 L61.1392593,67.6127778 C61.132963,67.7244444 61.1290741,67.837037 61.1290741,67.9503704 L61.1290741,70.5755556 L42.987963,70.5755556 L25.5301852,70.5755556 L7.39388889,70.5755556 L7.39388889,21.2411111 C7.39388889,20.472037 6.77074074,19.8488889 6.00166667,19.8488889 C5.23259259,19.8488889 4.60944444,20.472037 4.60944444,21.2411111 L4.60944444,62.9111111 C3.68703704,62.3261111 2.59481481,61.9855556 1.42425926,61.9855556 C0.655185185,61.9855556 0.032037037,62.6087037 0.032037037,63.3777778 L0.032037037,78.3964815 C0.032037037,80.4875926 0.912962963,82.5001852 2.44907407,83.9185185 L3.62851852,85.0075926 L3.62851852,87.0318519 L3.35203704,87.0318519 C2.58296296,87.0318519 1.95981481,87.655 1.95981481,88.4240741 L1.95981481,93.4227778 C1.95981481,94.1918519 2.58296296,94.815 3.35203704,94.815 L23.1787037,94.815 C23.9477778,94.815 24.5709259,94.1918519 24.5709259,93.4227778 L24.5709259,88.4240741 C24.5709259,87.6651852 23.9637037,87.0496296 23.2088889,87.0333333 L23.2088889,84.8912963 L24.7187037,83.0262963 C26.1398148,81.2711111 26.9224074,79.0607407 26.9224074,76.802037 L26.9224074,73.3598148 L41.5959259,73.3598148 L41.5959259,76.802037 C41.5959259,79.0603704 42.3785185,81.2707407 43.7996296,83.0261111 L45.3094444,84.8912963 L45.3094444,87.0333333 C44.5546296,87.0494444 43.9475926,87.6651852 43.9475926,88.4240741 L43.9475926,93.4227778 C43.9475926,94.1918519 44.5707407,94.815 45.3398148,94.815 L65.1661111,94.815 C65.9351852,94.815 66.5583333,94.1918519 66.5583333,93.4227778 L66.5583333,88.4240741 C66.5583333,87.655 65.9351852,87.0318519 65.1661111,87.0318519 L64.8898148,87.0318519 L64.8898148,85.0077778 L66.0692593,83.9185185 Z M21.7868519,92.0305556 L4.74462963,92.0305556 L4.74462963,89.8161111 L5.02111111,89.8161111 L13.2657407,89.8161111 L21.7868519,89.8161111 L21.7868519,92.0305556 Z M24.1383333,76.802037 C24.1383333,78.425 23.5761111,80.0131481 22.555,81.2744444 L20.735,83.5224074 C20.5342593,83.7701852 20.4248148,84.0794444 20.4248148,84.3983333 L20.4248148,87.0318519 L13.2657407,87.0318519 L6.41314815,87.0318519 L6.41314815,84.3983333 C6.41314815,84.0098148 6.25092593,83.6390741 5.96555556,83.3755556 L4.33833333,81.8727778 C3.3712963,80.9798148 2.81666667,79.7127778 2.81666667,78.3962963 L2.81666667,65.0907407 C3.87462963,65.607963 4.60518519,66.695 4.60518519,67.95 L4.60518519,73.0342593 C4.60518519,73.7435185 5.14055556,74.3396296 5.84537037,74.4181481 C5.8687037,74.4207407 8.1987037,74.6892593 10.4588889,75.7366667 C13.1912963,77.0022222 14.5764815,78.7990741 14.5764815,81.077037 C14.5764815,81.8461111 15.1996296,82.4692593 15.9687037,82.4692593 C16.7377778,82.4692593 17.3609259,81.8461111 17.3609259,81.077037 C17.3609259,77.7624074 15.4890741,75.1014815 11.9418519,73.3598148 L24.1383333,73.3598148 L24.1383333,76.802037 Z M63.7740741,92.0305556 L46.732037,92.0305556 L46.732037,89.8161111 L63.4975926,89.8161111 L63.7740741,89.8161111 L63.7740741,92.0305556 Z M48.0938889,87.0316667 L48.0938889,84.3981481 C48.0938889,84.0792593 47.9844444,83.77 47.7837037,83.5222222 L45.9637037,81.2742593 C44.9425926,80.0127778 44.3803704,78.4246296 44.3803704,76.8018519 L44.3803704,73.3596296 L56.5759259,73.3596296 C53.0290741,75.1012963 51.1575926,77.7625926 51.1575926,81.0768519 C51.1575926,81.8459259 51.7807407,82.4690741 52.5498148,82.4690741 C53.3188889,82.4690741 53.942037,81.8459259 53.942037,81.0768519 C53.942037,78.7988889 55.3274074,77.0022222 58.0596296,75.7364815 C60.3201852,74.6892593 62.65,74.4205556 62.6712963,74.4181481 C63.377963,74.3414815 63.9133333,73.7448148 63.9133333,73.0340741 L63.9133333,72.1290741 C63.9194444,72.0759259 63.9235185,72.0222222 63.9235185,71.9672222 L63.9235185,67.7012963 C64.0127778,66.5525926 64.7142593,65.5733333 65.7018519,65.0907407 L65.7018519,78.3962963 C65.7018519,79.7127778 65.1472222,80.9798148 64.1803704,81.8727778 L62.5531481,83.3753704 C62.2675926,83.6388889 62.1053704,84.0096296 62.1053704,84.3981481 L62.1053704,87.0316667 L48.0938889,87.0316667 Z" id="Shape" fill="#000000"></path>
                    <path d="M6.00203704,17.9927778 C6.77111111,17.9927778 7.39425926,17.3696296 7.39425926,16.6005556 L7.39425926,2.78425926 L61.1394444,2.78425926 L61.1394444,47.1124074 C61.1394444,47.8814815 61.7625926,48.5046296 62.5316667,48.5046296 C63.3007407,48.5046296 63.9238889,47.8814815 63.9238889,47.1124074 L63.9238889,1.39222222 C63.9238889,0.623148148 63.3007407,0 62.5316667,0 L6.00203704,0 C5.23296296,0 4.60981481,0.623148148 4.60981481,1.39222222 L4.60981481,16.6007407 C4.60981481,17.3694444 5.23296296,17.9927778 6.00203704,17.9927778 Z" id="Shape" fill="#000000"></path>
                    <path d="M51.3401852,9.34425926 C51.3401852,8.57518519 50.717037,7.95203704 49.947963,7.95203704 L18.9983333,7.95203704 C18.2292593,7.95203704 17.6061111,8.57518519 17.6061111,9.34425926 L17.6061111,43.1592593 C17.6061111,43.9283333 18.2292593,44.5514815 18.9983333,44.5514815 L23.105,44.5514815 L45.7037037,44.5514815 L49.9481481,44.5514815 C50.7172222,44.5514815 51.3403704,43.9283333 51.3403704,43.1592593 L51.3403704,9.34425926 L51.3401852,9.34425926 Z M30.3962963,20.7905556 C34.0601852,20.2505556 35.4366667,17.705 35.4366667,17.705 C35.4366667,17.705 36.2811111,19.9301852 38.4122222,20.6609259 L38.4122222,23.2151852 C38.4122222,25.3844444 36.6785185,27.1525926 34.5244444,27.217037 C34.4907407,27.2162963 34.4568519,27.2144444 34.4231481,27.2140741 C34.4105556,27.2137037 34.3977778,27.2137037 34.3851852,27.2140741 C34.3514815,27.2144444 34.3175926,27.2162963 34.2838889,27.217037 C32.13,27.1525926 30.3962963,25.3846296 30.3962963,23.2151852 L30.3962963,20.7903704 L30.3962963,20.7905556 Z M35.6288889,37.8887037 L34.4038889,39.0096296 L33.1790741,37.8887037 L34.1548148,34.4961111 L34.6527778,34.4961111 L35.6288889,37.8887037 Z M34.7157407,31.7118519 L34.0927778,31.7118519 L33.5088889,30.0544444 C33.5298148,30.0522222 33.5511111,30.0507407 33.572037,30.0487037 C33.6951852,30.0362963 33.8181481,30.0251852 33.9412963,30.0174074 C34.0490741,30.0107407 34.157963,30.0074074 34.2664815,30.0042593 C34.3125926,30.0051852 34.357963,30.0077778 34.4042593,30.0077778 C34.4505556,30.0077778 34.4959259,30.0051852 34.542037,30.0042593 C34.6507407,30.0074074 34.7594444,30.0107407 34.8674074,30.0174074 C34.9898148,30.0251852 35.1118519,30.0361111 35.2342593,30.0485185 C35.2559259,30.0505556 35.2781481,30.0522222 35.2998148,30.0544444 L34.7157407,31.7118519 Z M30.7937037,30.7268519 L31.6462963,33.1468519 L30.2653704,37.9485185 C30.1192593,38.4564815 30.2735185,39.0035185 30.6635185,39.3601852 L33.2933333,41.7672222 L24.4972222,41.7672222 L24.4972222,39.5318519 C24.497037,35.642963 27.1468519,32.1814815 30.7937037,30.7268519 Z M35.5151852,41.7672222 L38.1451852,39.3601852 C38.5351852,39.0033333 38.6894444,38.4566667 38.5431481,37.9485185 L37.1622222,33.1468519 L38.0148148,30.7268519 C41.6616667,32.1812963 44.3114815,35.642963 44.3114815,39.5318519 L44.3114815,41.7672222 L35.5151852,41.7672222 Z M48.5559259,41.7674074 L47.0959259,41.7672222 L47.0959259,39.5318519 C47.0959259,34.5074074 43.7135185,30.0351852 39.0583333,28.1559259 C40.3733333,26.9164815 41.1964815,25.1609259 41.1964815,23.2155556 L41.1964815,18.5687037 C41.1964815,14.8235185 38.1494444,11.7764815 34.4040741,11.7764815 C30.6588889,11.7764815 27.6118519,14.8235185 27.6118519,18.5687037 L27.6118519,23.2155556 C27.6118519,25.1609259 28.435,26.9164815 29.75,28.1559259 C25.0948148,30.0351852 21.7125926,34.5075926 21.7125926,39.532037 L21.7125926,41.7674074 L20.3901852,41.7674074 L20.3901852,10.7364815 L48.5559259,10.7364815 L48.5559259,41.7674074 Z" id="Shape" fill="#000000"></path>
                    <path d="M51.3401852,57.0066667 C51.3401852,56.2375926 50.717037,55.6144444 49.947963,55.6144444 L18.8416667,55.6144444 C18.0725926,55.6144444 17.4494444,56.2375926 17.4494444,57.0066667 C17.4494444,57.7757407 18.0725926,58.3988889 18.8416667,58.3988889 L49.9481481,58.3988889 C50.717037,58.3988889 51.3401852,57.7757407 51.3401852,57.0066667 Z" id="Shape" fill="#000000"></path>
                    <path d="M49.9481481,49.0618519 L18.8416667,49.0618519 C18.0725926,49.0618519 17.4494444,49.685 17.4494444,50.4540741 C17.4494444,51.222963 18.0725926,51.8462963 18.8416667,51.8462963 L49.9481481,51.8462963 C50.7172222,51.8462963 51.3403704,51.222963 51.3403704,50.4540741 C51.3401852,49.685 50.717037,49.0618519 49.9481481,49.0618519 Z" id="Shape" fill="#000000"></path>
                    <path d="M18.8416667,62.167037 C18.0725926,62.167037 17.4494444,62.7901852 17.4494444,63.5592593 C17.4494444,64.3283333 18.0725926,64.9514815 18.8416667,64.9514815 L40.2888889,64.9514815 C41.057963,64.9514815 41.6811111,64.3283333 41.6811111,63.5592593 C41.6811111,62.7901852 41.057963,62.167037 40.2888889,62.167037 L18.8416667,62.167037 Z" id="Shape" fill="#000000"></path>
                </g>
            </g>
        </g>
    </g>
</svg>