<?xml version="1.0" encoding="UTF-8"?>
<svg width="95px" height="95px" viewBox="0 0 95 95" version="1.1" xmlns="http://www.w3.org/2000/svg" xmlns:xlink="http://www.w3.org/1999/xlink">
    <!-- Generator: Sketch 50.2 (55047) - http://www.bohemiancoding.com/sketch -->
    <title>006-process</title>
    <desc>Created with Sketch.</desc>
    <defs></defs>
    <g id="Page-2" stroke="none" stroke-width="1" fill="none" fill-rule="evenodd">
        <g id="Microsoft-Surface-Hub" transform="translate(-1418.000000, -668.000000)" fill-rule="nonzero">
            <g id="fsd" transform="translate(1360.000000, 626.000000)">
                <g id="006-process" transform="translate(58.000000, 42.000000)">
                    <circle id="Oval" fill="#FBBD5E" cx="47.417604" cy="47.417604" r="47.417604"></circle>
                    <g id="Group" transform="translate(9.594059, 2.445545)" fill="#183651">
                        <rect id="Rectangle-path" x="54.5678119" y="34.3030891" width="2.96362376" height="2.96362376"></rect>
                        <rect id="Rectangle-path" x="63.6067327" y="34.3030891" width="2.96362376" height="2.96362376"></rect>
                        <rect id="Rectangle-path" x="72.497604" y="34.3030891" width="2.96362376" height="2.96362376"></rect>
                        <rect id="Rectangle-path" x="0.185861386" y="52.6774059" width="2.96362376" height="2.96362376"></rect>
                        <rect id="Rectangle-path" x="9.07654455" y="52.6774059" width="2.96362376" height="2.96362376"></rect>
                        <rect id="Rectangle-path" x="18.1154653" y="52.6774059" width="2.96362376" height="2.96362376"></rect>
                        <polygon id="Shape" points="17.9674158 9.85328713 15.8928416 7.77890099 18.5601782 4.96351485 15.8928416 2.14794059 17.9674158 0.0735544554 22.8573762 4.96351485"></polygon>
                        <rect id="Rectangle-path" x="11.4474059" y="3.48170297" width="9.18715842" height="2.96362376"></rect>
                    </g>
                    <rect id="Rectangle-path" fill="#4FBF9F" x="37.6376832" y="81.3506634" width="19.5596535" height="12.0025446"></rect>
                    <path d="M57.1973366,94.8350198 L37.6376832,94.8350198 C36.7486337,94.8350198 36.1558713,94.2422574 36.1558713,93.3532079 L36.1558713,81.3506634 C36.1558713,80.4616139 36.7486337,79.8688515 37.6376832,79.8688515 L57.1973366,79.8688515 C58.0863861,79.8688515 58.6791485,80.4616139 58.6791485,81.3506634 L58.6791485,93.3532079 C58.6791485,94.2422574 58.0863861,94.8350198 57.1973366,94.8350198 Z M39.119495,91.871396 L55.7157129,91.871396 L55.7157129,82.8324752 L39.119495,82.8324752 L39.119495,91.871396 Z" id="Shape" fill="#183651"></path>
                    <rect id="Rectangle-path" fill="#E0E4E8" x="37.6376832" y="61.3464851" width="19.5596535" height="12.0025446"></rect>
                    <path d="M57.1973366,74.8308416 L37.6376832,74.8308416 C36.7486337,74.8308416 36.1558713,74.2380792 36.1558713,73.3490297 L36.1558713,61.3464851 C36.1558713,60.4574356 36.7486337,59.8646733 37.6376832,59.8646733 L57.1973366,59.8646733 C58.0863861,59.8646733 58.6791485,60.4574356 58.6791485,61.3464851 L58.6791485,73.3490297 C58.6791485,74.2380792 58.0863861,74.8308416 57.1973366,74.8308416 Z M39.119495,71.8672178 L55.7157129,71.8672178 L55.7157129,62.828297 L39.119495,62.828297 L39.119495,71.8672178 Z" id="Shape" fill="#183651"></path>
                    <rect id="Rectangle-path" fill="#4FBF9F" x="37.6376832" y="41.4903564" width="19.5596535" height="12.0025446"></rect>
                    <path d="M57.1973366,54.8264752 L37.6376832,54.8264752 C36.7486337,54.8264752 36.1558713,54.2337129 36.1558713,53.3446634 L36.1558713,41.3421188 C36.1558713,40.4530693 36.7486337,39.8603069 37.6376832,39.8603069 L57.1973366,39.8603069 C58.0863861,39.8603069 58.6791485,40.4530693 58.6791485,41.3421188 L58.6791485,53.3446634 C58.6791485,54.2337129 58.0863861,54.8264752 57.1973366,54.8264752 Z M39.119495,51.8628515 L55.7157129,51.8628515 L55.7157129,42.8239307 L39.119495,42.8239307 L39.119495,51.8628515 Z" id="Shape" fill="#183651"></path>
                    <rect id="Rectangle-path" fill="#E0E4E8" x="37.6376832" y="21.4859901" width="19.5596535" height="12.0025446"></rect>
                    <path d="M57.1973366,34.9703465 L37.6376832,34.9703465 C36.7486337,34.9703465 36.1558713,34.3775842 36.1558713,33.4885347 L36.1558713,21.4859901 C36.1558713,20.5969406 36.7486337,20.0041782 37.6376832,20.0041782 L57.1973366,20.0041782 C58.0863861,20.0041782 58.6791485,20.5969406 58.6791485,21.4859901 L58.6791485,33.4885347 C58.6791485,34.2295347 58.0863861,34.9703465 57.1973366,34.9703465 Z M39.119495,32.0069109 L55.7157129,32.0069109 L55.7157129,22.9679901 L39.119495,22.9679901 L39.119495,32.0069109 Z" id="Shape" fill="#183651"></path>
                    <rect id="Rectangle-path" fill="#4FBF9F" x="37.6376832" y="1.48181188" width="19.5596535" height="12.0025446"></rect>
                    <g id="Group" transform="translate(0.940594, 0.000000)" fill="#183651">
                        <path d="M56.2567426,14.9661683 L36.6970891,14.9661683 C35.8080396,14.9661683 35.2152772,14.3734059 35.2152772,13.4843564 L35.2152772,1.48181188 C35.2152772,0.592762376 35.8080396,0 36.6970891,0 L56.2567426,0 C57.1457921,0 57.7385545,0.592762376 57.7385545,1.48181188 L57.7385545,13.4843564 C57.7385545,14.2251683 57.1457921,14.9661683 56.2567426,14.9661683 Z M38.178901,12.0025446 L54.7751188,12.0025446 L54.7751188,2.96362376 L38.178901,2.96362376 L38.178901,12.0025446 Z" id="Shape"></path>
                        <polygon id="Shape" points="62.7767525 91.7233465 60.7021782 89.6487723 63.3693267 86.9814356 60.7021782 84.1660495 62.7767525 82.0916634 67.5184752 86.9814356"></polygon>
                        <rect id="Rectangle-path" x="56.2567426" y="85.4996238" width="9.18715842" height="2.96362376"></rect>
                        <polygon id="Shape" points="27.8062178 91.1305842 25.5835941 89.0560099 28.3989802 86.2406238 25.5835941 83.4252376 27.8062178 81.3506634 32.5479406 86.2406238"></polygon>
                        <path d="M30.3253168,87.7224356 L11.0619505,87.7224356 C4.98665347,87.7224356 0.0966930693,82.8324752 0.0966930693,76.7571782 C0.0966930693,70.6818812 5.13489109,65.9399703 11.2101881,65.9399703 L36.6970891,65.9399703 L36.6970891,68.9035941 L11.2101881,68.9035941 C6.76475248,68.9035941 3.20855446,72.4599802 3.20855446,76.9052277 C3.20855446,81.3504752 6.76494059,84.9068614 11.2101881,84.9068614 L30.4735545,84.9068614 L30.4735545,87.7222475 L30.3253168,87.7222475 L30.3253168,87.7224356 Z" id="Shape"></path>
                        <polygon id="Shape" points="27.8062178 51.1220396 25.5835941 49.0474653 28.3989802 46.3803168 25.5835941 43.5649307 27.8062178 41.4903564 32.5479406 46.3803168"></polygon>
                        <path d="M30.3253168,47.8621287 L11.0619505,47.8621287 C4.98665347,47.8621287 0.0966930693,42.9721683 0.0966930693,36.8968713 C0.0966930693,30.8215743 5.13489109,25.9316139 11.2101881,25.9316139 L36.6970891,25.9316139 L36.6970891,28.8950495 L11.2101881,28.8950495 C6.76475248,28.8950495 3.20855446,32.4514356 3.20855446,36.8966832 C3.20855446,41.3419307 6.76494059,44.8983168 11.2101881,44.8983168 L30.4735545,44.8983168 L30.4735545,47.8619406 L30.3253168,47.8619406 L30.3253168,47.8621287 Z" id="Shape"></path>
                        <polygon id="Shape" points="65.1476139 71.8672178 60.4058911 66.9772574 65.1476139 62.2355347 67.3702376 64.3099208 64.5548515 66.9772574 67.3702376 69.7926436"></polygon>
                        <path d="M81.7436436,68.4590693 L62.4802772,68.4590693 L62.4802772,65.4954455 L81.7436436,65.4954455 C86.1890792,65.4954455 89.7452772,61.9390594 89.7452772,57.4938119 L89.7452772,56.753 C89.7452772,52.3075644 86.1888911,48.7513663 81.7436436,48.7513663 L56.2567426,48.7513663 L56.2567426,45.7877426 L81.7436436,45.7877426 C87.8189406,45.7877426 92.708901,50.677703 92.708901,56.753 L92.708901,57.4938119 C92.7090891,63.5691089 87.8191287,68.4590693 81.7436436,68.4590693 Z" id="Shape"></path>
                        <polygon id="Shape" points="65.1476139 32.0069109 60.4058911 27.1169505 65.1476139 22.2269901 67.3702376 24.3015644 64.5548515 27.1169505 67.3702376 29.9323366"></polygon>
                        <path d="M81.7436436,28.5987624 L62.4802772,28.5987624 L62.4802772,25.6351386 L81.7436436,25.6351386 C86.1890792,25.6351386 89.7452772,22.0787525 89.7452772,17.633505 L89.7452772,16.8926931 C89.7452772,12.4472574 86.1888911,8.89105941 81.7436436,8.89105941 L56.2567426,8.89105941 L56.2567426,5.92724752 L81.7436436,5.92724752 C87.8189406,5.92724752 92.708901,10.8172079 92.708901,16.892505 L92.708901,17.6333168 C92.7090891,23.708802 87.8191287,28.5987624 81.7436436,28.5987624 Z" id="Shape"></path>
                    </g>
                    <rect id="Rectangle-path" fill="#F06151" x="73.7935545" y="81.3506634" width="19.5596535" height="12.0025446"></rect>
                    <path d="M93.3532079,94.8350198 L73.7935545,94.8350198 C72.904505,94.8350198 72.3117426,94.2422574 72.3117426,93.3532079 L72.3117426,81.3506634 C72.3117426,80.4616139 72.904505,79.8688515 73.7935545,79.8688515 L93.3532079,79.8688515 C94.2422574,79.8688515 94.8350198,80.4616139 94.8350198,81.3506634 L94.8350198,93.3532079 C94.8350198,94.2422574 94.2422574,94.8350198 93.3532079,94.8350198 Z M75.2753663,91.871396 L91.8715842,91.871396 L91.8715842,82.8324752 L75.2753663,82.8324752 L75.2753663,91.871396 Z" id="Shape" fill="#183651"></path>
                    <rect id="Rectangle-path" fill="#F06151" x="1.48181188" y="1.48181188" width="19.5596535" height="12.0025446"></rect>
                    <path d="M21.0414653,14.9661683 L1.48181188,14.9661683 C0.592762376,14.9661683 0,14.3734059 0,13.4843564 L0,1.48181188 C0,0.592762376 0.592762376,0 1.48181188,0 L21.0414653,0 C21.9305149,0 22.5232772,0.592762376 22.5232772,1.48181188 L22.5232772,13.4843564 C22.5232772,14.2251683 21.9305149,14.9661683 21.0414653,14.9661683 Z M2.96362376,12.0025446 L19.5598416,12.0025446 L19.5598416,2.96362376 L2.96362376,2.96362376 L2.96362376,12.0025446 Z" id="Shape" fill="#183651"></path>
                </g>
            </g>
        </g>
    </g>
</svg>