<?xml version="1.0" encoding="UTF-8"?>
<svg width="69px" height="95px" viewBox="0 0 69 95" version="1.1" xmlns="http://www.w3.org/2000/svg" xmlns:xlink="http://www.w3.org/1999/xlink">
    <!-- Generator: Sketch 50.2 (55047) - http://www.bohemiancoding.com/sketch -->
    <title>004-ux</title>
    <desc>Created with Sketch.</desc>
    <defs></defs>
    <g id="Page-2" stroke="none" stroke-width="1" fill="none" fill-rule="evenodd">
        <g id="Microsoft-Surface-Hub" transform="translate(-1441.000000, -594.000000)" fill-rule="nonzero">
            <g id="ux" transform="translate(1370.000000, 540.000000)">
                <g id="004-ux" transform="translate(71.000000, 54.000000)">
                    <polyline id="Shape" fill="#FFFFFF" points="67.0490903 77.3127051 67.0490903 93.1226538 1.682134 93.1226538 1.682134 1.66298718 55.9539958 1.66298718 67.0490903 11.6404231 67.0490903 67.2570769"></polyline>
                    <path d="M67.0490903,94.785641 L1.682134,94.785641 C0.779186873,94.785641 0.0478763056,94.0414744 0.0478763056,93.1226538 L0.0478763056,1.66298718 C0.0478763056,0.744166667 0.779186873,0 1.682134,0 L55.954714,0 C56.3535236,0 56.7382097,0.148102564 57.0364791,0.417269231 L68.1308554,10.3947051 C68.4822675,10.7099103 68.6831086,11.1629872 68.6831086,11.6401795 L68.6831086,67.2568333 C68.6831086,68.1756538 67.951798,68.9198205 67.0488509,68.9198205 C66.1459038,68.9198205 65.4145932,68.1756538 65.4145932,67.2568333 L65.4145932,12.3901923 L55.335434,3.32573077 L3.3161523,3.32573077 L3.3161523,91.4596667 L65.4148326,91.4596667 L65.4148326,77.3134359 C65.4148326,76.3946154 66.1461431,75.6504487 67.0490903,75.6504487 C67.9520374,75.6504487 68.683348,76.3946154 68.683348,77.3134359 L68.683348,93.1226538 C68.683348,94.0414744 67.9520374,94.785641 67.0490903,94.785641 Z" id="Shape" fill="#602F75"></path>
                    <g id="Group" transform="translate(3.111960, 1.461538)">
                        <rect id="Rectangle-path" fill="#00E7FF" x="0.204192443" y="80.0209359" width="62.0986803" height="9.9774359"></rect>
                        <polygon id="Shape" fill="#FFFFFF" points="63.9371304 10.1788846 52.4980447 10.1788846 52.4980447 0.201448718"></polygon>
                    </g>
                    <path d="M67.0490903,13.3031667 L55.6097652,13.3031667 C54.7068181,13.3031667 53.9755075,12.559 53.9755075,11.6401795 L53.9755075,1.66298718 C53.9755075,1.01357692 54.347267,0.424089744 54.9265703,0.152974359 C55.5075493,-0.118141026 56.1905048,-0.0207051282 56.6726192,0.401679487 L68.1119442,10.3791154 C68.6323597,10.8304872 68.8188379,11.5646667 68.5808927,12.2174872 C68.3451019,12.8700641 67.7339608,13.3031667 67.0490903,13.3031667 Z M57.2440229,9.9774359 L62.6320223,9.9774359 L57.2440229,5.27810256 L57.2440229,9.9774359 Z" id="Shape" fill="#602F75"></path>
                    <rect id="Rectangle-path" fill="#EA3457" x="1.682134" y="36.5840128" width="53.9278706" height="28.2693205"></rect>
                    <path d="M55.6100046,66.5163205 L1.682134,66.5163205 C0.779186873,66.5163205 0.0478763056,65.7721538 0.0478763056,64.8533333 L0.0478763056,36.5840128 C0.0478763056,35.6651923 0.779186873,34.9210256 1.682134,34.9210256 L55.6100046,34.9210256 C56.5129517,34.9210256 57.2442623,35.6651923 57.2442623,36.5840128 L57.2442623,64.8533333 C57.2440229,65.7721538 56.5127123,66.5163205 55.6100046,66.5163205 Z M3.3161523,63.1903462 L53.9757469,63.1903462 L53.9757469,38.2467564 L3.3161523,38.2467564 L3.3161523,63.1903462 Z" id="Shape" fill="#602F75"></path>
                    <g id="Group" transform="translate(19.629285, 42.871795)" fill="#FFE600">
                        <path d="M10.8901838,0.0876923077 L10.8901838,9.30512821 C10.8901838,10.9288974 10.4080694,12.2053077 9.44384065,13.1338718 C8.47961186,14.0626795 7.15511387,14.5274487 5.47034667,14.5274487 C3.78557948,14.5274487 2.48142892,14.0602436 1.55885251,13.1238846 C0.636276101,12.1877692 0.17546666,10.9023462 0.17546666,9.26517949 L0.17546666,0.0876923077 L1.80302167,0.0876923077 L1.80302167,9.38332051 C1.80302167,10.5722821 2.12259601,11.4842821 2.76054778,12.1212692 C3.39849955,12.7582564 4.33759328,13.0758974 5.57543516,13.0758974 C6.75606486,13.0758974 7.66643281,12.7558205 8.30462396,12.1163974 C8.94281512,11.4769744 9.26215007,10.5591282 9.26215007,9.36334615 L9.26215007,0.0876923077 L10.8901838,0.0876923077 Z" id="Shape"></path>
                        <polygon id="Shape" points="23.9122996 14.3330641 22.0640348 14.3330641 18.3014359 8.06817949 14.4708527 14.3330641 12.7475451 14.3330641 17.4008826 6.88896154 13.06305 0.0876923077 14.8631991 0.0876923077 18.3390188 5.72898718 21.8435644 0.0876923077 23.5766867 0.0876923077 19.238854 6.83001282"></polygon>
                    </g>
                </g>
            </g>
        </g>
    </g>
</svg>