<?xml version="1.0" encoding="UTF-8"?>
<svg width="67px" height="95px" viewBox="0 0 67 95" version="1.1" xmlns="http://www.w3.org/2000/svg" xmlns:xlink="http://www.w3.org/1999/xlink">
    <!-- Generator: Sketch 50.2 (55047) - http://www.bohemiancoding.com/sketch -->
    <title>003-file</title>
    <desc>Created with Sketch.</desc>
    <defs></defs>
    <g id="Page-2" stroke="none" stroke-width="1" fill="none" fill-rule="evenodd">
        <g id="Microsoft-Surface-Hub" transform="translate(-987.000000, -668.000000)" fill-rule="nonzero">
            <g id="wad" transform="translate(916.000000, 626.000000)">
                <g id="003-file" transform="translate(71.000000, 42.000000)">
                    <polygon id="Shape" fill="#E2E4CC" points="64.7139329 88.2655563 1.66813777 88.2655563 1.66813777 1.57722706 50.5289898 1.57722706 64.7139329 15.7628919"></polygon>
                    <polygon id="Shape" stroke="#000000" fill="#D0CCAA" opacity="0.100000001" points="50.5289898 1.57722706 50.5289898 15.7628919 64.7139329 15.7628919"></polygon>
                    <polygon id="Shape" fill="#E3005D" points="1.66813777 64.6230224 64.7139329 64.6230224 64.7139329 92.9936302 1.66813777 92.9936302"></polygon>
                    <path d="M45.8001945,41.8513544 L45.8001945,40.1125084 L45.3319325,40.0540657 C43.9026155,39.8758522 42.6399679,38.9559232 42.1327445,37.6066941 C42.0678082,37.4349741 41.998543,37.264697 41.9227842,37.0973061 C41.3210425,35.7423048 41.5750151,34.1549765 42.4855642,32.9839612 L42.7222204,32.6809258 L41.4927625,31.4514678 L41.1904486,31.686681 C40.0194331,32.5972303 38.4321048,32.8512028 37.0763822,32.249461 C36.9075481,32.1751451 36.7394357,32.104437 36.566994,32.0395009 C35.2184865,31.5322773 34.299279,30.2696297 34.1196224,28.8403127 L34.0611799,28.3734938 L32.3230554,28.3734938 L32.2646129,28.8403127 C32.0863992,30.2696297 31.1657487,31.5322773 29.8165196,32.0395009 C29.6447996,32.104437 29.4745226,32.1737022 29.307853,32.249461 C27.9521303,32.8512028 26.364802,32.5972303 25.1937867,31.686681 L24.8914728,31.4500247 L23.6620148,32.6794827 L23.8979494,32.9817966 C24.8092202,34.1535335 25.0631927,35.7386973 24.4607296,37.0958631 C24.3871352,37.264697 24.3157054,37.4328095 24.2514908,37.6052511 C23.7435457,38.9544803 22.4816198,39.8729661 21.0515812,40.0526228 L20.5818764,40.1110653 L20.5818764,41.8491898 L21.0501382,41.9076325 C22.4794552,42.085846 23.7421026,43.0064966 24.2500477,44.3557256 C24.3142625,44.5274456 24.3835277,44.6977228 24.4592865,44.8643921 C25.0617498,46.2201149 24.8077773,47.8074432 23.8965065,48.9784586 L23.6605717,49.2807726 L24.8900297,50.5102305 L25.1923436,50.2757387 C26.363359,49.3644679 27.9506874,49.1104954 29.3056885,49.7129587 C29.4745226,49.7872745 29.6433565,49.8579829 29.8150766,49.9221975 C31.1643056,50.4301425 32.0835131,51.69279 32.2631698,53.122107 L32.3208908,53.5889258 L34.0597369,53.5889258 L34.1181794,53.122107 C34.2963932,51.69279 35.2163219,50.4301425 36.5655511,49.9221975 C36.7372711,49.8579829 36.9075481,49.7887176 37.0749391,49.7129587 C38.4306619,49.1104954 40.0172687,49.3644679 41.1882842,50.2757387 L41.4913194,50.5102305 L42.7207773,49.2807726 L42.4841211,48.9784586 C41.5728505,47.8074432 41.3195994,46.221558 41.9213412,44.8643921 C41.9956569,44.6962797 42.0663653,44.5274456 42.1313014,44.3557256 C42.6385249,43.0064966 43.9011726,42.0872891 45.3304895,41.9076325 L45.8001945,41.8513544 Z" id="Shape" fill="#A09086"></path>
                    <polygon id="Shape" fill="#FFFFFF" points="30.0387455 37.8289202 36.3433251 37.8289202 36.3433251 44.1334996 30.0387455 44.1334996"></polygon>
                    <g id="Group" fill="#4D007E">
                        <path d="M64.7139329,94.5701357 L1.66813777,94.5701357 C0.797993149,94.5701357 0.0923536482,93.8652177 0.0923536482,92.9936302 L0.0923536482,1.57722706 C0.0923536482,0.705639501 0.797993149,0.00144302575 1.66813777,0.00144302575 L50.5289898,0.00144302575 C50.9467458,0.00144302575 51.3486284,0.166669521 51.6430056,0.463211174 L65.8286703,14.6481545 C66.1244906,14.9432532 66.2904385,15.3436927 66.2904385,15.7628919 L66.2904385,92.9936302 C66.2904385,93.8652177 65.5840774,94.5701357 64.7139329,94.5701357 Z M3.24464336,91.417846 L63.1381488,91.417846 L63.1381488,16.4151395 L49.8760207,3.15373283 L3.24464336,3.15373283 L3.24464336,91.417846 Z" id="Shape"></path>
                        <path d="M64.7139329,17.338676 L50.5289898,17.338676 C49.6588451,17.338676 48.9524842,16.6344794 48.9524842,15.7628919 L48.9524842,1.57722706 C48.9524842,0.940852791 49.3370505,0.36364249 49.9250835,0.121214163 C50.5145595,-0.124821681 51.1920601,0.0108227024 51.6430056,0.463211174 L65.8286703,14.6481545 C66.2788943,15.0991 66.4145387,15.7766005 66.1706675,16.3660766 C65.9260746,16.9555526 65.3510288,17.338676 64.7139329,17.338676 Z M52.1047739,14.1863863 L60.9093956,14.1863863 L52.1047739,5.38248606 L52.1047739,14.1863863 Z" id="Shape"></path>
                        <path d="M64.7139329,94.5701357 L1.66813777,94.5701357 C0.797993149,94.5701357 0.0923536482,93.8652177 0.0923536482,92.9936302 L0.0923536482,64.6230224 C0.0923536482,63.7514348 0.797993149,63.0472383 1.66813777,63.0472383 L64.7139329,63.0472383 C65.5840774,63.0472383 66.2904385,63.7514348 66.2904385,64.6230224 L66.2904385,92.9936302 C66.2904385,93.8652177 65.5840774,94.5701357 64.7139329,94.5701357 Z M3.24464336,91.417846 L63.1381488,91.417846 L63.1381488,66.199528 L3.24464336,66.199528 L3.24464336,91.417846 Z" id="Shape"></path>
                        <path d="M34.0611799,55.1661531 L32.3208908,55.1661531 C31.5265052,55.1661531 30.8554981,54.573791 30.7573724,53.7858988 L30.6996513,53.317637 C30.5892599,52.4395559 30.0250369,51.6862964 29.2587902,51.3962482 C29.0697537,51.3269829 28.8691732,51.2432876 28.6722002,51.158149 C27.879979,50.8017215 26.898,50.9467458 26.1613354,51.5189054 L25.8590215,51.7541185 C25.2320268,52.2454689 24.3395155,52.1877479 23.7767352,51.6249679 L22.5458344,50.3955099 C21.9830543,49.8341728 21.9282193,48.9402185 22.4166835,48.3132237 L22.6533397,48.0109099 C23.2334361,47.2634224 23.3748526,46.3052533 23.0191468,45.5058172 C22.9318438,45.3124516 22.8517558,45.1118711 22.775997,44.913455 C22.4873919,44.1472084 21.7341324,43.5815423 20.8546082,43.4725938 L20.3863464,43.4148728 C19.5970112,43.3153039 19.0060923,42.64574 19.0060923,41.8513544 L19.0060923,40.1110653 C19.0060923,39.3166797 19.5970112,38.6449511 20.3863464,38.5475468 L20.8531652,38.4891043 C21.7326893,38.3801559 22.4859487,37.8144898 22.7745539,37.0504078 C22.8503129,36.8498271 22.9318438,36.6499681 23.0191468,36.4558812 C23.3734097,35.6571664 23.2334361,34.6982758 22.6533397,33.9515099 L22.4166835,33.649196 C21.9282193,33.0214799 21.9852189,32.1275254 22.5458344,31.5669099 L23.7767352,30.337452 C24.3395155,29.7746719 25.2320268,29.7176724 25.8590215,30.2083011 L26.1613354,30.4427928 C26.898,31.0120665 27.8814221,31.1599766 28.6664281,30.8071567 C28.8727807,30.7169676 29.0711968,30.6354367 29.2710558,30.5611209 C30.0250369,30.2761232 30.590703,29.5221423 30.6996513,28.6447827 L30.7573724,28.1765209 C30.8554981,27.3886288 31.5265052,26.7955451 32.3208908,26.7955451 L34.0611799,26.7955451 C34.8555655,26.7955451 35.527294,27.3886288 35.6246983,28.1765209 L35.6831408,28.6447827 C35.7935322,29.5221423 36.3577554,30.2761232 37.124002,30.5661715 C37.3130385,30.6354367 37.5114545,30.7191322 37.7084275,30.8035492 C38.5028131,31.1585335 39.4862352,31.0149524 40.2207353,30.4427928 L40.5237707,30.2083011 C41.1507653,29.7176724 42.0447198,29.7746719 42.6053353,30.337452 L43.8347932,31.5669099 C44.3961303,32.1275254 44.4531299,33.0200367 43.9653872,33.6470314 L43.7308954,33.950067 C43.1493561,34.6982758 43.0093825,35.6571664 43.3650885,36.4558812 C43.4502269,36.6463606 43.5324794,36.846941 43.6082383,37.0482432 C43.8982863,37.8144898 44.651546,38.3801559 45.5296271,38.4891043 L45.9957243,38.5475468 C46.7836164,38.6449511 47.3767001,39.3166797 47.3767001,40.1110653 L47.3767001,41.8513544 C47.3767001,42.64574 46.785781,43.3167471 45.9957243,43.4148728 L45.5296271,43.4725938 C44.6501028,43.5815423 43.8961219,44.1472084 43.6096812,44.9120121 C43.5324794,45.1154786 43.4502269,45.3153378 43.3622024,45.5123108 C43.0093825,46.3052533 43.1507992,47.2634224 43.7308954,48.0109099 L43.9675516,48.3146668 C44.4560159,48.9423829 44.3990164,49.8341728 43.8362363,50.3955099 L42.6067784,51.6249679 C42.0461629,52.1855833 41.1522084,52.2425829 40.5252138,51.7541185 L40.2221784,51.5189054 C39.4862352,50.9453026 38.5042563,50.8017215 37.7178071,51.1552629 C37.5114545,51.2447305 37.3130385,51.3269829 37.1110148,51.4005773 C36.3577554,51.6862964 35.7935322,52.4395559 35.6831408,53.317637 L35.6246983,53.7858988 C35.5258511,54.573791 34.8555655,55.1661531 34.0611799,55.1661531 Z M27.74217,47.8074432 C28.4939865,47.8074432 29.2443599,47.9618469 29.947835,48.2735404 C30.0784288,48.3319831 30.2198453,48.3904256 30.3605404,48.4423745 C31.5899983,48.9077503 32.5784709,49.7966542 33.1910353,50.9279863 C33.8028782,49.7966542 34.7891863,48.9091934 36.0092646,48.4474252 C36.1636683,48.3904256 36.3043634,48.3319831 36.4428938,48.2706546 C37.649985,47.7345704 39.0006571,47.6667481 40.256811,48.0469855 C39.8787382,46.7908316 39.9436743,45.4387164 40.4826445,44.2244103 C40.5490237,44.0801078 40.6053018,43.9379696 40.6586936,43.7972747 C41.1190189,42.5779179 42.0064797,41.5908883 43.1385333,40.9797668 C42.0064797,40.3679239 41.1175758,39.3794513 40.6572507,38.1600945 C40.6053018,38.0208425 40.5490237,37.879426 40.4855305,37.7401741 C39.9451174,36.5237033 39.8787382,35.1679807 40.256811,33.9118267 C39.0028215,34.2884565 37.6470988,34.2242417 36.4335142,33.6852717 C36.3021988,33.6268292 36.1622254,33.5683865 36.0200874,33.5164376 C34.7913509,33.0532264 33.8014352,32.1628794 33.1895923,31.0308258 C32.5784709,32.1628794 31.5914413,33.0496189 30.36992,33.5113872 C30.2169593,33.5683865 30.0755427,33.6268292 29.9362908,33.6881578 C28.7277567,34.2256848 27.3770846,34.292064 26.1223736,33.9118267 C26.5004464,35.1679807 26.4362318,36.5208172 25.8965402,37.734402 C25.8337685,37.8758185 25.775326,38.0179565 25.721934,38.1615376 C25.2616088,39.3816159 24.3741481,40.3679239 23.2428159,40.9797668 C24.3741481,41.5908883 25.2630519,42.579361 25.7233771,43.7994391 C25.7767691,43.9408556 25.8352116,44.0829936 25.8965402,44.2244103 C26.4362318,45.4387164 26.5018895,46.7908316 26.1223736,48.0469855 C26.6519642,47.8889741 27.1974279,47.8074432 27.74217,47.8074432 Z M45.8001945,41.8513544 L45.8160677,41.8513544 L45.8001945,41.8513544 Z" id="Shape"></path>
                        <path d="M15.8538024,52.0138632 C15.4028569,52.0138632 14.9533543,51.8219408 14.6416608,51.4481971 L6.76057556,41.9913279 C6.27355451,41.4069024 6.27355451,40.5569603 6.76057556,39.9725348 L14.6416608,30.5156657 C15.1993902,29.8453801 16.1921919,29.7587985 16.8610344,30.3136421 C17.5291554,30.8713715 17.6207876,31.8648947 17.0623365,32.5344586 L10.0218138,40.9812099 L17.0623365,49.427961 C17.6207876,50.097525 17.5291554,51.0917698 16.8610344,51.6480563 C16.5673786,51.8940921 16.2102298,52.0138632 15.8538024,52.0138632 Z" id="Shape"></path>
                        <path d="M50.5289898,52.0138632 C50.1725623,52.0138632 49.8146919,51.8940921 49.5203147,51.6502207 C48.8514724,51.0917698 48.7620048,50.0989681 49.3182911,49.4294041 L56.3573709,40.9826529 L49.3182911,32.5359017 C48.7605617,31.8663378 48.8514724,30.8713715 49.5203147,30.315085 C50.1884357,29.7587985 51.1812374,29.8468232 51.7389668,30.5171086 L59.620052,39.9739779 C60.1070732,40.5584033 60.1070732,41.4083455 59.620052,41.9927709 L51.7389668,51.4496402 C51.4272733,51.8219408 50.9799353,52.0138632 50.5289898,52.0138632 Z" id="Shape"></path>
                        <path d="M36.3433251,45.7092838 L30.0387455,45.7092838 C29.1686011,45.7092838 28.4629614,45.0050872 28.4629614,44.1334996 L28.4629614,37.8289202 C28.4629614,36.9573327 29.1686011,36.2524144 30.0387455,36.2524144 L36.3433251,36.2524144 C37.2134696,36.2524144 37.9198307,36.9573327 37.9198307,37.8289202 L37.9198307,44.1334996 C37.9198307,45.0050872 37.2134696,45.7092838 36.3433251,45.7092838 Z M31.6152511,42.556994 L34.767541,42.556994 L34.767541,39.4047043 L31.6152511,39.4047043 L31.6152511,42.556994 Z" id="Shape"></path>
                        <path d="M20.5818764,88.2655563 C19.7117318,88.2655563 19.0060923,87.5606381 19.0060923,86.6890506 L19.0060923,72.8648638 C19.0060923,72.6650048 18.8437517,72.5041074 18.6453357,72.5041074 L13.0622691,72.5041074 C12.863853,72.5041074 12.7015127,72.6650048 12.7015127,72.8648638 L12.7015127,86.6890506 C12.7015127,87.5606381 11.9951515,88.2655563 11.1250071,88.2655563 C10.2548625,88.2655563 9.54922297,87.5606381 9.54922297,86.6890506 L9.54922297,72.8648638 C9.54922297,70.9276018 11.1250071,69.3518177 13.0622691,69.3518177 L18.6453357,69.3518177 C20.5818764,69.3518177 22.158382,70.9276018 22.158382,72.8648638 L22.158382,86.6890506 C22.158382,87.5606381 21.4520208,88.2655563 20.5818764,88.2655563 Z" id="Shape"></path>
                        <path d="M20.5818764,80.3844711 L11.1250071,80.3844711 C10.2548625,80.3844711 9.54922297,79.6802746 9.54922297,78.808687 C9.54922297,77.9370995 10.2548625,77.2321812 11.1250071,77.2321812 L20.5818764,77.2321812 C21.4520208,77.2321812 22.158382,77.9370995 22.158382,78.808687 C22.158382,79.6802746 21.4520208,80.3844711 20.5818764,80.3844711 Z" id="Shape"></path>
                        <path d="M33.979649,88.2655563 L28.4629614,88.2655563 C27.592817,88.2655563 26.8864558,87.5606381 26.8864558,86.6890506 C26.8864558,85.817463 27.592817,85.1132664 28.4629614,85.1132664 L33.979649,85.1132664 C35.2827011,85.1132664 36.3433251,84.0526426 36.3433251,82.7488688 C36.3433251,81.445095 35.2827011,80.3844711 33.979649,80.3844711 L32.4031434,80.3844711 C29.3612451,80.3844711 26.8864558,77.9104035 26.8864558,74.8677836 C26.8864558,71.8258853 29.3612451,69.3518177 32.4031434,69.3518177 L37.9198307,69.3518177 C38.7899752,69.3518177 39.4956149,70.0560143 39.4956149,70.9276018 C39.4956149,71.7991894 38.7899752,72.5041074 37.9198307,72.5041074 L32.4031434,72.5041074 C31.0993696,72.5041074 30.0387455,73.5647314 30.0387455,74.8677836 C30.0387455,76.1715574 31.0993696,77.2321812 32.4031434,77.2321812 L33.979649,77.2321812 C37.0215473,77.2321812 39.4956149,79.7069705 39.4956149,82.7488688 C39.4956149,85.7907671 37.0215473,88.2655563 33.979649,88.2655563 Z" id="Shape"></path>
                        <path d="M45.8001945,88.2655563 C44.9300498,88.2655563 44.2244103,87.5606381 44.2244103,86.6890506 L44.2244103,70.9276018 C44.2244103,70.0560143 44.9300498,69.3518177 45.8001945,69.3518177 C46.6703389,69.3518177 47.3767001,70.0560143 47.3767001,70.9276018 L47.3767001,86.6890506 C47.3767001,87.5606381 46.6703389,88.2655563 45.8001945,88.2655563 Z" id="Shape"></path>
                        <path d="M50.5289898,81.9609767 L45.8001945,81.9609767 C44.9300498,81.9609767 44.2244103,81.2560587 44.2244103,80.3844711 L44.2244103,70.9276018 C44.2244103,70.0560143 44.9300498,69.3518177 45.8001945,69.3518177 L50.5289898,69.3518177 C54.0059604,69.3518177 56.8335692,72.1794267 56.8335692,75.6563971 C56.8335692,79.1333677 54.0059604,81.9609767 50.5289898,81.9609767 Z M47.3767001,78.808687 L50.5289898,78.808687 C52.2671142,78.808687 53.6812795,77.3945218 53.6812795,75.6563971 C53.6812795,73.9175512 52.2671142,72.5041074 50.5289898,72.5041074 L47.3767001,72.5041074 L47.3767001,78.808687 Z" id="Shape"></path>
                    </g>
                </g>
            </g>
        </g>
    </g>
</svg>